%TF.GenerationSoftware,KiCad,Pcbnew,(5.1.10-1-10_14)*%
%TF.CreationDate,2022-01-20T11:14:49-05:00*%
%TF.ProjectId,PCB_Design,5043425f-4465-4736-9967-6e2e6b696361,rev?*%
%TF.SameCoordinates,Original*%
%TF.FileFunction,Soldermask,Bot*%
%TF.FilePolarity,Negative*%
%FSLAX46Y46*%
G04 Gerber Fmt 4.6, Leading zero omitted, Abs format (unit mm)*
G04 Created by KiCad (PCBNEW (5.1.10-1-10_14)) date 2022-01-20 11:14:49*
%MOMM*%
%LPD*%
G01*
G04 APERTURE LIST*
%ADD10C,2.000000*%
%ADD11R,5.000000X5.000000*%
%ADD12R,2.514000X3.200000*%
%ADD13O,2.640000X3.300000*%
%ADD14C,3.800000*%
%ADD15R,4.700000X7.000000*%
%ADD16R,2.000000X2.000000*%
%ADD17R,1.800000X1.800000*%
%ADD18C,1.800000*%
%ADD19O,1.700000X1.950000*%
G04 APERTURE END LIST*
D10*
%TO.C,REF\u002A\u002A*%
X94742000Y-104736900D03*
%TD*%
%TO.C,REF\u002A\u002A*%
X102501700Y-155130500D03*
%TD*%
%TO.C,REF\u002A\u002A*%
X111531400Y-154165300D03*
%TD*%
%TO.C,REF\u002A\u002A*%
X101879400Y-122720100D03*
%TD*%
%TO.C,REF\u002A\u002A*%
X98437700Y-129425700D03*
%TD*%
%TO.C,REF\u002A\u002A*%
X88811100Y-129514600D03*
%TD*%
%TO.C,REF\u002A\u002A*%
X134239000Y-123596400D03*
%TD*%
%TO.C,REF\u002A\u002A*%
X78892400Y-129832100D03*
%TD*%
D11*
%TO.C,U1*%
X142423500Y-138954000D03*
%TD*%
D10*
%TO.C,REF\u002A\u002A*%
X139865100Y-154393900D03*
%TD*%
%TO.C,REF\u002A\u002A*%
X147777200Y-121615200D03*
%TD*%
%TO.C,REF\u002A\u002A*%
X130810000Y-154228800D03*
%TD*%
%TO.C,REF\u002A\u002A*%
X136791700Y-154546300D03*
%TD*%
%TO.C,REF\u002A\u002A*%
X154762200Y-107022900D03*
%TD*%
%TO.C,REF\u002A\u002A*%
X147904200Y-153504900D03*
%TD*%
%TO.C,REF\u002A\u002A*%
X126720600Y-153581100D03*
%TD*%
%TO.C,REF\u002A\u002A*%
X114261900Y-107340400D03*
%TD*%
%TO.C,REF\u002A\u002A*%
X117182900Y-118148100D03*
%TD*%
%TO.C,REF\u002A\u002A*%
X108826300Y-136753600D03*
%TD*%
%TO.C,REF\u002A\u002A*%
X144513300Y-155105100D03*
%TD*%
%TO.C,REF\u002A\u002A*%
X156591000Y-123418600D03*
%TD*%
%TO.C,REF\u002A\u002A*%
X137210800Y-126123700D03*
%TD*%
%TO.C,REF\u002A\u002A*%
X128168400Y-148183600D03*
%TD*%
%TO.C,REF\u002A\u002A*%
X141516100Y-107302300D03*
%TD*%
%TO.C,REF\u002A\u002A*%
X80352900Y-138785600D03*
%TD*%
%TO.C,REF\u002A\u002A*%
X96088200Y-138277600D03*
%TD*%
%TO.C,REF\u002A\u002A*%
X133223000Y-116954300D03*
%TD*%
%TO.C,REF\u002A\u002A*%
X87388700Y-139560300D03*
%TD*%
D12*
%TO.C,IC1*%
X132207000Y-100457000D03*
%TD*%
%TO.C,J1*%
X88392000Y-98552000D03*
%TD*%
D13*
%TO.C,SW_ONOFF1*%
X118110000Y-99568000D03*
G36*
G01*
X111242500Y-101281500D02*
X109102500Y-101281500D01*
G75*
G02*
X108852500Y-101031500I0J250000D01*
G01*
X108852500Y-98231500D01*
G75*
G02*
X109102500Y-97981500I250000J0D01*
G01*
X111242500Y-97981500D01*
G75*
G02*
X111492500Y-98231500I0J-250000D01*
G01*
X111492500Y-101031500D01*
G75*
G02*
X111242500Y-101281500I-250000J0D01*
G01*
G37*
%TD*%
D14*
%TO.C,Conn_OLED1*%
X72493500Y-140760000D03*
X72493500Y-112260000D03*
X102893500Y-112260000D03*
X102893500Y-140760000D03*
%TD*%
%TO.C,Tornillo vier*%
X154825700Y-156895800D03*
%TD*%
%TO.C,Tornillo drei*%
X67310000Y-156464000D03*
%TD*%
%TO.C,Tornillo zwei*%
X152654000Y-94234000D03*
%TD*%
%TO.C,Tornillo eins*%
X104394000Y-95758000D03*
%TD*%
D15*
%TO.C,Battery1*%
X67068500Y-139001500D03*
X148568500Y-139001500D03*
%TD*%
%TO.C,Battery2*%
X148568500Y-115062000D03*
X67068500Y-115062000D03*
%TD*%
D16*
%TO.C,Buzzer1*%
X109855000Y-127190500D03*
D10*
X117455000Y-127190500D03*
%TD*%
D17*
%TO.C,D1*%
X115519200Y-151790400D03*
D18*
X117678200Y-151790400D03*
X119837200Y-151790400D03*
X121996200Y-151790400D03*
%TD*%
%TO.C,Sens_Temp1*%
G36*
G01*
X153758000Y-100875000D02*
X153758000Y-102325000D01*
G75*
G02*
X153508000Y-102575000I-250000J0D01*
G01*
X152308000Y-102575000D01*
G75*
G02*
X152058000Y-102325000I0J250000D01*
G01*
X152058000Y-100875000D01*
G75*
G02*
X152308000Y-100625000I250000J0D01*
G01*
X153508000Y-100625000D01*
G75*
G02*
X153758000Y-100875000I0J-250000D01*
G01*
G37*
D19*
X150408000Y-101600000D03*
X147908000Y-101600000D03*
%TD*%
M02*
