%TF.GenerationSoftware,KiCad,Pcbnew,(5.1.10-1-10_14)*%
%TF.CreationDate,2022-01-20T11:14:49-05:00*%
%TF.ProjectId,PCB_Design,5043425f-4465-4736-9967-6e2e6b696361,rev?*%
%TF.SameCoordinates,Original*%
%TF.FileFunction,Copper,L2,Bot*%
%TF.FilePolarity,Positive*%
%FSLAX46Y46*%
G04 Gerber Fmt 4.6, Leading zero omitted, Abs format (unit mm)*
G04 Created by KiCad (PCBNEW (5.1.10-1-10_14)) date 2022-01-20 11:14:49*
%MOMM*%
%LPD*%
G01*
G04 APERTURE LIST*
%TA.AperFunction,ComponentPad*%
%ADD10C,2.000000*%
%TD*%
%TA.AperFunction,ComponentPad*%
%ADD11R,2.514000X3.200000*%
%TD*%
%TA.AperFunction,ComponentPad*%
%ADD12O,2.640000X3.300000*%
%TD*%
%TA.AperFunction,ComponentPad*%
%ADD13C,3.800000*%
%TD*%
%TA.AperFunction,SMDPad,CuDef*%
%ADD14R,4.700000X7.000000*%
%TD*%
%TA.AperFunction,ComponentPad*%
%ADD15R,2.000000X2.000000*%
%TD*%
%TA.AperFunction,ComponentPad*%
%ADD16R,1.800000X1.800000*%
%TD*%
%TA.AperFunction,ComponentPad*%
%ADD17C,1.800000*%
%TD*%
%TA.AperFunction,ComponentPad*%
%ADD18O,1.700000X1.950000*%
%TD*%
%TA.AperFunction,Conductor*%
%ADD19C,0.600000*%
%TD*%
%TA.AperFunction,Conductor*%
%ADD20C,1.000000*%
%TD*%
%TA.AperFunction,Conductor*%
%ADD21C,0.254000*%
%TD*%
%TA.AperFunction,Conductor*%
%ADD22C,0.100000*%
%TD*%
G04 APERTURE END LIST*
D10*
%TO.P,REF\u002A\u002A,1*%
%TO.N,/Batt*%
X94742000Y-104736900D03*
%TD*%
%TO.P,REF\u002A\u002A,1*%
%TO.N,GND*%
X102501700Y-155130500D03*
%TD*%
%TO.P,REF\u002A\u002A,1*%
%TO.N,GND*%
X111531400Y-154165300D03*
%TD*%
%TO.P,REF\u002A\u002A,1*%
%TO.N,GND*%
X101879400Y-122720100D03*
%TD*%
%TO.P,REF\u002A\u002A,1*%
%TO.N,GND*%
X98437700Y-129425700D03*
%TD*%
%TO.P,REF\u002A\u002A,1*%
%TO.N,GND*%
X88811100Y-129514600D03*
%TD*%
%TO.P,REF\u002A\u002A,1*%
%TO.N,GND*%
X134239000Y-123596400D03*
%TD*%
%TO.P,REF\u002A\u002A,1*%
%TO.N,GND*%
X78892400Y-129832100D03*
%TD*%
%TO.P,REF\u002A\u002A,1*%
%TO.N,/Button1/Sw*%
X139865100Y-154393900D03*
%TD*%
%TO.P,REF\u002A\u002A,1*%
%TO.N,Net-(Conn_prog1-Pad2)*%
X147777200Y-121615200D03*
%TD*%
%TO.P,REF\u002A\u002A,1*%
%TO.N,/Button3/Sw*%
X130810000Y-154228800D03*
%TD*%
%TO.P,REF\u002A\u002A,1*%
%TO.N,/Button2 /Sw*%
X136791700Y-154546300D03*
%TD*%
%TO.P,REF\u002A\u002A,1*%
%TO.N,Net-(4.7k1-Pad2)*%
X154762200Y-107022900D03*
%TD*%
%TO.P,REF\u002A\u002A,1*%
%TO.N,Net-(Conn_prog1-Pad3)*%
X147904200Y-153504900D03*
%TD*%
%TO.P,REF\u002A\u002A,1*%
%TO.N,/Button4/Sw*%
X126720600Y-153581100D03*
%TD*%
%TO.P,REF\u002A\u002A,1*%
%TO.N,Net-(FlagLED_R1-Pad2)*%
X114261900Y-107340400D03*
%TD*%
%TO.P,REF\u002A\u002A,1*%
%TO.N,Net-(Buzzer1-Pad2)*%
X117182900Y-118148100D03*
%TD*%
%TO.P,REF\u002A\u002A,1*%
%TO.N,/Button1/Sw*%
X108826300Y-136753600D03*
%TD*%
%TO.P,REF\u002A\u002A,1*%
%TO.N,Net-(Conn_prog1-Pad2)*%
X144513300Y-155105100D03*
%TD*%
%TO.P,REF\u002A\u002A,1*%
%TO.N,Net-(Conn_prog1-Pad3)*%
X156591000Y-123418600D03*
%TD*%
%TO.P,REF\u002A\u002A,1*%
%TO.N,Net-(4.7k1-Pad2)*%
X137210800Y-126123700D03*
%TD*%
%TO.P,REF\u002A\u002A,1*%
%TO.N,Net-(SW2-Pad1)*%
X128168400Y-148183600D03*
%TD*%
%TO.P,REF\u002A\u002A,1*%
%TO.N,/3.3v*%
X141516100Y-107302300D03*
%TD*%
%TO.P,REF\u002A\u002A,1*%
%TO.N,/Button4/Sw*%
X80352900Y-138785600D03*
%TD*%
%TO.P,REF\u002A\u002A,1*%
%TO.N,/Button2 /Sw*%
X96088200Y-138277600D03*
%TD*%
%TO.P,REF\u002A\u002A,1*%
%TO.N,Net-(SW2-Pad1)*%
X133223000Y-116954300D03*
%TD*%
%TO.P,REF\u002A\u002A,1*%
%TO.N,/Button3/Sw*%
X87388700Y-139560300D03*
%TD*%
D11*
%TO.P,IC1,9*%
%TO.N,GND*%
X132207000Y-100457000D03*
%TD*%
%TO.P,J1,9*%
%TO.N,GND*%
X88392000Y-98552000D03*
%TD*%
D12*
%TO.P,SW_ONOFF1,2*%
%TO.N,Net-(FlagLED_R1-Pad2)*%
X118110000Y-99568000D03*
%TO.P,SW_ONOFF1,1*%
%TO.N,/Batt*%
%TA.AperFunction,ComponentPad*%
G36*
G01*
X111242500Y-101281500D02*
X109102500Y-101281500D01*
G75*
G02*
X108852500Y-101031500I0J250000D01*
G01*
X108852500Y-98231500D01*
G75*
G02*
X109102500Y-97981500I250000J0D01*
G01*
X111242500Y-97981500D01*
G75*
G02*
X111492500Y-98231500I0J-250000D01*
G01*
X111492500Y-101031500D01*
G75*
G02*
X111242500Y-101281500I-250000J0D01*
G01*
G37*
%TD.AperFunction*%
%TD*%
D13*
%TO.P,Conn_OLED1,*%
%TO.N,*%
X72493500Y-140760000D03*
X72493500Y-112260000D03*
X102893500Y-112260000D03*
X102893500Y-140760000D03*
%TD*%
%TO.P,Tornillo vier,1*%
%TO.N,N/C*%
X154825700Y-156895800D03*
%TD*%
%TO.P,Tornillo drei,1*%
%TO.N,N/C*%
X67310000Y-156464000D03*
%TD*%
%TO.P,Tornillo zwei,1*%
%TO.N,N/C*%
X152654000Y-94234000D03*
%TD*%
%TO.P,Tornillo eins,1*%
%TO.N,N/C*%
X104394000Y-95758000D03*
%TD*%
D14*
%TO.P,Battery1,1*%
%TO.N,/Batt*%
X67068500Y-139001500D03*
%TO.P,Battery1,2*%
%TO.N,GND*%
X148568500Y-139001500D03*
%TD*%
%TO.P,Battery2,2*%
%TO.N,GND*%
X148568500Y-115062000D03*
%TO.P,Battery2,1*%
%TO.N,/Batt*%
X67068500Y-115062000D03*
%TD*%
D15*
%TO.P,Buzzer1,1*%
%TO.N,/Batt*%
X109855000Y-127190500D03*
D10*
%TO.P,Buzzer1,2*%
%TO.N,Net-(Buzzer1-Pad2)*%
X117455000Y-127190500D03*
%TD*%
D16*
%TO.P,D1,1*%
%TO.N,Net-(D1-Pad1)*%
X115519200Y-151790400D03*
D17*
%TO.P,D1,2*%
%TO.N,Net-(D1-Pad2)*%
X117678200Y-151790400D03*
%TO.P,D1,3*%
%TO.N,GND*%
X119837200Y-151790400D03*
%TO.P,D1,4*%
%TO.N,Net-(D1-Pad4)*%
X121996200Y-151790400D03*
%TD*%
%TO.P,Sens_Temp1,1*%
%TO.N,GND*%
%TA.AperFunction,ComponentPad*%
G36*
G01*
X153758000Y-100875000D02*
X153758000Y-102325000D01*
G75*
G02*
X153508000Y-102575000I-250000J0D01*
G01*
X152308000Y-102575000D01*
G75*
G02*
X152058000Y-102325000I0J250000D01*
G01*
X152058000Y-100875000D01*
G75*
G02*
X152308000Y-100625000I250000J0D01*
G01*
X153508000Y-100625000D01*
G75*
G02*
X153758000Y-100875000I0J-250000D01*
G01*
G37*
%TD.AperFunction*%
D18*
%TO.P,Sens_Temp1,2*%
%TO.N,Net-(4.7k1-Pad2)*%
X150408000Y-101600000D03*
%TO.P,Sens_Temp1,3*%
%TO.N,/3.3v*%
X147908000Y-101600000D03*
%TD*%
D19*
%TO.N,/3.3v*%
X142595600Y-106222800D02*
X141516100Y-107302300D01*
X142595600Y-102336600D02*
X142595600Y-106222800D01*
X143433800Y-101498400D02*
X142595600Y-102336600D01*
X147806400Y-101498400D02*
X143433800Y-101498400D01*
X147908000Y-101600000D02*
X147806400Y-101498400D01*
%TO.N,Net-(4.7k1-Pad2)*%
X150408000Y-101600000D02*
X150408000Y-103113200D01*
X150408000Y-103113200D02*
X151993600Y-104698800D01*
X151993600Y-104698800D02*
X152006300Y-104698800D01*
X154330400Y-107022900D02*
X154762200Y-107022900D01*
X152006300Y-104698800D02*
X154330400Y-107022900D01*
X153911300Y-108915200D02*
X154762200Y-108064300D01*
X154762200Y-108064300D02*
X154762200Y-107022900D01*
X137223500Y-115608100D02*
X143916400Y-108915200D01*
X143916400Y-108915200D02*
X153911300Y-108915200D01*
X137223500Y-126111000D02*
X137210800Y-126123700D01*
X137223500Y-115608100D02*
X137223500Y-126111000D01*
D20*
%TO.N,/Batt*%
X67068500Y-139001500D02*
X67068500Y-115062000D01*
X97155000Y-103505000D02*
X102489000Y-103505000D01*
X102489000Y-103505000D02*
X106362500Y-99631500D01*
X106362500Y-99631500D02*
X110172500Y-99631500D01*
X102489000Y-106299000D02*
X104749600Y-108559600D01*
X102489000Y-103505000D02*
X102489000Y-106299000D01*
X104749600Y-108559600D02*
X107746800Y-108559600D01*
X107746800Y-108559600D02*
X109855000Y-110667800D01*
X109855000Y-110667800D02*
X109855000Y-127190500D01*
X94742000Y-106108500D02*
X94742000Y-104736900D01*
X69608700Y-106984800D02*
X93865700Y-106984800D01*
X93865700Y-106984800D02*
X94742000Y-106108500D01*
X67068500Y-109525000D02*
X69608700Y-106984800D01*
X67068500Y-115062000D02*
X67068500Y-109525000D01*
X95973900Y-103505000D02*
X97155000Y-103505000D01*
X94742000Y-104736900D02*
X95973900Y-103505000D01*
D19*
%TO.N,GND*%
X119837200Y-151790400D02*
X119837200Y-149631400D01*
X119837200Y-149631400D02*
X119811800Y-149606000D01*
X119837200Y-151790400D02*
X119837200Y-153936700D01*
%TO.N,Net-(Buzzer1-Pad2)*%
X112903000Y-122428000D02*
X117182900Y-118148100D01*
X112903000Y-125196600D02*
X112903000Y-122428000D01*
X114896900Y-127190500D02*
X112903000Y-125196600D01*
X117455000Y-127190500D02*
X114896900Y-127190500D01*
%TO.N,/Button1/Sw*%
X112801400Y-140728700D02*
X108826300Y-136753600D01*
X131940300Y-140881100D02*
X139865100Y-148805900D01*
X139865100Y-154393900D02*
X139865100Y-148805900D01*
X131940300Y-140728700D02*
X112801400Y-140728700D01*
%TO.N,/Button2 /Sw*%
X96088200Y-138277600D02*
X97459800Y-136906000D01*
X97459800Y-136906000D02*
X104508300Y-136906000D01*
X104508300Y-136906000D02*
X107137200Y-139534900D01*
X132295900Y-142963900D02*
X136791700Y-147459700D01*
X110566200Y-142963900D02*
X132295900Y-142963900D01*
X136791700Y-147459700D02*
X136791700Y-154546300D01*
X107137200Y-139534900D02*
X110566200Y-142963900D01*
%TO.N,/Button3/Sw*%
X92265500Y-144437100D02*
X87388700Y-139560300D01*
X132994400Y-146253200D02*
X131178300Y-144437100D01*
X132994400Y-152044400D02*
X132994400Y-146253200D01*
X131178300Y-144437100D02*
X92265500Y-144437100D01*
X130810000Y-154228800D02*
X132994400Y-152044400D01*
%TO.N,/Button4/Sw*%
X130860800Y-149440900D02*
X126720600Y-153581100D01*
X130860800Y-147104100D02*
X130860800Y-149440900D01*
X126009400Y-145770600D02*
X129527300Y-145770600D01*
X85001100Y-143433800D02*
X85013800Y-143433800D01*
X125082300Y-146697700D02*
X126009400Y-145770600D01*
X88277700Y-146697700D02*
X125082300Y-146697700D01*
X85013800Y-143433800D02*
X88277700Y-146697700D01*
X129527300Y-145770600D02*
X130860800Y-147104100D01*
X80352900Y-138785600D02*
X85001100Y-143433800D01*
%TO.N,Net-(D1-Pad1)*%
X115506500Y-151777700D02*
X115519200Y-151790400D01*
%TO.N,Net-(D1-Pad2)*%
X117665500Y-151777700D02*
X117678200Y-151790400D01*
D20*
%TO.N,Net-(FlagLED_R1-Pad2)*%
X118110000Y-99568000D02*
X117005100Y-99568000D01*
X114261900Y-102311200D02*
X114261900Y-107340400D01*
X117005100Y-99568000D02*
X114261900Y-102311200D01*
D19*
%TO.N,Net-(SW2-Pad1)*%
X126873000Y-148183600D02*
X128168400Y-148183600D01*
X124307600Y-155892500D02*
X124307600Y-150749000D01*
X141198600Y-157213300D02*
X125628400Y-157213300D01*
X142163800Y-156248100D02*
X141198600Y-157213300D01*
X129006600Y-116954300D02*
X127990600Y-117970300D01*
X142163800Y-148805900D02*
X142163800Y-156248100D01*
X127990600Y-134632700D02*
X142163800Y-148805900D01*
X127990600Y-117970300D02*
X127990600Y-134632700D01*
X124307600Y-150749000D02*
X126873000Y-148183600D01*
X125628400Y-157213300D02*
X124307600Y-155892500D01*
X133223000Y-116954300D02*
X129006600Y-116954300D01*
%TO.N,Net-(Conn_prog1-Pad3)*%
X147904200Y-153504900D02*
X147904200Y-150812500D01*
X147904200Y-150812500D02*
X137744200Y-140652500D01*
X137744200Y-135813800D02*
X145141950Y-128416050D01*
X137744200Y-140652500D02*
X137744200Y-135813800D01*
X145141950Y-128416050D02*
X144627600Y-128930400D01*
X145141950Y-128416050D02*
X145141950Y-128403350D01*
X145141950Y-128403350D02*
X148894800Y-124650500D01*
X155359100Y-124650500D02*
X156591000Y-123418600D01*
X148894800Y-124650500D02*
X155359100Y-124650500D01*
%TO.N,Net-(Conn_prog1-Pad2)*%
X143116300Y-128270000D02*
X134874000Y-136512300D01*
X134874000Y-136512300D02*
X134874000Y-139865100D01*
X144513300Y-149504400D02*
X144513300Y-155105100D01*
X134874000Y-139865100D02*
X144513300Y-149504400D01*
X143116300Y-128270000D02*
X143179800Y-128270000D01*
X147777200Y-123672600D02*
X147777200Y-121615200D01*
X143179800Y-128270000D02*
X147777200Y-123672600D01*
%TO.N,Net-(D1-Pad4)*%
X121970800Y-151765000D02*
X121996200Y-151790400D01*
%TD*%
D21*
%TO.N,GND*%
X158128500Y-122857993D02*
X158039918Y-122644137D01*
X157860987Y-122376348D01*
X157633252Y-122148613D01*
X157365463Y-121969682D01*
X157067912Y-121846432D01*
X156752033Y-121783600D01*
X156429967Y-121783600D01*
X156114088Y-121846432D01*
X155816537Y-121969682D01*
X155548748Y-122148613D01*
X155321013Y-122376348D01*
X155142082Y-122644137D01*
X155018832Y-122941688D01*
X154956000Y-123257567D01*
X154956000Y-123579633D01*
X154981165Y-123706146D01*
X154971811Y-123715500D01*
X148940731Y-123715500D01*
X148894799Y-123710976D01*
X148711507Y-123729029D01*
X148711155Y-123729136D01*
X148711166Y-123729029D01*
X148712200Y-123718532D01*
X148712200Y-123718526D01*
X148716723Y-123672601D01*
X148712200Y-123626676D01*
X148712200Y-122956851D01*
X148819452Y-122885187D01*
X149047187Y-122657452D01*
X149226118Y-122389663D01*
X149349368Y-122092112D01*
X149412200Y-121776233D01*
X149412200Y-121454167D01*
X149349368Y-121138288D01*
X149226118Y-120840737D01*
X149047187Y-120572948D01*
X148819452Y-120345213D01*
X148551663Y-120166282D01*
X148254112Y-120043032D01*
X147938233Y-119980200D01*
X147616167Y-119980200D01*
X147300288Y-120043032D01*
X147002737Y-120166282D01*
X146734948Y-120345213D01*
X146507213Y-120572948D01*
X146328282Y-120840737D01*
X146205032Y-121138288D01*
X146142200Y-121454167D01*
X146142200Y-121776233D01*
X146205032Y-122092112D01*
X146328282Y-122389663D01*
X146507213Y-122657452D01*
X146734948Y-122885187D01*
X146842200Y-122956851D01*
X146842200Y-123285310D01*
X142689644Y-127437867D01*
X142594328Y-127488814D01*
X142451956Y-127605656D01*
X142422676Y-127641334D01*
X134245341Y-135818670D01*
X134209656Y-135847956D01*
X134092814Y-135990329D01*
X134005993Y-136152761D01*
X133952529Y-136329008D01*
X133952529Y-136329009D01*
X133934476Y-136512300D01*
X133939000Y-136558232D01*
X133939001Y-139258812D01*
X128925600Y-134245411D01*
X128925600Y-125962667D01*
X135575800Y-125962667D01*
X135575800Y-126284733D01*
X135638632Y-126600612D01*
X135761882Y-126898163D01*
X135940813Y-127165952D01*
X136168548Y-127393687D01*
X136436337Y-127572618D01*
X136733888Y-127695868D01*
X137049767Y-127758700D01*
X137371833Y-127758700D01*
X137687712Y-127695868D01*
X137985263Y-127572618D01*
X138253052Y-127393687D01*
X138480787Y-127165952D01*
X138659718Y-126898163D01*
X138782968Y-126600612D01*
X138845800Y-126284733D01*
X138845800Y-125962667D01*
X138782968Y-125646788D01*
X138659718Y-125349237D01*
X138480787Y-125081448D01*
X138253052Y-124853713D01*
X138158500Y-124790535D01*
X138158500Y-118562000D01*
X145580428Y-118562000D01*
X145592688Y-118686482D01*
X145628998Y-118806180D01*
X145687963Y-118916494D01*
X145767315Y-119013185D01*
X145864006Y-119092537D01*
X145974320Y-119151502D01*
X146094018Y-119187812D01*
X146218500Y-119200072D01*
X148282750Y-119197000D01*
X148441500Y-119038250D01*
X148441500Y-115189000D01*
X148695500Y-115189000D01*
X148695500Y-119038250D01*
X148854250Y-119197000D01*
X150918500Y-119200072D01*
X151042982Y-119187812D01*
X151162680Y-119151502D01*
X151272994Y-119092537D01*
X151369685Y-119013185D01*
X151449037Y-118916494D01*
X151508002Y-118806180D01*
X151544312Y-118686482D01*
X151556572Y-118562000D01*
X151553500Y-115347750D01*
X151394750Y-115189000D01*
X148695500Y-115189000D01*
X148441500Y-115189000D01*
X145742250Y-115189000D01*
X145583500Y-115347750D01*
X145580428Y-118562000D01*
X138158500Y-118562000D01*
X138158500Y-115995389D01*
X142591889Y-111562000D01*
X145580428Y-111562000D01*
X145583500Y-114776250D01*
X145742250Y-114935000D01*
X148441500Y-114935000D01*
X148441500Y-111085750D01*
X148695500Y-111085750D01*
X148695500Y-114935000D01*
X151394750Y-114935000D01*
X151553500Y-114776250D01*
X151556572Y-111562000D01*
X151544312Y-111437518D01*
X151508002Y-111317820D01*
X151449037Y-111207506D01*
X151369685Y-111110815D01*
X151272994Y-111031463D01*
X151162680Y-110972498D01*
X151042982Y-110936188D01*
X150918500Y-110923928D01*
X148854250Y-110927000D01*
X148695500Y-111085750D01*
X148441500Y-111085750D01*
X148282750Y-110927000D01*
X146218500Y-110923928D01*
X146094018Y-110936188D01*
X145974320Y-110972498D01*
X145864006Y-111031463D01*
X145767315Y-111110815D01*
X145687963Y-111207506D01*
X145628998Y-111317820D01*
X145592688Y-111437518D01*
X145580428Y-111562000D01*
X142591889Y-111562000D01*
X144303689Y-109850200D01*
X153865368Y-109850200D01*
X153911300Y-109854724D01*
X153957232Y-109850200D01*
X154094592Y-109836671D01*
X154270840Y-109783207D01*
X154433272Y-109696386D01*
X154575644Y-109579544D01*
X154604930Y-109543859D01*
X155390865Y-108757925D01*
X155426544Y-108728644D01*
X155543386Y-108586272D01*
X155630207Y-108423840D01*
X155635734Y-108405621D01*
X155804452Y-108292887D01*
X156032187Y-108065152D01*
X156211118Y-107797363D01*
X156334368Y-107499812D01*
X156397200Y-107183933D01*
X156397200Y-106861867D01*
X156334368Y-106545988D01*
X156211118Y-106248437D01*
X156032187Y-105980648D01*
X155804452Y-105752913D01*
X155536663Y-105573982D01*
X155239112Y-105450732D01*
X154923233Y-105387900D01*
X154601167Y-105387900D01*
X154285288Y-105450732D01*
X154140496Y-105510707D01*
X152699930Y-104070141D01*
X152670644Y-104034456D01*
X152564141Y-103947051D01*
X151744583Y-103127493D01*
X151813820Y-103164502D01*
X151933518Y-103200812D01*
X152058000Y-103213072D01*
X152622250Y-103210000D01*
X152781000Y-103051250D01*
X152781000Y-101727000D01*
X153035000Y-101727000D01*
X153035000Y-103051250D01*
X153193750Y-103210000D01*
X153758000Y-103213072D01*
X153882482Y-103200812D01*
X154002180Y-103164502D01*
X154112494Y-103105537D01*
X154209185Y-103026185D01*
X154288537Y-102929494D01*
X154347502Y-102819180D01*
X154383812Y-102699482D01*
X154396072Y-102575000D01*
X154393000Y-101885750D01*
X154234250Y-101727000D01*
X153035000Y-101727000D01*
X152781000Y-101727000D01*
X152761000Y-101727000D01*
X152761000Y-101473000D01*
X152781000Y-101473000D01*
X152781000Y-100148750D01*
X153035000Y-100148750D01*
X153035000Y-101473000D01*
X154234250Y-101473000D01*
X154393000Y-101314250D01*
X154396072Y-100625000D01*
X154383812Y-100500518D01*
X154347502Y-100380820D01*
X154288537Y-100270506D01*
X154209185Y-100173815D01*
X154112494Y-100094463D01*
X154002180Y-100035498D01*
X153882482Y-99999188D01*
X153758000Y-99986928D01*
X153193750Y-99990000D01*
X153035000Y-100148750D01*
X152781000Y-100148750D01*
X152622250Y-99990000D01*
X152058000Y-99986928D01*
X151933518Y-99999188D01*
X151813820Y-100035498D01*
X151703506Y-100094463D01*
X151606815Y-100173815D01*
X151527463Y-100270506D01*
X151468498Y-100380820D01*
X151457945Y-100415608D01*
X151237014Y-100234294D01*
X150979034Y-100096401D01*
X150699111Y-100011487D01*
X150408000Y-99982815D01*
X150116890Y-100011487D01*
X149836967Y-100096401D01*
X149578987Y-100234294D01*
X149352866Y-100419866D01*
X149167294Y-100645986D01*
X149158000Y-100663374D01*
X149148706Y-100645986D01*
X148963134Y-100419866D01*
X148737014Y-100234294D01*
X148479034Y-100096401D01*
X148199111Y-100011487D01*
X147908000Y-99982815D01*
X147616890Y-100011487D01*
X147336967Y-100096401D01*
X147078987Y-100234294D01*
X146852866Y-100419866D01*
X146735071Y-100563400D01*
X143479732Y-100563400D01*
X143433800Y-100558876D01*
X143387868Y-100563400D01*
X143250508Y-100576929D01*
X143074260Y-100630393D01*
X142911828Y-100717214D01*
X142769456Y-100834056D01*
X142740170Y-100869741D01*
X141966941Y-101642970D01*
X141931256Y-101672256D01*
X141814414Y-101814629D01*
X141727593Y-101977061D01*
X141714455Y-102020372D01*
X141674129Y-102153309D01*
X141656076Y-102336600D01*
X141660600Y-102382532D01*
X141660601Y-105667300D01*
X141355067Y-105667300D01*
X141039188Y-105730132D01*
X140741637Y-105853382D01*
X140473848Y-106032313D01*
X140246113Y-106260048D01*
X140067182Y-106527837D01*
X139943932Y-106825388D01*
X139881100Y-107141267D01*
X139881100Y-107463333D01*
X139943932Y-107779212D01*
X140067182Y-108076763D01*
X140246113Y-108344552D01*
X140473848Y-108572287D01*
X140741637Y-108751218D01*
X141039188Y-108874468D01*
X141355067Y-108937300D01*
X141677133Y-108937300D01*
X141993012Y-108874468D01*
X142290563Y-108751218D01*
X142558352Y-108572287D01*
X142786087Y-108344552D01*
X142965018Y-108076763D01*
X143088268Y-107779212D01*
X143151100Y-107463333D01*
X143151100Y-107141267D01*
X143125935Y-107014754D01*
X143224259Y-106916430D01*
X143259944Y-106887144D01*
X143376786Y-106744772D01*
X143433365Y-106638920D01*
X143463607Y-106582341D01*
X143517072Y-106406092D01*
X143535124Y-106222800D01*
X143530600Y-106176865D01*
X143530600Y-102723889D01*
X143821089Y-102433400D01*
X146602825Y-102433400D01*
X146667294Y-102554013D01*
X146852866Y-102780134D01*
X147078986Y-102965706D01*
X147336966Y-103103599D01*
X147616889Y-103188513D01*
X147908000Y-103217185D01*
X148199110Y-103188513D01*
X148479033Y-103103599D01*
X148737013Y-102965706D01*
X148963134Y-102780134D01*
X149148706Y-102554014D01*
X149158000Y-102536626D01*
X149167294Y-102554013D01*
X149352866Y-102780134D01*
X149473001Y-102878726D01*
X149473001Y-103067259D01*
X149468476Y-103113200D01*
X149486529Y-103296491D01*
X149507274Y-103364876D01*
X149539994Y-103472740D01*
X149626815Y-103635172D01*
X149743657Y-103777544D01*
X149779336Y-103806825D01*
X151299974Y-105327464D01*
X151329256Y-105363144D01*
X151435765Y-105450554D01*
X153127200Y-107141989D01*
X153127200Y-107183933D01*
X153190032Y-107499812D01*
X153313282Y-107797363D01*
X153435450Y-107980200D01*
X143962332Y-107980200D01*
X143916400Y-107975676D01*
X143870468Y-107980200D01*
X143733108Y-107993729D01*
X143556860Y-108047193D01*
X143394428Y-108134014D01*
X143252056Y-108250856D01*
X143222770Y-108286541D01*
X136594841Y-114914470D01*
X136559156Y-114943756D01*
X136442314Y-115086129D01*
X136355493Y-115248561D01*
X136314975Y-115382132D01*
X136302029Y-115424809D01*
X136283976Y-115608100D01*
X136288500Y-115654032D01*
X136288501Y-124773563D01*
X136168548Y-124853713D01*
X135940813Y-125081448D01*
X135761882Y-125349237D01*
X135638632Y-125646788D01*
X135575800Y-125962667D01*
X128925600Y-125962667D01*
X128925600Y-124731813D01*
X133283192Y-124731813D01*
X133378956Y-124996214D01*
X133668571Y-125137104D01*
X133980108Y-125218784D01*
X134301595Y-125238118D01*
X134620675Y-125194361D01*
X134925088Y-125089195D01*
X135099044Y-124996214D01*
X135194808Y-124731813D01*
X134239000Y-123776005D01*
X133283192Y-124731813D01*
X128925600Y-124731813D01*
X128925600Y-123658995D01*
X132597282Y-123658995D01*
X132641039Y-123978075D01*
X132746205Y-124282488D01*
X132839186Y-124456444D01*
X133103587Y-124552208D01*
X134059395Y-123596400D01*
X134418605Y-123596400D01*
X135374413Y-124552208D01*
X135638814Y-124456444D01*
X135779704Y-124166829D01*
X135861384Y-123855292D01*
X135880718Y-123533805D01*
X135836961Y-123214725D01*
X135731795Y-122910312D01*
X135638814Y-122736356D01*
X135374413Y-122640592D01*
X134418605Y-123596400D01*
X134059395Y-123596400D01*
X133103587Y-122640592D01*
X132839186Y-122736356D01*
X132698296Y-123025971D01*
X132616616Y-123337508D01*
X132597282Y-123658995D01*
X128925600Y-123658995D01*
X128925600Y-122460987D01*
X133283192Y-122460987D01*
X134239000Y-123416795D01*
X135194808Y-122460987D01*
X135099044Y-122196586D01*
X134809429Y-122055696D01*
X134497892Y-121974016D01*
X134176405Y-121954682D01*
X133857325Y-121998439D01*
X133552912Y-122103605D01*
X133378956Y-122196586D01*
X133283192Y-122460987D01*
X128925600Y-122460987D01*
X128925600Y-118357589D01*
X129393889Y-117889300D01*
X131881349Y-117889300D01*
X131953013Y-117996552D01*
X132180748Y-118224287D01*
X132448537Y-118403218D01*
X132746088Y-118526468D01*
X133061967Y-118589300D01*
X133384033Y-118589300D01*
X133699912Y-118526468D01*
X133997463Y-118403218D01*
X134265252Y-118224287D01*
X134492987Y-117996552D01*
X134671918Y-117728763D01*
X134795168Y-117431212D01*
X134858000Y-117115333D01*
X134858000Y-116793267D01*
X134795168Y-116477388D01*
X134671918Y-116179837D01*
X134492987Y-115912048D01*
X134265252Y-115684313D01*
X133997463Y-115505382D01*
X133699912Y-115382132D01*
X133384033Y-115319300D01*
X133061967Y-115319300D01*
X132746088Y-115382132D01*
X132448537Y-115505382D01*
X132180748Y-115684313D01*
X131953013Y-115912048D01*
X131881349Y-116019300D01*
X129052532Y-116019300D01*
X129006600Y-116014776D01*
X128960668Y-116019300D01*
X128823308Y-116032829D01*
X128647060Y-116086293D01*
X128484628Y-116173114D01*
X128342256Y-116289956D01*
X128312970Y-116325641D01*
X127361941Y-117276670D01*
X127326256Y-117305956D01*
X127209414Y-117448329D01*
X127122593Y-117610761D01*
X127104263Y-117671188D01*
X127069129Y-117787009D01*
X127051076Y-117970300D01*
X127055600Y-118016232D01*
X127055601Y-134586758D01*
X127051076Y-134632700D01*
X127069129Y-134815991D01*
X127116140Y-134970963D01*
X127122594Y-134992240D01*
X127209415Y-135154672D01*
X127326257Y-135297044D01*
X127361936Y-135326325D01*
X131829311Y-139793700D01*
X113188690Y-139793700D01*
X110436135Y-137041146D01*
X110461300Y-136914633D01*
X110461300Y-136592567D01*
X110398468Y-136276688D01*
X110275218Y-135979137D01*
X110096287Y-135711348D01*
X109868552Y-135483613D01*
X109600763Y-135304682D01*
X109303212Y-135181432D01*
X108987333Y-135118600D01*
X108665267Y-135118600D01*
X108349388Y-135181432D01*
X108051837Y-135304682D01*
X107784048Y-135483613D01*
X107556313Y-135711348D01*
X107377382Y-135979137D01*
X107254132Y-136276688D01*
X107191300Y-136592567D01*
X107191300Y-136914633D01*
X107254132Y-137230512D01*
X107377382Y-137528063D01*
X107556313Y-137795852D01*
X107784048Y-138023587D01*
X108051837Y-138202518D01*
X108349388Y-138325768D01*
X108665267Y-138388600D01*
X108987333Y-138388600D01*
X109113846Y-138363435D01*
X112107774Y-141357364D01*
X112137056Y-141393044D01*
X112279428Y-141509886D01*
X112441860Y-141596707D01*
X112564643Y-141633953D01*
X112618107Y-141650171D01*
X112801399Y-141668224D01*
X112847331Y-141663700D01*
X131400611Y-141663700D01*
X131765811Y-142028900D01*
X110953490Y-142028900D01*
X107830827Y-138906238D01*
X107830823Y-138906233D01*
X105201930Y-136277341D01*
X105172644Y-136241656D01*
X105030272Y-136124814D01*
X104867840Y-136037993D01*
X104691592Y-135984529D01*
X104554232Y-135971000D01*
X104508300Y-135966476D01*
X104462368Y-135971000D01*
X97505731Y-135971000D01*
X97459799Y-135966476D01*
X97276507Y-135984529D01*
X97235096Y-135997091D01*
X97100260Y-136037993D01*
X96937828Y-136124814D01*
X96795456Y-136241656D01*
X96766174Y-136277336D01*
X96375746Y-136667765D01*
X96249233Y-136642600D01*
X95927167Y-136642600D01*
X95611288Y-136705432D01*
X95313737Y-136828682D01*
X95045948Y-137007613D01*
X94818213Y-137235348D01*
X94639282Y-137503137D01*
X94516032Y-137800688D01*
X94453200Y-138116567D01*
X94453200Y-138438633D01*
X94516032Y-138754512D01*
X94639282Y-139052063D01*
X94818213Y-139319852D01*
X95045948Y-139547587D01*
X95313737Y-139726518D01*
X95611288Y-139849768D01*
X95927167Y-139912600D01*
X96249233Y-139912600D01*
X96565112Y-139849768D01*
X96862663Y-139726518D01*
X97130452Y-139547587D01*
X97358187Y-139319852D01*
X97537118Y-139052063D01*
X97660368Y-138754512D01*
X97723200Y-138438633D01*
X97723200Y-138116567D01*
X97698035Y-137990054D01*
X97847090Y-137841000D01*
X104121011Y-137841000D01*
X106508533Y-140228523D01*
X106508538Y-140228527D01*
X109782110Y-143502100D01*
X92652789Y-143502100D01*
X89661013Y-140510324D01*
X100358500Y-140510324D01*
X100358500Y-141009676D01*
X100455918Y-141499432D01*
X100647012Y-141960773D01*
X100924437Y-142375968D01*
X101277532Y-142729063D01*
X101692727Y-143006488D01*
X102154068Y-143197582D01*
X102643824Y-143295000D01*
X103143176Y-143295000D01*
X103632932Y-143197582D01*
X104094273Y-143006488D01*
X104509468Y-142729063D01*
X104862563Y-142375968D01*
X105139988Y-141960773D01*
X105331082Y-141499432D01*
X105428500Y-141009676D01*
X105428500Y-140510324D01*
X105331082Y-140020568D01*
X105139988Y-139559227D01*
X104862563Y-139144032D01*
X104509468Y-138790937D01*
X104094273Y-138513512D01*
X103632932Y-138322418D01*
X103143176Y-138225000D01*
X102643824Y-138225000D01*
X102154068Y-138322418D01*
X101692727Y-138513512D01*
X101277532Y-138790937D01*
X100924437Y-139144032D01*
X100647012Y-139559227D01*
X100455918Y-140020568D01*
X100358500Y-140510324D01*
X89661013Y-140510324D01*
X88998535Y-139847846D01*
X89023700Y-139721333D01*
X89023700Y-139399267D01*
X88960868Y-139083388D01*
X88837618Y-138785837D01*
X88658687Y-138518048D01*
X88430952Y-138290313D01*
X88163163Y-138111382D01*
X87865612Y-137988132D01*
X87549733Y-137925300D01*
X87227667Y-137925300D01*
X86911788Y-137988132D01*
X86614237Y-138111382D01*
X86346448Y-138290313D01*
X86118713Y-138518048D01*
X85939782Y-138785837D01*
X85816532Y-139083388D01*
X85753700Y-139399267D01*
X85753700Y-139721333D01*
X85816532Y-140037212D01*
X85939782Y-140334763D01*
X86118713Y-140602552D01*
X86346448Y-140830287D01*
X86614237Y-141009218D01*
X86911788Y-141132468D01*
X87227667Y-141195300D01*
X87549733Y-141195300D01*
X87676246Y-141170135D01*
X91571870Y-145065759D01*
X91601156Y-145101444D01*
X91743528Y-145218286D01*
X91849380Y-145274865D01*
X91905959Y-145305107D01*
X92082208Y-145358572D01*
X92265500Y-145376624D01*
X92311435Y-145372100D01*
X125085610Y-145372100D01*
X124695011Y-145762700D01*
X88664989Y-145762700D01*
X85707430Y-142805141D01*
X85678144Y-142769456D01*
X85571641Y-142682051D01*
X81962735Y-139073146D01*
X81987900Y-138946633D01*
X81987900Y-138624567D01*
X81925068Y-138308688D01*
X81801818Y-138011137D01*
X81622887Y-137743348D01*
X81395152Y-137515613D01*
X81127363Y-137336682D01*
X80829812Y-137213432D01*
X80513933Y-137150600D01*
X80191867Y-137150600D01*
X79875988Y-137213432D01*
X79578437Y-137336682D01*
X79310648Y-137515613D01*
X79082913Y-137743348D01*
X78903982Y-138011137D01*
X78780732Y-138308688D01*
X78717900Y-138624567D01*
X78717900Y-138946633D01*
X78780732Y-139262512D01*
X78903982Y-139560063D01*
X79082913Y-139827852D01*
X79310648Y-140055587D01*
X79578437Y-140234518D01*
X79875988Y-140357768D01*
X80191867Y-140420600D01*
X80513933Y-140420600D01*
X80640446Y-140395435D01*
X84307474Y-144062464D01*
X84336756Y-144098144D01*
X84443265Y-144185554D01*
X87584070Y-147326359D01*
X87613356Y-147362044D01*
X87755728Y-147478886D01*
X87861580Y-147535465D01*
X87918159Y-147565707D01*
X88094408Y-147619172D01*
X88277700Y-147637224D01*
X88323635Y-147632700D01*
X125036368Y-147632700D01*
X125082300Y-147637224D01*
X125128232Y-147632700D01*
X125265592Y-147619171D01*
X125441840Y-147565707D01*
X125604272Y-147478886D01*
X125746644Y-147362044D01*
X125775930Y-147326359D01*
X126396690Y-146705600D01*
X127464147Y-146705600D01*
X127393937Y-146734682D01*
X127126148Y-146913613D01*
X126898413Y-147141348D01*
X126826727Y-147248634D01*
X126708110Y-147260317D01*
X126689707Y-147262129D01*
X126642636Y-147276408D01*
X126513460Y-147315593D01*
X126351028Y-147402414D01*
X126208656Y-147519256D01*
X126179374Y-147554936D01*
X123678936Y-150055375D01*
X123643257Y-150084656D01*
X123526415Y-150227028D01*
X123444424Y-150380424D01*
X123439594Y-150389460D01*
X123386129Y-150565709D01*
X123368076Y-150749000D01*
X123372601Y-150794942D01*
X123372601Y-151102178D01*
X123356499Y-151063305D01*
X123188512Y-150811895D01*
X122974705Y-150598088D01*
X122723295Y-150430101D01*
X122443943Y-150314389D01*
X122147384Y-150255400D01*
X121845016Y-150255400D01*
X121548457Y-150314389D01*
X121269105Y-150430101D01*
X121017695Y-150598088D01*
X120921518Y-150694266D01*
X120837622Y-150610370D01*
X120721674Y-150726318D01*
X120637992Y-150472139D01*
X120365425Y-150341242D01*
X120072558Y-150266035D01*
X119770647Y-150249409D01*
X119471293Y-150292003D01*
X119186001Y-150392178D01*
X119036408Y-150472139D01*
X118952726Y-150726318D01*
X118836778Y-150610370D01*
X118752883Y-150694266D01*
X118656705Y-150598088D01*
X118405295Y-150430101D01*
X118125943Y-150314389D01*
X117829384Y-150255400D01*
X117527016Y-150255400D01*
X117230457Y-150314389D01*
X116951105Y-150430101D01*
X116894142Y-150468163D01*
X116870385Y-150439215D01*
X116773694Y-150359863D01*
X116663380Y-150300898D01*
X116543682Y-150264588D01*
X116419200Y-150252328D01*
X114619200Y-150252328D01*
X114494718Y-150264588D01*
X114375020Y-150300898D01*
X114264706Y-150359863D01*
X114168015Y-150439215D01*
X114088663Y-150535906D01*
X114029698Y-150646220D01*
X113993388Y-150765918D01*
X113981128Y-150890400D01*
X113981128Y-152690400D01*
X113993388Y-152814882D01*
X114029698Y-152934580D01*
X114088663Y-153044894D01*
X114168015Y-153141585D01*
X114264706Y-153220937D01*
X114375020Y-153279902D01*
X114494718Y-153316212D01*
X114619200Y-153328472D01*
X116419200Y-153328472D01*
X116543682Y-153316212D01*
X116663380Y-153279902D01*
X116773694Y-153220937D01*
X116870385Y-153141585D01*
X116894142Y-153112637D01*
X116951105Y-153150699D01*
X117230457Y-153266411D01*
X117527016Y-153325400D01*
X117829384Y-153325400D01*
X118125943Y-153266411D01*
X118405295Y-153150699D01*
X118656705Y-152982712D01*
X118752883Y-152886535D01*
X118836778Y-152970430D01*
X118952726Y-152854482D01*
X119036408Y-153108661D01*
X119308975Y-153239558D01*
X119601842Y-153314765D01*
X119903753Y-153331391D01*
X120203107Y-153288797D01*
X120488399Y-153188622D01*
X120637992Y-153108661D01*
X120721674Y-152854482D01*
X120837622Y-152970430D01*
X120921518Y-152886535D01*
X121017695Y-152982712D01*
X121269105Y-153150699D01*
X121548457Y-153266411D01*
X121845016Y-153325400D01*
X122147384Y-153325400D01*
X122443943Y-153266411D01*
X122723295Y-153150699D01*
X122974705Y-152982712D01*
X123188512Y-152768905D01*
X123356499Y-152517495D01*
X123372601Y-152478622D01*
X123372600Y-155846568D01*
X123368076Y-155892500D01*
X123372600Y-155938431D01*
X123386129Y-156075791D01*
X123439593Y-156252039D01*
X123526414Y-156414471D01*
X123643256Y-156556844D01*
X123678941Y-156586130D01*
X124934774Y-157841964D01*
X124964056Y-157877644D01*
X125106428Y-157994486D01*
X125268860Y-158081307D01*
X125391643Y-158118553D01*
X125445107Y-158134771D01*
X125628399Y-158152824D01*
X125674331Y-158148300D01*
X141152668Y-158148300D01*
X141198600Y-158152824D01*
X141244532Y-158148300D01*
X141381892Y-158134771D01*
X141558140Y-158081307D01*
X141720572Y-157994486D01*
X141862944Y-157877644D01*
X141892230Y-157841959D01*
X142792459Y-156941730D01*
X142828144Y-156912444D01*
X142944986Y-156770072D01*
X143031807Y-156607640D01*
X143085271Y-156431392D01*
X143098800Y-156294032D01*
X143103324Y-156248100D01*
X143098800Y-156202168D01*
X143098800Y-155931073D01*
X143243313Y-156147352D01*
X143471048Y-156375087D01*
X143738837Y-156554018D01*
X144036388Y-156677268D01*
X144352267Y-156740100D01*
X144674333Y-156740100D01*
X144990212Y-156677268D01*
X145065400Y-156646124D01*
X152290700Y-156646124D01*
X152290700Y-157145476D01*
X152388118Y-157635232D01*
X152579212Y-158096573D01*
X152856637Y-158511768D01*
X153209732Y-158864863D01*
X153624927Y-159142288D01*
X154086268Y-159333382D01*
X154576024Y-159430800D01*
X155075376Y-159430800D01*
X155565132Y-159333382D01*
X156026473Y-159142288D01*
X156441668Y-158864863D01*
X156794763Y-158511768D01*
X157072188Y-158096573D01*
X157263282Y-157635232D01*
X157360700Y-157145476D01*
X157360700Y-156646124D01*
X157263282Y-156156368D01*
X157072188Y-155695027D01*
X156794763Y-155279832D01*
X156441668Y-154926737D01*
X156026473Y-154649312D01*
X155565132Y-154458218D01*
X155075376Y-154360800D01*
X154576024Y-154360800D01*
X154086268Y-154458218D01*
X153624927Y-154649312D01*
X153209732Y-154926737D01*
X152856637Y-155279832D01*
X152579212Y-155695027D01*
X152388118Y-156156368D01*
X152290700Y-156646124D01*
X145065400Y-156646124D01*
X145287763Y-156554018D01*
X145555552Y-156375087D01*
X145783287Y-156147352D01*
X145962218Y-155879563D01*
X146085468Y-155582012D01*
X146148300Y-155266133D01*
X146148300Y-154944067D01*
X146085468Y-154628188D01*
X145962218Y-154330637D01*
X145783287Y-154062848D01*
X145555552Y-153835113D01*
X145448300Y-153763449D01*
X145448300Y-149678889D01*
X146969201Y-151199790D01*
X146969200Y-152163249D01*
X146861948Y-152234913D01*
X146634213Y-152462648D01*
X146455282Y-152730437D01*
X146332032Y-153027988D01*
X146269200Y-153343867D01*
X146269200Y-153665933D01*
X146332032Y-153981812D01*
X146455282Y-154279363D01*
X146634213Y-154547152D01*
X146861948Y-154774887D01*
X147129737Y-154953818D01*
X147427288Y-155077068D01*
X147743167Y-155139900D01*
X148065233Y-155139900D01*
X148381112Y-155077068D01*
X148678663Y-154953818D01*
X148946452Y-154774887D01*
X149174187Y-154547152D01*
X149353118Y-154279363D01*
X149476368Y-153981812D01*
X149539200Y-153665933D01*
X149539200Y-153343867D01*
X149476368Y-153027988D01*
X149353118Y-152730437D01*
X149174187Y-152462648D01*
X148946452Y-152234913D01*
X148839200Y-152163249D01*
X148839200Y-150858435D01*
X148843724Y-150812500D01*
X148825672Y-150629208D01*
X148794159Y-150525328D01*
X148772207Y-150452960D01*
X148685386Y-150290528D01*
X148568544Y-150148156D01*
X148532859Y-150118870D01*
X140915489Y-142501500D01*
X145580428Y-142501500D01*
X145592688Y-142625982D01*
X145628998Y-142745680D01*
X145687963Y-142855994D01*
X145767315Y-142952685D01*
X145864006Y-143032037D01*
X145974320Y-143091002D01*
X146094018Y-143127312D01*
X146218500Y-143139572D01*
X148282750Y-143136500D01*
X148441500Y-142977750D01*
X148441500Y-139128500D01*
X145742250Y-139128500D01*
X145583500Y-139287250D01*
X145580428Y-142501500D01*
X140915489Y-142501500D01*
X138679200Y-140265211D01*
X138679200Y-138827439D01*
X141138500Y-138827439D01*
X141138500Y-139080561D01*
X141187881Y-139328821D01*
X141284747Y-139562676D01*
X141425375Y-139773140D01*
X141604360Y-139952125D01*
X141814824Y-140092753D01*
X142048679Y-140189619D01*
X142296939Y-140239000D01*
X142550061Y-140239000D01*
X142798321Y-140189619D01*
X143032176Y-140092753D01*
X143242640Y-139952125D01*
X143421625Y-139773140D01*
X143562253Y-139562676D01*
X143659119Y-139328821D01*
X143708500Y-139080561D01*
X143708500Y-138827439D01*
X143659119Y-138579179D01*
X143562253Y-138345324D01*
X143421625Y-138134860D01*
X143242640Y-137955875D01*
X143032176Y-137815247D01*
X142798321Y-137718381D01*
X142550061Y-137669000D01*
X142296939Y-137669000D01*
X142048679Y-137718381D01*
X141814824Y-137815247D01*
X141604360Y-137955875D01*
X141425375Y-138134860D01*
X141284747Y-138345324D01*
X141187881Y-138579179D01*
X141138500Y-138827439D01*
X138679200Y-138827439D01*
X138679200Y-136201089D01*
X139378789Y-135501500D01*
X145580428Y-135501500D01*
X145583500Y-138715750D01*
X145742250Y-138874500D01*
X148441500Y-138874500D01*
X148441500Y-135025250D01*
X148282750Y-134866500D01*
X146218500Y-134863428D01*
X146094018Y-134875688D01*
X145974320Y-134911998D01*
X145864006Y-134970963D01*
X145767315Y-135050315D01*
X145687963Y-135147006D01*
X145628998Y-135257320D01*
X145592688Y-135377018D01*
X145580428Y-135501500D01*
X139378789Y-135501500D01*
X145770616Y-129109674D01*
X145806294Y-129080394D01*
X145893703Y-128973886D01*
X149282090Y-125585500D01*
X155313168Y-125585500D01*
X155359100Y-125590024D01*
X155405032Y-125585500D01*
X155542392Y-125571971D01*
X155718640Y-125518507D01*
X155881072Y-125431686D01*
X156023444Y-125314844D01*
X156052730Y-125279159D01*
X156303454Y-125028435D01*
X156429967Y-125053600D01*
X156752033Y-125053600D01*
X157067912Y-124990768D01*
X157365463Y-124867518D01*
X157633252Y-124688587D01*
X157860987Y-124460852D01*
X158039918Y-124193063D01*
X158128500Y-123979207D01*
X158128500Y-125730000D01*
X151574500Y-125730000D01*
X151549724Y-125732440D01*
X151525899Y-125739667D01*
X151503943Y-125751403D01*
X151484697Y-125767197D01*
X151468903Y-125786443D01*
X151457167Y-125808399D01*
X151449940Y-125832224D01*
X151447500Y-125857000D01*
X151447500Y-135145133D01*
X151369685Y-135050315D01*
X151272994Y-134970963D01*
X151162680Y-134911998D01*
X151042982Y-134875688D01*
X150918500Y-134863428D01*
X148854250Y-134866500D01*
X148695500Y-135025250D01*
X148695500Y-138874500D01*
X148715500Y-138874500D01*
X148715500Y-139128500D01*
X148695500Y-139128500D01*
X148695500Y-142977750D01*
X148854250Y-143136500D01*
X150918500Y-143139572D01*
X151042982Y-143127312D01*
X151162680Y-143091002D01*
X151272994Y-143032037D01*
X151369685Y-142952685D01*
X151447500Y-142857867D01*
X151447500Y-154051000D01*
X151449940Y-154075776D01*
X151457167Y-154099601D01*
X151468903Y-154121557D01*
X151484697Y-154140803D01*
X151503943Y-154156597D01*
X151525899Y-154168333D01*
X151549724Y-154175560D01*
X151574500Y-154178000D01*
X158128501Y-154178000D01*
X158128501Y-159477500D01*
X61899000Y-159477500D01*
X61899000Y-156214324D01*
X64775000Y-156214324D01*
X64775000Y-156713676D01*
X64872418Y-157203432D01*
X65063512Y-157664773D01*
X65340937Y-158079968D01*
X65694032Y-158433063D01*
X66109227Y-158710488D01*
X66570568Y-158901582D01*
X67060324Y-158999000D01*
X67559676Y-158999000D01*
X68049432Y-158901582D01*
X68510773Y-158710488D01*
X68925968Y-158433063D01*
X69279063Y-158079968D01*
X69556488Y-157664773D01*
X69747582Y-157203432D01*
X69845000Y-156713676D01*
X69845000Y-156265913D01*
X101545892Y-156265913D01*
X101641656Y-156530314D01*
X101931271Y-156671204D01*
X102242808Y-156752884D01*
X102564295Y-156772218D01*
X102883375Y-156728461D01*
X103187788Y-156623295D01*
X103361744Y-156530314D01*
X103457508Y-156265913D01*
X102501700Y-155310105D01*
X101545892Y-156265913D01*
X69845000Y-156265913D01*
X69845000Y-156214324D01*
X69747582Y-155724568D01*
X69556488Y-155263227D01*
X69509628Y-155193095D01*
X100859982Y-155193095D01*
X100903739Y-155512175D01*
X101008905Y-155816588D01*
X101101886Y-155990544D01*
X101366287Y-156086308D01*
X102322095Y-155130500D01*
X102681305Y-155130500D01*
X103637113Y-156086308D01*
X103901514Y-155990544D01*
X104042404Y-155700929D01*
X104124084Y-155389392D01*
X104129417Y-155300713D01*
X110575592Y-155300713D01*
X110671356Y-155565114D01*
X110960971Y-155706004D01*
X111272508Y-155787684D01*
X111593995Y-155807018D01*
X111913075Y-155763261D01*
X112217488Y-155658095D01*
X112391444Y-155565114D01*
X112487208Y-155300713D01*
X111531400Y-154344905D01*
X110575592Y-155300713D01*
X104129417Y-155300713D01*
X104143418Y-155067905D01*
X104099661Y-154748825D01*
X103994495Y-154444412D01*
X103901514Y-154270456D01*
X103784005Y-154227895D01*
X109889682Y-154227895D01*
X109933439Y-154546975D01*
X110038605Y-154851388D01*
X110131586Y-155025344D01*
X110395987Y-155121108D01*
X111351795Y-154165300D01*
X111711005Y-154165300D01*
X112666813Y-155121108D01*
X112931214Y-155025344D01*
X113072104Y-154735729D01*
X113153784Y-154424192D01*
X113173118Y-154102705D01*
X113129361Y-153783625D01*
X113024195Y-153479212D01*
X112931214Y-153305256D01*
X112666813Y-153209492D01*
X111711005Y-154165300D01*
X111351795Y-154165300D01*
X110395987Y-153209492D01*
X110131586Y-153305256D01*
X109990696Y-153594871D01*
X109909016Y-153906408D01*
X109889682Y-154227895D01*
X103784005Y-154227895D01*
X103637113Y-154174692D01*
X102681305Y-155130500D01*
X102322095Y-155130500D01*
X101366287Y-154174692D01*
X101101886Y-154270456D01*
X100960996Y-154560071D01*
X100879316Y-154871608D01*
X100859982Y-155193095D01*
X69509628Y-155193095D01*
X69279063Y-154848032D01*
X68925968Y-154494937D01*
X68510773Y-154217512D01*
X68049432Y-154026418D01*
X67891920Y-153995087D01*
X101545892Y-153995087D01*
X102501700Y-154950895D01*
X103457508Y-153995087D01*
X103361744Y-153730686D01*
X103072129Y-153589796D01*
X102760592Y-153508116D01*
X102439105Y-153488782D01*
X102120025Y-153532539D01*
X101815612Y-153637705D01*
X101641656Y-153730686D01*
X101545892Y-153995087D01*
X67891920Y-153995087D01*
X67559676Y-153929000D01*
X67060324Y-153929000D01*
X66570568Y-154026418D01*
X66109227Y-154217512D01*
X65694032Y-154494937D01*
X65340937Y-154848032D01*
X65063512Y-155263227D01*
X64872418Y-155724568D01*
X64775000Y-156214324D01*
X61899000Y-156214324D01*
X61899000Y-153029887D01*
X110575592Y-153029887D01*
X111531400Y-153985695D01*
X112487208Y-153029887D01*
X112391444Y-152765486D01*
X112101829Y-152624596D01*
X111790292Y-152542916D01*
X111468805Y-152523582D01*
X111149725Y-152567339D01*
X110845312Y-152672505D01*
X110671356Y-152765486D01*
X110575592Y-153029887D01*
X61899000Y-153029887D01*
X61899000Y-111562000D01*
X64080428Y-111562000D01*
X64080428Y-118562000D01*
X64092688Y-118686482D01*
X64128998Y-118806180D01*
X64187963Y-118916494D01*
X64267315Y-119013185D01*
X64364006Y-119092537D01*
X64474320Y-119151502D01*
X64594018Y-119187812D01*
X64718500Y-119200072D01*
X65933501Y-119200072D01*
X65933500Y-134863428D01*
X64718500Y-134863428D01*
X64594018Y-134875688D01*
X64474320Y-134911998D01*
X64364006Y-134970963D01*
X64267315Y-135050315D01*
X64187963Y-135147006D01*
X64128998Y-135257320D01*
X64092688Y-135377018D01*
X64080428Y-135501500D01*
X64080428Y-142501500D01*
X64092688Y-142625982D01*
X64128998Y-142745680D01*
X64187963Y-142855994D01*
X64267315Y-142952685D01*
X64364006Y-143032037D01*
X64474320Y-143091002D01*
X64594018Y-143127312D01*
X64718500Y-143139572D01*
X69418500Y-143139572D01*
X69542982Y-143127312D01*
X69662680Y-143091002D01*
X69772994Y-143032037D01*
X69869685Y-142952685D01*
X69949037Y-142855994D01*
X70008002Y-142745680D01*
X70044312Y-142625982D01*
X70056572Y-142501500D01*
X70056572Y-141501011D01*
X70247012Y-141960773D01*
X70524437Y-142375968D01*
X70877532Y-142729063D01*
X71292727Y-143006488D01*
X71754068Y-143197582D01*
X72243824Y-143295000D01*
X72743176Y-143295000D01*
X73232932Y-143197582D01*
X73694273Y-143006488D01*
X74109468Y-142729063D01*
X74462563Y-142375968D01*
X74739988Y-141960773D01*
X74931082Y-141499432D01*
X75028500Y-141009676D01*
X75028500Y-140510324D01*
X74931082Y-140020568D01*
X74739988Y-139559227D01*
X74462563Y-139144032D01*
X74109468Y-138790937D01*
X73694273Y-138513512D01*
X73232932Y-138322418D01*
X72743176Y-138225000D01*
X72243824Y-138225000D01*
X71754068Y-138322418D01*
X71292727Y-138513512D01*
X70877532Y-138790937D01*
X70524437Y-139144032D01*
X70247012Y-139559227D01*
X70056572Y-140018989D01*
X70056572Y-135501500D01*
X70044312Y-135377018D01*
X70008002Y-135257320D01*
X69949037Y-135147006D01*
X69869685Y-135050315D01*
X69772994Y-134970963D01*
X69662680Y-134911998D01*
X69542982Y-134875688D01*
X69418500Y-134863428D01*
X68203500Y-134863428D01*
X68203500Y-130967513D01*
X77936592Y-130967513D01*
X78032356Y-131231914D01*
X78321971Y-131372804D01*
X78633508Y-131454484D01*
X78954995Y-131473818D01*
X79274075Y-131430061D01*
X79578488Y-131324895D01*
X79752444Y-131231914D01*
X79848208Y-130967513D01*
X78892400Y-130011705D01*
X77936592Y-130967513D01*
X68203500Y-130967513D01*
X68203500Y-129894695D01*
X77250682Y-129894695D01*
X77294439Y-130213775D01*
X77399605Y-130518188D01*
X77492586Y-130692144D01*
X77756987Y-130787908D01*
X78712795Y-129832100D01*
X79072005Y-129832100D01*
X80027813Y-130787908D01*
X80292214Y-130692144D01*
X80312709Y-130650013D01*
X87855292Y-130650013D01*
X87951056Y-130914414D01*
X88240671Y-131055304D01*
X88552208Y-131136984D01*
X88873695Y-131156318D01*
X89192775Y-131112561D01*
X89497188Y-131007395D01*
X89671144Y-130914414D01*
X89766908Y-130650013D01*
X89678008Y-130561113D01*
X97481892Y-130561113D01*
X97577656Y-130825514D01*
X97867271Y-130966404D01*
X98178808Y-131048084D01*
X98500295Y-131067418D01*
X98819375Y-131023661D01*
X99123788Y-130918495D01*
X99297744Y-130825514D01*
X99393508Y-130561113D01*
X98437700Y-129605305D01*
X97481892Y-130561113D01*
X89678008Y-130561113D01*
X88811100Y-129694205D01*
X87855292Y-130650013D01*
X80312709Y-130650013D01*
X80433104Y-130402529D01*
X80514784Y-130090992D01*
X80534118Y-129769505D01*
X80507746Y-129577195D01*
X87169382Y-129577195D01*
X87213139Y-129896275D01*
X87318305Y-130200688D01*
X87411286Y-130374644D01*
X87675687Y-130470408D01*
X88631495Y-129514600D01*
X88990705Y-129514600D01*
X89946513Y-130470408D01*
X90210914Y-130374644D01*
X90351804Y-130085029D01*
X90433484Y-129773492D01*
X90450635Y-129488295D01*
X96795982Y-129488295D01*
X96839739Y-129807375D01*
X96944905Y-130111788D01*
X97037886Y-130285744D01*
X97302287Y-130381508D01*
X98258095Y-129425700D01*
X98617305Y-129425700D01*
X99573113Y-130381508D01*
X99837514Y-130285744D01*
X99978404Y-129996129D01*
X100060084Y-129684592D01*
X100079418Y-129363105D01*
X100035661Y-129044025D01*
X99930495Y-128739612D01*
X99837514Y-128565656D01*
X99573113Y-128469892D01*
X98617305Y-129425700D01*
X98258095Y-129425700D01*
X97302287Y-128469892D01*
X97037886Y-128565656D01*
X96896996Y-128855271D01*
X96815316Y-129166808D01*
X96795982Y-129488295D01*
X90450635Y-129488295D01*
X90452818Y-129452005D01*
X90409061Y-129132925D01*
X90303895Y-128828512D01*
X90210914Y-128654556D01*
X89946513Y-128558792D01*
X88990705Y-129514600D01*
X88631495Y-129514600D01*
X87675687Y-128558792D01*
X87411286Y-128654556D01*
X87270396Y-128944171D01*
X87188716Y-129255708D01*
X87169382Y-129577195D01*
X80507746Y-129577195D01*
X80490361Y-129450425D01*
X80385195Y-129146012D01*
X80292214Y-128972056D01*
X80027813Y-128876292D01*
X79072005Y-129832100D01*
X78712795Y-129832100D01*
X77756987Y-128876292D01*
X77492586Y-128972056D01*
X77351696Y-129261671D01*
X77270016Y-129573208D01*
X77250682Y-129894695D01*
X68203500Y-129894695D01*
X68203500Y-128696687D01*
X77936592Y-128696687D01*
X78892400Y-129652495D01*
X79848208Y-128696687D01*
X79752444Y-128432286D01*
X79643294Y-128379187D01*
X87855292Y-128379187D01*
X88811100Y-129334995D01*
X89766908Y-128379187D01*
X89734710Y-128290287D01*
X97481892Y-128290287D01*
X98437700Y-129246095D01*
X99393508Y-128290287D01*
X99297744Y-128025886D01*
X99008129Y-127884996D01*
X98696592Y-127803316D01*
X98375105Y-127783982D01*
X98056025Y-127827739D01*
X97751612Y-127932905D01*
X97577656Y-128025886D01*
X97481892Y-128290287D01*
X89734710Y-128290287D01*
X89671144Y-128114786D01*
X89381529Y-127973896D01*
X89069992Y-127892216D01*
X88748505Y-127872882D01*
X88429425Y-127916639D01*
X88125012Y-128021805D01*
X87951056Y-128114786D01*
X87855292Y-128379187D01*
X79643294Y-128379187D01*
X79462829Y-128291396D01*
X79151292Y-128209716D01*
X78829805Y-128190382D01*
X78510725Y-128234139D01*
X78206312Y-128339305D01*
X78032356Y-128432286D01*
X77936592Y-128696687D01*
X68203500Y-128696687D01*
X68203500Y-123855513D01*
X100923592Y-123855513D01*
X101019356Y-124119914D01*
X101308971Y-124260804D01*
X101620508Y-124342484D01*
X101941995Y-124361818D01*
X102261075Y-124318061D01*
X102565488Y-124212895D01*
X102739444Y-124119914D01*
X102835208Y-123855513D01*
X101879400Y-122899705D01*
X100923592Y-123855513D01*
X68203500Y-123855513D01*
X68203500Y-122782695D01*
X100237682Y-122782695D01*
X100281439Y-123101775D01*
X100386605Y-123406188D01*
X100479586Y-123580144D01*
X100743987Y-123675908D01*
X101699795Y-122720100D01*
X102059005Y-122720100D01*
X103014813Y-123675908D01*
X103279214Y-123580144D01*
X103420104Y-123290529D01*
X103501784Y-122978992D01*
X103521118Y-122657505D01*
X103477361Y-122338425D01*
X103372195Y-122034012D01*
X103279214Y-121860056D01*
X103014813Y-121764292D01*
X102059005Y-122720100D01*
X101699795Y-122720100D01*
X100743987Y-121764292D01*
X100479586Y-121860056D01*
X100338696Y-122149671D01*
X100257016Y-122461208D01*
X100237682Y-122782695D01*
X68203500Y-122782695D01*
X68203500Y-121584687D01*
X100923592Y-121584687D01*
X101879400Y-122540495D01*
X102835208Y-121584687D01*
X102739444Y-121320286D01*
X102449829Y-121179396D01*
X102138292Y-121097716D01*
X101816805Y-121078382D01*
X101497725Y-121122139D01*
X101193312Y-121227305D01*
X101019356Y-121320286D01*
X100923592Y-121584687D01*
X68203500Y-121584687D01*
X68203500Y-119200072D01*
X69418500Y-119200072D01*
X69542982Y-119187812D01*
X69662680Y-119151502D01*
X69772994Y-119092537D01*
X69869685Y-119013185D01*
X69949037Y-118916494D01*
X70008002Y-118806180D01*
X70044312Y-118686482D01*
X70056572Y-118562000D01*
X70056572Y-113001011D01*
X70247012Y-113460773D01*
X70524437Y-113875968D01*
X70877532Y-114229063D01*
X71292727Y-114506488D01*
X71754068Y-114697582D01*
X72243824Y-114795000D01*
X72743176Y-114795000D01*
X73232932Y-114697582D01*
X73694273Y-114506488D01*
X74109468Y-114229063D01*
X74462563Y-113875968D01*
X74739988Y-113460773D01*
X74931082Y-112999432D01*
X75028500Y-112509676D01*
X75028500Y-112010324D01*
X100358500Y-112010324D01*
X100358500Y-112509676D01*
X100455918Y-112999432D01*
X100647012Y-113460773D01*
X100924437Y-113875968D01*
X101277532Y-114229063D01*
X101692727Y-114506488D01*
X102154068Y-114697582D01*
X102643824Y-114795000D01*
X103143176Y-114795000D01*
X103632932Y-114697582D01*
X104094273Y-114506488D01*
X104509468Y-114229063D01*
X104862563Y-113875968D01*
X105139988Y-113460773D01*
X105331082Y-112999432D01*
X105428500Y-112509676D01*
X105428500Y-112010324D01*
X105331082Y-111520568D01*
X105139988Y-111059227D01*
X104862563Y-110644032D01*
X104509468Y-110290937D01*
X104094273Y-110013512D01*
X103632932Y-109822418D01*
X103143176Y-109725000D01*
X102643824Y-109725000D01*
X102154068Y-109822418D01*
X101692727Y-110013512D01*
X101277532Y-110290937D01*
X100924437Y-110644032D01*
X100647012Y-111059227D01*
X100455918Y-111520568D01*
X100358500Y-112010324D01*
X75028500Y-112010324D01*
X74931082Y-111520568D01*
X74739988Y-111059227D01*
X74462563Y-110644032D01*
X74109468Y-110290937D01*
X73694273Y-110013512D01*
X73232932Y-109822418D01*
X72743176Y-109725000D01*
X72243824Y-109725000D01*
X71754068Y-109822418D01*
X71292727Y-110013512D01*
X70877532Y-110290937D01*
X70524437Y-110644032D01*
X70247012Y-111059227D01*
X70055918Y-111520568D01*
X70053626Y-111532090D01*
X70044312Y-111437518D01*
X70008002Y-111317820D01*
X69949037Y-111207506D01*
X69869685Y-111110815D01*
X69772994Y-111031463D01*
X69662680Y-110972498D01*
X69542982Y-110936188D01*
X69418500Y-110923928D01*
X68203500Y-110923928D01*
X68203500Y-109995131D01*
X70078832Y-108119800D01*
X93809949Y-108119800D01*
X93865700Y-108125291D01*
X93921451Y-108119800D01*
X93921452Y-108119800D01*
X94088199Y-108103377D01*
X94302147Y-108038476D01*
X94499323Y-107933084D01*
X94672149Y-107791249D01*
X94707695Y-107747936D01*
X95505140Y-106950492D01*
X95548449Y-106914949D01*
X95690284Y-106742123D01*
X95795676Y-106544947D01*
X95860577Y-106330999D01*
X95877000Y-106164252D01*
X95877000Y-106164243D01*
X95882490Y-106108501D01*
X95877000Y-106052759D01*
X95877000Y-105914139D01*
X96011987Y-105779152D01*
X96190918Y-105511363D01*
X96314168Y-105213812D01*
X96377000Y-104897933D01*
X96377000Y-104707032D01*
X96444032Y-104640000D01*
X101354000Y-104640000D01*
X101354001Y-106243239D01*
X101348509Y-106299000D01*
X101370423Y-106521498D01*
X101435324Y-106735446D01*
X101449679Y-106762302D01*
X101540717Y-106932623D01*
X101682552Y-107105449D01*
X101725860Y-107140991D01*
X103907609Y-109322741D01*
X103943151Y-109366049D01*
X104115977Y-109507884D01*
X104313153Y-109613276D01*
X104477305Y-109663071D01*
X104527100Y-109678177D01*
X104548093Y-109680244D01*
X104693848Y-109694600D01*
X104693855Y-109694600D01*
X104749599Y-109700090D01*
X104805343Y-109694600D01*
X107276669Y-109694600D01*
X108720000Y-111137932D01*
X108720001Y-125567878D01*
X108610820Y-125600998D01*
X108500506Y-125659963D01*
X108403815Y-125739315D01*
X108324463Y-125836006D01*
X108265498Y-125946320D01*
X108229188Y-126066018D01*
X108216928Y-126190500D01*
X108216928Y-128190500D01*
X108229188Y-128314982D01*
X108265498Y-128434680D01*
X108324463Y-128544994D01*
X108403815Y-128641685D01*
X108500506Y-128721037D01*
X108610820Y-128780002D01*
X108730518Y-128816312D01*
X108855000Y-128828572D01*
X110855000Y-128828572D01*
X110979482Y-128816312D01*
X111099180Y-128780002D01*
X111209494Y-128721037D01*
X111306185Y-128641685D01*
X111385537Y-128544994D01*
X111444502Y-128434680D01*
X111480812Y-128314982D01*
X111493072Y-128190500D01*
X111493072Y-126190500D01*
X111480812Y-126066018D01*
X111444502Y-125946320D01*
X111385537Y-125836006D01*
X111306185Y-125739315D01*
X111209494Y-125659963D01*
X111099180Y-125600998D01*
X110990000Y-125567879D01*
X110990000Y-122428000D01*
X111963476Y-122428000D01*
X111968001Y-122473942D01*
X111968000Y-125150668D01*
X111963476Y-125196600D01*
X111971608Y-125279167D01*
X111981529Y-125379891D01*
X112034993Y-125556139D01*
X112121814Y-125718571D01*
X112238656Y-125860944D01*
X112274341Y-125890230D01*
X114203274Y-127819164D01*
X114232556Y-127854844D01*
X114374928Y-127971686D01*
X114537360Y-128058507D01*
X114660143Y-128095753D01*
X114713607Y-128111971D01*
X114732010Y-128113783D01*
X114850968Y-128125500D01*
X114850974Y-128125500D01*
X114896899Y-128130023D01*
X114942824Y-128125500D01*
X116113349Y-128125500D01*
X116185013Y-128232752D01*
X116412748Y-128460487D01*
X116680537Y-128639418D01*
X116978088Y-128762668D01*
X117293967Y-128825500D01*
X117616033Y-128825500D01*
X117931912Y-128762668D01*
X118229463Y-128639418D01*
X118497252Y-128460487D01*
X118724987Y-128232752D01*
X118903918Y-127964963D01*
X119027168Y-127667412D01*
X119090000Y-127351533D01*
X119090000Y-127029467D01*
X119027168Y-126713588D01*
X118903918Y-126416037D01*
X118724987Y-126148248D01*
X118497252Y-125920513D01*
X118229463Y-125741582D01*
X117931912Y-125618332D01*
X117616033Y-125555500D01*
X117293967Y-125555500D01*
X116978088Y-125618332D01*
X116680537Y-125741582D01*
X116412748Y-125920513D01*
X116185013Y-126148248D01*
X116113349Y-126255500D01*
X115284190Y-126255500D01*
X113838000Y-124809311D01*
X113838000Y-122815289D01*
X116895354Y-119757935D01*
X117021867Y-119783100D01*
X117343933Y-119783100D01*
X117659812Y-119720268D01*
X117957363Y-119597018D01*
X118225152Y-119418087D01*
X118452887Y-119190352D01*
X118631818Y-118922563D01*
X118755068Y-118625012D01*
X118817900Y-118309133D01*
X118817900Y-117987067D01*
X118755068Y-117671188D01*
X118631818Y-117373637D01*
X118452887Y-117105848D01*
X118225152Y-116878113D01*
X117957363Y-116699182D01*
X117659812Y-116575932D01*
X117343933Y-116513100D01*
X117021867Y-116513100D01*
X116705988Y-116575932D01*
X116408437Y-116699182D01*
X116140648Y-116878113D01*
X115912913Y-117105848D01*
X115733982Y-117373637D01*
X115610732Y-117671188D01*
X115547900Y-117987067D01*
X115547900Y-118309133D01*
X115573065Y-118435646D01*
X112274336Y-121734375D01*
X112238657Y-121763656D01*
X112121815Y-121906028D01*
X112095809Y-121954682D01*
X112034994Y-122068460D01*
X111981529Y-122244709D01*
X111963476Y-122428000D01*
X110990000Y-122428000D01*
X110990000Y-110723551D01*
X110995491Y-110667799D01*
X110973577Y-110445301D01*
X110908676Y-110231353D01*
X110803284Y-110034177D01*
X110661449Y-109861351D01*
X110618141Y-109825809D01*
X108588796Y-107796465D01*
X108553249Y-107753151D01*
X108380423Y-107611316D01*
X108183247Y-107505924D01*
X107969299Y-107441023D01*
X107802552Y-107424600D01*
X107802551Y-107424600D01*
X107746800Y-107419109D01*
X107691049Y-107424600D01*
X105219732Y-107424600D01*
X104974499Y-107179367D01*
X112626900Y-107179367D01*
X112626900Y-107501433D01*
X112689732Y-107817312D01*
X112812982Y-108114863D01*
X112991913Y-108382652D01*
X113219648Y-108610387D01*
X113487437Y-108789318D01*
X113784988Y-108912568D01*
X114100867Y-108975400D01*
X114422933Y-108975400D01*
X114738812Y-108912568D01*
X115036363Y-108789318D01*
X115304152Y-108610387D01*
X115531887Y-108382652D01*
X115710818Y-108114863D01*
X115834068Y-107817312D01*
X115896900Y-107501433D01*
X115896900Y-107179367D01*
X115834068Y-106863488D01*
X115710818Y-106565937D01*
X115531887Y-106298148D01*
X115396900Y-106163161D01*
X115396900Y-102781331D01*
X116121232Y-102057000D01*
X130311928Y-102057000D01*
X130324188Y-102181482D01*
X130360498Y-102301180D01*
X130419463Y-102411494D01*
X130498815Y-102508185D01*
X130595506Y-102587537D01*
X130705820Y-102646502D01*
X130825518Y-102682812D01*
X130950000Y-102695072D01*
X131921250Y-102692000D01*
X132080000Y-102533250D01*
X132080000Y-100584000D01*
X132334000Y-100584000D01*
X132334000Y-102533250D01*
X132492750Y-102692000D01*
X133464000Y-102695072D01*
X133588482Y-102682812D01*
X133708180Y-102646502D01*
X133818494Y-102587537D01*
X133915185Y-102508185D01*
X133994537Y-102411494D01*
X134053502Y-102301180D01*
X134089812Y-102181482D01*
X134102072Y-102057000D01*
X134099000Y-100742750D01*
X133940250Y-100584000D01*
X132334000Y-100584000D01*
X132080000Y-100584000D01*
X130473750Y-100584000D01*
X130315000Y-100742750D01*
X130311928Y-102057000D01*
X116121232Y-102057000D01*
X116814418Y-101363815D01*
X117018606Y-101531388D01*
X117358235Y-101712923D01*
X117726754Y-101824712D01*
X118110000Y-101862459D01*
X118493247Y-101824712D01*
X118861766Y-101712923D01*
X119201395Y-101531388D01*
X119499082Y-101287082D01*
X119743388Y-100989395D01*
X119924923Y-100649766D01*
X120036712Y-100281246D01*
X120065000Y-99994037D01*
X120065000Y-99141962D01*
X120036934Y-98857000D01*
X130311928Y-98857000D01*
X130315000Y-100171250D01*
X130473750Y-100330000D01*
X132080000Y-100330000D01*
X132080000Y-98380750D01*
X132334000Y-98380750D01*
X132334000Y-100330000D01*
X133940250Y-100330000D01*
X134099000Y-100171250D01*
X134102072Y-98857000D01*
X134089812Y-98732518D01*
X134053502Y-98612820D01*
X133994537Y-98502506D01*
X133915185Y-98405815D01*
X133818494Y-98326463D01*
X133708180Y-98267498D01*
X133588482Y-98231188D01*
X133464000Y-98218928D01*
X132492750Y-98222000D01*
X132334000Y-98380750D01*
X132080000Y-98380750D01*
X131921250Y-98222000D01*
X130950000Y-98218928D01*
X130825518Y-98231188D01*
X130705820Y-98267498D01*
X130595506Y-98326463D01*
X130498815Y-98405815D01*
X130419463Y-98502506D01*
X130360498Y-98612820D01*
X130324188Y-98732518D01*
X130311928Y-98857000D01*
X120036934Y-98857000D01*
X120036712Y-98854753D01*
X119924923Y-98486234D01*
X119743388Y-98146605D01*
X119499082Y-97848918D01*
X119201395Y-97604612D01*
X118861765Y-97423077D01*
X118493246Y-97311288D01*
X118110000Y-97273541D01*
X117726753Y-97311288D01*
X117358234Y-97423077D01*
X117018605Y-97604612D01*
X116720918Y-97848918D01*
X116476612Y-98146605D01*
X116295077Y-98486235D01*
X116215840Y-98747444D01*
X116198651Y-98761551D01*
X116163113Y-98804854D01*
X113498765Y-101469204D01*
X113455451Y-101504751D01*
X113313616Y-101677577D01*
X113234972Y-101824712D01*
X113208224Y-101874754D01*
X113143323Y-102088702D01*
X113121409Y-102311200D01*
X113126900Y-102366952D01*
X113126901Y-106163160D01*
X112991913Y-106298148D01*
X112812982Y-106565937D01*
X112689732Y-106863488D01*
X112626900Y-107179367D01*
X104974499Y-107179367D01*
X103624000Y-105828869D01*
X103624000Y-103975131D01*
X106832632Y-100766500D01*
X108214428Y-100766500D01*
X108214428Y-101031500D01*
X108231492Y-101204754D01*
X108282028Y-101371350D01*
X108364095Y-101524886D01*
X108474538Y-101659462D01*
X108609114Y-101769905D01*
X108762650Y-101851972D01*
X108929246Y-101902508D01*
X109102500Y-101919572D01*
X111242500Y-101919572D01*
X111415754Y-101902508D01*
X111582350Y-101851972D01*
X111735886Y-101769905D01*
X111870462Y-101659462D01*
X111980905Y-101524886D01*
X112062972Y-101371350D01*
X112113508Y-101204754D01*
X112130572Y-101031500D01*
X112130572Y-98231500D01*
X112113508Y-98058246D01*
X112062972Y-97891650D01*
X111980905Y-97738114D01*
X111870462Y-97603538D01*
X111735886Y-97493095D01*
X111582350Y-97411028D01*
X111415754Y-97360492D01*
X111242500Y-97343428D01*
X109102500Y-97343428D01*
X108929246Y-97360492D01*
X108762650Y-97411028D01*
X108609114Y-97493095D01*
X108474538Y-97603538D01*
X108364095Y-97738114D01*
X108282028Y-97891650D01*
X108231492Y-98058246D01*
X108214428Y-98231500D01*
X108214428Y-98496500D01*
X106418243Y-98496500D01*
X106362499Y-98491010D01*
X106306755Y-98496500D01*
X106306748Y-98496500D01*
X106160993Y-98510856D01*
X106140000Y-98512923D01*
X106090205Y-98528029D01*
X105926053Y-98577824D01*
X105728877Y-98683216D01*
X105556051Y-98825051D01*
X105520509Y-98868359D01*
X102018869Y-102370000D01*
X96029652Y-102370000D01*
X95973900Y-102364509D01*
X95751401Y-102386423D01*
X95537453Y-102451324D01*
X95340277Y-102556716D01*
X95210756Y-102663011D01*
X95210754Y-102663013D01*
X95167451Y-102698551D01*
X95131913Y-102741854D01*
X94771868Y-103101900D01*
X94580967Y-103101900D01*
X94265088Y-103164732D01*
X93967537Y-103287982D01*
X93699748Y-103466913D01*
X93472013Y-103694648D01*
X93293082Y-103962437D01*
X93169832Y-104259988D01*
X93107000Y-104575867D01*
X93107000Y-104897933D01*
X93169832Y-105213812D01*
X93293082Y-105511363D01*
X93469691Y-105775677D01*
X93395569Y-105849800D01*
X69664441Y-105849800D01*
X69608699Y-105844310D01*
X69552957Y-105849800D01*
X69552948Y-105849800D01*
X69386201Y-105866223D01*
X69172253Y-105931124D01*
X68975077Y-106036516D01*
X68802251Y-106178351D01*
X68766711Y-106221657D01*
X66305360Y-108683009D01*
X66262052Y-108718551D01*
X66120217Y-108891377D01*
X66098340Y-108932307D01*
X66014824Y-109088554D01*
X65949923Y-109302502D01*
X65928009Y-109525000D01*
X65933501Y-109580761D01*
X65933501Y-110923928D01*
X64718500Y-110923928D01*
X64594018Y-110936188D01*
X64474320Y-110972498D01*
X64364006Y-111031463D01*
X64267315Y-111110815D01*
X64187963Y-111207506D01*
X64128998Y-111317820D01*
X64092688Y-111437518D01*
X64080428Y-111562000D01*
X61899000Y-111562000D01*
X61899000Y-100152000D01*
X86496928Y-100152000D01*
X86509188Y-100276482D01*
X86545498Y-100396180D01*
X86604463Y-100506494D01*
X86683815Y-100603185D01*
X86780506Y-100682537D01*
X86890820Y-100741502D01*
X87010518Y-100777812D01*
X87135000Y-100790072D01*
X88106250Y-100787000D01*
X88265000Y-100628250D01*
X88265000Y-98679000D01*
X88519000Y-98679000D01*
X88519000Y-100628250D01*
X88677750Y-100787000D01*
X89649000Y-100790072D01*
X89773482Y-100777812D01*
X89893180Y-100741502D01*
X90003494Y-100682537D01*
X90100185Y-100603185D01*
X90179537Y-100506494D01*
X90238502Y-100396180D01*
X90274812Y-100276482D01*
X90287072Y-100152000D01*
X90284000Y-98837750D01*
X90125250Y-98679000D01*
X88519000Y-98679000D01*
X88265000Y-98679000D01*
X86658750Y-98679000D01*
X86500000Y-98837750D01*
X86496928Y-100152000D01*
X61899000Y-100152000D01*
X61899000Y-96952000D01*
X86496928Y-96952000D01*
X86500000Y-98266250D01*
X86658750Y-98425000D01*
X88265000Y-98425000D01*
X88265000Y-96475750D01*
X88519000Y-96475750D01*
X88519000Y-98425000D01*
X90125250Y-98425000D01*
X90284000Y-98266250D01*
X90287072Y-96952000D01*
X90274812Y-96827518D01*
X90238502Y-96707820D01*
X90179537Y-96597506D01*
X90100185Y-96500815D01*
X90003494Y-96421463D01*
X89893180Y-96362498D01*
X89773482Y-96326188D01*
X89649000Y-96313928D01*
X88677750Y-96317000D01*
X88519000Y-96475750D01*
X88265000Y-96475750D01*
X88106250Y-96317000D01*
X87135000Y-96313928D01*
X87010518Y-96326188D01*
X86890820Y-96362498D01*
X86780506Y-96421463D01*
X86683815Y-96500815D01*
X86604463Y-96597506D01*
X86545498Y-96707820D01*
X86509188Y-96827518D01*
X86496928Y-96952000D01*
X61899000Y-96952000D01*
X61899000Y-95508324D01*
X101859000Y-95508324D01*
X101859000Y-96007676D01*
X101956418Y-96497432D01*
X102147512Y-96958773D01*
X102424937Y-97373968D01*
X102778032Y-97727063D01*
X103193227Y-98004488D01*
X103654568Y-98195582D01*
X104144324Y-98293000D01*
X104643676Y-98293000D01*
X105133432Y-98195582D01*
X105594773Y-98004488D01*
X106009968Y-97727063D01*
X106363063Y-97373968D01*
X106640488Y-96958773D01*
X106831582Y-96497432D01*
X106929000Y-96007676D01*
X106929000Y-95508324D01*
X106831582Y-95018568D01*
X106640488Y-94557227D01*
X106363063Y-94142032D01*
X106205355Y-93984324D01*
X150119000Y-93984324D01*
X150119000Y-94483676D01*
X150216418Y-94973432D01*
X150407512Y-95434773D01*
X150684937Y-95849968D01*
X151038032Y-96203063D01*
X151453227Y-96480488D01*
X151914568Y-96671582D01*
X152404324Y-96769000D01*
X152903676Y-96769000D01*
X153393432Y-96671582D01*
X153854773Y-96480488D01*
X154269968Y-96203063D01*
X154623063Y-95849968D01*
X154900488Y-95434773D01*
X155091582Y-94973432D01*
X155189000Y-94483676D01*
X155189000Y-93984324D01*
X155091582Y-93494568D01*
X154900488Y-93033227D01*
X154623063Y-92618032D01*
X154269968Y-92264937D01*
X153854773Y-91987512D01*
X153393432Y-91796418D01*
X152903676Y-91699000D01*
X152404324Y-91699000D01*
X151914568Y-91796418D01*
X151453227Y-91987512D01*
X151038032Y-92264937D01*
X150684937Y-92618032D01*
X150407512Y-93033227D01*
X150216418Y-93494568D01*
X150119000Y-93984324D01*
X106205355Y-93984324D01*
X106009968Y-93788937D01*
X105594773Y-93511512D01*
X105133432Y-93320418D01*
X104643676Y-93223000D01*
X104144324Y-93223000D01*
X103654568Y-93320418D01*
X103193227Y-93511512D01*
X102778032Y-93788937D01*
X102424937Y-94142032D01*
X102147512Y-94557227D01*
X101956418Y-95018568D01*
X101859000Y-95508324D01*
X61899000Y-95508324D01*
X61899000Y-91426500D01*
X158128500Y-91426500D01*
X158128500Y-122857993D01*
%TA.AperFunction,Conductor*%
D22*
G36*
X158128500Y-122857993D02*
G01*
X158039918Y-122644137D01*
X157860987Y-122376348D01*
X157633252Y-122148613D01*
X157365463Y-121969682D01*
X157067912Y-121846432D01*
X156752033Y-121783600D01*
X156429967Y-121783600D01*
X156114088Y-121846432D01*
X155816537Y-121969682D01*
X155548748Y-122148613D01*
X155321013Y-122376348D01*
X155142082Y-122644137D01*
X155018832Y-122941688D01*
X154956000Y-123257567D01*
X154956000Y-123579633D01*
X154981165Y-123706146D01*
X154971811Y-123715500D01*
X148940731Y-123715500D01*
X148894799Y-123710976D01*
X148711507Y-123729029D01*
X148711155Y-123729136D01*
X148711166Y-123729029D01*
X148712200Y-123718532D01*
X148712200Y-123718526D01*
X148716723Y-123672601D01*
X148712200Y-123626676D01*
X148712200Y-122956851D01*
X148819452Y-122885187D01*
X149047187Y-122657452D01*
X149226118Y-122389663D01*
X149349368Y-122092112D01*
X149412200Y-121776233D01*
X149412200Y-121454167D01*
X149349368Y-121138288D01*
X149226118Y-120840737D01*
X149047187Y-120572948D01*
X148819452Y-120345213D01*
X148551663Y-120166282D01*
X148254112Y-120043032D01*
X147938233Y-119980200D01*
X147616167Y-119980200D01*
X147300288Y-120043032D01*
X147002737Y-120166282D01*
X146734948Y-120345213D01*
X146507213Y-120572948D01*
X146328282Y-120840737D01*
X146205032Y-121138288D01*
X146142200Y-121454167D01*
X146142200Y-121776233D01*
X146205032Y-122092112D01*
X146328282Y-122389663D01*
X146507213Y-122657452D01*
X146734948Y-122885187D01*
X146842200Y-122956851D01*
X146842200Y-123285310D01*
X142689644Y-127437867D01*
X142594328Y-127488814D01*
X142451956Y-127605656D01*
X142422676Y-127641334D01*
X134245341Y-135818670D01*
X134209656Y-135847956D01*
X134092814Y-135990329D01*
X134005993Y-136152761D01*
X133952529Y-136329008D01*
X133952529Y-136329009D01*
X133934476Y-136512300D01*
X133939000Y-136558232D01*
X133939001Y-139258812D01*
X128925600Y-134245411D01*
X128925600Y-125962667D01*
X135575800Y-125962667D01*
X135575800Y-126284733D01*
X135638632Y-126600612D01*
X135761882Y-126898163D01*
X135940813Y-127165952D01*
X136168548Y-127393687D01*
X136436337Y-127572618D01*
X136733888Y-127695868D01*
X137049767Y-127758700D01*
X137371833Y-127758700D01*
X137687712Y-127695868D01*
X137985263Y-127572618D01*
X138253052Y-127393687D01*
X138480787Y-127165952D01*
X138659718Y-126898163D01*
X138782968Y-126600612D01*
X138845800Y-126284733D01*
X138845800Y-125962667D01*
X138782968Y-125646788D01*
X138659718Y-125349237D01*
X138480787Y-125081448D01*
X138253052Y-124853713D01*
X138158500Y-124790535D01*
X138158500Y-118562000D01*
X145580428Y-118562000D01*
X145592688Y-118686482D01*
X145628998Y-118806180D01*
X145687963Y-118916494D01*
X145767315Y-119013185D01*
X145864006Y-119092537D01*
X145974320Y-119151502D01*
X146094018Y-119187812D01*
X146218500Y-119200072D01*
X148282750Y-119197000D01*
X148441500Y-119038250D01*
X148441500Y-115189000D01*
X148695500Y-115189000D01*
X148695500Y-119038250D01*
X148854250Y-119197000D01*
X150918500Y-119200072D01*
X151042982Y-119187812D01*
X151162680Y-119151502D01*
X151272994Y-119092537D01*
X151369685Y-119013185D01*
X151449037Y-118916494D01*
X151508002Y-118806180D01*
X151544312Y-118686482D01*
X151556572Y-118562000D01*
X151553500Y-115347750D01*
X151394750Y-115189000D01*
X148695500Y-115189000D01*
X148441500Y-115189000D01*
X145742250Y-115189000D01*
X145583500Y-115347750D01*
X145580428Y-118562000D01*
X138158500Y-118562000D01*
X138158500Y-115995389D01*
X142591889Y-111562000D01*
X145580428Y-111562000D01*
X145583500Y-114776250D01*
X145742250Y-114935000D01*
X148441500Y-114935000D01*
X148441500Y-111085750D01*
X148695500Y-111085750D01*
X148695500Y-114935000D01*
X151394750Y-114935000D01*
X151553500Y-114776250D01*
X151556572Y-111562000D01*
X151544312Y-111437518D01*
X151508002Y-111317820D01*
X151449037Y-111207506D01*
X151369685Y-111110815D01*
X151272994Y-111031463D01*
X151162680Y-110972498D01*
X151042982Y-110936188D01*
X150918500Y-110923928D01*
X148854250Y-110927000D01*
X148695500Y-111085750D01*
X148441500Y-111085750D01*
X148282750Y-110927000D01*
X146218500Y-110923928D01*
X146094018Y-110936188D01*
X145974320Y-110972498D01*
X145864006Y-111031463D01*
X145767315Y-111110815D01*
X145687963Y-111207506D01*
X145628998Y-111317820D01*
X145592688Y-111437518D01*
X145580428Y-111562000D01*
X142591889Y-111562000D01*
X144303689Y-109850200D01*
X153865368Y-109850200D01*
X153911300Y-109854724D01*
X153957232Y-109850200D01*
X154094592Y-109836671D01*
X154270840Y-109783207D01*
X154433272Y-109696386D01*
X154575644Y-109579544D01*
X154604930Y-109543859D01*
X155390865Y-108757925D01*
X155426544Y-108728644D01*
X155543386Y-108586272D01*
X155630207Y-108423840D01*
X155635734Y-108405621D01*
X155804452Y-108292887D01*
X156032187Y-108065152D01*
X156211118Y-107797363D01*
X156334368Y-107499812D01*
X156397200Y-107183933D01*
X156397200Y-106861867D01*
X156334368Y-106545988D01*
X156211118Y-106248437D01*
X156032187Y-105980648D01*
X155804452Y-105752913D01*
X155536663Y-105573982D01*
X155239112Y-105450732D01*
X154923233Y-105387900D01*
X154601167Y-105387900D01*
X154285288Y-105450732D01*
X154140496Y-105510707D01*
X152699930Y-104070141D01*
X152670644Y-104034456D01*
X152564141Y-103947051D01*
X151744583Y-103127493D01*
X151813820Y-103164502D01*
X151933518Y-103200812D01*
X152058000Y-103213072D01*
X152622250Y-103210000D01*
X152781000Y-103051250D01*
X152781000Y-101727000D01*
X153035000Y-101727000D01*
X153035000Y-103051250D01*
X153193750Y-103210000D01*
X153758000Y-103213072D01*
X153882482Y-103200812D01*
X154002180Y-103164502D01*
X154112494Y-103105537D01*
X154209185Y-103026185D01*
X154288537Y-102929494D01*
X154347502Y-102819180D01*
X154383812Y-102699482D01*
X154396072Y-102575000D01*
X154393000Y-101885750D01*
X154234250Y-101727000D01*
X153035000Y-101727000D01*
X152781000Y-101727000D01*
X152761000Y-101727000D01*
X152761000Y-101473000D01*
X152781000Y-101473000D01*
X152781000Y-100148750D01*
X153035000Y-100148750D01*
X153035000Y-101473000D01*
X154234250Y-101473000D01*
X154393000Y-101314250D01*
X154396072Y-100625000D01*
X154383812Y-100500518D01*
X154347502Y-100380820D01*
X154288537Y-100270506D01*
X154209185Y-100173815D01*
X154112494Y-100094463D01*
X154002180Y-100035498D01*
X153882482Y-99999188D01*
X153758000Y-99986928D01*
X153193750Y-99990000D01*
X153035000Y-100148750D01*
X152781000Y-100148750D01*
X152622250Y-99990000D01*
X152058000Y-99986928D01*
X151933518Y-99999188D01*
X151813820Y-100035498D01*
X151703506Y-100094463D01*
X151606815Y-100173815D01*
X151527463Y-100270506D01*
X151468498Y-100380820D01*
X151457945Y-100415608D01*
X151237014Y-100234294D01*
X150979034Y-100096401D01*
X150699111Y-100011487D01*
X150408000Y-99982815D01*
X150116890Y-100011487D01*
X149836967Y-100096401D01*
X149578987Y-100234294D01*
X149352866Y-100419866D01*
X149167294Y-100645986D01*
X149158000Y-100663374D01*
X149148706Y-100645986D01*
X148963134Y-100419866D01*
X148737014Y-100234294D01*
X148479034Y-100096401D01*
X148199111Y-100011487D01*
X147908000Y-99982815D01*
X147616890Y-100011487D01*
X147336967Y-100096401D01*
X147078987Y-100234294D01*
X146852866Y-100419866D01*
X146735071Y-100563400D01*
X143479732Y-100563400D01*
X143433800Y-100558876D01*
X143387868Y-100563400D01*
X143250508Y-100576929D01*
X143074260Y-100630393D01*
X142911828Y-100717214D01*
X142769456Y-100834056D01*
X142740170Y-100869741D01*
X141966941Y-101642970D01*
X141931256Y-101672256D01*
X141814414Y-101814629D01*
X141727593Y-101977061D01*
X141714455Y-102020372D01*
X141674129Y-102153309D01*
X141656076Y-102336600D01*
X141660600Y-102382532D01*
X141660601Y-105667300D01*
X141355067Y-105667300D01*
X141039188Y-105730132D01*
X140741637Y-105853382D01*
X140473848Y-106032313D01*
X140246113Y-106260048D01*
X140067182Y-106527837D01*
X139943932Y-106825388D01*
X139881100Y-107141267D01*
X139881100Y-107463333D01*
X139943932Y-107779212D01*
X140067182Y-108076763D01*
X140246113Y-108344552D01*
X140473848Y-108572287D01*
X140741637Y-108751218D01*
X141039188Y-108874468D01*
X141355067Y-108937300D01*
X141677133Y-108937300D01*
X141993012Y-108874468D01*
X142290563Y-108751218D01*
X142558352Y-108572287D01*
X142786087Y-108344552D01*
X142965018Y-108076763D01*
X143088268Y-107779212D01*
X143151100Y-107463333D01*
X143151100Y-107141267D01*
X143125935Y-107014754D01*
X143224259Y-106916430D01*
X143259944Y-106887144D01*
X143376786Y-106744772D01*
X143433365Y-106638920D01*
X143463607Y-106582341D01*
X143517072Y-106406092D01*
X143535124Y-106222800D01*
X143530600Y-106176865D01*
X143530600Y-102723889D01*
X143821089Y-102433400D01*
X146602825Y-102433400D01*
X146667294Y-102554013D01*
X146852866Y-102780134D01*
X147078986Y-102965706D01*
X147336966Y-103103599D01*
X147616889Y-103188513D01*
X147908000Y-103217185D01*
X148199110Y-103188513D01*
X148479033Y-103103599D01*
X148737013Y-102965706D01*
X148963134Y-102780134D01*
X149148706Y-102554014D01*
X149158000Y-102536626D01*
X149167294Y-102554013D01*
X149352866Y-102780134D01*
X149473001Y-102878726D01*
X149473001Y-103067259D01*
X149468476Y-103113200D01*
X149486529Y-103296491D01*
X149507274Y-103364876D01*
X149539994Y-103472740D01*
X149626815Y-103635172D01*
X149743657Y-103777544D01*
X149779336Y-103806825D01*
X151299974Y-105327464D01*
X151329256Y-105363144D01*
X151435765Y-105450554D01*
X153127200Y-107141989D01*
X153127200Y-107183933D01*
X153190032Y-107499812D01*
X153313282Y-107797363D01*
X153435450Y-107980200D01*
X143962332Y-107980200D01*
X143916400Y-107975676D01*
X143870468Y-107980200D01*
X143733108Y-107993729D01*
X143556860Y-108047193D01*
X143394428Y-108134014D01*
X143252056Y-108250856D01*
X143222770Y-108286541D01*
X136594841Y-114914470D01*
X136559156Y-114943756D01*
X136442314Y-115086129D01*
X136355493Y-115248561D01*
X136314975Y-115382132D01*
X136302029Y-115424809D01*
X136283976Y-115608100D01*
X136288500Y-115654032D01*
X136288501Y-124773563D01*
X136168548Y-124853713D01*
X135940813Y-125081448D01*
X135761882Y-125349237D01*
X135638632Y-125646788D01*
X135575800Y-125962667D01*
X128925600Y-125962667D01*
X128925600Y-124731813D01*
X133283192Y-124731813D01*
X133378956Y-124996214D01*
X133668571Y-125137104D01*
X133980108Y-125218784D01*
X134301595Y-125238118D01*
X134620675Y-125194361D01*
X134925088Y-125089195D01*
X135099044Y-124996214D01*
X135194808Y-124731813D01*
X134239000Y-123776005D01*
X133283192Y-124731813D01*
X128925600Y-124731813D01*
X128925600Y-123658995D01*
X132597282Y-123658995D01*
X132641039Y-123978075D01*
X132746205Y-124282488D01*
X132839186Y-124456444D01*
X133103587Y-124552208D01*
X134059395Y-123596400D01*
X134418605Y-123596400D01*
X135374413Y-124552208D01*
X135638814Y-124456444D01*
X135779704Y-124166829D01*
X135861384Y-123855292D01*
X135880718Y-123533805D01*
X135836961Y-123214725D01*
X135731795Y-122910312D01*
X135638814Y-122736356D01*
X135374413Y-122640592D01*
X134418605Y-123596400D01*
X134059395Y-123596400D01*
X133103587Y-122640592D01*
X132839186Y-122736356D01*
X132698296Y-123025971D01*
X132616616Y-123337508D01*
X132597282Y-123658995D01*
X128925600Y-123658995D01*
X128925600Y-122460987D01*
X133283192Y-122460987D01*
X134239000Y-123416795D01*
X135194808Y-122460987D01*
X135099044Y-122196586D01*
X134809429Y-122055696D01*
X134497892Y-121974016D01*
X134176405Y-121954682D01*
X133857325Y-121998439D01*
X133552912Y-122103605D01*
X133378956Y-122196586D01*
X133283192Y-122460987D01*
X128925600Y-122460987D01*
X128925600Y-118357589D01*
X129393889Y-117889300D01*
X131881349Y-117889300D01*
X131953013Y-117996552D01*
X132180748Y-118224287D01*
X132448537Y-118403218D01*
X132746088Y-118526468D01*
X133061967Y-118589300D01*
X133384033Y-118589300D01*
X133699912Y-118526468D01*
X133997463Y-118403218D01*
X134265252Y-118224287D01*
X134492987Y-117996552D01*
X134671918Y-117728763D01*
X134795168Y-117431212D01*
X134858000Y-117115333D01*
X134858000Y-116793267D01*
X134795168Y-116477388D01*
X134671918Y-116179837D01*
X134492987Y-115912048D01*
X134265252Y-115684313D01*
X133997463Y-115505382D01*
X133699912Y-115382132D01*
X133384033Y-115319300D01*
X133061967Y-115319300D01*
X132746088Y-115382132D01*
X132448537Y-115505382D01*
X132180748Y-115684313D01*
X131953013Y-115912048D01*
X131881349Y-116019300D01*
X129052532Y-116019300D01*
X129006600Y-116014776D01*
X128960668Y-116019300D01*
X128823308Y-116032829D01*
X128647060Y-116086293D01*
X128484628Y-116173114D01*
X128342256Y-116289956D01*
X128312970Y-116325641D01*
X127361941Y-117276670D01*
X127326256Y-117305956D01*
X127209414Y-117448329D01*
X127122593Y-117610761D01*
X127104263Y-117671188D01*
X127069129Y-117787009D01*
X127051076Y-117970300D01*
X127055600Y-118016232D01*
X127055601Y-134586758D01*
X127051076Y-134632700D01*
X127069129Y-134815991D01*
X127116140Y-134970963D01*
X127122594Y-134992240D01*
X127209415Y-135154672D01*
X127326257Y-135297044D01*
X127361936Y-135326325D01*
X131829311Y-139793700D01*
X113188690Y-139793700D01*
X110436135Y-137041146D01*
X110461300Y-136914633D01*
X110461300Y-136592567D01*
X110398468Y-136276688D01*
X110275218Y-135979137D01*
X110096287Y-135711348D01*
X109868552Y-135483613D01*
X109600763Y-135304682D01*
X109303212Y-135181432D01*
X108987333Y-135118600D01*
X108665267Y-135118600D01*
X108349388Y-135181432D01*
X108051837Y-135304682D01*
X107784048Y-135483613D01*
X107556313Y-135711348D01*
X107377382Y-135979137D01*
X107254132Y-136276688D01*
X107191300Y-136592567D01*
X107191300Y-136914633D01*
X107254132Y-137230512D01*
X107377382Y-137528063D01*
X107556313Y-137795852D01*
X107784048Y-138023587D01*
X108051837Y-138202518D01*
X108349388Y-138325768D01*
X108665267Y-138388600D01*
X108987333Y-138388600D01*
X109113846Y-138363435D01*
X112107774Y-141357364D01*
X112137056Y-141393044D01*
X112279428Y-141509886D01*
X112441860Y-141596707D01*
X112564643Y-141633953D01*
X112618107Y-141650171D01*
X112801399Y-141668224D01*
X112847331Y-141663700D01*
X131400611Y-141663700D01*
X131765811Y-142028900D01*
X110953490Y-142028900D01*
X107830827Y-138906238D01*
X107830823Y-138906233D01*
X105201930Y-136277341D01*
X105172644Y-136241656D01*
X105030272Y-136124814D01*
X104867840Y-136037993D01*
X104691592Y-135984529D01*
X104554232Y-135971000D01*
X104508300Y-135966476D01*
X104462368Y-135971000D01*
X97505731Y-135971000D01*
X97459799Y-135966476D01*
X97276507Y-135984529D01*
X97235096Y-135997091D01*
X97100260Y-136037993D01*
X96937828Y-136124814D01*
X96795456Y-136241656D01*
X96766174Y-136277336D01*
X96375746Y-136667765D01*
X96249233Y-136642600D01*
X95927167Y-136642600D01*
X95611288Y-136705432D01*
X95313737Y-136828682D01*
X95045948Y-137007613D01*
X94818213Y-137235348D01*
X94639282Y-137503137D01*
X94516032Y-137800688D01*
X94453200Y-138116567D01*
X94453200Y-138438633D01*
X94516032Y-138754512D01*
X94639282Y-139052063D01*
X94818213Y-139319852D01*
X95045948Y-139547587D01*
X95313737Y-139726518D01*
X95611288Y-139849768D01*
X95927167Y-139912600D01*
X96249233Y-139912600D01*
X96565112Y-139849768D01*
X96862663Y-139726518D01*
X97130452Y-139547587D01*
X97358187Y-139319852D01*
X97537118Y-139052063D01*
X97660368Y-138754512D01*
X97723200Y-138438633D01*
X97723200Y-138116567D01*
X97698035Y-137990054D01*
X97847090Y-137841000D01*
X104121011Y-137841000D01*
X106508533Y-140228523D01*
X106508538Y-140228527D01*
X109782110Y-143502100D01*
X92652789Y-143502100D01*
X89661013Y-140510324D01*
X100358500Y-140510324D01*
X100358500Y-141009676D01*
X100455918Y-141499432D01*
X100647012Y-141960773D01*
X100924437Y-142375968D01*
X101277532Y-142729063D01*
X101692727Y-143006488D01*
X102154068Y-143197582D01*
X102643824Y-143295000D01*
X103143176Y-143295000D01*
X103632932Y-143197582D01*
X104094273Y-143006488D01*
X104509468Y-142729063D01*
X104862563Y-142375968D01*
X105139988Y-141960773D01*
X105331082Y-141499432D01*
X105428500Y-141009676D01*
X105428500Y-140510324D01*
X105331082Y-140020568D01*
X105139988Y-139559227D01*
X104862563Y-139144032D01*
X104509468Y-138790937D01*
X104094273Y-138513512D01*
X103632932Y-138322418D01*
X103143176Y-138225000D01*
X102643824Y-138225000D01*
X102154068Y-138322418D01*
X101692727Y-138513512D01*
X101277532Y-138790937D01*
X100924437Y-139144032D01*
X100647012Y-139559227D01*
X100455918Y-140020568D01*
X100358500Y-140510324D01*
X89661013Y-140510324D01*
X88998535Y-139847846D01*
X89023700Y-139721333D01*
X89023700Y-139399267D01*
X88960868Y-139083388D01*
X88837618Y-138785837D01*
X88658687Y-138518048D01*
X88430952Y-138290313D01*
X88163163Y-138111382D01*
X87865612Y-137988132D01*
X87549733Y-137925300D01*
X87227667Y-137925300D01*
X86911788Y-137988132D01*
X86614237Y-138111382D01*
X86346448Y-138290313D01*
X86118713Y-138518048D01*
X85939782Y-138785837D01*
X85816532Y-139083388D01*
X85753700Y-139399267D01*
X85753700Y-139721333D01*
X85816532Y-140037212D01*
X85939782Y-140334763D01*
X86118713Y-140602552D01*
X86346448Y-140830287D01*
X86614237Y-141009218D01*
X86911788Y-141132468D01*
X87227667Y-141195300D01*
X87549733Y-141195300D01*
X87676246Y-141170135D01*
X91571870Y-145065759D01*
X91601156Y-145101444D01*
X91743528Y-145218286D01*
X91849380Y-145274865D01*
X91905959Y-145305107D01*
X92082208Y-145358572D01*
X92265500Y-145376624D01*
X92311435Y-145372100D01*
X125085610Y-145372100D01*
X124695011Y-145762700D01*
X88664989Y-145762700D01*
X85707430Y-142805141D01*
X85678144Y-142769456D01*
X85571641Y-142682051D01*
X81962735Y-139073146D01*
X81987900Y-138946633D01*
X81987900Y-138624567D01*
X81925068Y-138308688D01*
X81801818Y-138011137D01*
X81622887Y-137743348D01*
X81395152Y-137515613D01*
X81127363Y-137336682D01*
X80829812Y-137213432D01*
X80513933Y-137150600D01*
X80191867Y-137150600D01*
X79875988Y-137213432D01*
X79578437Y-137336682D01*
X79310648Y-137515613D01*
X79082913Y-137743348D01*
X78903982Y-138011137D01*
X78780732Y-138308688D01*
X78717900Y-138624567D01*
X78717900Y-138946633D01*
X78780732Y-139262512D01*
X78903982Y-139560063D01*
X79082913Y-139827852D01*
X79310648Y-140055587D01*
X79578437Y-140234518D01*
X79875988Y-140357768D01*
X80191867Y-140420600D01*
X80513933Y-140420600D01*
X80640446Y-140395435D01*
X84307474Y-144062464D01*
X84336756Y-144098144D01*
X84443265Y-144185554D01*
X87584070Y-147326359D01*
X87613356Y-147362044D01*
X87755728Y-147478886D01*
X87861580Y-147535465D01*
X87918159Y-147565707D01*
X88094408Y-147619172D01*
X88277700Y-147637224D01*
X88323635Y-147632700D01*
X125036368Y-147632700D01*
X125082300Y-147637224D01*
X125128232Y-147632700D01*
X125265592Y-147619171D01*
X125441840Y-147565707D01*
X125604272Y-147478886D01*
X125746644Y-147362044D01*
X125775930Y-147326359D01*
X126396690Y-146705600D01*
X127464147Y-146705600D01*
X127393937Y-146734682D01*
X127126148Y-146913613D01*
X126898413Y-147141348D01*
X126826727Y-147248634D01*
X126708110Y-147260317D01*
X126689707Y-147262129D01*
X126642636Y-147276408D01*
X126513460Y-147315593D01*
X126351028Y-147402414D01*
X126208656Y-147519256D01*
X126179374Y-147554936D01*
X123678936Y-150055375D01*
X123643257Y-150084656D01*
X123526415Y-150227028D01*
X123444424Y-150380424D01*
X123439594Y-150389460D01*
X123386129Y-150565709D01*
X123368076Y-150749000D01*
X123372601Y-150794942D01*
X123372601Y-151102178D01*
X123356499Y-151063305D01*
X123188512Y-150811895D01*
X122974705Y-150598088D01*
X122723295Y-150430101D01*
X122443943Y-150314389D01*
X122147384Y-150255400D01*
X121845016Y-150255400D01*
X121548457Y-150314389D01*
X121269105Y-150430101D01*
X121017695Y-150598088D01*
X120921518Y-150694266D01*
X120837622Y-150610370D01*
X120721674Y-150726318D01*
X120637992Y-150472139D01*
X120365425Y-150341242D01*
X120072558Y-150266035D01*
X119770647Y-150249409D01*
X119471293Y-150292003D01*
X119186001Y-150392178D01*
X119036408Y-150472139D01*
X118952726Y-150726318D01*
X118836778Y-150610370D01*
X118752883Y-150694266D01*
X118656705Y-150598088D01*
X118405295Y-150430101D01*
X118125943Y-150314389D01*
X117829384Y-150255400D01*
X117527016Y-150255400D01*
X117230457Y-150314389D01*
X116951105Y-150430101D01*
X116894142Y-150468163D01*
X116870385Y-150439215D01*
X116773694Y-150359863D01*
X116663380Y-150300898D01*
X116543682Y-150264588D01*
X116419200Y-150252328D01*
X114619200Y-150252328D01*
X114494718Y-150264588D01*
X114375020Y-150300898D01*
X114264706Y-150359863D01*
X114168015Y-150439215D01*
X114088663Y-150535906D01*
X114029698Y-150646220D01*
X113993388Y-150765918D01*
X113981128Y-150890400D01*
X113981128Y-152690400D01*
X113993388Y-152814882D01*
X114029698Y-152934580D01*
X114088663Y-153044894D01*
X114168015Y-153141585D01*
X114264706Y-153220937D01*
X114375020Y-153279902D01*
X114494718Y-153316212D01*
X114619200Y-153328472D01*
X116419200Y-153328472D01*
X116543682Y-153316212D01*
X116663380Y-153279902D01*
X116773694Y-153220937D01*
X116870385Y-153141585D01*
X116894142Y-153112637D01*
X116951105Y-153150699D01*
X117230457Y-153266411D01*
X117527016Y-153325400D01*
X117829384Y-153325400D01*
X118125943Y-153266411D01*
X118405295Y-153150699D01*
X118656705Y-152982712D01*
X118752883Y-152886535D01*
X118836778Y-152970430D01*
X118952726Y-152854482D01*
X119036408Y-153108661D01*
X119308975Y-153239558D01*
X119601842Y-153314765D01*
X119903753Y-153331391D01*
X120203107Y-153288797D01*
X120488399Y-153188622D01*
X120637992Y-153108661D01*
X120721674Y-152854482D01*
X120837622Y-152970430D01*
X120921518Y-152886535D01*
X121017695Y-152982712D01*
X121269105Y-153150699D01*
X121548457Y-153266411D01*
X121845016Y-153325400D01*
X122147384Y-153325400D01*
X122443943Y-153266411D01*
X122723295Y-153150699D01*
X122974705Y-152982712D01*
X123188512Y-152768905D01*
X123356499Y-152517495D01*
X123372601Y-152478622D01*
X123372600Y-155846568D01*
X123368076Y-155892500D01*
X123372600Y-155938431D01*
X123386129Y-156075791D01*
X123439593Y-156252039D01*
X123526414Y-156414471D01*
X123643256Y-156556844D01*
X123678941Y-156586130D01*
X124934774Y-157841964D01*
X124964056Y-157877644D01*
X125106428Y-157994486D01*
X125268860Y-158081307D01*
X125391643Y-158118553D01*
X125445107Y-158134771D01*
X125628399Y-158152824D01*
X125674331Y-158148300D01*
X141152668Y-158148300D01*
X141198600Y-158152824D01*
X141244532Y-158148300D01*
X141381892Y-158134771D01*
X141558140Y-158081307D01*
X141720572Y-157994486D01*
X141862944Y-157877644D01*
X141892230Y-157841959D01*
X142792459Y-156941730D01*
X142828144Y-156912444D01*
X142944986Y-156770072D01*
X143031807Y-156607640D01*
X143085271Y-156431392D01*
X143098800Y-156294032D01*
X143103324Y-156248100D01*
X143098800Y-156202168D01*
X143098800Y-155931073D01*
X143243313Y-156147352D01*
X143471048Y-156375087D01*
X143738837Y-156554018D01*
X144036388Y-156677268D01*
X144352267Y-156740100D01*
X144674333Y-156740100D01*
X144990212Y-156677268D01*
X145065400Y-156646124D01*
X152290700Y-156646124D01*
X152290700Y-157145476D01*
X152388118Y-157635232D01*
X152579212Y-158096573D01*
X152856637Y-158511768D01*
X153209732Y-158864863D01*
X153624927Y-159142288D01*
X154086268Y-159333382D01*
X154576024Y-159430800D01*
X155075376Y-159430800D01*
X155565132Y-159333382D01*
X156026473Y-159142288D01*
X156441668Y-158864863D01*
X156794763Y-158511768D01*
X157072188Y-158096573D01*
X157263282Y-157635232D01*
X157360700Y-157145476D01*
X157360700Y-156646124D01*
X157263282Y-156156368D01*
X157072188Y-155695027D01*
X156794763Y-155279832D01*
X156441668Y-154926737D01*
X156026473Y-154649312D01*
X155565132Y-154458218D01*
X155075376Y-154360800D01*
X154576024Y-154360800D01*
X154086268Y-154458218D01*
X153624927Y-154649312D01*
X153209732Y-154926737D01*
X152856637Y-155279832D01*
X152579212Y-155695027D01*
X152388118Y-156156368D01*
X152290700Y-156646124D01*
X145065400Y-156646124D01*
X145287763Y-156554018D01*
X145555552Y-156375087D01*
X145783287Y-156147352D01*
X145962218Y-155879563D01*
X146085468Y-155582012D01*
X146148300Y-155266133D01*
X146148300Y-154944067D01*
X146085468Y-154628188D01*
X145962218Y-154330637D01*
X145783287Y-154062848D01*
X145555552Y-153835113D01*
X145448300Y-153763449D01*
X145448300Y-149678889D01*
X146969201Y-151199790D01*
X146969200Y-152163249D01*
X146861948Y-152234913D01*
X146634213Y-152462648D01*
X146455282Y-152730437D01*
X146332032Y-153027988D01*
X146269200Y-153343867D01*
X146269200Y-153665933D01*
X146332032Y-153981812D01*
X146455282Y-154279363D01*
X146634213Y-154547152D01*
X146861948Y-154774887D01*
X147129737Y-154953818D01*
X147427288Y-155077068D01*
X147743167Y-155139900D01*
X148065233Y-155139900D01*
X148381112Y-155077068D01*
X148678663Y-154953818D01*
X148946452Y-154774887D01*
X149174187Y-154547152D01*
X149353118Y-154279363D01*
X149476368Y-153981812D01*
X149539200Y-153665933D01*
X149539200Y-153343867D01*
X149476368Y-153027988D01*
X149353118Y-152730437D01*
X149174187Y-152462648D01*
X148946452Y-152234913D01*
X148839200Y-152163249D01*
X148839200Y-150858435D01*
X148843724Y-150812500D01*
X148825672Y-150629208D01*
X148794159Y-150525328D01*
X148772207Y-150452960D01*
X148685386Y-150290528D01*
X148568544Y-150148156D01*
X148532859Y-150118870D01*
X140915489Y-142501500D01*
X145580428Y-142501500D01*
X145592688Y-142625982D01*
X145628998Y-142745680D01*
X145687963Y-142855994D01*
X145767315Y-142952685D01*
X145864006Y-143032037D01*
X145974320Y-143091002D01*
X146094018Y-143127312D01*
X146218500Y-143139572D01*
X148282750Y-143136500D01*
X148441500Y-142977750D01*
X148441500Y-139128500D01*
X145742250Y-139128500D01*
X145583500Y-139287250D01*
X145580428Y-142501500D01*
X140915489Y-142501500D01*
X138679200Y-140265211D01*
X138679200Y-138827439D01*
X141138500Y-138827439D01*
X141138500Y-139080561D01*
X141187881Y-139328821D01*
X141284747Y-139562676D01*
X141425375Y-139773140D01*
X141604360Y-139952125D01*
X141814824Y-140092753D01*
X142048679Y-140189619D01*
X142296939Y-140239000D01*
X142550061Y-140239000D01*
X142798321Y-140189619D01*
X143032176Y-140092753D01*
X143242640Y-139952125D01*
X143421625Y-139773140D01*
X143562253Y-139562676D01*
X143659119Y-139328821D01*
X143708500Y-139080561D01*
X143708500Y-138827439D01*
X143659119Y-138579179D01*
X143562253Y-138345324D01*
X143421625Y-138134860D01*
X143242640Y-137955875D01*
X143032176Y-137815247D01*
X142798321Y-137718381D01*
X142550061Y-137669000D01*
X142296939Y-137669000D01*
X142048679Y-137718381D01*
X141814824Y-137815247D01*
X141604360Y-137955875D01*
X141425375Y-138134860D01*
X141284747Y-138345324D01*
X141187881Y-138579179D01*
X141138500Y-138827439D01*
X138679200Y-138827439D01*
X138679200Y-136201089D01*
X139378789Y-135501500D01*
X145580428Y-135501500D01*
X145583500Y-138715750D01*
X145742250Y-138874500D01*
X148441500Y-138874500D01*
X148441500Y-135025250D01*
X148282750Y-134866500D01*
X146218500Y-134863428D01*
X146094018Y-134875688D01*
X145974320Y-134911998D01*
X145864006Y-134970963D01*
X145767315Y-135050315D01*
X145687963Y-135147006D01*
X145628998Y-135257320D01*
X145592688Y-135377018D01*
X145580428Y-135501500D01*
X139378789Y-135501500D01*
X145770616Y-129109674D01*
X145806294Y-129080394D01*
X145893703Y-128973886D01*
X149282090Y-125585500D01*
X155313168Y-125585500D01*
X155359100Y-125590024D01*
X155405032Y-125585500D01*
X155542392Y-125571971D01*
X155718640Y-125518507D01*
X155881072Y-125431686D01*
X156023444Y-125314844D01*
X156052730Y-125279159D01*
X156303454Y-125028435D01*
X156429967Y-125053600D01*
X156752033Y-125053600D01*
X157067912Y-124990768D01*
X157365463Y-124867518D01*
X157633252Y-124688587D01*
X157860987Y-124460852D01*
X158039918Y-124193063D01*
X158128500Y-123979207D01*
X158128500Y-125730000D01*
X151574500Y-125730000D01*
X151549724Y-125732440D01*
X151525899Y-125739667D01*
X151503943Y-125751403D01*
X151484697Y-125767197D01*
X151468903Y-125786443D01*
X151457167Y-125808399D01*
X151449940Y-125832224D01*
X151447500Y-125857000D01*
X151447500Y-135145133D01*
X151369685Y-135050315D01*
X151272994Y-134970963D01*
X151162680Y-134911998D01*
X151042982Y-134875688D01*
X150918500Y-134863428D01*
X148854250Y-134866500D01*
X148695500Y-135025250D01*
X148695500Y-138874500D01*
X148715500Y-138874500D01*
X148715500Y-139128500D01*
X148695500Y-139128500D01*
X148695500Y-142977750D01*
X148854250Y-143136500D01*
X150918500Y-143139572D01*
X151042982Y-143127312D01*
X151162680Y-143091002D01*
X151272994Y-143032037D01*
X151369685Y-142952685D01*
X151447500Y-142857867D01*
X151447500Y-154051000D01*
X151449940Y-154075776D01*
X151457167Y-154099601D01*
X151468903Y-154121557D01*
X151484697Y-154140803D01*
X151503943Y-154156597D01*
X151525899Y-154168333D01*
X151549724Y-154175560D01*
X151574500Y-154178000D01*
X158128501Y-154178000D01*
X158128501Y-159477500D01*
X61899000Y-159477500D01*
X61899000Y-156214324D01*
X64775000Y-156214324D01*
X64775000Y-156713676D01*
X64872418Y-157203432D01*
X65063512Y-157664773D01*
X65340937Y-158079968D01*
X65694032Y-158433063D01*
X66109227Y-158710488D01*
X66570568Y-158901582D01*
X67060324Y-158999000D01*
X67559676Y-158999000D01*
X68049432Y-158901582D01*
X68510773Y-158710488D01*
X68925968Y-158433063D01*
X69279063Y-158079968D01*
X69556488Y-157664773D01*
X69747582Y-157203432D01*
X69845000Y-156713676D01*
X69845000Y-156265913D01*
X101545892Y-156265913D01*
X101641656Y-156530314D01*
X101931271Y-156671204D01*
X102242808Y-156752884D01*
X102564295Y-156772218D01*
X102883375Y-156728461D01*
X103187788Y-156623295D01*
X103361744Y-156530314D01*
X103457508Y-156265913D01*
X102501700Y-155310105D01*
X101545892Y-156265913D01*
X69845000Y-156265913D01*
X69845000Y-156214324D01*
X69747582Y-155724568D01*
X69556488Y-155263227D01*
X69509628Y-155193095D01*
X100859982Y-155193095D01*
X100903739Y-155512175D01*
X101008905Y-155816588D01*
X101101886Y-155990544D01*
X101366287Y-156086308D01*
X102322095Y-155130500D01*
X102681305Y-155130500D01*
X103637113Y-156086308D01*
X103901514Y-155990544D01*
X104042404Y-155700929D01*
X104124084Y-155389392D01*
X104129417Y-155300713D01*
X110575592Y-155300713D01*
X110671356Y-155565114D01*
X110960971Y-155706004D01*
X111272508Y-155787684D01*
X111593995Y-155807018D01*
X111913075Y-155763261D01*
X112217488Y-155658095D01*
X112391444Y-155565114D01*
X112487208Y-155300713D01*
X111531400Y-154344905D01*
X110575592Y-155300713D01*
X104129417Y-155300713D01*
X104143418Y-155067905D01*
X104099661Y-154748825D01*
X103994495Y-154444412D01*
X103901514Y-154270456D01*
X103784005Y-154227895D01*
X109889682Y-154227895D01*
X109933439Y-154546975D01*
X110038605Y-154851388D01*
X110131586Y-155025344D01*
X110395987Y-155121108D01*
X111351795Y-154165300D01*
X111711005Y-154165300D01*
X112666813Y-155121108D01*
X112931214Y-155025344D01*
X113072104Y-154735729D01*
X113153784Y-154424192D01*
X113173118Y-154102705D01*
X113129361Y-153783625D01*
X113024195Y-153479212D01*
X112931214Y-153305256D01*
X112666813Y-153209492D01*
X111711005Y-154165300D01*
X111351795Y-154165300D01*
X110395987Y-153209492D01*
X110131586Y-153305256D01*
X109990696Y-153594871D01*
X109909016Y-153906408D01*
X109889682Y-154227895D01*
X103784005Y-154227895D01*
X103637113Y-154174692D01*
X102681305Y-155130500D01*
X102322095Y-155130500D01*
X101366287Y-154174692D01*
X101101886Y-154270456D01*
X100960996Y-154560071D01*
X100879316Y-154871608D01*
X100859982Y-155193095D01*
X69509628Y-155193095D01*
X69279063Y-154848032D01*
X68925968Y-154494937D01*
X68510773Y-154217512D01*
X68049432Y-154026418D01*
X67891920Y-153995087D01*
X101545892Y-153995087D01*
X102501700Y-154950895D01*
X103457508Y-153995087D01*
X103361744Y-153730686D01*
X103072129Y-153589796D01*
X102760592Y-153508116D01*
X102439105Y-153488782D01*
X102120025Y-153532539D01*
X101815612Y-153637705D01*
X101641656Y-153730686D01*
X101545892Y-153995087D01*
X67891920Y-153995087D01*
X67559676Y-153929000D01*
X67060324Y-153929000D01*
X66570568Y-154026418D01*
X66109227Y-154217512D01*
X65694032Y-154494937D01*
X65340937Y-154848032D01*
X65063512Y-155263227D01*
X64872418Y-155724568D01*
X64775000Y-156214324D01*
X61899000Y-156214324D01*
X61899000Y-153029887D01*
X110575592Y-153029887D01*
X111531400Y-153985695D01*
X112487208Y-153029887D01*
X112391444Y-152765486D01*
X112101829Y-152624596D01*
X111790292Y-152542916D01*
X111468805Y-152523582D01*
X111149725Y-152567339D01*
X110845312Y-152672505D01*
X110671356Y-152765486D01*
X110575592Y-153029887D01*
X61899000Y-153029887D01*
X61899000Y-111562000D01*
X64080428Y-111562000D01*
X64080428Y-118562000D01*
X64092688Y-118686482D01*
X64128998Y-118806180D01*
X64187963Y-118916494D01*
X64267315Y-119013185D01*
X64364006Y-119092537D01*
X64474320Y-119151502D01*
X64594018Y-119187812D01*
X64718500Y-119200072D01*
X65933501Y-119200072D01*
X65933500Y-134863428D01*
X64718500Y-134863428D01*
X64594018Y-134875688D01*
X64474320Y-134911998D01*
X64364006Y-134970963D01*
X64267315Y-135050315D01*
X64187963Y-135147006D01*
X64128998Y-135257320D01*
X64092688Y-135377018D01*
X64080428Y-135501500D01*
X64080428Y-142501500D01*
X64092688Y-142625982D01*
X64128998Y-142745680D01*
X64187963Y-142855994D01*
X64267315Y-142952685D01*
X64364006Y-143032037D01*
X64474320Y-143091002D01*
X64594018Y-143127312D01*
X64718500Y-143139572D01*
X69418500Y-143139572D01*
X69542982Y-143127312D01*
X69662680Y-143091002D01*
X69772994Y-143032037D01*
X69869685Y-142952685D01*
X69949037Y-142855994D01*
X70008002Y-142745680D01*
X70044312Y-142625982D01*
X70056572Y-142501500D01*
X70056572Y-141501011D01*
X70247012Y-141960773D01*
X70524437Y-142375968D01*
X70877532Y-142729063D01*
X71292727Y-143006488D01*
X71754068Y-143197582D01*
X72243824Y-143295000D01*
X72743176Y-143295000D01*
X73232932Y-143197582D01*
X73694273Y-143006488D01*
X74109468Y-142729063D01*
X74462563Y-142375968D01*
X74739988Y-141960773D01*
X74931082Y-141499432D01*
X75028500Y-141009676D01*
X75028500Y-140510324D01*
X74931082Y-140020568D01*
X74739988Y-139559227D01*
X74462563Y-139144032D01*
X74109468Y-138790937D01*
X73694273Y-138513512D01*
X73232932Y-138322418D01*
X72743176Y-138225000D01*
X72243824Y-138225000D01*
X71754068Y-138322418D01*
X71292727Y-138513512D01*
X70877532Y-138790937D01*
X70524437Y-139144032D01*
X70247012Y-139559227D01*
X70056572Y-140018989D01*
X70056572Y-135501500D01*
X70044312Y-135377018D01*
X70008002Y-135257320D01*
X69949037Y-135147006D01*
X69869685Y-135050315D01*
X69772994Y-134970963D01*
X69662680Y-134911998D01*
X69542982Y-134875688D01*
X69418500Y-134863428D01*
X68203500Y-134863428D01*
X68203500Y-130967513D01*
X77936592Y-130967513D01*
X78032356Y-131231914D01*
X78321971Y-131372804D01*
X78633508Y-131454484D01*
X78954995Y-131473818D01*
X79274075Y-131430061D01*
X79578488Y-131324895D01*
X79752444Y-131231914D01*
X79848208Y-130967513D01*
X78892400Y-130011705D01*
X77936592Y-130967513D01*
X68203500Y-130967513D01*
X68203500Y-129894695D01*
X77250682Y-129894695D01*
X77294439Y-130213775D01*
X77399605Y-130518188D01*
X77492586Y-130692144D01*
X77756987Y-130787908D01*
X78712795Y-129832100D01*
X79072005Y-129832100D01*
X80027813Y-130787908D01*
X80292214Y-130692144D01*
X80312709Y-130650013D01*
X87855292Y-130650013D01*
X87951056Y-130914414D01*
X88240671Y-131055304D01*
X88552208Y-131136984D01*
X88873695Y-131156318D01*
X89192775Y-131112561D01*
X89497188Y-131007395D01*
X89671144Y-130914414D01*
X89766908Y-130650013D01*
X89678008Y-130561113D01*
X97481892Y-130561113D01*
X97577656Y-130825514D01*
X97867271Y-130966404D01*
X98178808Y-131048084D01*
X98500295Y-131067418D01*
X98819375Y-131023661D01*
X99123788Y-130918495D01*
X99297744Y-130825514D01*
X99393508Y-130561113D01*
X98437700Y-129605305D01*
X97481892Y-130561113D01*
X89678008Y-130561113D01*
X88811100Y-129694205D01*
X87855292Y-130650013D01*
X80312709Y-130650013D01*
X80433104Y-130402529D01*
X80514784Y-130090992D01*
X80534118Y-129769505D01*
X80507746Y-129577195D01*
X87169382Y-129577195D01*
X87213139Y-129896275D01*
X87318305Y-130200688D01*
X87411286Y-130374644D01*
X87675687Y-130470408D01*
X88631495Y-129514600D01*
X88990705Y-129514600D01*
X89946513Y-130470408D01*
X90210914Y-130374644D01*
X90351804Y-130085029D01*
X90433484Y-129773492D01*
X90450635Y-129488295D01*
X96795982Y-129488295D01*
X96839739Y-129807375D01*
X96944905Y-130111788D01*
X97037886Y-130285744D01*
X97302287Y-130381508D01*
X98258095Y-129425700D01*
X98617305Y-129425700D01*
X99573113Y-130381508D01*
X99837514Y-130285744D01*
X99978404Y-129996129D01*
X100060084Y-129684592D01*
X100079418Y-129363105D01*
X100035661Y-129044025D01*
X99930495Y-128739612D01*
X99837514Y-128565656D01*
X99573113Y-128469892D01*
X98617305Y-129425700D01*
X98258095Y-129425700D01*
X97302287Y-128469892D01*
X97037886Y-128565656D01*
X96896996Y-128855271D01*
X96815316Y-129166808D01*
X96795982Y-129488295D01*
X90450635Y-129488295D01*
X90452818Y-129452005D01*
X90409061Y-129132925D01*
X90303895Y-128828512D01*
X90210914Y-128654556D01*
X89946513Y-128558792D01*
X88990705Y-129514600D01*
X88631495Y-129514600D01*
X87675687Y-128558792D01*
X87411286Y-128654556D01*
X87270396Y-128944171D01*
X87188716Y-129255708D01*
X87169382Y-129577195D01*
X80507746Y-129577195D01*
X80490361Y-129450425D01*
X80385195Y-129146012D01*
X80292214Y-128972056D01*
X80027813Y-128876292D01*
X79072005Y-129832100D01*
X78712795Y-129832100D01*
X77756987Y-128876292D01*
X77492586Y-128972056D01*
X77351696Y-129261671D01*
X77270016Y-129573208D01*
X77250682Y-129894695D01*
X68203500Y-129894695D01*
X68203500Y-128696687D01*
X77936592Y-128696687D01*
X78892400Y-129652495D01*
X79848208Y-128696687D01*
X79752444Y-128432286D01*
X79643294Y-128379187D01*
X87855292Y-128379187D01*
X88811100Y-129334995D01*
X89766908Y-128379187D01*
X89734710Y-128290287D01*
X97481892Y-128290287D01*
X98437700Y-129246095D01*
X99393508Y-128290287D01*
X99297744Y-128025886D01*
X99008129Y-127884996D01*
X98696592Y-127803316D01*
X98375105Y-127783982D01*
X98056025Y-127827739D01*
X97751612Y-127932905D01*
X97577656Y-128025886D01*
X97481892Y-128290287D01*
X89734710Y-128290287D01*
X89671144Y-128114786D01*
X89381529Y-127973896D01*
X89069992Y-127892216D01*
X88748505Y-127872882D01*
X88429425Y-127916639D01*
X88125012Y-128021805D01*
X87951056Y-128114786D01*
X87855292Y-128379187D01*
X79643294Y-128379187D01*
X79462829Y-128291396D01*
X79151292Y-128209716D01*
X78829805Y-128190382D01*
X78510725Y-128234139D01*
X78206312Y-128339305D01*
X78032356Y-128432286D01*
X77936592Y-128696687D01*
X68203500Y-128696687D01*
X68203500Y-123855513D01*
X100923592Y-123855513D01*
X101019356Y-124119914D01*
X101308971Y-124260804D01*
X101620508Y-124342484D01*
X101941995Y-124361818D01*
X102261075Y-124318061D01*
X102565488Y-124212895D01*
X102739444Y-124119914D01*
X102835208Y-123855513D01*
X101879400Y-122899705D01*
X100923592Y-123855513D01*
X68203500Y-123855513D01*
X68203500Y-122782695D01*
X100237682Y-122782695D01*
X100281439Y-123101775D01*
X100386605Y-123406188D01*
X100479586Y-123580144D01*
X100743987Y-123675908D01*
X101699795Y-122720100D01*
X102059005Y-122720100D01*
X103014813Y-123675908D01*
X103279214Y-123580144D01*
X103420104Y-123290529D01*
X103501784Y-122978992D01*
X103521118Y-122657505D01*
X103477361Y-122338425D01*
X103372195Y-122034012D01*
X103279214Y-121860056D01*
X103014813Y-121764292D01*
X102059005Y-122720100D01*
X101699795Y-122720100D01*
X100743987Y-121764292D01*
X100479586Y-121860056D01*
X100338696Y-122149671D01*
X100257016Y-122461208D01*
X100237682Y-122782695D01*
X68203500Y-122782695D01*
X68203500Y-121584687D01*
X100923592Y-121584687D01*
X101879400Y-122540495D01*
X102835208Y-121584687D01*
X102739444Y-121320286D01*
X102449829Y-121179396D01*
X102138292Y-121097716D01*
X101816805Y-121078382D01*
X101497725Y-121122139D01*
X101193312Y-121227305D01*
X101019356Y-121320286D01*
X100923592Y-121584687D01*
X68203500Y-121584687D01*
X68203500Y-119200072D01*
X69418500Y-119200072D01*
X69542982Y-119187812D01*
X69662680Y-119151502D01*
X69772994Y-119092537D01*
X69869685Y-119013185D01*
X69949037Y-118916494D01*
X70008002Y-118806180D01*
X70044312Y-118686482D01*
X70056572Y-118562000D01*
X70056572Y-113001011D01*
X70247012Y-113460773D01*
X70524437Y-113875968D01*
X70877532Y-114229063D01*
X71292727Y-114506488D01*
X71754068Y-114697582D01*
X72243824Y-114795000D01*
X72743176Y-114795000D01*
X73232932Y-114697582D01*
X73694273Y-114506488D01*
X74109468Y-114229063D01*
X74462563Y-113875968D01*
X74739988Y-113460773D01*
X74931082Y-112999432D01*
X75028500Y-112509676D01*
X75028500Y-112010324D01*
X100358500Y-112010324D01*
X100358500Y-112509676D01*
X100455918Y-112999432D01*
X100647012Y-113460773D01*
X100924437Y-113875968D01*
X101277532Y-114229063D01*
X101692727Y-114506488D01*
X102154068Y-114697582D01*
X102643824Y-114795000D01*
X103143176Y-114795000D01*
X103632932Y-114697582D01*
X104094273Y-114506488D01*
X104509468Y-114229063D01*
X104862563Y-113875968D01*
X105139988Y-113460773D01*
X105331082Y-112999432D01*
X105428500Y-112509676D01*
X105428500Y-112010324D01*
X105331082Y-111520568D01*
X105139988Y-111059227D01*
X104862563Y-110644032D01*
X104509468Y-110290937D01*
X104094273Y-110013512D01*
X103632932Y-109822418D01*
X103143176Y-109725000D01*
X102643824Y-109725000D01*
X102154068Y-109822418D01*
X101692727Y-110013512D01*
X101277532Y-110290937D01*
X100924437Y-110644032D01*
X100647012Y-111059227D01*
X100455918Y-111520568D01*
X100358500Y-112010324D01*
X75028500Y-112010324D01*
X74931082Y-111520568D01*
X74739988Y-111059227D01*
X74462563Y-110644032D01*
X74109468Y-110290937D01*
X73694273Y-110013512D01*
X73232932Y-109822418D01*
X72743176Y-109725000D01*
X72243824Y-109725000D01*
X71754068Y-109822418D01*
X71292727Y-110013512D01*
X70877532Y-110290937D01*
X70524437Y-110644032D01*
X70247012Y-111059227D01*
X70055918Y-111520568D01*
X70053626Y-111532090D01*
X70044312Y-111437518D01*
X70008002Y-111317820D01*
X69949037Y-111207506D01*
X69869685Y-111110815D01*
X69772994Y-111031463D01*
X69662680Y-110972498D01*
X69542982Y-110936188D01*
X69418500Y-110923928D01*
X68203500Y-110923928D01*
X68203500Y-109995131D01*
X70078832Y-108119800D01*
X93809949Y-108119800D01*
X93865700Y-108125291D01*
X93921451Y-108119800D01*
X93921452Y-108119800D01*
X94088199Y-108103377D01*
X94302147Y-108038476D01*
X94499323Y-107933084D01*
X94672149Y-107791249D01*
X94707695Y-107747936D01*
X95505140Y-106950492D01*
X95548449Y-106914949D01*
X95690284Y-106742123D01*
X95795676Y-106544947D01*
X95860577Y-106330999D01*
X95877000Y-106164252D01*
X95877000Y-106164243D01*
X95882490Y-106108501D01*
X95877000Y-106052759D01*
X95877000Y-105914139D01*
X96011987Y-105779152D01*
X96190918Y-105511363D01*
X96314168Y-105213812D01*
X96377000Y-104897933D01*
X96377000Y-104707032D01*
X96444032Y-104640000D01*
X101354000Y-104640000D01*
X101354001Y-106243239D01*
X101348509Y-106299000D01*
X101370423Y-106521498D01*
X101435324Y-106735446D01*
X101449679Y-106762302D01*
X101540717Y-106932623D01*
X101682552Y-107105449D01*
X101725860Y-107140991D01*
X103907609Y-109322741D01*
X103943151Y-109366049D01*
X104115977Y-109507884D01*
X104313153Y-109613276D01*
X104477305Y-109663071D01*
X104527100Y-109678177D01*
X104548093Y-109680244D01*
X104693848Y-109694600D01*
X104693855Y-109694600D01*
X104749599Y-109700090D01*
X104805343Y-109694600D01*
X107276669Y-109694600D01*
X108720000Y-111137932D01*
X108720001Y-125567878D01*
X108610820Y-125600998D01*
X108500506Y-125659963D01*
X108403815Y-125739315D01*
X108324463Y-125836006D01*
X108265498Y-125946320D01*
X108229188Y-126066018D01*
X108216928Y-126190500D01*
X108216928Y-128190500D01*
X108229188Y-128314982D01*
X108265498Y-128434680D01*
X108324463Y-128544994D01*
X108403815Y-128641685D01*
X108500506Y-128721037D01*
X108610820Y-128780002D01*
X108730518Y-128816312D01*
X108855000Y-128828572D01*
X110855000Y-128828572D01*
X110979482Y-128816312D01*
X111099180Y-128780002D01*
X111209494Y-128721037D01*
X111306185Y-128641685D01*
X111385537Y-128544994D01*
X111444502Y-128434680D01*
X111480812Y-128314982D01*
X111493072Y-128190500D01*
X111493072Y-126190500D01*
X111480812Y-126066018D01*
X111444502Y-125946320D01*
X111385537Y-125836006D01*
X111306185Y-125739315D01*
X111209494Y-125659963D01*
X111099180Y-125600998D01*
X110990000Y-125567879D01*
X110990000Y-122428000D01*
X111963476Y-122428000D01*
X111968001Y-122473942D01*
X111968000Y-125150668D01*
X111963476Y-125196600D01*
X111971608Y-125279167D01*
X111981529Y-125379891D01*
X112034993Y-125556139D01*
X112121814Y-125718571D01*
X112238656Y-125860944D01*
X112274341Y-125890230D01*
X114203274Y-127819164D01*
X114232556Y-127854844D01*
X114374928Y-127971686D01*
X114537360Y-128058507D01*
X114660143Y-128095753D01*
X114713607Y-128111971D01*
X114732010Y-128113783D01*
X114850968Y-128125500D01*
X114850974Y-128125500D01*
X114896899Y-128130023D01*
X114942824Y-128125500D01*
X116113349Y-128125500D01*
X116185013Y-128232752D01*
X116412748Y-128460487D01*
X116680537Y-128639418D01*
X116978088Y-128762668D01*
X117293967Y-128825500D01*
X117616033Y-128825500D01*
X117931912Y-128762668D01*
X118229463Y-128639418D01*
X118497252Y-128460487D01*
X118724987Y-128232752D01*
X118903918Y-127964963D01*
X119027168Y-127667412D01*
X119090000Y-127351533D01*
X119090000Y-127029467D01*
X119027168Y-126713588D01*
X118903918Y-126416037D01*
X118724987Y-126148248D01*
X118497252Y-125920513D01*
X118229463Y-125741582D01*
X117931912Y-125618332D01*
X117616033Y-125555500D01*
X117293967Y-125555500D01*
X116978088Y-125618332D01*
X116680537Y-125741582D01*
X116412748Y-125920513D01*
X116185013Y-126148248D01*
X116113349Y-126255500D01*
X115284190Y-126255500D01*
X113838000Y-124809311D01*
X113838000Y-122815289D01*
X116895354Y-119757935D01*
X117021867Y-119783100D01*
X117343933Y-119783100D01*
X117659812Y-119720268D01*
X117957363Y-119597018D01*
X118225152Y-119418087D01*
X118452887Y-119190352D01*
X118631818Y-118922563D01*
X118755068Y-118625012D01*
X118817900Y-118309133D01*
X118817900Y-117987067D01*
X118755068Y-117671188D01*
X118631818Y-117373637D01*
X118452887Y-117105848D01*
X118225152Y-116878113D01*
X117957363Y-116699182D01*
X117659812Y-116575932D01*
X117343933Y-116513100D01*
X117021867Y-116513100D01*
X116705988Y-116575932D01*
X116408437Y-116699182D01*
X116140648Y-116878113D01*
X115912913Y-117105848D01*
X115733982Y-117373637D01*
X115610732Y-117671188D01*
X115547900Y-117987067D01*
X115547900Y-118309133D01*
X115573065Y-118435646D01*
X112274336Y-121734375D01*
X112238657Y-121763656D01*
X112121815Y-121906028D01*
X112095809Y-121954682D01*
X112034994Y-122068460D01*
X111981529Y-122244709D01*
X111963476Y-122428000D01*
X110990000Y-122428000D01*
X110990000Y-110723551D01*
X110995491Y-110667799D01*
X110973577Y-110445301D01*
X110908676Y-110231353D01*
X110803284Y-110034177D01*
X110661449Y-109861351D01*
X110618141Y-109825809D01*
X108588796Y-107796465D01*
X108553249Y-107753151D01*
X108380423Y-107611316D01*
X108183247Y-107505924D01*
X107969299Y-107441023D01*
X107802552Y-107424600D01*
X107802551Y-107424600D01*
X107746800Y-107419109D01*
X107691049Y-107424600D01*
X105219732Y-107424600D01*
X104974499Y-107179367D01*
X112626900Y-107179367D01*
X112626900Y-107501433D01*
X112689732Y-107817312D01*
X112812982Y-108114863D01*
X112991913Y-108382652D01*
X113219648Y-108610387D01*
X113487437Y-108789318D01*
X113784988Y-108912568D01*
X114100867Y-108975400D01*
X114422933Y-108975400D01*
X114738812Y-108912568D01*
X115036363Y-108789318D01*
X115304152Y-108610387D01*
X115531887Y-108382652D01*
X115710818Y-108114863D01*
X115834068Y-107817312D01*
X115896900Y-107501433D01*
X115896900Y-107179367D01*
X115834068Y-106863488D01*
X115710818Y-106565937D01*
X115531887Y-106298148D01*
X115396900Y-106163161D01*
X115396900Y-102781331D01*
X116121232Y-102057000D01*
X130311928Y-102057000D01*
X130324188Y-102181482D01*
X130360498Y-102301180D01*
X130419463Y-102411494D01*
X130498815Y-102508185D01*
X130595506Y-102587537D01*
X130705820Y-102646502D01*
X130825518Y-102682812D01*
X130950000Y-102695072D01*
X131921250Y-102692000D01*
X132080000Y-102533250D01*
X132080000Y-100584000D01*
X132334000Y-100584000D01*
X132334000Y-102533250D01*
X132492750Y-102692000D01*
X133464000Y-102695072D01*
X133588482Y-102682812D01*
X133708180Y-102646502D01*
X133818494Y-102587537D01*
X133915185Y-102508185D01*
X133994537Y-102411494D01*
X134053502Y-102301180D01*
X134089812Y-102181482D01*
X134102072Y-102057000D01*
X134099000Y-100742750D01*
X133940250Y-100584000D01*
X132334000Y-100584000D01*
X132080000Y-100584000D01*
X130473750Y-100584000D01*
X130315000Y-100742750D01*
X130311928Y-102057000D01*
X116121232Y-102057000D01*
X116814418Y-101363815D01*
X117018606Y-101531388D01*
X117358235Y-101712923D01*
X117726754Y-101824712D01*
X118110000Y-101862459D01*
X118493247Y-101824712D01*
X118861766Y-101712923D01*
X119201395Y-101531388D01*
X119499082Y-101287082D01*
X119743388Y-100989395D01*
X119924923Y-100649766D01*
X120036712Y-100281246D01*
X120065000Y-99994037D01*
X120065000Y-99141962D01*
X120036934Y-98857000D01*
X130311928Y-98857000D01*
X130315000Y-100171250D01*
X130473750Y-100330000D01*
X132080000Y-100330000D01*
X132080000Y-98380750D01*
X132334000Y-98380750D01*
X132334000Y-100330000D01*
X133940250Y-100330000D01*
X134099000Y-100171250D01*
X134102072Y-98857000D01*
X134089812Y-98732518D01*
X134053502Y-98612820D01*
X133994537Y-98502506D01*
X133915185Y-98405815D01*
X133818494Y-98326463D01*
X133708180Y-98267498D01*
X133588482Y-98231188D01*
X133464000Y-98218928D01*
X132492750Y-98222000D01*
X132334000Y-98380750D01*
X132080000Y-98380750D01*
X131921250Y-98222000D01*
X130950000Y-98218928D01*
X130825518Y-98231188D01*
X130705820Y-98267498D01*
X130595506Y-98326463D01*
X130498815Y-98405815D01*
X130419463Y-98502506D01*
X130360498Y-98612820D01*
X130324188Y-98732518D01*
X130311928Y-98857000D01*
X120036934Y-98857000D01*
X120036712Y-98854753D01*
X119924923Y-98486234D01*
X119743388Y-98146605D01*
X119499082Y-97848918D01*
X119201395Y-97604612D01*
X118861765Y-97423077D01*
X118493246Y-97311288D01*
X118110000Y-97273541D01*
X117726753Y-97311288D01*
X117358234Y-97423077D01*
X117018605Y-97604612D01*
X116720918Y-97848918D01*
X116476612Y-98146605D01*
X116295077Y-98486235D01*
X116215840Y-98747444D01*
X116198651Y-98761551D01*
X116163113Y-98804854D01*
X113498765Y-101469204D01*
X113455451Y-101504751D01*
X113313616Y-101677577D01*
X113234972Y-101824712D01*
X113208224Y-101874754D01*
X113143323Y-102088702D01*
X113121409Y-102311200D01*
X113126900Y-102366952D01*
X113126901Y-106163160D01*
X112991913Y-106298148D01*
X112812982Y-106565937D01*
X112689732Y-106863488D01*
X112626900Y-107179367D01*
X104974499Y-107179367D01*
X103624000Y-105828869D01*
X103624000Y-103975131D01*
X106832632Y-100766500D01*
X108214428Y-100766500D01*
X108214428Y-101031500D01*
X108231492Y-101204754D01*
X108282028Y-101371350D01*
X108364095Y-101524886D01*
X108474538Y-101659462D01*
X108609114Y-101769905D01*
X108762650Y-101851972D01*
X108929246Y-101902508D01*
X109102500Y-101919572D01*
X111242500Y-101919572D01*
X111415754Y-101902508D01*
X111582350Y-101851972D01*
X111735886Y-101769905D01*
X111870462Y-101659462D01*
X111980905Y-101524886D01*
X112062972Y-101371350D01*
X112113508Y-101204754D01*
X112130572Y-101031500D01*
X112130572Y-98231500D01*
X112113508Y-98058246D01*
X112062972Y-97891650D01*
X111980905Y-97738114D01*
X111870462Y-97603538D01*
X111735886Y-97493095D01*
X111582350Y-97411028D01*
X111415754Y-97360492D01*
X111242500Y-97343428D01*
X109102500Y-97343428D01*
X108929246Y-97360492D01*
X108762650Y-97411028D01*
X108609114Y-97493095D01*
X108474538Y-97603538D01*
X108364095Y-97738114D01*
X108282028Y-97891650D01*
X108231492Y-98058246D01*
X108214428Y-98231500D01*
X108214428Y-98496500D01*
X106418243Y-98496500D01*
X106362499Y-98491010D01*
X106306755Y-98496500D01*
X106306748Y-98496500D01*
X106160993Y-98510856D01*
X106140000Y-98512923D01*
X106090205Y-98528029D01*
X105926053Y-98577824D01*
X105728877Y-98683216D01*
X105556051Y-98825051D01*
X105520509Y-98868359D01*
X102018869Y-102370000D01*
X96029652Y-102370000D01*
X95973900Y-102364509D01*
X95751401Y-102386423D01*
X95537453Y-102451324D01*
X95340277Y-102556716D01*
X95210756Y-102663011D01*
X95210754Y-102663013D01*
X95167451Y-102698551D01*
X95131913Y-102741854D01*
X94771868Y-103101900D01*
X94580967Y-103101900D01*
X94265088Y-103164732D01*
X93967537Y-103287982D01*
X93699748Y-103466913D01*
X93472013Y-103694648D01*
X93293082Y-103962437D01*
X93169832Y-104259988D01*
X93107000Y-104575867D01*
X93107000Y-104897933D01*
X93169832Y-105213812D01*
X93293082Y-105511363D01*
X93469691Y-105775677D01*
X93395569Y-105849800D01*
X69664441Y-105849800D01*
X69608699Y-105844310D01*
X69552957Y-105849800D01*
X69552948Y-105849800D01*
X69386201Y-105866223D01*
X69172253Y-105931124D01*
X68975077Y-106036516D01*
X68802251Y-106178351D01*
X68766711Y-106221657D01*
X66305360Y-108683009D01*
X66262052Y-108718551D01*
X66120217Y-108891377D01*
X66098340Y-108932307D01*
X66014824Y-109088554D01*
X65949923Y-109302502D01*
X65928009Y-109525000D01*
X65933501Y-109580761D01*
X65933501Y-110923928D01*
X64718500Y-110923928D01*
X64594018Y-110936188D01*
X64474320Y-110972498D01*
X64364006Y-111031463D01*
X64267315Y-111110815D01*
X64187963Y-111207506D01*
X64128998Y-111317820D01*
X64092688Y-111437518D01*
X64080428Y-111562000D01*
X61899000Y-111562000D01*
X61899000Y-100152000D01*
X86496928Y-100152000D01*
X86509188Y-100276482D01*
X86545498Y-100396180D01*
X86604463Y-100506494D01*
X86683815Y-100603185D01*
X86780506Y-100682537D01*
X86890820Y-100741502D01*
X87010518Y-100777812D01*
X87135000Y-100790072D01*
X88106250Y-100787000D01*
X88265000Y-100628250D01*
X88265000Y-98679000D01*
X88519000Y-98679000D01*
X88519000Y-100628250D01*
X88677750Y-100787000D01*
X89649000Y-100790072D01*
X89773482Y-100777812D01*
X89893180Y-100741502D01*
X90003494Y-100682537D01*
X90100185Y-100603185D01*
X90179537Y-100506494D01*
X90238502Y-100396180D01*
X90274812Y-100276482D01*
X90287072Y-100152000D01*
X90284000Y-98837750D01*
X90125250Y-98679000D01*
X88519000Y-98679000D01*
X88265000Y-98679000D01*
X86658750Y-98679000D01*
X86500000Y-98837750D01*
X86496928Y-100152000D01*
X61899000Y-100152000D01*
X61899000Y-96952000D01*
X86496928Y-96952000D01*
X86500000Y-98266250D01*
X86658750Y-98425000D01*
X88265000Y-98425000D01*
X88265000Y-96475750D01*
X88519000Y-96475750D01*
X88519000Y-98425000D01*
X90125250Y-98425000D01*
X90284000Y-98266250D01*
X90287072Y-96952000D01*
X90274812Y-96827518D01*
X90238502Y-96707820D01*
X90179537Y-96597506D01*
X90100185Y-96500815D01*
X90003494Y-96421463D01*
X89893180Y-96362498D01*
X89773482Y-96326188D01*
X89649000Y-96313928D01*
X88677750Y-96317000D01*
X88519000Y-96475750D01*
X88265000Y-96475750D01*
X88106250Y-96317000D01*
X87135000Y-96313928D01*
X87010518Y-96326188D01*
X86890820Y-96362498D01*
X86780506Y-96421463D01*
X86683815Y-96500815D01*
X86604463Y-96597506D01*
X86545498Y-96707820D01*
X86509188Y-96827518D01*
X86496928Y-96952000D01*
X61899000Y-96952000D01*
X61899000Y-95508324D01*
X101859000Y-95508324D01*
X101859000Y-96007676D01*
X101956418Y-96497432D01*
X102147512Y-96958773D01*
X102424937Y-97373968D01*
X102778032Y-97727063D01*
X103193227Y-98004488D01*
X103654568Y-98195582D01*
X104144324Y-98293000D01*
X104643676Y-98293000D01*
X105133432Y-98195582D01*
X105594773Y-98004488D01*
X106009968Y-97727063D01*
X106363063Y-97373968D01*
X106640488Y-96958773D01*
X106831582Y-96497432D01*
X106929000Y-96007676D01*
X106929000Y-95508324D01*
X106831582Y-95018568D01*
X106640488Y-94557227D01*
X106363063Y-94142032D01*
X106205355Y-93984324D01*
X150119000Y-93984324D01*
X150119000Y-94483676D01*
X150216418Y-94973432D01*
X150407512Y-95434773D01*
X150684937Y-95849968D01*
X151038032Y-96203063D01*
X151453227Y-96480488D01*
X151914568Y-96671582D01*
X152404324Y-96769000D01*
X152903676Y-96769000D01*
X153393432Y-96671582D01*
X153854773Y-96480488D01*
X154269968Y-96203063D01*
X154623063Y-95849968D01*
X154900488Y-95434773D01*
X155091582Y-94973432D01*
X155189000Y-94483676D01*
X155189000Y-93984324D01*
X155091582Y-93494568D01*
X154900488Y-93033227D01*
X154623063Y-92618032D01*
X154269968Y-92264937D01*
X153854773Y-91987512D01*
X153393432Y-91796418D01*
X152903676Y-91699000D01*
X152404324Y-91699000D01*
X151914568Y-91796418D01*
X151453227Y-91987512D01*
X151038032Y-92264937D01*
X150684937Y-92618032D01*
X150407512Y-93033227D01*
X150216418Y-93494568D01*
X150119000Y-93984324D01*
X106205355Y-93984324D01*
X106009968Y-93788937D01*
X105594773Y-93511512D01*
X105133432Y-93320418D01*
X104643676Y-93223000D01*
X104144324Y-93223000D01*
X103654568Y-93320418D01*
X103193227Y-93511512D01*
X102778032Y-93788937D01*
X102424937Y-94142032D01*
X102147512Y-94557227D01*
X101956418Y-95018568D01*
X101859000Y-95508324D01*
X61899000Y-95508324D01*
X61899000Y-91426500D01*
X158128500Y-91426500D01*
X158128500Y-122857993D01*
G37*
%TD.AperFunction*%
D21*
X120030948Y-151776258D02*
X120016805Y-151790400D01*
X120030948Y-151804543D01*
X119851343Y-151984148D01*
X119837200Y-151970005D01*
X119823058Y-151984148D01*
X119643453Y-151804543D01*
X119657595Y-151790400D01*
X119643453Y-151776258D01*
X119823058Y-151596653D01*
X119837200Y-151610795D01*
X119851343Y-151596653D01*
X120030948Y-151776258D01*
%TA.AperFunction,Conductor*%
D22*
G36*
X120030948Y-151776258D02*
G01*
X120016805Y-151790400D01*
X120030948Y-151804543D01*
X119851343Y-151984148D01*
X119837200Y-151970005D01*
X119823058Y-151984148D01*
X119643453Y-151804543D01*
X119657595Y-151790400D01*
X119643453Y-151776258D01*
X119823058Y-151596653D01*
X119837200Y-151610795D01*
X119851343Y-151596653D01*
X120030948Y-151776258D01*
G37*
%TD.AperFunction*%
%TD*%
M02*
