M48
; DRILL file {KiCad (5.1.10-1-10_14)} date Thursday, January 20, 2022 at 11:14:57 AM
; FORMAT={-:-/ absolute / inch / decimal}
; #@! TF.CreationDate,2022-01-20T11:14:57-05:00
; #@! TF.GenerationSoftware,Kicad,Pcbnew,(5.1.10-1-10_14)
; #@! TF.FileFunction,Plated,1,2,PTH
FMAT,2
INCH
T1C0.0354
T2C0.0374
T3C0.0394
T4C0.0512
T5C0.0551
T6C0.1024
%
G90
G05
T1
X3.48Y-3.88
X4.548Y-5.976
X4.633Y-5.976
X4.718Y-5.976
X4.803Y-5.976
X5.205Y-3.955
T2
X5.8231Y-4.0
X5.9216Y-4.0
X6.02Y-4.0
T3
X3.106Y-5.1115
X3.1635Y-5.464
X3.4405Y-5.4945
X3.4965Y-5.099
X3.73Y-4.1235
X3.783Y-5.444
X3.8755Y-5.0955
X4.011Y-4.8315
X4.0355Y-6.1075
X4.2845Y-5.384
X4.325Y-5.0075
X4.391Y-6.0695
X4.4985Y-4.226
X4.6135Y-4.6515
X4.6242Y-5.0075
X4.989Y-6.0465
X5.046Y-5.834
X5.15Y-6.072
X5.245Y-4.6045
X5.285Y-4.866
X5.3855Y-6.0845
X5.402Y-4.9655
X5.5065Y-6.0785
X5.5715Y-4.2245
X5.6895Y-6.1065
X5.818Y-4.788
X5.823Y-6.0435
X6.093Y-4.2135
X6.165Y-4.859
T4
X5.6072Y-5.4706
T5
X4.3375Y-3.9225
X4.65Y-3.92
T6
X2.65Y-6.16
X2.8541Y-4.4197
X2.8541Y-5.5417
X4.0509Y-4.4197
X4.0509Y-5.5417
X4.11Y-3.77
X6.01Y-3.71
X6.0955Y-6.177
T0
M30
