%TF.GenerationSoftware,KiCad,Pcbnew,(5.1.10-1-10_14)*%
%TF.CreationDate,2022-01-20T11:14:49-05:00*%
%TF.ProjectId,PCB_Design,5043425f-4465-4736-9967-6e2e6b696361,rev?*%
%TF.SameCoordinates,Original*%
%TF.FileFunction,Paste,Top*%
%TF.FilePolarity,Positive*%
%FSLAX46Y46*%
G04 Gerber Fmt 4.6, Leading zero omitted, Abs format (unit mm)*
G04 Created by KiCad (PCBNEW (5.1.10-1-10_14)) date 2022-01-20 11:14:49*
%MOMM*%
%LPD*%
G01*
G04 APERTURE LIST*
%ADD10R,0.900000X2.000000*%
%ADD11R,2.000000X0.900000*%
%ADD12R,1.900000X1.000000*%
%ADD13R,1.900000X1.800000*%
%ADD14R,1.300000X1.650000*%
%ADD15R,1.550000X1.225000*%
%ADD16R,1.380000X0.450000*%
%ADD17R,1.500000X1.500000*%
%ADD18R,1.000000X1.900000*%
%ADD19R,1.550000X1.300000*%
%ADD20R,0.800000X0.900000*%
G04 APERTURE END LIST*
D10*
%TO.C,U1*%
X149923500Y-131454000D03*
X148653500Y-131454000D03*
X147383500Y-131454000D03*
X146113500Y-131454000D03*
X144843500Y-131454000D03*
X143573500Y-131454000D03*
X142303500Y-131454000D03*
X141033500Y-131454000D03*
X139763500Y-131454000D03*
X138493500Y-131454000D03*
X137223500Y-131454000D03*
X135953500Y-131454000D03*
X134683500Y-131454000D03*
X133413500Y-131454000D03*
D11*
X132413500Y-134239000D03*
X132413500Y-135509000D03*
X132413500Y-136779000D03*
X132413500Y-138049000D03*
X132413500Y-139319000D03*
X132413500Y-140589000D03*
X132413500Y-141859000D03*
X132413500Y-143129000D03*
X132413500Y-144399000D03*
X132413500Y-145669000D03*
D10*
X133413500Y-148454000D03*
X134683500Y-148454000D03*
X135953500Y-148454000D03*
X137223500Y-148454000D03*
X138493500Y-148454000D03*
X139763500Y-148454000D03*
X141033500Y-148454000D03*
X142303500Y-148454000D03*
X143573500Y-148454000D03*
X144843500Y-148454000D03*
X146113500Y-148454000D03*
X147383500Y-148454000D03*
X148653500Y-148454000D03*
X149923500Y-148454000D03*
%TD*%
%TO.C,IC1*%
G36*
G01*
X132332000Y-101652002D02*
X132332000Y-100861998D01*
G75*
G02*
X132581998Y-100612000I249998J0D01*
G01*
X133092002Y-100612000D01*
G75*
G02*
X133342000Y-100861998I0J-249998D01*
G01*
X133342000Y-101652002D01*
G75*
G02*
X133092002Y-101902000I-249998J0D01*
G01*
X132581998Y-101902000D01*
G75*
G02*
X132332000Y-101652002I0J249998D01*
G01*
G37*
G36*
G01*
X132332000Y-100052002D02*
X132332000Y-99261998D01*
G75*
G02*
X132581998Y-99012000I249998J0D01*
G01*
X133092002Y-99012000D01*
G75*
G02*
X133342000Y-99261998I0J-249998D01*
G01*
X133342000Y-100052002D01*
G75*
G02*
X133092002Y-100302000I-249998J0D01*
G01*
X132581998Y-100302000D01*
G75*
G02*
X132332000Y-100052002I0J249998D01*
G01*
G37*
G36*
G01*
X131072000Y-101652002D02*
X131072000Y-100861998D01*
G75*
G02*
X131321998Y-100612000I249998J0D01*
G01*
X131832002Y-100612000D01*
G75*
G02*
X132082000Y-100861998I0J-249998D01*
G01*
X132082000Y-101652002D01*
G75*
G02*
X131832002Y-101902000I-249998J0D01*
G01*
X131321998Y-101902000D01*
G75*
G02*
X131072000Y-101652002I0J249998D01*
G01*
G37*
G36*
G01*
X131072000Y-100052002D02*
X131072000Y-99261998D01*
G75*
G02*
X131321998Y-99012000I249998J0D01*
G01*
X131832002Y-99012000D01*
G75*
G02*
X132082000Y-99261998I0J-249998D01*
G01*
X132082000Y-100052002D01*
G75*
G02*
X131832002Y-100302000I-249998J0D01*
G01*
X131321998Y-100302000D01*
G75*
G02*
X131072000Y-100052002I0J249998D01*
G01*
G37*
G36*
G01*
X134032000Y-98702000D02*
X134032000Y-98402000D01*
G75*
G02*
X134182000Y-98252000I150000J0D01*
G01*
X135507000Y-98252000D01*
G75*
G02*
X135657000Y-98402000I0J-150000D01*
G01*
X135657000Y-98702000D01*
G75*
G02*
X135507000Y-98852000I-150000J0D01*
G01*
X134182000Y-98852000D01*
G75*
G02*
X134032000Y-98702000I0J150000D01*
G01*
G37*
G36*
G01*
X134032000Y-99972000D02*
X134032000Y-99672000D01*
G75*
G02*
X134182000Y-99522000I150000J0D01*
G01*
X135507000Y-99522000D01*
G75*
G02*
X135657000Y-99672000I0J-150000D01*
G01*
X135657000Y-99972000D01*
G75*
G02*
X135507000Y-100122000I-150000J0D01*
G01*
X134182000Y-100122000D01*
G75*
G02*
X134032000Y-99972000I0J150000D01*
G01*
G37*
G36*
G01*
X134032000Y-101242000D02*
X134032000Y-100942000D01*
G75*
G02*
X134182000Y-100792000I150000J0D01*
G01*
X135507000Y-100792000D01*
G75*
G02*
X135657000Y-100942000I0J-150000D01*
G01*
X135657000Y-101242000D01*
G75*
G02*
X135507000Y-101392000I-150000J0D01*
G01*
X134182000Y-101392000D01*
G75*
G02*
X134032000Y-101242000I0J150000D01*
G01*
G37*
G36*
G01*
X134032000Y-102512000D02*
X134032000Y-102212000D01*
G75*
G02*
X134182000Y-102062000I150000J0D01*
G01*
X135507000Y-102062000D01*
G75*
G02*
X135657000Y-102212000I0J-150000D01*
G01*
X135657000Y-102512000D01*
G75*
G02*
X135507000Y-102662000I-150000J0D01*
G01*
X134182000Y-102662000D01*
G75*
G02*
X134032000Y-102512000I0J150000D01*
G01*
G37*
G36*
G01*
X128757000Y-102512000D02*
X128757000Y-102212000D01*
G75*
G02*
X128907000Y-102062000I150000J0D01*
G01*
X130232000Y-102062000D01*
G75*
G02*
X130382000Y-102212000I0J-150000D01*
G01*
X130382000Y-102512000D01*
G75*
G02*
X130232000Y-102662000I-150000J0D01*
G01*
X128907000Y-102662000D01*
G75*
G02*
X128757000Y-102512000I0J150000D01*
G01*
G37*
G36*
G01*
X128757000Y-101242000D02*
X128757000Y-100942000D01*
G75*
G02*
X128907000Y-100792000I150000J0D01*
G01*
X130232000Y-100792000D01*
G75*
G02*
X130382000Y-100942000I0J-150000D01*
G01*
X130382000Y-101242000D01*
G75*
G02*
X130232000Y-101392000I-150000J0D01*
G01*
X128907000Y-101392000D01*
G75*
G02*
X128757000Y-101242000I0J150000D01*
G01*
G37*
G36*
G01*
X128757000Y-99972000D02*
X128757000Y-99672000D01*
G75*
G02*
X128907000Y-99522000I150000J0D01*
G01*
X130232000Y-99522000D01*
G75*
G02*
X130382000Y-99672000I0J-150000D01*
G01*
X130382000Y-99972000D01*
G75*
G02*
X130232000Y-100122000I-150000J0D01*
G01*
X128907000Y-100122000D01*
G75*
G02*
X128757000Y-99972000I0J150000D01*
G01*
G37*
G36*
G01*
X128757000Y-98702000D02*
X128757000Y-98402000D01*
G75*
G02*
X128907000Y-98252000I150000J0D01*
G01*
X130232000Y-98252000D01*
G75*
G02*
X130382000Y-98402000I0J-150000D01*
G01*
X130382000Y-98702000D01*
G75*
G02*
X130232000Y-98852000I-150000J0D01*
G01*
X128907000Y-98852000D01*
G75*
G02*
X128757000Y-98702000I0J150000D01*
G01*
G37*
%TD*%
%TO.C,J1*%
G36*
G01*
X84942000Y-96797000D02*
X84942000Y-96497000D01*
G75*
G02*
X85092000Y-96347000I150000J0D01*
G01*
X86417000Y-96347000D01*
G75*
G02*
X86567000Y-96497000I0J-150000D01*
G01*
X86567000Y-96797000D01*
G75*
G02*
X86417000Y-96947000I-150000J0D01*
G01*
X85092000Y-96947000D01*
G75*
G02*
X84942000Y-96797000I0J150000D01*
G01*
G37*
G36*
G01*
X84942000Y-98067000D02*
X84942000Y-97767000D01*
G75*
G02*
X85092000Y-97617000I150000J0D01*
G01*
X86417000Y-97617000D01*
G75*
G02*
X86567000Y-97767000I0J-150000D01*
G01*
X86567000Y-98067000D01*
G75*
G02*
X86417000Y-98217000I-150000J0D01*
G01*
X85092000Y-98217000D01*
G75*
G02*
X84942000Y-98067000I0J150000D01*
G01*
G37*
G36*
G01*
X84942000Y-99337000D02*
X84942000Y-99037000D01*
G75*
G02*
X85092000Y-98887000I150000J0D01*
G01*
X86417000Y-98887000D01*
G75*
G02*
X86567000Y-99037000I0J-150000D01*
G01*
X86567000Y-99337000D01*
G75*
G02*
X86417000Y-99487000I-150000J0D01*
G01*
X85092000Y-99487000D01*
G75*
G02*
X84942000Y-99337000I0J150000D01*
G01*
G37*
G36*
G01*
X84942000Y-100607000D02*
X84942000Y-100307000D01*
G75*
G02*
X85092000Y-100157000I150000J0D01*
G01*
X86417000Y-100157000D01*
G75*
G02*
X86567000Y-100307000I0J-150000D01*
G01*
X86567000Y-100607000D01*
G75*
G02*
X86417000Y-100757000I-150000J0D01*
G01*
X85092000Y-100757000D01*
G75*
G02*
X84942000Y-100607000I0J150000D01*
G01*
G37*
G36*
G01*
X90217000Y-100607000D02*
X90217000Y-100307000D01*
G75*
G02*
X90367000Y-100157000I150000J0D01*
G01*
X91692000Y-100157000D01*
G75*
G02*
X91842000Y-100307000I0J-150000D01*
G01*
X91842000Y-100607000D01*
G75*
G02*
X91692000Y-100757000I-150000J0D01*
G01*
X90367000Y-100757000D01*
G75*
G02*
X90217000Y-100607000I0J150000D01*
G01*
G37*
G36*
G01*
X90217000Y-99337000D02*
X90217000Y-99037000D01*
G75*
G02*
X90367000Y-98887000I150000J0D01*
G01*
X91692000Y-98887000D01*
G75*
G02*
X91842000Y-99037000I0J-150000D01*
G01*
X91842000Y-99337000D01*
G75*
G02*
X91692000Y-99487000I-150000J0D01*
G01*
X90367000Y-99487000D01*
G75*
G02*
X90217000Y-99337000I0J150000D01*
G01*
G37*
G36*
G01*
X90217000Y-98067000D02*
X90217000Y-97767000D01*
G75*
G02*
X90367000Y-97617000I150000J0D01*
G01*
X91692000Y-97617000D01*
G75*
G02*
X91842000Y-97767000I0J-150000D01*
G01*
X91842000Y-98067000D01*
G75*
G02*
X91692000Y-98217000I-150000J0D01*
G01*
X90367000Y-98217000D01*
G75*
G02*
X90217000Y-98067000I0J150000D01*
G01*
G37*
G36*
G01*
X90217000Y-96797000D02*
X90217000Y-96497000D01*
G75*
G02*
X90367000Y-96347000I150000J0D01*
G01*
X91692000Y-96347000D01*
G75*
G02*
X91842000Y-96497000I0J-150000D01*
G01*
X91842000Y-96797000D01*
G75*
G02*
X91692000Y-96947000I-150000J0D01*
G01*
X90367000Y-96947000D01*
G75*
G02*
X90217000Y-96797000I0J150000D01*
G01*
G37*
G36*
G01*
X87257000Y-98147002D02*
X87257000Y-97356998D01*
G75*
G02*
X87506998Y-97107000I249998J0D01*
G01*
X88017002Y-97107000D01*
G75*
G02*
X88267000Y-97356998I0J-249998D01*
G01*
X88267000Y-98147002D01*
G75*
G02*
X88017002Y-98397000I-249998J0D01*
G01*
X87506998Y-98397000D01*
G75*
G02*
X87257000Y-98147002I0J249998D01*
G01*
G37*
G36*
G01*
X87257000Y-99747002D02*
X87257000Y-98956998D01*
G75*
G02*
X87506998Y-98707000I249998J0D01*
G01*
X88017002Y-98707000D01*
G75*
G02*
X88267000Y-98956998I0J-249998D01*
G01*
X88267000Y-99747002D01*
G75*
G02*
X88017002Y-99997000I-249998J0D01*
G01*
X87506998Y-99997000D01*
G75*
G02*
X87257000Y-99747002I0J249998D01*
G01*
G37*
G36*
G01*
X88517000Y-98147002D02*
X88517000Y-97356998D01*
G75*
G02*
X88766998Y-97107000I249998J0D01*
G01*
X89277002Y-97107000D01*
G75*
G02*
X89527000Y-97356998I0J-249998D01*
G01*
X89527000Y-98147002D01*
G75*
G02*
X89277002Y-98397000I-249998J0D01*
G01*
X88766998Y-98397000D01*
G75*
G02*
X88517000Y-98147002I0J249998D01*
G01*
G37*
G36*
G01*
X88517000Y-99747002D02*
X88517000Y-98956998D01*
G75*
G02*
X88766998Y-98707000I249998J0D01*
G01*
X89277002Y-98707000D01*
G75*
G02*
X89527000Y-98956998I0J-249998D01*
G01*
X89527000Y-99747002D01*
G75*
G02*
X89277002Y-99997000I-249998J0D01*
G01*
X88766998Y-99997000D01*
G75*
G02*
X88517000Y-99747002I0J249998D01*
G01*
G37*
%TD*%
D12*
%TO.C,J2*%
X63379500Y-98603400D03*
D13*
X63379500Y-95903400D03*
D14*
X63379500Y-100428400D03*
X63379500Y-93678400D03*
D15*
X65954500Y-99740900D03*
X65954500Y-94365900D03*
D16*
X66039500Y-98353400D03*
X66039500Y-97053400D03*
X66039500Y-95753400D03*
%TD*%
%TO.C,R2*%
G36*
G01*
X140282500Y-99989800D02*
X140282500Y-98739800D01*
G75*
G02*
X140532500Y-98489800I250000J0D01*
G01*
X141332500Y-98489800D01*
G75*
G02*
X141582500Y-98739800I0J-250000D01*
G01*
X141582500Y-99989800D01*
G75*
G02*
X141332500Y-100239800I-250000J0D01*
G01*
X140532500Y-100239800D01*
G75*
G02*
X140282500Y-99989800I0J250000D01*
G01*
G37*
G36*
G01*
X137182500Y-99989800D02*
X137182500Y-98739800D01*
G75*
G02*
X137432500Y-98489800I250000J0D01*
G01*
X138232500Y-98489800D01*
G75*
G02*
X138482500Y-98739800I0J-250000D01*
G01*
X138482500Y-99989800D01*
G75*
G02*
X138232500Y-100239800I-250000J0D01*
G01*
X137432500Y-100239800D01*
G75*
G02*
X137182500Y-99989800I0J250000D01*
G01*
G37*
%TD*%
%TO.C,R1*%
G36*
G01*
X138520600Y-101648100D02*
X138520600Y-102898100D01*
G75*
G02*
X138270600Y-103148100I-250000J0D01*
G01*
X137470600Y-103148100D01*
G75*
G02*
X137220600Y-102898100I0J250000D01*
G01*
X137220600Y-101648100D01*
G75*
G02*
X137470600Y-101398100I250000J0D01*
G01*
X138270600Y-101398100D01*
G75*
G02*
X138520600Y-101648100I0J-250000D01*
G01*
G37*
G36*
G01*
X141620600Y-101648100D02*
X141620600Y-102898100D01*
G75*
G02*
X141370600Y-103148100I-250000J0D01*
G01*
X140570600Y-103148100D01*
G75*
G02*
X140320600Y-102898100I0J250000D01*
G01*
X140320600Y-101648100D01*
G75*
G02*
X140570600Y-101398100I250000J0D01*
G01*
X141370600Y-101398100D01*
G75*
G02*
X141620600Y-101648100I0J-250000D01*
G01*
G37*
%TD*%
%TO.C,R_rLED1*%
G36*
G01*
X98028300Y-98635399D02*
X98028300Y-99535401D01*
G75*
G02*
X97778301Y-99785400I-249999J0D01*
G01*
X97078299Y-99785400D01*
G75*
G02*
X96828300Y-99535401I0J249999D01*
G01*
X96828300Y-98635399D01*
G75*
G02*
X97078299Y-98385400I249999J0D01*
G01*
X97778301Y-98385400D01*
G75*
G02*
X98028300Y-98635399I0J-249999D01*
G01*
G37*
G36*
G01*
X100028300Y-98635399D02*
X100028300Y-99535401D01*
G75*
G02*
X99778301Y-99785400I-249999J0D01*
G01*
X99078299Y-99785400D01*
G75*
G02*
X98828300Y-99535401I0J249999D01*
G01*
X98828300Y-98635399D01*
G75*
G02*
X99078299Y-98385400I249999J0D01*
G01*
X99778301Y-98385400D01*
G75*
G02*
X100028300Y-98635399I0J-249999D01*
G01*
G37*
%TD*%
D17*
%TO.C,SW2*%
X144412800Y-116586000D03*
X136612800Y-116586000D03*
%TD*%
%TO.C,SW1*%
X136612800Y-120700800D03*
X144412800Y-120700800D03*
%TD*%
%TO.C,C_bypass1*%
G36*
G01*
X148588400Y-126245600D02*
X148588400Y-127195600D01*
G75*
G02*
X148338400Y-127445600I-250000J0D01*
G01*
X147663400Y-127445600D01*
G75*
G02*
X147413400Y-127195600I0J250000D01*
G01*
X147413400Y-126245600D01*
G75*
G02*
X147663400Y-125995600I250000J0D01*
G01*
X148338400Y-125995600D01*
G75*
G02*
X148588400Y-126245600I0J-250000D01*
G01*
G37*
G36*
G01*
X150663400Y-126245600D02*
X150663400Y-127195600D01*
G75*
G02*
X150413400Y-127445600I-250000J0D01*
G01*
X149738400Y-127445600D01*
G75*
G02*
X149488400Y-127195600I0J250000D01*
G01*
X149488400Y-126245600D01*
G75*
G02*
X149738400Y-125995600I250000J0D01*
G01*
X150413400Y-125995600D01*
G75*
G02*
X150663400Y-126245600I0J-250000D01*
G01*
G37*
%TD*%
D18*
%TO.C,Conn_OLED1*%
X91503500Y-110110000D03*
X86423500Y-110110000D03*
X88963500Y-113410000D03*
X83883500Y-113410000D03*
%TD*%
D12*
%TO.C,Conn_prog1*%
X150369000Y-114109500D03*
X150369000Y-119189500D03*
X153669000Y-111569500D03*
X153669000Y-116649500D03*
X153669000Y-121729500D03*
%TD*%
D19*
%TO.C,BT4*%
X67208500Y-146911500D03*
X67208500Y-151411500D03*
X75158500Y-151411500D03*
X75158500Y-146911500D03*
%TD*%
%TO.C,BT3*%
X78448000Y-146911500D03*
X78448000Y-151411500D03*
X86398000Y-151411500D03*
X86398000Y-146911500D03*
%TD*%
%TO.C,BT2*%
X89687500Y-146911500D03*
X89687500Y-151411500D03*
X97637500Y-151411500D03*
X97637500Y-146911500D03*
%TD*%
%TO.C,BT1*%
X100927500Y-146911500D03*
X100927500Y-151411500D03*
X108877500Y-151411500D03*
X108877500Y-146911500D03*
%TD*%
%TO.C,Cd4*%
G36*
G01*
X75483700Y-129710600D02*
X76433700Y-129710600D01*
G75*
G02*
X76683700Y-129960600I0J-250000D01*
G01*
X76683700Y-130635600D01*
G75*
G02*
X76433700Y-130885600I-250000J0D01*
G01*
X75483700Y-130885600D01*
G75*
G02*
X75233700Y-130635600I0J250000D01*
G01*
X75233700Y-129960600D01*
G75*
G02*
X75483700Y-129710600I250000J0D01*
G01*
G37*
G36*
G01*
X75483700Y-127635600D02*
X76433700Y-127635600D01*
G75*
G02*
X76683700Y-127885600I0J-250000D01*
G01*
X76683700Y-128560600D01*
G75*
G02*
X76433700Y-128810600I-250000J0D01*
G01*
X75483700Y-128810600D01*
G75*
G02*
X75233700Y-128560600I0J250000D01*
G01*
X75233700Y-127885600D01*
G75*
G02*
X75483700Y-127635600I250000J0D01*
G01*
G37*
%TD*%
%TO.C,Cd3*%
G36*
G01*
X84386400Y-129710600D02*
X85336400Y-129710600D01*
G75*
G02*
X85586400Y-129960600I0J-250000D01*
G01*
X85586400Y-130635600D01*
G75*
G02*
X85336400Y-130885600I-250000J0D01*
G01*
X84386400Y-130885600D01*
G75*
G02*
X84136400Y-130635600I0J250000D01*
G01*
X84136400Y-129960600D01*
G75*
G02*
X84386400Y-129710600I250000J0D01*
G01*
G37*
G36*
G01*
X84386400Y-127635600D02*
X85336400Y-127635600D01*
G75*
G02*
X85586400Y-127885600I0J-250000D01*
G01*
X85586400Y-128560600D01*
G75*
G02*
X85336400Y-128810600I-250000J0D01*
G01*
X84386400Y-128810600D01*
G75*
G02*
X84136400Y-128560600I0J250000D01*
G01*
X84136400Y-127885600D01*
G75*
G02*
X84386400Y-127635600I250000J0D01*
G01*
G37*
%TD*%
%TO.C,Cd2*%
G36*
G01*
X94863900Y-129799500D02*
X95813900Y-129799500D01*
G75*
G02*
X96063900Y-130049500I0J-250000D01*
G01*
X96063900Y-130724500D01*
G75*
G02*
X95813900Y-130974500I-250000J0D01*
G01*
X94863900Y-130974500D01*
G75*
G02*
X94613900Y-130724500I0J250000D01*
G01*
X94613900Y-130049500D01*
G75*
G02*
X94863900Y-129799500I250000J0D01*
G01*
G37*
G36*
G01*
X94863900Y-127724500D02*
X95813900Y-127724500D01*
G75*
G02*
X96063900Y-127974500I0J-250000D01*
G01*
X96063900Y-128649500D01*
G75*
G02*
X95813900Y-128899500I-250000J0D01*
G01*
X94863900Y-128899500D01*
G75*
G02*
X94613900Y-128649500I0J250000D01*
G01*
X94613900Y-127974500D01*
G75*
G02*
X94863900Y-127724500I250000J0D01*
G01*
G37*
%TD*%
%TO.C,Cd1*%
G36*
G01*
X103766600Y-129253400D02*
X104716600Y-129253400D01*
G75*
G02*
X104966600Y-129503400I0J-250000D01*
G01*
X104966600Y-130178400D01*
G75*
G02*
X104716600Y-130428400I-250000J0D01*
G01*
X103766600Y-130428400D01*
G75*
G02*
X103516600Y-130178400I0J250000D01*
G01*
X103516600Y-129503400D01*
G75*
G02*
X103766600Y-129253400I250000J0D01*
G01*
G37*
G36*
G01*
X103766600Y-127178400D02*
X104716600Y-127178400D01*
G75*
G02*
X104966600Y-127428400I0J-250000D01*
G01*
X104966600Y-128103400D01*
G75*
G02*
X104716600Y-128353400I-250000J0D01*
G01*
X103766600Y-128353400D01*
G75*
G02*
X103516600Y-128103400I0J250000D01*
G01*
X103516600Y-127428400D01*
G75*
G02*
X103766600Y-127178400I250000J0D01*
G01*
G37*
%TD*%
%TO.C,C2*%
G36*
G01*
X90376500Y-103030000D02*
X90376500Y-103980000D01*
G75*
G02*
X90126500Y-104230000I-250000J0D01*
G01*
X89451500Y-104230000D01*
G75*
G02*
X89201500Y-103980000I0J250000D01*
G01*
X89201500Y-103030000D01*
G75*
G02*
X89451500Y-102780000I250000J0D01*
G01*
X90126500Y-102780000D01*
G75*
G02*
X90376500Y-103030000I0J-250000D01*
G01*
G37*
G36*
G01*
X92451500Y-103030000D02*
X92451500Y-103980000D01*
G75*
G02*
X92201500Y-104230000I-250000J0D01*
G01*
X91526500Y-104230000D01*
G75*
G02*
X91276500Y-103980000I0J250000D01*
G01*
X91276500Y-103030000D01*
G75*
G02*
X91526500Y-102780000I250000J0D01*
G01*
X92201500Y-102780000D01*
G75*
G02*
X92451500Y-103030000I0J-250000D01*
G01*
G37*
%TD*%
%TO.C,C1*%
G36*
G01*
X86153500Y-103980000D02*
X86153500Y-103030000D01*
G75*
G02*
X86403500Y-102780000I250000J0D01*
G01*
X87078500Y-102780000D01*
G75*
G02*
X87328500Y-103030000I0J-250000D01*
G01*
X87328500Y-103980000D01*
G75*
G02*
X87078500Y-104230000I-250000J0D01*
G01*
X86403500Y-104230000D01*
G75*
G02*
X86153500Y-103980000I0J250000D01*
G01*
G37*
G36*
G01*
X84078500Y-103980000D02*
X84078500Y-103030000D01*
G75*
G02*
X84328500Y-102780000I250000J0D01*
G01*
X85003500Y-102780000D01*
G75*
G02*
X85253500Y-103030000I0J-250000D01*
G01*
X85253500Y-103980000D01*
G75*
G02*
X85003500Y-104230000I-250000J0D01*
G01*
X84328500Y-104230000D01*
G75*
G02*
X84078500Y-103980000I0J250000D01*
G01*
G37*
%TD*%
%TO.C,4.7k1*%
G36*
G01*
X149069500Y-107257001D02*
X149069500Y-106356999D01*
G75*
G02*
X149319499Y-106107000I249999J0D01*
G01*
X150019501Y-106107000D01*
G75*
G02*
X150269500Y-106356999I0J-249999D01*
G01*
X150269500Y-107257001D01*
G75*
G02*
X150019501Y-107507000I-249999J0D01*
G01*
X149319499Y-107507000D01*
G75*
G02*
X149069500Y-107257001I0J249999D01*
G01*
G37*
G36*
G01*
X147069500Y-107257001D02*
X147069500Y-106356999D01*
G75*
G02*
X147319499Y-106107000I249999J0D01*
G01*
X148019501Y-106107000D01*
G75*
G02*
X148269500Y-106356999I0J-249999D01*
G01*
X148269500Y-107257001D01*
G75*
G02*
X148019501Y-107507000I-249999J0D01*
G01*
X147319499Y-107507000D01*
G75*
G02*
X147069500Y-107257001I0J249999D01*
G01*
G37*
%TD*%
%TO.C,FlagLED_R1*%
G36*
G01*
X122787500Y-102812001D02*
X122787500Y-101911999D01*
G75*
G02*
X123037499Y-101662000I249999J0D01*
G01*
X123687501Y-101662000D01*
G75*
G02*
X123937500Y-101911999I0J-249999D01*
G01*
X123937500Y-102812001D01*
G75*
G02*
X123687501Y-103062000I-249999J0D01*
G01*
X123037499Y-103062000D01*
G75*
G02*
X122787500Y-102812001I0J249999D01*
G01*
G37*
G36*
G01*
X124837500Y-102812001D02*
X124837500Y-101911999D01*
G75*
G02*
X125087499Y-101662000I249999J0D01*
G01*
X125737501Y-101662000D01*
G75*
G02*
X125987500Y-101911999I0J-249999D01*
G01*
X125987500Y-102812001D01*
G75*
G02*
X125737501Y-103062000I-249999J0D01*
G01*
X125087499Y-103062000D01*
G75*
G02*
X124837500Y-102812001I0J249999D01*
G01*
G37*
%TD*%
%TO.C,gLED1*%
G36*
G01*
X97991400Y-103562999D02*
X97991400Y-104463001D01*
G75*
G02*
X97741401Y-104713000I-249999J0D01*
G01*
X97091399Y-104713000D01*
G75*
G02*
X96841400Y-104463001I0J249999D01*
G01*
X96841400Y-103562999D01*
G75*
G02*
X97091399Y-103313000I249999J0D01*
G01*
X97741401Y-103313000D01*
G75*
G02*
X97991400Y-103562999I0J-249999D01*
G01*
G37*
G36*
G01*
X100041400Y-103562999D02*
X100041400Y-104463001D01*
G75*
G02*
X99791401Y-104713000I-249999J0D01*
G01*
X99141399Y-104713000D01*
G75*
G02*
X98891400Y-104463001I0J249999D01*
G01*
X98891400Y-103562999D01*
G75*
G02*
X99141399Y-103313000I249999J0D01*
G01*
X99791401Y-103313000D01*
G75*
G02*
X100041400Y-103562999I0J-249999D01*
G01*
G37*
%TD*%
%TO.C,LED_Piloto_G1*%
G36*
G01*
X130498001Y-124191500D02*
X129597999Y-124191500D01*
G75*
G02*
X129348000Y-123941501I0J249999D01*
G01*
X129348000Y-123291499D01*
G75*
G02*
X129597999Y-123041500I249999J0D01*
G01*
X130498001Y-123041500D01*
G75*
G02*
X130748000Y-123291499I0J-249999D01*
G01*
X130748000Y-123941501D01*
G75*
G02*
X130498001Y-124191500I-249999J0D01*
G01*
G37*
G36*
G01*
X130498001Y-126241500D02*
X129597999Y-126241500D01*
G75*
G02*
X129348000Y-125991501I0J249999D01*
G01*
X129348000Y-125341499D01*
G75*
G02*
X129597999Y-125091500I249999J0D01*
G01*
X130498001Y-125091500D01*
G75*
G02*
X130748000Y-125341499I0J-249999D01*
G01*
X130748000Y-125991501D01*
G75*
G02*
X130498001Y-126241500I-249999J0D01*
G01*
G37*
%TD*%
%TO.C,LED_Prog_B1*%
G36*
G01*
X122231999Y-123041500D02*
X123132001Y-123041500D01*
G75*
G02*
X123382000Y-123291499I0J-249999D01*
G01*
X123382000Y-123941501D01*
G75*
G02*
X123132001Y-124191500I-249999J0D01*
G01*
X122231999Y-124191500D01*
G75*
G02*
X121982000Y-123941501I0J249999D01*
G01*
X121982000Y-123291499D01*
G75*
G02*
X122231999Y-123041500I249999J0D01*
G01*
G37*
G36*
G01*
X122231999Y-125091500D02*
X123132001Y-125091500D01*
G75*
G02*
X123382000Y-125341499I0J-249999D01*
G01*
X123382000Y-125991501D01*
G75*
G02*
X123132001Y-126241500I-249999J0D01*
G01*
X122231999Y-126241500D01*
G75*
G02*
X121982000Y-125991501I0J249999D01*
G01*
X121982000Y-125341499D01*
G75*
G02*
X122231999Y-125091500I249999J0D01*
G01*
G37*
%TD*%
D20*
%TO.C,NMOS_Buzzer1*%
X110843100Y-116360700D03*
X108943100Y-116360700D03*
X109893100Y-118360700D03*
%TD*%
%TO.C,R_gLED1*%
G36*
G01*
X96866400Y-102050001D02*
X96866400Y-101149999D01*
G75*
G02*
X97116399Y-100900000I249999J0D01*
G01*
X97816401Y-100900000D01*
G75*
G02*
X98066400Y-101149999I0J-249999D01*
G01*
X98066400Y-102050001D01*
G75*
G02*
X97816401Y-102300000I-249999J0D01*
G01*
X97116399Y-102300000D01*
G75*
G02*
X96866400Y-102050001I0J249999D01*
G01*
G37*
G36*
G01*
X98866400Y-102050001D02*
X98866400Y-101149999D01*
G75*
G02*
X99116399Y-100900000I249999J0D01*
G01*
X99816401Y-100900000D01*
G75*
G02*
X100066400Y-101149999I0J-249999D01*
G01*
X100066400Y-102050001D01*
G75*
G02*
X99816401Y-102300000I-249999J0D01*
G01*
X99116399Y-102300000D01*
G75*
G02*
X98866400Y-102050001I0J249999D01*
G01*
G37*
%TD*%
%TO.C,R_Piloto1*%
G36*
G01*
X129597999Y-120161000D02*
X130498001Y-120161000D01*
G75*
G02*
X130748000Y-120410999I0J-249999D01*
G01*
X130748000Y-121111001D01*
G75*
G02*
X130498001Y-121361000I-249999J0D01*
G01*
X129597999Y-121361000D01*
G75*
G02*
X129348000Y-121111001I0J249999D01*
G01*
X129348000Y-120410999D01*
G75*
G02*
X129597999Y-120161000I249999J0D01*
G01*
G37*
G36*
G01*
X129597999Y-118161000D02*
X130498001Y-118161000D01*
G75*
G02*
X130748000Y-118410999I0J-249999D01*
G01*
X130748000Y-119111001D01*
G75*
G02*
X130498001Y-119361000I-249999J0D01*
G01*
X129597999Y-119361000D01*
G75*
G02*
X129348000Y-119111001I0J249999D01*
G01*
X129348000Y-118410999D01*
G75*
G02*
X129597999Y-118161000I249999J0D01*
G01*
G37*
%TD*%
%TO.C,R_PROG1*%
G36*
G01*
X80512499Y-99349000D02*
X81412501Y-99349000D01*
G75*
G02*
X81662500Y-99598999I0J-249999D01*
G01*
X81662500Y-100299001D01*
G75*
G02*
X81412501Y-100549000I-249999J0D01*
G01*
X80512499Y-100549000D01*
G75*
G02*
X80262500Y-100299001I0J249999D01*
G01*
X80262500Y-99598999D01*
G75*
G02*
X80512499Y-99349000I249999J0D01*
G01*
G37*
G36*
G01*
X80512499Y-97349000D02*
X81412501Y-97349000D01*
G75*
G02*
X81662500Y-97598999I0J-249999D01*
G01*
X81662500Y-98299001D01*
G75*
G02*
X81412501Y-98549000I-249999J0D01*
G01*
X80512499Y-98549000D01*
G75*
G02*
X80262500Y-98299001I0J249999D01*
G01*
X80262500Y-97598999D01*
G75*
G02*
X80512499Y-97349000I249999J0D01*
G01*
G37*
%TD*%
%TO.C,R_Prog_B1*%
G36*
G01*
X122231999Y-119859500D02*
X123132001Y-119859500D01*
G75*
G02*
X123382000Y-120109499I0J-249999D01*
G01*
X123382000Y-120809501D01*
G75*
G02*
X123132001Y-121059500I-249999J0D01*
G01*
X122231999Y-121059500D01*
G75*
G02*
X121982000Y-120809501I0J249999D01*
G01*
X121982000Y-120109499D01*
G75*
G02*
X122231999Y-119859500I249999J0D01*
G01*
G37*
G36*
G01*
X122231999Y-117859500D02*
X123132001Y-117859500D01*
G75*
G02*
X123382000Y-118109499I0J-249999D01*
G01*
X123382000Y-118809501D01*
G75*
G02*
X123132001Y-119059500I-249999J0D01*
G01*
X122231999Y-119059500D01*
G75*
G02*
X121982000Y-118809501I0J249999D01*
G01*
X121982000Y-118109499D01*
G75*
G02*
X122231999Y-117859500I249999J0D01*
G01*
G37*
%TD*%
%TO.C,R_RGB_B1*%
G36*
G01*
X115956501Y-144745000D02*
X115056499Y-144745000D01*
G75*
G02*
X114806500Y-144495001I0J249999D01*
G01*
X114806500Y-143794999D01*
G75*
G02*
X115056499Y-143545000I249999J0D01*
G01*
X115956501Y-143545000D01*
G75*
G02*
X116206500Y-143794999I0J-249999D01*
G01*
X116206500Y-144495001D01*
G75*
G02*
X115956501Y-144745000I-249999J0D01*
G01*
G37*
G36*
G01*
X115956501Y-146745000D02*
X115056499Y-146745000D01*
G75*
G02*
X114806500Y-146495001I0J249999D01*
G01*
X114806500Y-145794999D01*
G75*
G02*
X115056499Y-145545000I249999J0D01*
G01*
X115956501Y-145545000D01*
G75*
G02*
X116206500Y-145794999I0J-249999D01*
G01*
X116206500Y-146495001D01*
G75*
G02*
X115956501Y-146745000I-249999J0D01*
G01*
G37*
%TD*%
%TO.C,R_RGB_G1*%
G36*
G01*
X118115501Y-146745000D02*
X117215499Y-146745000D01*
G75*
G02*
X116965500Y-146495001I0J249999D01*
G01*
X116965500Y-145794999D01*
G75*
G02*
X117215499Y-145545000I249999J0D01*
G01*
X118115501Y-145545000D01*
G75*
G02*
X118365500Y-145794999I0J-249999D01*
G01*
X118365500Y-146495001D01*
G75*
G02*
X118115501Y-146745000I-249999J0D01*
G01*
G37*
G36*
G01*
X118115501Y-144745000D02*
X117215499Y-144745000D01*
G75*
G02*
X116965500Y-144495001I0J249999D01*
G01*
X116965500Y-143794999D01*
G75*
G02*
X117215499Y-143545000I249999J0D01*
G01*
X118115501Y-143545000D01*
G75*
G02*
X118365500Y-143794999I0J-249999D01*
G01*
X118365500Y-144495001D01*
G75*
G02*
X118115501Y-144745000I-249999J0D01*
G01*
G37*
%TD*%
%TO.C,R_RGB_R1*%
G36*
G01*
X120274501Y-144745000D02*
X119374499Y-144745000D01*
G75*
G02*
X119124500Y-144495001I0J249999D01*
G01*
X119124500Y-143794999D01*
G75*
G02*
X119374499Y-143545000I249999J0D01*
G01*
X120274501Y-143545000D01*
G75*
G02*
X120524500Y-143794999I0J-249999D01*
G01*
X120524500Y-144495001D01*
G75*
G02*
X120274501Y-144745000I-249999J0D01*
G01*
G37*
G36*
G01*
X120274501Y-146745000D02*
X119374499Y-146745000D01*
G75*
G02*
X119124500Y-146495001I0J249999D01*
G01*
X119124500Y-145794999D01*
G75*
G02*
X119374499Y-145545000I249999J0D01*
G01*
X120274501Y-145545000D01*
G75*
G02*
X120524500Y-145794999I0J-249999D01*
G01*
X120524500Y-146495001D01*
G75*
G02*
X120274501Y-146745000I-249999J0D01*
G01*
G37*
%TD*%
%TO.C,R_rLed1*%
G36*
G01*
X124780500Y-100208501D02*
X124780500Y-99308499D01*
G75*
G02*
X125030499Y-99058500I249999J0D01*
G01*
X125730501Y-99058500D01*
G75*
G02*
X125980500Y-99308499I0J-249999D01*
G01*
X125980500Y-100208501D01*
G75*
G02*
X125730501Y-100458500I-249999J0D01*
G01*
X125030499Y-100458500D01*
G75*
G02*
X124780500Y-100208501I0J249999D01*
G01*
G37*
G36*
G01*
X122780500Y-100208501D02*
X122780500Y-99308499D01*
G75*
G02*
X123030499Y-99058500I249999J0D01*
G01*
X123730501Y-99058500D01*
G75*
G02*
X123980500Y-99308499I0J-249999D01*
G01*
X123980500Y-100208501D01*
G75*
G02*
X123730501Y-100458500I-249999J0D01*
G01*
X123030499Y-100458500D01*
G75*
G02*
X122780500Y-100208501I0J249999D01*
G01*
G37*
%TD*%
%TO.C,Rd1*%
G36*
G01*
X102153299Y-132575500D02*
X103053301Y-132575500D01*
G75*
G02*
X103303300Y-132825499I0J-249999D01*
G01*
X103303300Y-133525501D01*
G75*
G02*
X103053301Y-133775500I-249999J0D01*
G01*
X102153299Y-133775500D01*
G75*
G02*
X101903300Y-133525501I0J249999D01*
G01*
X101903300Y-132825499D01*
G75*
G02*
X102153299Y-132575500I249999J0D01*
G01*
G37*
G36*
G01*
X102153299Y-134575500D02*
X103053301Y-134575500D01*
G75*
G02*
X103303300Y-134825499I0J-249999D01*
G01*
X103303300Y-135525501D01*
G75*
G02*
X103053301Y-135775500I-249999J0D01*
G01*
X102153299Y-135775500D01*
G75*
G02*
X101903300Y-135525501I0J249999D01*
G01*
X101903300Y-134825499D01*
G75*
G02*
X102153299Y-134575500I249999J0D01*
G01*
G37*
%TD*%
%TO.C,Rd2*%
G36*
G01*
X92653699Y-132575500D02*
X93553701Y-132575500D01*
G75*
G02*
X93803700Y-132825499I0J-249999D01*
G01*
X93803700Y-133525501D01*
G75*
G02*
X93553701Y-133775500I-249999J0D01*
G01*
X92653699Y-133775500D01*
G75*
G02*
X92403700Y-133525501I0J249999D01*
G01*
X92403700Y-132825499D01*
G75*
G02*
X92653699Y-132575500I249999J0D01*
G01*
G37*
G36*
G01*
X92653699Y-134575500D02*
X93553701Y-134575500D01*
G75*
G02*
X93803700Y-134825499I0J-249999D01*
G01*
X93803700Y-135525501D01*
G75*
G02*
X93553701Y-135775500I-249999J0D01*
G01*
X92653699Y-135775500D01*
G75*
G02*
X92403700Y-135525501I0J249999D01*
G01*
X92403700Y-134825499D01*
G75*
G02*
X92653699Y-134575500I249999J0D01*
G01*
G37*
%TD*%
%TO.C,Rd3*%
G36*
G01*
X84449499Y-132464500D02*
X85349501Y-132464500D01*
G75*
G02*
X85599500Y-132714499I0J-249999D01*
G01*
X85599500Y-133414501D01*
G75*
G02*
X85349501Y-133664500I-249999J0D01*
G01*
X84449499Y-133664500D01*
G75*
G02*
X84199500Y-133414501I0J249999D01*
G01*
X84199500Y-132714499D01*
G75*
G02*
X84449499Y-132464500I249999J0D01*
G01*
G37*
G36*
G01*
X84449499Y-134464500D02*
X85349501Y-134464500D01*
G75*
G02*
X85599500Y-134714499I0J-249999D01*
G01*
X85599500Y-135414501D01*
G75*
G02*
X85349501Y-135664500I-249999J0D01*
G01*
X84449499Y-135664500D01*
G75*
G02*
X84199500Y-135414501I0J249999D01*
G01*
X84199500Y-134714499D01*
G75*
G02*
X84449499Y-134464500I249999J0D01*
G01*
G37*
%TD*%
%TO.C,Rd4*%
G36*
G01*
X75508699Y-134499300D02*
X76408701Y-134499300D01*
G75*
G02*
X76658700Y-134749299I0J-249999D01*
G01*
X76658700Y-135449301D01*
G75*
G02*
X76408701Y-135699300I-249999J0D01*
G01*
X75508699Y-135699300D01*
G75*
G02*
X75258700Y-135449301I0J249999D01*
G01*
X75258700Y-134749299D01*
G75*
G02*
X75508699Y-134499300I249999J0D01*
G01*
G37*
G36*
G01*
X75508699Y-132499300D02*
X76408701Y-132499300D01*
G75*
G02*
X76658700Y-132749299I0J-249999D01*
G01*
X76658700Y-133449301D01*
G75*
G02*
X76408701Y-133699300I-249999J0D01*
G01*
X75508699Y-133699300D01*
G75*
G02*
X75258700Y-133449301I0J249999D01*
G01*
X75258700Y-132749299D01*
G75*
G02*
X75508699Y-132499300I249999J0D01*
G01*
G37*
%TD*%
%TO.C,Ren1*%
G36*
G01*
X141081300Y-124683099D02*
X141081300Y-125583101D01*
G75*
G02*
X140831301Y-125833100I-249999J0D01*
G01*
X140131299Y-125833100D01*
G75*
G02*
X139881300Y-125583101I0J249999D01*
G01*
X139881300Y-124683099D01*
G75*
G02*
X140131299Y-124433100I249999J0D01*
G01*
X140831301Y-124433100D01*
G75*
G02*
X141081300Y-124683099I0J-249999D01*
G01*
G37*
G36*
G01*
X143081300Y-124683099D02*
X143081300Y-125583101D01*
G75*
G02*
X142831301Y-125833100I-249999J0D01*
G01*
X142131299Y-125833100D01*
G75*
G02*
X141881300Y-125583101I0J249999D01*
G01*
X141881300Y-124683099D01*
G75*
G02*
X142131299Y-124433100I249999J0D01*
G01*
X142831301Y-124433100D01*
G75*
G02*
X143081300Y-124683099I0J-249999D01*
G01*
G37*
%TD*%
%TO.C,rLED1*%
G36*
G01*
X100041400Y-96196999D02*
X100041400Y-97097001D01*
G75*
G02*
X99791401Y-97347000I-249999J0D01*
G01*
X99141399Y-97347000D01*
G75*
G02*
X98891400Y-97097001I0J249999D01*
G01*
X98891400Y-96196999D01*
G75*
G02*
X99141399Y-95947000I249999J0D01*
G01*
X99791401Y-95947000D01*
G75*
G02*
X100041400Y-96196999I0J-249999D01*
G01*
G37*
G36*
G01*
X97991400Y-96196999D02*
X97991400Y-97097001D01*
G75*
G02*
X97741401Y-97347000I-249999J0D01*
G01*
X97091399Y-97347000D01*
G75*
G02*
X96841400Y-97097001I0J249999D01*
G01*
X96841400Y-96196999D01*
G75*
G02*
X97091399Y-95947000I249999J0D01*
G01*
X97741401Y-95947000D01*
G75*
G02*
X97991400Y-96196999I0J-249999D01*
G01*
G37*
%TD*%
%TO.C,Rogers1*%
G36*
G01*
X133576000Y-109368500D02*
X133576000Y-110468500D01*
G75*
G02*
X133326000Y-110718500I-250000J0D01*
G01*
X130326000Y-110718500D01*
G75*
G02*
X130076000Y-110468500I0J250000D01*
G01*
X130076000Y-109368500D01*
G75*
G02*
X130326000Y-109118500I250000J0D01*
G01*
X133326000Y-109118500D01*
G75*
G02*
X133576000Y-109368500I0J-250000D01*
G01*
G37*
G36*
G01*
X139176000Y-109368500D02*
X139176000Y-110468500D01*
G75*
G02*
X138926000Y-110718500I-250000J0D01*
G01*
X135926000Y-110718500D01*
G75*
G02*
X135676000Y-110468500I0J250000D01*
G01*
X135676000Y-109368500D01*
G75*
G02*
X135926000Y-109118500I250000J0D01*
G01*
X138926000Y-109118500D01*
G75*
G02*
X139176000Y-109368500I0J-250000D01*
G01*
G37*
%TD*%
%TO.C,Rpd1*%
G36*
G01*
X99586201Y-133737400D02*
X98686199Y-133737400D01*
G75*
G02*
X98436200Y-133487401I0J249999D01*
G01*
X98436200Y-132787399D01*
G75*
G02*
X98686199Y-132537400I249999J0D01*
G01*
X99586201Y-132537400D01*
G75*
G02*
X99836200Y-132787399I0J-249999D01*
G01*
X99836200Y-133487401D01*
G75*
G02*
X99586201Y-133737400I-249999J0D01*
G01*
G37*
G36*
G01*
X99586201Y-135737400D02*
X98686199Y-135737400D01*
G75*
G02*
X98436200Y-135487401I0J249999D01*
G01*
X98436200Y-134787399D01*
G75*
G02*
X98686199Y-134537400I249999J0D01*
G01*
X99586201Y-134537400D01*
G75*
G02*
X99836200Y-134787399I0J-249999D01*
G01*
X99836200Y-135487401D01*
G75*
G02*
X99586201Y-135737400I-249999J0D01*
G01*
G37*
%TD*%
%TO.C,Rpd2*%
G36*
G01*
X90175501Y-135737400D02*
X89275499Y-135737400D01*
G75*
G02*
X89025500Y-135487401I0J249999D01*
G01*
X89025500Y-134787399D01*
G75*
G02*
X89275499Y-134537400I249999J0D01*
G01*
X90175501Y-134537400D01*
G75*
G02*
X90425500Y-134787399I0J-249999D01*
G01*
X90425500Y-135487401D01*
G75*
G02*
X90175501Y-135737400I-249999J0D01*
G01*
G37*
G36*
G01*
X90175501Y-133737400D02*
X89275499Y-133737400D01*
G75*
G02*
X89025500Y-133487401I0J249999D01*
G01*
X89025500Y-132787399D01*
G75*
G02*
X89275499Y-132537400I249999J0D01*
G01*
X90175501Y-132537400D01*
G75*
G02*
X90425500Y-132787399I0J-249999D01*
G01*
X90425500Y-133487401D01*
G75*
G02*
X90175501Y-133737400I-249999J0D01*
G01*
G37*
%TD*%
%TO.C,Rpd3*%
G36*
G01*
X81907801Y-135648500D02*
X81007799Y-135648500D01*
G75*
G02*
X80757800Y-135398501I0J249999D01*
G01*
X80757800Y-134698499D01*
G75*
G02*
X81007799Y-134448500I249999J0D01*
G01*
X81907801Y-134448500D01*
G75*
G02*
X82157800Y-134698499I0J-249999D01*
G01*
X82157800Y-135398501D01*
G75*
G02*
X81907801Y-135648500I-249999J0D01*
G01*
G37*
G36*
G01*
X81907801Y-133648500D02*
X81007799Y-133648500D01*
G75*
G02*
X80757800Y-133398501I0J249999D01*
G01*
X80757800Y-132698499D01*
G75*
G02*
X81007799Y-132448500I249999J0D01*
G01*
X81907801Y-132448500D01*
G75*
G02*
X82157800Y-132698499I0J-249999D01*
G01*
X82157800Y-133398501D01*
G75*
G02*
X81907801Y-133648500I-249999J0D01*
G01*
G37*
%TD*%
%TO.C,Rpd4*%
G36*
G01*
X72497101Y-135737400D02*
X71597099Y-135737400D01*
G75*
G02*
X71347100Y-135487401I0J249999D01*
G01*
X71347100Y-134787399D01*
G75*
G02*
X71597099Y-134537400I249999J0D01*
G01*
X72497101Y-134537400D01*
G75*
G02*
X72747100Y-134787399I0J-249999D01*
G01*
X72747100Y-135487401D01*
G75*
G02*
X72497101Y-135737400I-249999J0D01*
G01*
G37*
G36*
G01*
X72497101Y-133737400D02*
X71597099Y-133737400D01*
G75*
G02*
X71347100Y-133487401I0J249999D01*
G01*
X71347100Y-132787399D01*
G75*
G02*
X71597099Y-132537400I249999J0D01*
G01*
X72497101Y-132537400D01*
G75*
G02*
X72747100Y-132787399I0J-249999D01*
G01*
X72747100Y-133487401D01*
G75*
G02*
X72497101Y-133737400I-249999J0D01*
G01*
G37*
%TD*%
%TO.C,Steve1*%
G36*
G01*
X118836500Y-110468500D02*
X118836500Y-109368500D01*
G75*
G02*
X119086500Y-109118500I250000J0D01*
G01*
X122086500Y-109118500D01*
G75*
G02*
X122336500Y-109368500I0J-250000D01*
G01*
X122336500Y-110468500D01*
G75*
G02*
X122086500Y-110718500I-250000J0D01*
G01*
X119086500Y-110718500D01*
G75*
G02*
X118836500Y-110468500I0J250000D01*
G01*
G37*
G36*
G01*
X124436500Y-110468500D02*
X124436500Y-109368500D01*
G75*
G02*
X124686500Y-109118500I250000J0D01*
G01*
X127686500Y-109118500D01*
G75*
G02*
X127936500Y-109368500I0J-250000D01*
G01*
X127936500Y-110468500D01*
G75*
G02*
X127686500Y-110718500I-250000J0D01*
G01*
X124686500Y-110718500D01*
G75*
G02*
X124436500Y-110468500I0J250000D01*
G01*
G37*
%TD*%
D12*
%TO.C,Conn_I2C1*%
X68706000Y-124333000D03*
X68706000Y-119253000D03*
X65406000Y-121793000D03*
X65406000Y-116713000D03*
%TD*%
M02*
