%TF.GenerationSoftware,KiCad,Pcbnew,(5.1.10-1-10_14)*%
%TF.CreationDate,2021-12-15T10:32:33-05:00*%
%TF.ProjectId,PCB_Design,5043425f-4465-4736-9967-6e2e6b696361,rev?*%
%TF.SameCoordinates,Original*%
%TF.FileFunction,Soldermask,Bot*%
%TF.FilePolarity,Negative*%
%FSLAX46Y46*%
G04 Gerber Fmt 4.6, Leading zero omitted, Abs format (unit mm)*
G04 Created by KiCad (PCBNEW (5.1.10-1-10_14)) date 2021-12-15 10:32:33*
%MOMM*%
%LPD*%
G01*
G04 APERTURE LIST*
%ADD10C,3.800000*%
%ADD11O,2.640000X3.300000*%
%ADD12R,4.700000X7.000000*%
%ADD13R,2.000000X2.000000*%
%ADD14C,2.000000*%
%ADD15R,1.800000X1.800000*%
%ADD16C,1.800000*%
%ADD17C,0.650000*%
%ADD18C,2.012000*%
%ADD19O,1.700000X1.950000*%
G04 APERTURE END LIST*
D10*
%TO.C,Tornillo vier*%
X149098000Y-156210000D03*
%TD*%
%TO.C,Tornillo drei*%
X67310000Y-156464000D03*
%TD*%
%TO.C,Tornillo zwei*%
X152654000Y-94234000D03*
%TD*%
%TO.C,Tornillo eins*%
X104394000Y-95758000D03*
%TD*%
D11*
%TO.C,SW_ONOFF1*%
X118110000Y-99568000D03*
G36*
G01*
X111242500Y-101281500D02*
X109102500Y-101281500D01*
G75*
G02*
X108852500Y-101031500I0J250000D01*
G01*
X108852500Y-98231500D01*
G75*
G02*
X109102500Y-97981500I250000J0D01*
G01*
X111242500Y-97981500D01*
G75*
G02*
X111492500Y-98231500I0J-250000D01*
G01*
X111492500Y-101031500D01*
G75*
G02*
X111242500Y-101281500I-250000J0D01*
G01*
G37*
%TD*%
D12*
%TO.C,Battery1*%
X67068500Y-139001500D03*
X148568500Y-139001500D03*
%TD*%
%TO.C,Battery2*%
X148568500Y-115062000D03*
X67068500Y-115062000D03*
%TD*%
D13*
%TO.C,Buzzer1*%
X109855000Y-127190500D03*
D14*
X117455000Y-127190500D03*
%TD*%
D15*
%TO.C,D1*%
X115519200Y-151790400D03*
D16*
X117678200Y-151790400D03*
X119837200Y-151790400D03*
X121996200Y-151790400D03*
%TD*%
D17*
%TO.C,J2*%
X71447000Y-95434500D03*
X70747000Y-95834500D03*
X70747000Y-96634500D03*
X71447000Y-97034500D03*
X70747000Y-97434500D03*
X71447000Y-97834500D03*
X71447000Y-98634500D03*
X70747000Y-99034500D03*
X71447000Y-99434500D03*
X70747000Y-99834500D03*
X70747000Y-100634500D03*
X71447000Y-101034500D03*
D18*
X65567000Y-93964500D03*
X65567000Y-102504500D03*
X70297000Y-93964500D03*
X70297000Y-102504500D03*
D17*
X71447000Y-96234500D03*
X71447000Y-100234500D03*
%TD*%
%TO.C,Sens_Temp1*%
G36*
G01*
X153758000Y-100875000D02*
X153758000Y-102325000D01*
G75*
G02*
X153508000Y-102575000I-250000J0D01*
G01*
X152308000Y-102575000D01*
G75*
G02*
X152058000Y-102325000I0J250000D01*
G01*
X152058000Y-100875000D01*
G75*
G02*
X152308000Y-100625000I250000J0D01*
G01*
X153508000Y-100625000D01*
G75*
G02*
X153758000Y-100875000I0J-250000D01*
G01*
G37*
D19*
X150408000Y-101600000D03*
X147908000Y-101600000D03*
%TD*%
M02*
