%TF.GenerationSoftware,KiCad,Pcbnew,(5.1.10-1-10_14)*%
%TF.CreationDate,2021-12-15T10:32:33-05:00*%
%TF.ProjectId,PCB_Design,5043425f-4465-4736-9967-6e2e6b696361,rev?*%
%TF.SameCoordinates,Original*%
%TF.FileFunction,Legend,Top*%
%TF.FilePolarity,Positive*%
%FSLAX46Y46*%
G04 Gerber Fmt 4.6, Leading zero omitted, Abs format (unit mm)*
G04 Created by KiCad (PCBNEW (5.1.10-1-10_14)) date 2021-12-15 10:32:33*
%MOMM*%
%LPD*%
G01*
G04 APERTURE LIST*
%ADD10C,0.120000*%
%ADD11C,0.100000*%
%ADD12C,0.150000*%
%ADD13C,0.254000*%
G04 APERTURE END LIST*
D10*
%TO.C,SW1*%
X143572800Y-118850800D02*
X143572800Y-122550800D01*
X137452800Y-118850800D02*
X143572800Y-118850800D01*
X137452800Y-122550800D02*
X137452800Y-118850800D01*
X143572800Y-122550800D02*
X137452800Y-122550800D01*
%TO.C,SW2*%
X137452800Y-118436000D02*
X137452800Y-114736000D01*
X143572800Y-118436000D02*
X137452800Y-118436000D01*
X143572800Y-114736000D02*
X143572800Y-118436000D01*
X137452800Y-114736000D02*
X143572800Y-114736000D01*
%TO.C,SW_ONOFF1*%
X112730000Y-103192264D02*
X113030000Y-102768000D01*
X113330000Y-103192264D02*
X112730000Y-103192264D01*
X113030000Y-102768000D02*
X113330000Y-103192264D01*
X119920000Y-103228000D02*
X119920000Y-102468000D01*
X118560000Y-103228000D02*
X119920000Y-103228000D01*
X118560000Y-102468000D02*
X118560000Y-103228000D01*
X115780000Y-103228000D02*
X115780000Y-102468000D01*
X114420000Y-103228000D02*
X115780000Y-103228000D01*
X114420000Y-102468000D02*
X114420000Y-103228000D01*
X111435000Y-103228000D02*
X111435000Y-102468000D01*
X110075000Y-103228000D02*
X111435000Y-103228000D01*
X108487500Y-102531500D02*
X108487500Y-103291500D01*
X107187500Y-98021500D02*
X108487500Y-98021500D01*
X107187500Y-101241500D02*
X107187500Y-98021500D01*
X108487500Y-101241500D02*
X107187500Y-101241500D01*
X120125000Y-96668000D02*
X120125000Y-98464698D01*
X110075000Y-96668000D02*
X120125000Y-96668000D01*
X108487500Y-99631500D02*
X108487500Y-96731500D01*
X120125000Y-102468000D02*
X120125000Y-100671302D01*
X110075000Y-102468000D02*
X120125000Y-102468000D01*
X108487500Y-99631500D02*
X108487500Y-102531500D01*
%TO.C,Conn_OLED1*%
X104393500Y-140760000D02*
G75*
G03*
X104393500Y-140760000I-1500000J0D01*
G01*
X73993500Y-140760000D02*
G75*
G03*
X73993500Y-140760000I-1500000J0D01*
G01*
X73993500Y-112260000D02*
G75*
G03*
X73993500Y-112260000I-1500000J0D01*
G01*
X104393500Y-112260000D02*
G75*
G03*
X104393500Y-112260000I-1500000J0D01*
G01*
X83123500Y-114300000D02*
X83123500Y-113090000D01*
X89723500Y-113090000D02*
X92933500Y-113090000D01*
X84643500Y-113090000D02*
X88203500Y-113090000D01*
X82453500Y-113090000D02*
X83123500Y-113090000D01*
X92933500Y-113090000D02*
X92933500Y-110430000D01*
X92263500Y-110430000D02*
X92933500Y-110430000D01*
X87183500Y-110430000D02*
X90743500Y-110430000D01*
X82453500Y-110430000D02*
X85663500Y-110430000D01*
X82453500Y-113090000D02*
X82453500Y-110430000D01*
%TO.C,Conn_prog1*%
X154559000Y-122489500D02*
X153349000Y-122489500D01*
X153349000Y-110809500D02*
X153349000Y-110139500D01*
X153349000Y-115889500D02*
X153349000Y-112329500D01*
X153349000Y-120969500D02*
X153349000Y-117409500D01*
X153349000Y-123159500D02*
X153349000Y-122489500D01*
X153349000Y-110139500D02*
X150689000Y-110139500D01*
X150689000Y-113349500D02*
X150689000Y-110139500D01*
X150689000Y-118429500D02*
X150689000Y-114869500D01*
X150689000Y-123159500D02*
X150689000Y-119949500D01*
X153349000Y-123159500D02*
X150689000Y-123159500D01*
%TO.C,Conn_I2C1*%
X64643000Y-118556500D02*
X65853000Y-118556500D01*
X65853000Y-125156500D02*
X65853000Y-125826500D01*
X65853000Y-120076500D02*
X65853000Y-123636500D01*
X65853000Y-117886500D02*
X65853000Y-118556500D01*
X65853000Y-125826500D02*
X68513000Y-125826500D01*
X68513000Y-122616500D02*
X68513000Y-125826500D01*
X68513000Y-117886500D02*
X68513000Y-121096500D01*
X65853000Y-117886500D02*
X68513000Y-117886500D01*
%TO.C,BT4*%
X74413500Y-145931500D02*
X67953500Y-145931500D01*
X74413500Y-150461500D02*
X74413500Y-147861500D01*
X74413500Y-152391500D02*
X67953500Y-152391500D01*
X67953500Y-150461500D02*
X67953500Y-147861500D01*
X74413500Y-152361500D02*
X74413500Y-152391500D01*
X74413500Y-145931500D02*
X74413500Y-145961500D01*
X67953500Y-145931500D02*
X67953500Y-145961500D01*
X67953500Y-152391500D02*
X67953500Y-152361500D01*
%TO.C,BT3*%
X85653000Y-145931500D02*
X79193000Y-145931500D01*
X85653000Y-150461500D02*
X85653000Y-147861500D01*
X85653000Y-152391500D02*
X79193000Y-152391500D01*
X79193000Y-150461500D02*
X79193000Y-147861500D01*
X85653000Y-152361500D02*
X85653000Y-152391500D01*
X85653000Y-145931500D02*
X85653000Y-145961500D01*
X79193000Y-145931500D02*
X79193000Y-145961500D01*
X79193000Y-152391500D02*
X79193000Y-152361500D01*
%TO.C,BT2*%
X96892500Y-145931500D02*
X90432500Y-145931500D01*
X96892500Y-150461500D02*
X96892500Y-147861500D01*
X96892500Y-152391500D02*
X90432500Y-152391500D01*
X90432500Y-150461500D02*
X90432500Y-147861500D01*
X96892500Y-152361500D02*
X96892500Y-152391500D01*
X96892500Y-145931500D02*
X96892500Y-145961500D01*
X90432500Y-145931500D02*
X90432500Y-145961500D01*
X90432500Y-152391500D02*
X90432500Y-152361500D01*
%TO.C,BT1*%
X108132500Y-145931500D02*
X101672500Y-145931500D01*
X108132500Y-150461500D02*
X108132500Y-147861500D01*
X108132500Y-152391500D02*
X101672500Y-152391500D01*
X101672500Y-150461500D02*
X101672500Y-147861500D01*
X108132500Y-152361500D02*
X108132500Y-152391500D01*
X108132500Y-145931500D02*
X108132500Y-145961500D01*
X101672500Y-145931500D02*
X101672500Y-145961500D01*
X101672500Y-152391500D02*
X101672500Y-152361500D01*
%TO.C,Cd4*%
X76290500Y-128939748D02*
X76290500Y-129462252D01*
X77760500Y-128939748D02*
X77760500Y-129462252D01*
%TO.C,Cd3*%
X84164500Y-128939748D02*
X84164500Y-129462252D01*
X85634500Y-128939748D02*
X85634500Y-129462252D01*
%TO.C,Cd2*%
X92038500Y-128939748D02*
X92038500Y-129462252D01*
X93508500Y-128939748D02*
X93508500Y-129462252D01*
%TO.C,Cd1*%
X99912500Y-128939748D02*
X99912500Y-129462252D01*
X101382500Y-128939748D02*
X101382500Y-129462252D01*
%TO.C,C2*%
X91087752Y-102770000D02*
X90565248Y-102770000D01*
X91087752Y-104240000D02*
X90565248Y-104240000D01*
%TO.C,C1*%
X85442248Y-104240000D02*
X85964752Y-104240000D01*
X85442248Y-102770000D02*
X85964752Y-102770000D01*
%TO.C,4.7k1*%
X148442436Y-106072000D02*
X148896564Y-106072000D01*
X148442436Y-107542000D02*
X148896564Y-107542000D01*
%TO.C,Buzzer1*%
X119755000Y-127190500D02*
G75*
G03*
X119755000Y-127190500I-6100000J0D01*
G01*
%TO.C,D1*%
X116197700Y-152870400D02*
X116197700Y-153335400D01*
X116197700Y-150245400D02*
X116197700Y-150710400D01*
X121545515Y-150709573D02*
G75*
G03*
X116197700Y-150245570I-2787815J-1080827D01*
G01*
X121545515Y-152871227D02*
G75*
G02*
X116197700Y-153335230I-2787815J1080827D01*
G01*
X121012179Y-150709971D02*
G75*
G03*
X116503016Y-150710400I-2254479J-1080429D01*
G01*
X121012179Y-152870829D02*
G75*
G02*
X116503016Y-152870400I-2254479J1080429D01*
G01*
%TO.C,FlagLED_R1*%
X122527500Y-103322000D02*
X125387500Y-103322000D01*
X122527500Y-101402000D02*
X122527500Y-103322000D01*
X125387500Y-101402000D02*
X122527500Y-101402000D01*
%TO.C,gLED1*%
X97441400Y-104973000D02*
X100301400Y-104973000D01*
X100301400Y-104973000D02*
X100301400Y-103053000D01*
X100301400Y-103053000D02*
X97441400Y-103053000D01*
%TO.C,IC1*%
X132207000Y-103017000D02*
X134157000Y-103017000D01*
X132207000Y-103017000D02*
X130257000Y-103017000D01*
X132207000Y-97897000D02*
X134157000Y-97897000D01*
X132207000Y-97897000D02*
X128757000Y-97897000D01*
%TO.C,J1*%
X88392000Y-95992000D02*
X84942000Y-95992000D01*
X88392000Y-95992000D02*
X90342000Y-95992000D01*
X88392000Y-101112000D02*
X86442000Y-101112000D01*
X88392000Y-101112000D02*
X90342000Y-101112000D01*
D11*
%TO.C,J2*%
X72107000Y-102604500D02*
X72107000Y-101734500D01*
X71607000Y-102604500D02*
X72107000Y-102604500D01*
X72107000Y-93864500D02*
X72107000Y-94734500D01*
X71607000Y-93864500D02*
X72107000Y-93864500D01*
X67107000Y-102604500D02*
X68607000Y-102604500D01*
X67107000Y-93864500D02*
X68607000Y-93864500D01*
X60907000Y-102604500D02*
X64107000Y-102604500D01*
X60907000Y-93864500D02*
X60907000Y-102604500D01*
X64107000Y-93864500D02*
X60907000Y-93864500D01*
D10*
%TO.C,LED_Piloto_G1*%
X129088000Y-123641500D02*
X129088000Y-126501500D01*
X129088000Y-126501500D02*
X131008000Y-126501500D01*
X131008000Y-126501500D02*
X131008000Y-123641500D01*
%TO.C,LED_Prog_B1*%
X121722000Y-122781500D02*
X121722000Y-125641500D01*
X123642000Y-122781500D02*
X121722000Y-122781500D01*
X123642000Y-125641500D02*
X123642000Y-122781500D01*
%TO.C,NMOS_Buzzer1*%
X111323000Y-118171500D02*
X111323000Y-116711500D01*
X114483000Y-118171500D02*
X114483000Y-116011500D01*
X114483000Y-118171500D02*
X113553000Y-118171500D01*
X111323000Y-118171500D02*
X112253000Y-118171500D01*
%TO.C,R1*%
X139403064Y-101627000D02*
X138948936Y-101627000D01*
X139403064Y-103097000D02*
X138948936Y-103097000D01*
%TO.C,R2*%
X138948936Y-100620500D02*
X139403064Y-100620500D01*
X138948936Y-99150500D02*
X139403064Y-99150500D01*
%TO.C,R_gLED1*%
X98239336Y-102335000D02*
X98693464Y-102335000D01*
X98239336Y-100865000D02*
X98693464Y-100865000D01*
%TO.C,R_Piloto1*%
X130783000Y-119533936D02*
X130783000Y-119988064D01*
X129313000Y-119533936D02*
X129313000Y-119988064D01*
%TO.C,R_PROG1*%
X81697500Y-98721936D02*
X81697500Y-99176064D01*
X80227500Y-98721936D02*
X80227500Y-99176064D01*
%TO.C,R_Prog_B1*%
X123417000Y-119232436D02*
X123417000Y-119686564D01*
X121947000Y-119232436D02*
X121947000Y-119686564D01*
%TO.C,R_RGB_B1*%
X114771500Y-145372064D02*
X114771500Y-144917936D01*
X116241500Y-145372064D02*
X116241500Y-144917936D01*
%TO.C,R_RGB_G1*%
X118400500Y-145372064D02*
X118400500Y-144917936D01*
X116930500Y-145372064D02*
X116930500Y-144917936D01*
%TO.C,R_RGB_R1*%
X119089500Y-145372064D02*
X119089500Y-144917936D01*
X120559500Y-145372064D02*
X120559500Y-144917936D01*
%TO.C,R_rLED1*%
X98693464Y-98325000D02*
X98239336Y-98325000D01*
X98693464Y-99795000D02*
X98239336Y-99795000D01*
%TO.C,R_rLed1*%
X124153436Y-99023500D02*
X124607564Y-99023500D01*
X124153436Y-100493500D02*
X124607564Y-100493500D01*
%TO.C,Rd1*%
X99912500Y-133837436D02*
X99912500Y-134291564D01*
X101382500Y-133837436D02*
X101382500Y-134291564D01*
%TO.C,Rd2*%
X92038500Y-133837436D02*
X92038500Y-134291564D01*
X93508500Y-133837436D02*
X93508500Y-134291564D01*
%TO.C,Rd3*%
X84164500Y-133837436D02*
X84164500Y-134291564D01*
X85634500Y-133837436D02*
X85634500Y-134291564D01*
%TO.C,Rd4*%
X77760500Y-133837436D02*
X77760500Y-134291564D01*
X76290500Y-133837436D02*
X76290500Y-134291564D01*
%TO.C,Ren1*%
X140774664Y-127176200D02*
X140320536Y-127176200D01*
X140774664Y-125706200D02*
X140320536Y-125706200D01*
%TO.C,rLED1*%
X100301400Y-95687000D02*
X97441400Y-95687000D01*
X100301400Y-97607000D02*
X100301400Y-95687000D01*
X97441400Y-97607000D02*
X100301400Y-97607000D01*
%TO.C,Rogers1*%
X131216000Y-106508500D02*
X131216000Y-108858500D01*
X131216000Y-113328500D02*
X131216000Y-110978500D01*
X136971563Y-113328500D02*
X131216000Y-113328500D01*
X136971563Y-106508500D02*
X131216000Y-106508500D01*
X138036000Y-107572937D02*
X138036000Y-108858500D01*
X138036000Y-112264063D02*
X138036000Y-110978500D01*
X138036000Y-112264063D02*
X136971563Y-113328500D01*
X138036000Y-107572937D02*
X136971563Y-106508500D01*
X139063500Y-111766000D02*
X138276000Y-111766000D01*
X138669750Y-112159750D02*
X138669750Y-111372250D01*
%TO.C,Rpd1*%
X97499500Y-134291564D02*
X97499500Y-133837436D01*
X98969500Y-134291564D02*
X98969500Y-133837436D01*
%TO.C,Rpd2*%
X91095500Y-134291564D02*
X91095500Y-133837436D01*
X89625500Y-134291564D02*
X89625500Y-133837436D01*
%TO.C,Rpd3*%
X83221500Y-134291564D02*
X83221500Y-133837436D01*
X81751500Y-134291564D02*
X81751500Y-133837436D01*
%TO.C,Rpd4*%
X75347500Y-134291564D02*
X75347500Y-133837436D01*
X73877500Y-134291564D02*
X73877500Y-133837436D01*
%TO.C,Sens_Temp1*%
X155758000Y-104350000D02*
X155758000Y-103100000D01*
X154508000Y-104350000D02*
X155758000Y-104350000D01*
X146108000Y-98850000D02*
X150408000Y-98850000D01*
X146108000Y-101800000D02*
X146108000Y-98850000D01*
X145358000Y-101800000D02*
X146108000Y-101800000D01*
X154708000Y-98850000D02*
X150408000Y-98850000D01*
X154708000Y-101800000D02*
X154708000Y-98850000D01*
X155458000Y-101800000D02*
X154708000Y-101800000D01*
X145358000Y-104050000D02*
X147158000Y-104050000D01*
X145358000Y-103300000D02*
X145358000Y-104050000D01*
X147158000Y-103300000D02*
X145358000Y-103300000D01*
X147158000Y-104050000D02*
X147158000Y-103300000D01*
X153658000Y-104050000D02*
X155458000Y-104050000D01*
X153658000Y-103300000D02*
X153658000Y-104050000D01*
X155458000Y-103300000D02*
X153658000Y-103300000D01*
X155458000Y-104050000D02*
X155458000Y-103300000D01*
X148658000Y-104050000D02*
X152158000Y-104050000D01*
X148658000Y-103300000D02*
X148658000Y-104050000D01*
X152158000Y-103300000D02*
X148658000Y-103300000D01*
X152158000Y-104050000D02*
X152158000Y-103300000D01*
X145348000Y-104060000D02*
X155468000Y-104060000D01*
X145348000Y-98090000D02*
X145348000Y-104060000D01*
X155468000Y-98090000D02*
X145348000Y-98090000D01*
X155468000Y-104060000D02*
X155468000Y-98090000D01*
%TO.C,Steve1*%
X119342750Y-107677250D02*
X119342750Y-108464750D01*
X118949000Y-108071000D02*
X119736500Y-108071000D01*
X119976500Y-112264063D02*
X121040937Y-113328500D01*
X119976500Y-107572937D02*
X121040937Y-106508500D01*
X119976500Y-107572937D02*
X119976500Y-108858500D01*
X119976500Y-112264063D02*
X119976500Y-110978500D01*
X121040937Y-113328500D02*
X126796500Y-113328500D01*
X121040937Y-106508500D02*
X126796500Y-106508500D01*
X126796500Y-106508500D02*
X126796500Y-108858500D01*
X126796500Y-113328500D02*
X126796500Y-110978500D01*
%TO.C,U1*%
X151113500Y-130834000D02*
X151113500Y-130454000D01*
X157533500Y-130834000D02*
X151113500Y-130834000D01*
X157533500Y-149074000D02*
X151113500Y-149074000D01*
X157533500Y-130834000D02*
X157533500Y-149074000D01*
X131788500Y-149074000D02*
X131788500Y-148074000D01*
X132568500Y-149074000D02*
X131788500Y-149074000D01*
X131788500Y-130834000D02*
X131788500Y-131834000D01*
X132568500Y-130834000D02*
X131788500Y-130834000D01*
%TO.C,Tornillo vier*%
D12*
X144645619Y-152762380D02*
X145217047Y-152762380D01*
X144931333Y-153762380D02*
X144931333Y-152762380D01*
X145693238Y-153762380D02*
X145598000Y-153714761D01*
X145550380Y-153667142D01*
X145502761Y-153571904D01*
X145502761Y-153286190D01*
X145550380Y-153190952D01*
X145598000Y-153143333D01*
X145693238Y-153095714D01*
X145836095Y-153095714D01*
X145931333Y-153143333D01*
X145978952Y-153190952D01*
X146026571Y-153286190D01*
X146026571Y-153571904D01*
X145978952Y-153667142D01*
X145931333Y-153714761D01*
X145836095Y-153762380D01*
X145693238Y-153762380D01*
X146455142Y-153762380D02*
X146455142Y-153095714D01*
X146455142Y-153286190D02*
X146502761Y-153190952D01*
X146550380Y-153143333D01*
X146645619Y-153095714D01*
X146740857Y-153095714D01*
X147074190Y-153095714D02*
X147074190Y-153762380D01*
X147074190Y-153190952D02*
X147121809Y-153143333D01*
X147217047Y-153095714D01*
X147359904Y-153095714D01*
X147455142Y-153143333D01*
X147502761Y-153238571D01*
X147502761Y-153762380D01*
X147978952Y-153762380D02*
X147978952Y-153095714D01*
X147978952Y-152762380D02*
X147931333Y-152810000D01*
X147978952Y-152857619D01*
X148026571Y-152810000D01*
X147978952Y-152762380D01*
X147978952Y-152857619D01*
X148598000Y-153762380D02*
X148502761Y-153714761D01*
X148455142Y-153619523D01*
X148455142Y-152762380D01*
X149121809Y-153762380D02*
X149026571Y-153714761D01*
X148978952Y-153619523D01*
X148978952Y-152762380D01*
X149645619Y-153762380D02*
X149550380Y-153714761D01*
X149502761Y-153667142D01*
X149455142Y-153571904D01*
X149455142Y-153286190D01*
X149502761Y-153190952D01*
X149550380Y-153143333D01*
X149645619Y-153095714D01*
X149788476Y-153095714D01*
X149883714Y-153143333D01*
X149931333Y-153190952D01*
X149978952Y-153286190D01*
X149978952Y-153571904D01*
X149931333Y-153667142D01*
X149883714Y-153714761D01*
X149788476Y-153762380D01*
X149645619Y-153762380D01*
X151074190Y-153095714D02*
X151312285Y-153762380D01*
X151550380Y-153095714D01*
X151931333Y-153762380D02*
X151931333Y-153095714D01*
X151931333Y-152762380D02*
X151883714Y-152810000D01*
X151931333Y-152857619D01*
X151978952Y-152810000D01*
X151931333Y-152762380D01*
X151931333Y-152857619D01*
X152788476Y-153714761D02*
X152693238Y-153762380D01*
X152502761Y-153762380D01*
X152407523Y-153714761D01*
X152359904Y-153619523D01*
X152359904Y-153238571D01*
X152407523Y-153143333D01*
X152502761Y-153095714D01*
X152693238Y-153095714D01*
X152788476Y-153143333D01*
X152836095Y-153238571D01*
X152836095Y-153333809D01*
X152359904Y-153429047D01*
X153264666Y-153762380D02*
X153264666Y-153095714D01*
X153264666Y-153286190D02*
X153312285Y-153190952D01*
X153359904Y-153143333D01*
X153455142Y-153095714D01*
X153550380Y-153095714D01*
%TO.C,Tornillo drei*%
X69771190Y-156043380D02*
X70342619Y-156043380D01*
X70056904Y-157043380D02*
X70056904Y-156043380D01*
X70818809Y-157043380D02*
X70723571Y-156995761D01*
X70675952Y-156948142D01*
X70628333Y-156852904D01*
X70628333Y-156567190D01*
X70675952Y-156471952D01*
X70723571Y-156424333D01*
X70818809Y-156376714D01*
X70961666Y-156376714D01*
X71056904Y-156424333D01*
X71104523Y-156471952D01*
X71152142Y-156567190D01*
X71152142Y-156852904D01*
X71104523Y-156948142D01*
X71056904Y-156995761D01*
X70961666Y-157043380D01*
X70818809Y-157043380D01*
X71580714Y-157043380D02*
X71580714Y-156376714D01*
X71580714Y-156567190D02*
X71628333Y-156471952D01*
X71675952Y-156424333D01*
X71771190Y-156376714D01*
X71866428Y-156376714D01*
X72199761Y-156376714D02*
X72199761Y-157043380D01*
X72199761Y-156471952D02*
X72247380Y-156424333D01*
X72342619Y-156376714D01*
X72485476Y-156376714D01*
X72580714Y-156424333D01*
X72628333Y-156519571D01*
X72628333Y-157043380D01*
X73104523Y-157043380D02*
X73104523Y-156376714D01*
X73104523Y-156043380D02*
X73056904Y-156091000D01*
X73104523Y-156138619D01*
X73152142Y-156091000D01*
X73104523Y-156043380D01*
X73104523Y-156138619D01*
X73723571Y-157043380D02*
X73628333Y-156995761D01*
X73580714Y-156900523D01*
X73580714Y-156043380D01*
X74247380Y-157043380D02*
X74152142Y-156995761D01*
X74104523Y-156900523D01*
X74104523Y-156043380D01*
X74771190Y-157043380D02*
X74675952Y-156995761D01*
X74628333Y-156948142D01*
X74580714Y-156852904D01*
X74580714Y-156567190D01*
X74628333Y-156471952D01*
X74675952Y-156424333D01*
X74771190Y-156376714D01*
X74914047Y-156376714D01*
X75009285Y-156424333D01*
X75056904Y-156471952D01*
X75104523Y-156567190D01*
X75104523Y-156852904D01*
X75056904Y-156948142D01*
X75009285Y-156995761D01*
X74914047Y-157043380D01*
X74771190Y-157043380D01*
X76723571Y-157043380D02*
X76723571Y-156043380D01*
X76723571Y-156995761D02*
X76628333Y-157043380D01*
X76437857Y-157043380D01*
X76342619Y-156995761D01*
X76295000Y-156948142D01*
X76247380Y-156852904D01*
X76247380Y-156567190D01*
X76295000Y-156471952D01*
X76342619Y-156424333D01*
X76437857Y-156376714D01*
X76628333Y-156376714D01*
X76723571Y-156424333D01*
X77199761Y-157043380D02*
X77199761Y-156376714D01*
X77199761Y-156567190D02*
X77247380Y-156471952D01*
X77295000Y-156424333D01*
X77390238Y-156376714D01*
X77485476Y-156376714D01*
X78199761Y-156995761D02*
X78104523Y-157043380D01*
X77914047Y-157043380D01*
X77818809Y-156995761D01*
X77771190Y-156900523D01*
X77771190Y-156519571D01*
X77818809Y-156424333D01*
X77914047Y-156376714D01*
X78104523Y-156376714D01*
X78199761Y-156424333D01*
X78247380Y-156519571D01*
X78247380Y-156614809D01*
X77771190Y-156710047D01*
X78675952Y-157043380D02*
X78675952Y-156376714D01*
X78675952Y-156043380D02*
X78628333Y-156091000D01*
X78675952Y-156138619D01*
X78723571Y-156091000D01*
X78675952Y-156043380D01*
X78675952Y-156138619D01*
%TO.C,Tornillo zwei*%
X147773023Y-96734380D02*
X148344452Y-96734380D01*
X148058738Y-97734380D02*
X148058738Y-96734380D01*
X148820642Y-97734380D02*
X148725404Y-97686761D01*
X148677785Y-97639142D01*
X148630166Y-97543904D01*
X148630166Y-97258190D01*
X148677785Y-97162952D01*
X148725404Y-97115333D01*
X148820642Y-97067714D01*
X148963500Y-97067714D01*
X149058738Y-97115333D01*
X149106357Y-97162952D01*
X149153976Y-97258190D01*
X149153976Y-97543904D01*
X149106357Y-97639142D01*
X149058738Y-97686761D01*
X148963500Y-97734380D01*
X148820642Y-97734380D01*
X149582547Y-97734380D02*
X149582547Y-97067714D01*
X149582547Y-97258190D02*
X149630166Y-97162952D01*
X149677785Y-97115333D01*
X149773023Y-97067714D01*
X149868261Y-97067714D01*
X150201595Y-97067714D02*
X150201595Y-97734380D01*
X150201595Y-97162952D02*
X150249214Y-97115333D01*
X150344452Y-97067714D01*
X150487309Y-97067714D01*
X150582547Y-97115333D01*
X150630166Y-97210571D01*
X150630166Y-97734380D01*
X151106357Y-97734380D02*
X151106357Y-97067714D01*
X151106357Y-96734380D02*
X151058738Y-96782000D01*
X151106357Y-96829619D01*
X151153976Y-96782000D01*
X151106357Y-96734380D01*
X151106357Y-96829619D01*
X151725404Y-97734380D02*
X151630166Y-97686761D01*
X151582547Y-97591523D01*
X151582547Y-96734380D01*
X152249214Y-97734380D02*
X152153976Y-97686761D01*
X152106357Y-97591523D01*
X152106357Y-96734380D01*
X152773023Y-97734380D02*
X152677785Y-97686761D01*
X152630166Y-97639142D01*
X152582547Y-97543904D01*
X152582547Y-97258190D01*
X152630166Y-97162952D01*
X152677785Y-97115333D01*
X152773023Y-97067714D01*
X152915880Y-97067714D01*
X153011119Y-97115333D01*
X153058738Y-97162952D01*
X153106357Y-97258190D01*
X153106357Y-97543904D01*
X153058738Y-97639142D01*
X153011119Y-97686761D01*
X152915880Y-97734380D01*
X152773023Y-97734380D01*
X154201595Y-97067714D02*
X154725404Y-97067714D01*
X154201595Y-97734380D01*
X154725404Y-97734380D01*
X155011119Y-97067714D02*
X155201595Y-97734380D01*
X155392071Y-97258190D01*
X155582547Y-97734380D01*
X155773023Y-97067714D01*
X156534928Y-97686761D02*
X156439690Y-97734380D01*
X156249214Y-97734380D01*
X156153976Y-97686761D01*
X156106357Y-97591523D01*
X156106357Y-97210571D01*
X156153976Y-97115333D01*
X156249214Y-97067714D01*
X156439690Y-97067714D01*
X156534928Y-97115333D01*
X156582547Y-97210571D01*
X156582547Y-97305809D01*
X156106357Y-97401047D01*
X157011119Y-97734380D02*
X157011119Y-97067714D01*
X157011119Y-96734380D02*
X156963500Y-96782000D01*
X157011119Y-96829619D01*
X157058738Y-96782000D01*
X157011119Y-96734380D01*
X157011119Y-96829619D01*
%TO.C,Tornillo eins*%
X99774952Y-92310380D02*
X100346380Y-92310380D01*
X100060666Y-93310380D02*
X100060666Y-92310380D01*
X100822571Y-93310380D02*
X100727333Y-93262761D01*
X100679714Y-93215142D01*
X100632095Y-93119904D01*
X100632095Y-92834190D01*
X100679714Y-92738952D01*
X100727333Y-92691333D01*
X100822571Y-92643714D01*
X100965428Y-92643714D01*
X101060666Y-92691333D01*
X101108285Y-92738952D01*
X101155904Y-92834190D01*
X101155904Y-93119904D01*
X101108285Y-93215142D01*
X101060666Y-93262761D01*
X100965428Y-93310380D01*
X100822571Y-93310380D01*
X101584476Y-93310380D02*
X101584476Y-92643714D01*
X101584476Y-92834190D02*
X101632095Y-92738952D01*
X101679714Y-92691333D01*
X101774952Y-92643714D01*
X101870190Y-92643714D01*
X102203523Y-92643714D02*
X102203523Y-93310380D01*
X102203523Y-92738952D02*
X102251142Y-92691333D01*
X102346380Y-92643714D01*
X102489238Y-92643714D01*
X102584476Y-92691333D01*
X102632095Y-92786571D01*
X102632095Y-93310380D01*
X103108285Y-93310380D02*
X103108285Y-92643714D01*
X103108285Y-92310380D02*
X103060666Y-92358000D01*
X103108285Y-92405619D01*
X103155904Y-92358000D01*
X103108285Y-92310380D01*
X103108285Y-92405619D01*
X103727333Y-93310380D02*
X103632095Y-93262761D01*
X103584476Y-93167523D01*
X103584476Y-92310380D01*
X104251142Y-93310380D02*
X104155904Y-93262761D01*
X104108285Y-93167523D01*
X104108285Y-92310380D01*
X104774952Y-93310380D02*
X104679714Y-93262761D01*
X104632095Y-93215142D01*
X104584476Y-93119904D01*
X104584476Y-92834190D01*
X104632095Y-92738952D01*
X104679714Y-92691333D01*
X104774952Y-92643714D01*
X104917809Y-92643714D01*
X105013047Y-92691333D01*
X105060666Y-92738952D01*
X105108285Y-92834190D01*
X105108285Y-93119904D01*
X105060666Y-93215142D01*
X105013047Y-93262761D01*
X104917809Y-93310380D01*
X104774952Y-93310380D01*
X106679714Y-93262761D02*
X106584476Y-93310380D01*
X106394000Y-93310380D01*
X106298761Y-93262761D01*
X106251142Y-93167523D01*
X106251142Y-92786571D01*
X106298761Y-92691333D01*
X106394000Y-92643714D01*
X106584476Y-92643714D01*
X106679714Y-92691333D01*
X106727333Y-92786571D01*
X106727333Y-92881809D01*
X106251142Y-92977047D01*
X107155904Y-93310380D02*
X107155904Y-92643714D01*
X107155904Y-92310380D02*
X107108285Y-92358000D01*
X107155904Y-92405619D01*
X107203523Y-92358000D01*
X107155904Y-92310380D01*
X107155904Y-92405619D01*
X107632095Y-92643714D02*
X107632095Y-93310380D01*
X107632095Y-92738952D02*
X107679714Y-92691333D01*
X107774952Y-92643714D01*
X107917809Y-92643714D01*
X108013047Y-92691333D01*
X108060666Y-92786571D01*
X108060666Y-93310380D01*
X108489238Y-93262761D02*
X108584476Y-93310380D01*
X108774952Y-93310380D01*
X108870190Y-93262761D01*
X108917809Y-93167523D01*
X108917809Y-93119904D01*
X108870190Y-93024666D01*
X108774952Y-92977047D01*
X108632095Y-92977047D01*
X108536857Y-92929428D01*
X108489238Y-92834190D01*
X108489238Y-92786571D01*
X108536857Y-92691333D01*
X108632095Y-92643714D01*
X108774952Y-92643714D01*
X108870190Y-92691333D01*
%TO.C,SW1*%
X139179466Y-123797961D02*
X139322323Y-123845580D01*
X139560419Y-123845580D01*
X139655657Y-123797961D01*
X139703276Y-123750342D01*
X139750895Y-123655104D01*
X139750895Y-123559866D01*
X139703276Y-123464628D01*
X139655657Y-123417009D01*
X139560419Y-123369390D01*
X139369942Y-123321771D01*
X139274704Y-123274152D01*
X139227085Y-123226533D01*
X139179466Y-123131295D01*
X139179466Y-123036057D01*
X139227085Y-122940819D01*
X139274704Y-122893200D01*
X139369942Y-122845580D01*
X139608038Y-122845580D01*
X139750895Y-122893200D01*
X140084228Y-122845580D02*
X140322323Y-123845580D01*
X140512800Y-123131295D01*
X140703276Y-123845580D01*
X140941371Y-122845580D01*
X141846133Y-123845580D02*
X141274704Y-123845580D01*
X141560419Y-123845580D02*
X141560419Y-122845580D01*
X141465180Y-122988438D01*
X141369942Y-123083676D01*
X141274704Y-123131295D01*
%TO.C,SW2*%
X139179466Y-114349161D02*
X139322323Y-114396780D01*
X139560419Y-114396780D01*
X139655657Y-114349161D01*
X139703276Y-114301542D01*
X139750895Y-114206304D01*
X139750895Y-114111066D01*
X139703276Y-114015828D01*
X139655657Y-113968209D01*
X139560419Y-113920590D01*
X139369942Y-113872971D01*
X139274704Y-113825352D01*
X139227085Y-113777733D01*
X139179466Y-113682495D01*
X139179466Y-113587257D01*
X139227085Y-113492019D01*
X139274704Y-113444400D01*
X139369942Y-113396780D01*
X139608038Y-113396780D01*
X139750895Y-113444400D01*
X140084228Y-113396780D02*
X140322323Y-114396780D01*
X140512800Y-113682495D01*
X140703276Y-114396780D01*
X140941371Y-113396780D01*
X141274704Y-113492019D02*
X141322323Y-113444400D01*
X141417561Y-113396780D01*
X141655657Y-113396780D01*
X141750895Y-113444400D01*
X141798514Y-113492019D01*
X141846133Y-113587257D01*
X141846133Y-113682495D01*
X141798514Y-113825352D01*
X141227085Y-114396780D01*
X141846133Y-114396780D01*
%TO.C,SW_ONOFF1*%
X109839642Y-96099261D02*
X109982500Y-96146880D01*
X110220595Y-96146880D01*
X110315833Y-96099261D01*
X110363452Y-96051642D01*
X110411071Y-95956404D01*
X110411071Y-95861166D01*
X110363452Y-95765928D01*
X110315833Y-95718309D01*
X110220595Y-95670690D01*
X110030119Y-95623071D01*
X109934880Y-95575452D01*
X109887261Y-95527833D01*
X109839642Y-95432595D01*
X109839642Y-95337357D01*
X109887261Y-95242119D01*
X109934880Y-95194500D01*
X110030119Y-95146880D01*
X110268214Y-95146880D01*
X110411071Y-95194500D01*
X110744404Y-95146880D02*
X110982500Y-96146880D01*
X111172976Y-95432595D01*
X111363452Y-96146880D01*
X111601547Y-95146880D01*
X111744404Y-96242119D02*
X112506309Y-96242119D01*
X112934880Y-95146880D02*
X113125357Y-95146880D01*
X113220595Y-95194500D01*
X113315833Y-95289738D01*
X113363452Y-95480214D01*
X113363452Y-95813547D01*
X113315833Y-96004023D01*
X113220595Y-96099261D01*
X113125357Y-96146880D01*
X112934880Y-96146880D01*
X112839642Y-96099261D01*
X112744404Y-96004023D01*
X112696785Y-95813547D01*
X112696785Y-95480214D01*
X112744404Y-95289738D01*
X112839642Y-95194500D01*
X112934880Y-95146880D01*
X113792023Y-96146880D02*
X113792023Y-95146880D01*
X114363452Y-96146880D01*
X114363452Y-95146880D01*
X115030119Y-95146880D02*
X115220595Y-95146880D01*
X115315833Y-95194500D01*
X115411071Y-95289738D01*
X115458690Y-95480214D01*
X115458690Y-95813547D01*
X115411071Y-96004023D01*
X115315833Y-96099261D01*
X115220595Y-96146880D01*
X115030119Y-96146880D01*
X114934880Y-96099261D01*
X114839642Y-96004023D01*
X114792023Y-95813547D01*
X114792023Y-95480214D01*
X114839642Y-95289738D01*
X114934880Y-95194500D01*
X115030119Y-95146880D01*
X116220595Y-95623071D02*
X115887261Y-95623071D01*
X115887261Y-96146880D02*
X115887261Y-95146880D01*
X116363452Y-95146880D01*
X117077738Y-95623071D02*
X116744404Y-95623071D01*
X116744404Y-96146880D02*
X116744404Y-95146880D01*
X117220595Y-95146880D01*
X118125357Y-96146880D02*
X117553928Y-96146880D01*
X117839642Y-96146880D02*
X117839642Y-95146880D01*
X117744404Y-95289738D01*
X117649166Y-95384976D01*
X117553928Y-95432595D01*
%TO.C,Conn_OLED1*%
X81370642Y-115545714D02*
X81418261Y-115593333D01*
X81465880Y-115736190D01*
X81465880Y-115831428D01*
X81418261Y-115974285D01*
X81323023Y-116069523D01*
X81227785Y-116117142D01*
X81037309Y-116164761D01*
X80894452Y-116164761D01*
X80703976Y-116117142D01*
X80608738Y-116069523D01*
X80513500Y-115974285D01*
X80465880Y-115831428D01*
X80465880Y-115736190D01*
X80513500Y-115593333D01*
X80561119Y-115545714D01*
X81465880Y-114974285D02*
X81418261Y-115069523D01*
X81370642Y-115117142D01*
X81275404Y-115164761D01*
X80989690Y-115164761D01*
X80894452Y-115117142D01*
X80846833Y-115069523D01*
X80799214Y-114974285D01*
X80799214Y-114831428D01*
X80846833Y-114736190D01*
X80894452Y-114688571D01*
X80989690Y-114640952D01*
X81275404Y-114640952D01*
X81370642Y-114688571D01*
X81418261Y-114736190D01*
X81465880Y-114831428D01*
X81465880Y-114974285D01*
X80799214Y-114212380D02*
X81465880Y-114212380D01*
X80894452Y-114212380D02*
X80846833Y-114164761D01*
X80799214Y-114069523D01*
X80799214Y-113926666D01*
X80846833Y-113831428D01*
X80942071Y-113783809D01*
X81465880Y-113783809D01*
X80799214Y-113307619D02*
X81465880Y-113307619D01*
X80894452Y-113307619D02*
X80846833Y-113260000D01*
X80799214Y-113164761D01*
X80799214Y-113021904D01*
X80846833Y-112926666D01*
X80942071Y-112879047D01*
X81465880Y-112879047D01*
X81561119Y-112640952D02*
X81561119Y-111879047D01*
X80465880Y-111450476D02*
X80465880Y-111260000D01*
X80513500Y-111164761D01*
X80608738Y-111069523D01*
X80799214Y-111021904D01*
X81132547Y-111021904D01*
X81323023Y-111069523D01*
X81418261Y-111164761D01*
X81465880Y-111260000D01*
X81465880Y-111450476D01*
X81418261Y-111545714D01*
X81323023Y-111640952D01*
X81132547Y-111688571D01*
X80799214Y-111688571D01*
X80608738Y-111640952D01*
X80513500Y-111545714D01*
X80465880Y-111450476D01*
X81465880Y-110117142D02*
X81465880Y-110593333D01*
X80465880Y-110593333D01*
X80942071Y-109783809D02*
X80942071Y-109450476D01*
X81465880Y-109307619D02*
X81465880Y-109783809D01*
X80465880Y-109783809D01*
X80465880Y-109307619D01*
X81465880Y-108879047D02*
X80465880Y-108879047D01*
X80465880Y-108640952D01*
X80513500Y-108498095D01*
X80608738Y-108402857D01*
X80703976Y-108355238D01*
X80894452Y-108307619D01*
X81037309Y-108307619D01*
X81227785Y-108355238D01*
X81323023Y-108402857D01*
X81418261Y-108498095D01*
X81465880Y-108640952D01*
X81465880Y-108879047D01*
X81465880Y-107355238D02*
X81465880Y-107926666D01*
X81465880Y-107640952D02*
X80465880Y-107640952D01*
X80608738Y-107736190D01*
X80703976Y-107831428D01*
X80751595Y-107926666D01*
%TO.C,Conn_prog1*%
X148447571Y-124956642D02*
X148399952Y-125004261D01*
X148257095Y-125051880D01*
X148161857Y-125051880D01*
X148019000Y-125004261D01*
X147923761Y-124909023D01*
X147876142Y-124813785D01*
X147828523Y-124623309D01*
X147828523Y-124480452D01*
X147876142Y-124289976D01*
X147923761Y-124194738D01*
X148019000Y-124099500D01*
X148161857Y-124051880D01*
X148257095Y-124051880D01*
X148399952Y-124099500D01*
X148447571Y-124147119D01*
X149019000Y-125051880D02*
X148923761Y-125004261D01*
X148876142Y-124956642D01*
X148828523Y-124861404D01*
X148828523Y-124575690D01*
X148876142Y-124480452D01*
X148923761Y-124432833D01*
X149019000Y-124385214D01*
X149161857Y-124385214D01*
X149257095Y-124432833D01*
X149304714Y-124480452D01*
X149352333Y-124575690D01*
X149352333Y-124861404D01*
X149304714Y-124956642D01*
X149257095Y-125004261D01*
X149161857Y-125051880D01*
X149019000Y-125051880D01*
X149780904Y-124385214D02*
X149780904Y-125051880D01*
X149780904Y-124480452D02*
X149828523Y-124432833D01*
X149923761Y-124385214D01*
X150066619Y-124385214D01*
X150161857Y-124432833D01*
X150209476Y-124528071D01*
X150209476Y-125051880D01*
X150685666Y-124385214D02*
X150685666Y-125051880D01*
X150685666Y-124480452D02*
X150733285Y-124432833D01*
X150828523Y-124385214D01*
X150971380Y-124385214D01*
X151066619Y-124432833D01*
X151114238Y-124528071D01*
X151114238Y-125051880D01*
X151352333Y-125147119D02*
X152114238Y-125147119D01*
X152352333Y-124385214D02*
X152352333Y-125385214D01*
X152352333Y-124432833D02*
X152447571Y-124385214D01*
X152638047Y-124385214D01*
X152733285Y-124432833D01*
X152780904Y-124480452D01*
X152828523Y-124575690D01*
X152828523Y-124861404D01*
X152780904Y-124956642D01*
X152733285Y-125004261D01*
X152638047Y-125051880D01*
X152447571Y-125051880D01*
X152352333Y-125004261D01*
X153257095Y-125051880D02*
X153257095Y-124385214D01*
X153257095Y-124575690D02*
X153304714Y-124480452D01*
X153352333Y-124432833D01*
X153447571Y-124385214D01*
X153542809Y-124385214D01*
X154019000Y-125051880D02*
X153923761Y-125004261D01*
X153876142Y-124956642D01*
X153828523Y-124861404D01*
X153828523Y-124575690D01*
X153876142Y-124480452D01*
X153923761Y-124432833D01*
X154019000Y-124385214D01*
X154161857Y-124385214D01*
X154257095Y-124432833D01*
X154304714Y-124480452D01*
X154352333Y-124575690D01*
X154352333Y-124861404D01*
X154304714Y-124956642D01*
X154257095Y-125004261D01*
X154161857Y-125051880D01*
X154019000Y-125051880D01*
X155209476Y-124385214D02*
X155209476Y-125194738D01*
X155161857Y-125289976D01*
X155114238Y-125337595D01*
X155019000Y-125385214D01*
X154876142Y-125385214D01*
X154780904Y-125337595D01*
X155209476Y-125004261D02*
X155114238Y-125051880D01*
X154923761Y-125051880D01*
X154828523Y-125004261D01*
X154780904Y-124956642D01*
X154733285Y-124861404D01*
X154733285Y-124575690D01*
X154780904Y-124480452D01*
X154828523Y-124432833D01*
X154923761Y-124385214D01*
X155114238Y-124385214D01*
X155209476Y-124432833D01*
X156209476Y-125051880D02*
X155638047Y-125051880D01*
X155923761Y-125051880D02*
X155923761Y-124051880D01*
X155828523Y-124194738D01*
X155733285Y-124289976D01*
X155638047Y-124337595D01*
%TO.C,Conn_I2C1*%
X72302642Y-124975547D02*
X72350261Y-125023166D01*
X72397880Y-125166023D01*
X72397880Y-125261261D01*
X72350261Y-125404119D01*
X72255023Y-125499357D01*
X72159785Y-125546976D01*
X71969309Y-125594595D01*
X71826452Y-125594595D01*
X71635976Y-125546976D01*
X71540738Y-125499357D01*
X71445500Y-125404119D01*
X71397880Y-125261261D01*
X71397880Y-125166023D01*
X71445500Y-125023166D01*
X71493119Y-124975547D01*
X72397880Y-124404119D02*
X72350261Y-124499357D01*
X72302642Y-124546976D01*
X72207404Y-124594595D01*
X71921690Y-124594595D01*
X71826452Y-124546976D01*
X71778833Y-124499357D01*
X71731214Y-124404119D01*
X71731214Y-124261261D01*
X71778833Y-124166023D01*
X71826452Y-124118404D01*
X71921690Y-124070785D01*
X72207404Y-124070785D01*
X72302642Y-124118404D01*
X72350261Y-124166023D01*
X72397880Y-124261261D01*
X72397880Y-124404119D01*
X71731214Y-123642214D02*
X72397880Y-123642214D01*
X71826452Y-123642214D02*
X71778833Y-123594595D01*
X71731214Y-123499357D01*
X71731214Y-123356500D01*
X71778833Y-123261261D01*
X71874071Y-123213642D01*
X72397880Y-123213642D01*
X71731214Y-122737452D02*
X72397880Y-122737452D01*
X71826452Y-122737452D02*
X71778833Y-122689833D01*
X71731214Y-122594595D01*
X71731214Y-122451738D01*
X71778833Y-122356500D01*
X71874071Y-122308880D01*
X72397880Y-122308880D01*
X72493119Y-122070785D02*
X72493119Y-121308880D01*
X72397880Y-121070785D02*
X71397880Y-121070785D01*
X71493119Y-120642214D02*
X71445500Y-120594595D01*
X71397880Y-120499357D01*
X71397880Y-120261261D01*
X71445500Y-120166023D01*
X71493119Y-120118404D01*
X71588357Y-120070785D01*
X71683595Y-120070785D01*
X71826452Y-120118404D01*
X72397880Y-120689833D01*
X72397880Y-120070785D01*
X72302642Y-119070785D02*
X72350261Y-119118404D01*
X72397880Y-119261261D01*
X72397880Y-119356500D01*
X72350261Y-119499357D01*
X72255023Y-119594595D01*
X72159785Y-119642214D01*
X71969309Y-119689833D01*
X71826452Y-119689833D01*
X71635976Y-119642214D01*
X71540738Y-119594595D01*
X71445500Y-119499357D01*
X71397880Y-119356500D01*
X71397880Y-119261261D01*
X71445500Y-119118404D01*
X71493119Y-119070785D01*
X72397880Y-118118404D02*
X72397880Y-118689833D01*
X72397880Y-118404119D02*
X71397880Y-118404119D01*
X71540738Y-118499357D01*
X71635976Y-118594595D01*
X71683595Y-118689833D01*
%TO.C,BT4*%
X70397785Y-153140071D02*
X70540642Y-153187690D01*
X70588261Y-153235309D01*
X70635880Y-153330547D01*
X70635880Y-153473404D01*
X70588261Y-153568642D01*
X70540642Y-153616261D01*
X70445404Y-153663880D01*
X70064452Y-153663880D01*
X70064452Y-152663880D01*
X70397785Y-152663880D01*
X70493023Y-152711500D01*
X70540642Y-152759119D01*
X70588261Y-152854357D01*
X70588261Y-152949595D01*
X70540642Y-153044833D01*
X70493023Y-153092452D01*
X70397785Y-153140071D01*
X70064452Y-153140071D01*
X70921595Y-152663880D02*
X71493023Y-152663880D01*
X71207309Y-153663880D02*
X71207309Y-152663880D01*
X72254928Y-152997214D02*
X72254928Y-153663880D01*
X72016833Y-152616261D02*
X71778738Y-153330547D01*
X72397785Y-153330547D01*
%TO.C,BT3*%
X81637285Y-153140071D02*
X81780142Y-153187690D01*
X81827761Y-153235309D01*
X81875380Y-153330547D01*
X81875380Y-153473404D01*
X81827761Y-153568642D01*
X81780142Y-153616261D01*
X81684904Y-153663880D01*
X81303952Y-153663880D01*
X81303952Y-152663880D01*
X81637285Y-152663880D01*
X81732523Y-152711500D01*
X81780142Y-152759119D01*
X81827761Y-152854357D01*
X81827761Y-152949595D01*
X81780142Y-153044833D01*
X81732523Y-153092452D01*
X81637285Y-153140071D01*
X81303952Y-153140071D01*
X82161095Y-152663880D02*
X82732523Y-152663880D01*
X82446809Y-153663880D02*
X82446809Y-152663880D01*
X82970619Y-152663880D02*
X83589666Y-152663880D01*
X83256333Y-153044833D01*
X83399190Y-153044833D01*
X83494428Y-153092452D01*
X83542047Y-153140071D01*
X83589666Y-153235309D01*
X83589666Y-153473404D01*
X83542047Y-153568642D01*
X83494428Y-153616261D01*
X83399190Y-153663880D01*
X83113476Y-153663880D01*
X83018238Y-153616261D01*
X82970619Y-153568642D01*
%TO.C,BT2*%
X92876785Y-153140071D02*
X93019642Y-153187690D01*
X93067261Y-153235309D01*
X93114880Y-153330547D01*
X93114880Y-153473404D01*
X93067261Y-153568642D01*
X93019642Y-153616261D01*
X92924404Y-153663880D01*
X92543452Y-153663880D01*
X92543452Y-152663880D01*
X92876785Y-152663880D01*
X92972023Y-152711500D01*
X93019642Y-152759119D01*
X93067261Y-152854357D01*
X93067261Y-152949595D01*
X93019642Y-153044833D01*
X92972023Y-153092452D01*
X92876785Y-153140071D01*
X92543452Y-153140071D01*
X93400595Y-152663880D02*
X93972023Y-152663880D01*
X93686309Y-153663880D02*
X93686309Y-152663880D01*
X94257738Y-152759119D02*
X94305357Y-152711500D01*
X94400595Y-152663880D01*
X94638690Y-152663880D01*
X94733928Y-152711500D01*
X94781547Y-152759119D01*
X94829166Y-152854357D01*
X94829166Y-152949595D01*
X94781547Y-153092452D01*
X94210119Y-153663880D01*
X94829166Y-153663880D01*
%TO.C,BT1*%
X104116785Y-153140071D02*
X104259642Y-153187690D01*
X104307261Y-153235309D01*
X104354880Y-153330547D01*
X104354880Y-153473404D01*
X104307261Y-153568642D01*
X104259642Y-153616261D01*
X104164404Y-153663880D01*
X103783452Y-153663880D01*
X103783452Y-152663880D01*
X104116785Y-152663880D01*
X104212023Y-152711500D01*
X104259642Y-152759119D01*
X104307261Y-152854357D01*
X104307261Y-152949595D01*
X104259642Y-153044833D01*
X104212023Y-153092452D01*
X104116785Y-153140071D01*
X103783452Y-153140071D01*
X104640595Y-152663880D02*
X105212023Y-152663880D01*
X104926309Y-153663880D02*
X104926309Y-152663880D01*
X106069166Y-153663880D02*
X105497738Y-153663880D01*
X105783452Y-153663880D02*
X105783452Y-152663880D01*
X105688214Y-152806738D01*
X105592976Y-152901976D01*
X105497738Y-152949595D01*
%TO.C,Cd4*%
X79062642Y-129820047D02*
X79110261Y-129867666D01*
X79157880Y-130010523D01*
X79157880Y-130105761D01*
X79110261Y-130248619D01*
X79015023Y-130343857D01*
X78919785Y-130391476D01*
X78729309Y-130439095D01*
X78586452Y-130439095D01*
X78395976Y-130391476D01*
X78300738Y-130343857D01*
X78205500Y-130248619D01*
X78157880Y-130105761D01*
X78157880Y-130010523D01*
X78205500Y-129867666D01*
X78253119Y-129820047D01*
X79157880Y-128962904D02*
X78157880Y-128962904D01*
X79110261Y-128962904D02*
X79157880Y-129058142D01*
X79157880Y-129248619D01*
X79110261Y-129343857D01*
X79062642Y-129391476D01*
X78967404Y-129439095D01*
X78681690Y-129439095D01*
X78586452Y-129391476D01*
X78538833Y-129343857D01*
X78491214Y-129248619D01*
X78491214Y-129058142D01*
X78538833Y-128962904D01*
X78491214Y-128058142D02*
X79157880Y-128058142D01*
X78110261Y-128296238D02*
X78824547Y-128534333D01*
X78824547Y-127915285D01*
%TO.C,Cd3*%
X86936642Y-129820047D02*
X86984261Y-129867666D01*
X87031880Y-130010523D01*
X87031880Y-130105761D01*
X86984261Y-130248619D01*
X86889023Y-130343857D01*
X86793785Y-130391476D01*
X86603309Y-130439095D01*
X86460452Y-130439095D01*
X86269976Y-130391476D01*
X86174738Y-130343857D01*
X86079500Y-130248619D01*
X86031880Y-130105761D01*
X86031880Y-130010523D01*
X86079500Y-129867666D01*
X86127119Y-129820047D01*
X87031880Y-128962904D02*
X86031880Y-128962904D01*
X86984261Y-128962904D02*
X87031880Y-129058142D01*
X87031880Y-129248619D01*
X86984261Y-129343857D01*
X86936642Y-129391476D01*
X86841404Y-129439095D01*
X86555690Y-129439095D01*
X86460452Y-129391476D01*
X86412833Y-129343857D01*
X86365214Y-129248619D01*
X86365214Y-129058142D01*
X86412833Y-128962904D01*
X86031880Y-128581952D02*
X86031880Y-127962904D01*
X86412833Y-128296238D01*
X86412833Y-128153380D01*
X86460452Y-128058142D01*
X86508071Y-128010523D01*
X86603309Y-127962904D01*
X86841404Y-127962904D01*
X86936642Y-128010523D01*
X86984261Y-128058142D01*
X87031880Y-128153380D01*
X87031880Y-128439095D01*
X86984261Y-128534333D01*
X86936642Y-128581952D01*
%TO.C,Cd2*%
X94810642Y-129820047D02*
X94858261Y-129867666D01*
X94905880Y-130010523D01*
X94905880Y-130105761D01*
X94858261Y-130248619D01*
X94763023Y-130343857D01*
X94667785Y-130391476D01*
X94477309Y-130439095D01*
X94334452Y-130439095D01*
X94143976Y-130391476D01*
X94048738Y-130343857D01*
X93953500Y-130248619D01*
X93905880Y-130105761D01*
X93905880Y-130010523D01*
X93953500Y-129867666D01*
X94001119Y-129820047D01*
X94905880Y-128962904D02*
X93905880Y-128962904D01*
X94858261Y-128962904D02*
X94905880Y-129058142D01*
X94905880Y-129248619D01*
X94858261Y-129343857D01*
X94810642Y-129391476D01*
X94715404Y-129439095D01*
X94429690Y-129439095D01*
X94334452Y-129391476D01*
X94286833Y-129343857D01*
X94239214Y-129248619D01*
X94239214Y-129058142D01*
X94286833Y-128962904D01*
X94001119Y-128534333D02*
X93953500Y-128486714D01*
X93905880Y-128391476D01*
X93905880Y-128153380D01*
X93953500Y-128058142D01*
X94001119Y-128010523D01*
X94096357Y-127962904D01*
X94191595Y-127962904D01*
X94334452Y-128010523D01*
X94905880Y-128581952D01*
X94905880Y-127962904D01*
%TO.C,Cd1*%
X102684642Y-129820047D02*
X102732261Y-129867666D01*
X102779880Y-130010523D01*
X102779880Y-130105761D01*
X102732261Y-130248619D01*
X102637023Y-130343857D01*
X102541785Y-130391476D01*
X102351309Y-130439095D01*
X102208452Y-130439095D01*
X102017976Y-130391476D01*
X101922738Y-130343857D01*
X101827500Y-130248619D01*
X101779880Y-130105761D01*
X101779880Y-130010523D01*
X101827500Y-129867666D01*
X101875119Y-129820047D01*
X102779880Y-128962904D02*
X101779880Y-128962904D01*
X102732261Y-128962904D02*
X102779880Y-129058142D01*
X102779880Y-129248619D01*
X102732261Y-129343857D01*
X102684642Y-129391476D01*
X102589404Y-129439095D01*
X102303690Y-129439095D01*
X102208452Y-129391476D01*
X102160833Y-129343857D01*
X102113214Y-129248619D01*
X102113214Y-129058142D01*
X102160833Y-128962904D01*
X102779880Y-127962904D02*
X102779880Y-128534333D01*
X102779880Y-128248619D02*
X101779880Y-128248619D01*
X101922738Y-128343857D01*
X102017976Y-128439095D01*
X102065595Y-128534333D01*
%TO.C,C2*%
X90659833Y-105542142D02*
X90612214Y-105589761D01*
X90469357Y-105637380D01*
X90374119Y-105637380D01*
X90231261Y-105589761D01*
X90136023Y-105494523D01*
X90088404Y-105399285D01*
X90040785Y-105208809D01*
X90040785Y-105065952D01*
X90088404Y-104875476D01*
X90136023Y-104780238D01*
X90231261Y-104685000D01*
X90374119Y-104637380D01*
X90469357Y-104637380D01*
X90612214Y-104685000D01*
X90659833Y-104732619D01*
X91040785Y-104732619D02*
X91088404Y-104685000D01*
X91183642Y-104637380D01*
X91421738Y-104637380D01*
X91516976Y-104685000D01*
X91564595Y-104732619D01*
X91612214Y-104827857D01*
X91612214Y-104923095D01*
X91564595Y-105065952D01*
X90993166Y-105637380D01*
X91612214Y-105637380D01*
%TO.C,C1*%
X85431333Y-105703642D02*
X85383714Y-105751261D01*
X85240857Y-105798880D01*
X85145619Y-105798880D01*
X85002761Y-105751261D01*
X84907523Y-105656023D01*
X84859904Y-105560785D01*
X84812285Y-105370309D01*
X84812285Y-105227452D01*
X84859904Y-105036976D01*
X84907523Y-104941738D01*
X85002761Y-104846500D01*
X85145619Y-104798880D01*
X85240857Y-104798880D01*
X85383714Y-104846500D01*
X85431333Y-104894119D01*
X86383714Y-105798880D02*
X85812285Y-105798880D01*
X86098000Y-105798880D02*
X86098000Y-104798880D01*
X86002761Y-104941738D01*
X85907523Y-105036976D01*
X85812285Y-105084595D01*
%TO.C,4.7k1*%
X147264738Y-104942714D02*
X147264738Y-105609380D01*
X147026642Y-104561761D02*
X146788547Y-105276047D01*
X147407595Y-105276047D01*
X147788547Y-105514142D02*
X147836166Y-105561761D01*
X147788547Y-105609380D01*
X147740928Y-105561761D01*
X147788547Y-105514142D01*
X147788547Y-105609380D01*
X148169500Y-104609380D02*
X148836166Y-104609380D01*
X148407595Y-105609380D01*
X149217119Y-105609380D02*
X149217119Y-104609380D01*
X149312357Y-105228428D02*
X149598071Y-105609380D01*
X149598071Y-104942714D02*
X149217119Y-105323666D01*
X150550452Y-105609380D02*
X149979023Y-105609380D01*
X150264738Y-105609380D02*
X150264738Y-104609380D01*
X150169500Y-104752238D01*
X150074261Y-104847476D01*
X149979023Y-104895095D01*
%TO.C,Buzzer1*%
X111250238Y-119919071D02*
X111393095Y-119966690D01*
X111440714Y-120014309D01*
X111488333Y-120109547D01*
X111488333Y-120252404D01*
X111440714Y-120347642D01*
X111393095Y-120395261D01*
X111297857Y-120442880D01*
X110916904Y-120442880D01*
X110916904Y-119442880D01*
X111250238Y-119442880D01*
X111345476Y-119490500D01*
X111393095Y-119538119D01*
X111440714Y-119633357D01*
X111440714Y-119728595D01*
X111393095Y-119823833D01*
X111345476Y-119871452D01*
X111250238Y-119919071D01*
X110916904Y-119919071D01*
X112345476Y-119776214D02*
X112345476Y-120442880D01*
X111916904Y-119776214D02*
X111916904Y-120300023D01*
X111964523Y-120395261D01*
X112059761Y-120442880D01*
X112202619Y-120442880D01*
X112297857Y-120395261D01*
X112345476Y-120347642D01*
X112726428Y-119776214D02*
X113250238Y-119776214D01*
X112726428Y-120442880D01*
X113250238Y-120442880D01*
X113535952Y-119776214D02*
X114059761Y-119776214D01*
X113535952Y-120442880D01*
X114059761Y-120442880D01*
X114821666Y-120395261D02*
X114726428Y-120442880D01*
X114535952Y-120442880D01*
X114440714Y-120395261D01*
X114393095Y-120300023D01*
X114393095Y-119919071D01*
X114440714Y-119823833D01*
X114535952Y-119776214D01*
X114726428Y-119776214D01*
X114821666Y-119823833D01*
X114869285Y-119919071D01*
X114869285Y-120014309D01*
X114393095Y-120109547D01*
X115297857Y-120442880D02*
X115297857Y-119776214D01*
X115297857Y-119966690D02*
X115345476Y-119871452D01*
X115393095Y-119823833D01*
X115488333Y-119776214D01*
X115583571Y-119776214D01*
X116440714Y-120442880D02*
X115869285Y-120442880D01*
X116155000Y-120442880D02*
X116155000Y-119442880D01*
X116059761Y-119585738D01*
X115964523Y-119680976D01*
X115869285Y-119728595D01*
X109464047Y-124721928D02*
X110225952Y-124721928D01*
X109845000Y-125102880D02*
X109845000Y-124340976D01*
%TO.C,D1*%
X113685580Y-152591995D02*
X112685580Y-152591995D01*
X112685580Y-152353900D01*
X112733200Y-152211042D01*
X112828438Y-152115804D01*
X112923676Y-152068185D01*
X113114152Y-152020566D01*
X113257009Y-152020566D01*
X113447485Y-152068185D01*
X113542723Y-152115804D01*
X113637961Y-152211042D01*
X113685580Y-152353900D01*
X113685580Y-152591995D01*
X113685580Y-151068185D02*
X113685580Y-151639614D01*
X113685580Y-151353900D02*
X112685580Y-151353900D01*
X112828438Y-151449138D01*
X112923676Y-151544376D01*
X112971295Y-151639614D01*
%TO.C,FlagLED_R1*%
X120658404Y-104513071D02*
X120325071Y-104513071D01*
X120325071Y-105036880D02*
X120325071Y-104036880D01*
X120801261Y-104036880D01*
X121325071Y-105036880D02*
X121229833Y-104989261D01*
X121182214Y-104894023D01*
X121182214Y-104036880D01*
X122134595Y-105036880D02*
X122134595Y-104513071D01*
X122086976Y-104417833D01*
X121991738Y-104370214D01*
X121801261Y-104370214D01*
X121706023Y-104417833D01*
X122134595Y-104989261D02*
X122039357Y-105036880D01*
X121801261Y-105036880D01*
X121706023Y-104989261D01*
X121658404Y-104894023D01*
X121658404Y-104798785D01*
X121706023Y-104703547D01*
X121801261Y-104655928D01*
X122039357Y-104655928D01*
X122134595Y-104608309D01*
X123039357Y-104370214D02*
X123039357Y-105179738D01*
X122991738Y-105274976D01*
X122944119Y-105322595D01*
X122848880Y-105370214D01*
X122706023Y-105370214D01*
X122610785Y-105322595D01*
X123039357Y-104989261D02*
X122944119Y-105036880D01*
X122753642Y-105036880D01*
X122658404Y-104989261D01*
X122610785Y-104941642D01*
X122563166Y-104846404D01*
X122563166Y-104560690D01*
X122610785Y-104465452D01*
X122658404Y-104417833D01*
X122753642Y-104370214D01*
X122944119Y-104370214D01*
X123039357Y-104417833D01*
X123991738Y-105036880D02*
X123515547Y-105036880D01*
X123515547Y-104036880D01*
X124325071Y-104513071D02*
X124658404Y-104513071D01*
X124801261Y-105036880D02*
X124325071Y-105036880D01*
X124325071Y-104036880D01*
X124801261Y-104036880D01*
X125229833Y-105036880D02*
X125229833Y-104036880D01*
X125467928Y-104036880D01*
X125610785Y-104084500D01*
X125706023Y-104179738D01*
X125753642Y-104274976D01*
X125801261Y-104465452D01*
X125801261Y-104608309D01*
X125753642Y-104798785D01*
X125706023Y-104894023D01*
X125610785Y-104989261D01*
X125467928Y-105036880D01*
X125229833Y-105036880D01*
X125991738Y-105132119D02*
X126753642Y-105132119D01*
X127563166Y-105036880D02*
X127229833Y-104560690D01*
X126991738Y-105036880D02*
X126991738Y-104036880D01*
X127372690Y-104036880D01*
X127467928Y-104084500D01*
X127515547Y-104132119D01*
X127563166Y-104227357D01*
X127563166Y-104370214D01*
X127515547Y-104465452D01*
X127467928Y-104513071D01*
X127372690Y-104560690D01*
X126991738Y-104560690D01*
X128515547Y-105036880D02*
X127944119Y-105036880D01*
X128229833Y-105036880D02*
X128229833Y-104036880D01*
X128134595Y-104179738D01*
X128039357Y-104274976D01*
X127944119Y-104322595D01*
%TO.C,gLED1*%
X101530352Y-103671714D02*
X101530352Y-104481238D01*
X101482733Y-104576476D01*
X101435114Y-104624095D01*
X101339876Y-104671714D01*
X101197019Y-104671714D01*
X101101780Y-104624095D01*
X101530352Y-104290761D02*
X101435114Y-104338380D01*
X101244638Y-104338380D01*
X101149400Y-104290761D01*
X101101780Y-104243142D01*
X101054161Y-104147904D01*
X101054161Y-103862190D01*
X101101780Y-103766952D01*
X101149400Y-103719333D01*
X101244638Y-103671714D01*
X101435114Y-103671714D01*
X101530352Y-103719333D01*
X102482733Y-104338380D02*
X102006542Y-104338380D01*
X102006542Y-103338380D01*
X102816066Y-103814571D02*
X103149400Y-103814571D01*
X103292257Y-104338380D02*
X102816066Y-104338380D01*
X102816066Y-103338380D01*
X103292257Y-103338380D01*
X103720828Y-104338380D02*
X103720828Y-103338380D01*
X103958923Y-103338380D01*
X104101780Y-103386000D01*
X104197019Y-103481238D01*
X104244638Y-103576476D01*
X104292257Y-103766952D01*
X104292257Y-103909809D01*
X104244638Y-104100285D01*
X104197019Y-104195523D01*
X104101780Y-104290761D01*
X103958923Y-104338380D01*
X103720828Y-104338380D01*
X105244638Y-104338380D02*
X104673209Y-104338380D01*
X104958923Y-104338380D02*
X104958923Y-103338380D01*
X104863685Y-103481238D01*
X104768447Y-103576476D01*
X104673209Y-103624095D01*
%TO.C,IC1*%
X130849809Y-104401880D02*
X130849809Y-103401880D01*
X131897428Y-104306642D02*
X131849809Y-104354261D01*
X131706952Y-104401880D01*
X131611714Y-104401880D01*
X131468857Y-104354261D01*
X131373619Y-104259023D01*
X131326000Y-104163785D01*
X131278380Y-103973309D01*
X131278380Y-103830452D01*
X131326000Y-103639976D01*
X131373619Y-103544738D01*
X131468857Y-103449500D01*
X131611714Y-103401880D01*
X131706952Y-103401880D01*
X131849809Y-103449500D01*
X131897428Y-103497119D01*
X132849809Y-104401880D02*
X132278380Y-104401880D01*
X132564095Y-104401880D02*
X132564095Y-103401880D01*
X132468857Y-103544738D01*
X132373619Y-103639976D01*
X132278380Y-103687595D01*
%TO.C,J1*%
X88058666Y-94604380D02*
X88058666Y-95318666D01*
X88011047Y-95461523D01*
X87915809Y-95556761D01*
X87772952Y-95604380D01*
X87677714Y-95604380D01*
X89058666Y-95604380D02*
X88487238Y-95604380D01*
X88772952Y-95604380D02*
X88772952Y-94604380D01*
X88677714Y-94747238D01*
X88582476Y-94842476D01*
X88487238Y-94890095D01*
%TO.C,J2*%
D13*
X63902166Y-104905023D02*
X63902166Y-105812166D01*
X63841690Y-105993595D01*
X63720738Y-106114547D01*
X63539309Y-106175023D01*
X63418357Y-106175023D01*
X64446452Y-105025976D02*
X64506928Y-104965500D01*
X64627880Y-104905023D01*
X64930261Y-104905023D01*
X65051214Y-104965500D01*
X65111690Y-105025976D01*
X65172166Y-105146928D01*
X65172166Y-105267880D01*
X65111690Y-105449309D01*
X64385976Y-106175023D01*
X65172166Y-106175023D01*
%TO.C,LED_Piloto_G1*%
D12*
X132405380Y-128777428D02*
X132405380Y-129253619D01*
X131405380Y-129253619D01*
X131881571Y-128444095D02*
X131881571Y-128110761D01*
X132405380Y-127967904D02*
X132405380Y-128444095D01*
X131405380Y-128444095D01*
X131405380Y-127967904D01*
X132405380Y-127539333D02*
X131405380Y-127539333D01*
X131405380Y-127301238D01*
X131453000Y-127158380D01*
X131548238Y-127063142D01*
X131643476Y-127015523D01*
X131833952Y-126967904D01*
X131976809Y-126967904D01*
X132167285Y-127015523D01*
X132262523Y-127063142D01*
X132357761Y-127158380D01*
X132405380Y-127301238D01*
X132405380Y-127539333D01*
X132500619Y-126777428D02*
X132500619Y-126015523D01*
X132405380Y-125777428D02*
X131405380Y-125777428D01*
X131405380Y-125396476D01*
X131453000Y-125301238D01*
X131500619Y-125253619D01*
X131595857Y-125206000D01*
X131738714Y-125206000D01*
X131833952Y-125253619D01*
X131881571Y-125301238D01*
X131929190Y-125396476D01*
X131929190Y-125777428D01*
X132405380Y-124777428D02*
X131738714Y-124777428D01*
X131405380Y-124777428D02*
X131453000Y-124825047D01*
X131500619Y-124777428D01*
X131453000Y-124729809D01*
X131405380Y-124777428D01*
X131500619Y-124777428D01*
X132405380Y-124158380D02*
X132357761Y-124253619D01*
X132262523Y-124301238D01*
X131405380Y-124301238D01*
X132405380Y-123634571D02*
X132357761Y-123729809D01*
X132310142Y-123777428D01*
X132214904Y-123825047D01*
X131929190Y-123825047D01*
X131833952Y-123777428D01*
X131786333Y-123729809D01*
X131738714Y-123634571D01*
X131738714Y-123491714D01*
X131786333Y-123396476D01*
X131833952Y-123348857D01*
X131929190Y-123301238D01*
X132214904Y-123301238D01*
X132310142Y-123348857D01*
X132357761Y-123396476D01*
X132405380Y-123491714D01*
X132405380Y-123634571D01*
X131738714Y-123015523D02*
X131738714Y-122634571D01*
X131405380Y-122872666D02*
X132262523Y-122872666D01*
X132357761Y-122825047D01*
X132405380Y-122729809D01*
X132405380Y-122634571D01*
X132405380Y-122158380D02*
X132357761Y-122253619D01*
X132310142Y-122301238D01*
X132214904Y-122348857D01*
X131929190Y-122348857D01*
X131833952Y-122301238D01*
X131786333Y-122253619D01*
X131738714Y-122158380D01*
X131738714Y-122015523D01*
X131786333Y-121920285D01*
X131833952Y-121872666D01*
X131929190Y-121825047D01*
X132214904Y-121825047D01*
X132310142Y-121872666D01*
X132357761Y-121920285D01*
X132405380Y-122015523D01*
X132405380Y-122158380D01*
X132500619Y-121634571D02*
X132500619Y-120872666D01*
X131453000Y-120110761D02*
X131405380Y-120206000D01*
X131405380Y-120348857D01*
X131453000Y-120491714D01*
X131548238Y-120586952D01*
X131643476Y-120634571D01*
X131833952Y-120682190D01*
X131976809Y-120682190D01*
X132167285Y-120634571D01*
X132262523Y-120586952D01*
X132357761Y-120491714D01*
X132405380Y-120348857D01*
X132405380Y-120253619D01*
X132357761Y-120110761D01*
X132310142Y-120063142D01*
X131976809Y-120063142D01*
X131976809Y-120253619D01*
X132405380Y-119110761D02*
X132405380Y-119682190D01*
X132405380Y-119396476D02*
X131405380Y-119396476D01*
X131548238Y-119491714D01*
X131643476Y-119586952D01*
X131691095Y-119682190D01*
%TO.C,LED_Prog_B1*%
X125039380Y-128618738D02*
X125039380Y-129094928D01*
X124039380Y-129094928D01*
X124515571Y-128285404D02*
X124515571Y-127952071D01*
X125039380Y-127809214D02*
X125039380Y-128285404D01*
X124039380Y-128285404D01*
X124039380Y-127809214D01*
X125039380Y-127380642D02*
X124039380Y-127380642D01*
X124039380Y-127142547D01*
X124087000Y-126999690D01*
X124182238Y-126904452D01*
X124277476Y-126856833D01*
X124467952Y-126809214D01*
X124610809Y-126809214D01*
X124801285Y-126856833D01*
X124896523Y-126904452D01*
X124991761Y-126999690D01*
X125039380Y-127142547D01*
X125039380Y-127380642D01*
X125134619Y-126618738D02*
X125134619Y-125856833D01*
X125039380Y-125618738D02*
X124039380Y-125618738D01*
X124039380Y-125237785D01*
X124087000Y-125142547D01*
X124134619Y-125094928D01*
X124229857Y-125047309D01*
X124372714Y-125047309D01*
X124467952Y-125094928D01*
X124515571Y-125142547D01*
X124563190Y-125237785D01*
X124563190Y-125618738D01*
X125039380Y-124618738D02*
X124372714Y-124618738D01*
X124563190Y-124618738D02*
X124467952Y-124571119D01*
X124420333Y-124523500D01*
X124372714Y-124428261D01*
X124372714Y-124333023D01*
X125039380Y-123856833D02*
X124991761Y-123952071D01*
X124944142Y-123999690D01*
X124848904Y-124047309D01*
X124563190Y-124047309D01*
X124467952Y-123999690D01*
X124420333Y-123952071D01*
X124372714Y-123856833D01*
X124372714Y-123713976D01*
X124420333Y-123618738D01*
X124467952Y-123571119D01*
X124563190Y-123523500D01*
X124848904Y-123523500D01*
X124944142Y-123571119D01*
X124991761Y-123618738D01*
X125039380Y-123713976D01*
X125039380Y-123856833D01*
X124372714Y-122666357D02*
X125182238Y-122666357D01*
X125277476Y-122713976D01*
X125325095Y-122761595D01*
X125372714Y-122856833D01*
X125372714Y-122999690D01*
X125325095Y-123094928D01*
X124991761Y-122666357D02*
X125039380Y-122761595D01*
X125039380Y-122952071D01*
X124991761Y-123047309D01*
X124944142Y-123094928D01*
X124848904Y-123142547D01*
X124563190Y-123142547D01*
X124467952Y-123094928D01*
X124420333Y-123047309D01*
X124372714Y-122952071D01*
X124372714Y-122761595D01*
X124420333Y-122666357D01*
X125134619Y-122428261D02*
X125134619Y-121666357D01*
X124515571Y-121094928D02*
X124563190Y-120952071D01*
X124610809Y-120904452D01*
X124706047Y-120856833D01*
X124848904Y-120856833D01*
X124944142Y-120904452D01*
X124991761Y-120952071D01*
X125039380Y-121047309D01*
X125039380Y-121428261D01*
X124039380Y-121428261D01*
X124039380Y-121094928D01*
X124087000Y-120999690D01*
X124134619Y-120952071D01*
X124229857Y-120904452D01*
X124325095Y-120904452D01*
X124420333Y-120952071D01*
X124467952Y-120999690D01*
X124515571Y-121094928D01*
X124515571Y-121428261D01*
X125039380Y-119904452D02*
X125039380Y-120475880D01*
X125039380Y-120190166D02*
X124039380Y-120190166D01*
X124182238Y-120285404D01*
X124277476Y-120380642D01*
X124325095Y-120475880D01*
%TO.C,NMOS_Buzzer1*%
X108892714Y-115339880D02*
X108892714Y-114339880D01*
X109464142Y-115339880D01*
X109464142Y-114339880D01*
X109940333Y-115339880D02*
X109940333Y-114339880D01*
X110273666Y-115054166D01*
X110607000Y-114339880D01*
X110607000Y-115339880D01*
X111273666Y-114339880D02*
X111464142Y-114339880D01*
X111559380Y-114387500D01*
X111654619Y-114482738D01*
X111702238Y-114673214D01*
X111702238Y-115006547D01*
X111654619Y-115197023D01*
X111559380Y-115292261D01*
X111464142Y-115339880D01*
X111273666Y-115339880D01*
X111178428Y-115292261D01*
X111083190Y-115197023D01*
X111035571Y-115006547D01*
X111035571Y-114673214D01*
X111083190Y-114482738D01*
X111178428Y-114387500D01*
X111273666Y-114339880D01*
X112083190Y-115292261D02*
X112226047Y-115339880D01*
X112464142Y-115339880D01*
X112559380Y-115292261D01*
X112607000Y-115244642D01*
X112654619Y-115149404D01*
X112654619Y-115054166D01*
X112607000Y-114958928D01*
X112559380Y-114911309D01*
X112464142Y-114863690D01*
X112273666Y-114816071D01*
X112178428Y-114768452D01*
X112130809Y-114720833D01*
X112083190Y-114625595D01*
X112083190Y-114530357D01*
X112130809Y-114435119D01*
X112178428Y-114387500D01*
X112273666Y-114339880D01*
X112511761Y-114339880D01*
X112654619Y-114387500D01*
X112845095Y-115435119D02*
X113607000Y-115435119D01*
X114178428Y-114816071D02*
X114321285Y-114863690D01*
X114368904Y-114911309D01*
X114416523Y-115006547D01*
X114416523Y-115149404D01*
X114368904Y-115244642D01*
X114321285Y-115292261D01*
X114226047Y-115339880D01*
X113845095Y-115339880D01*
X113845095Y-114339880D01*
X114178428Y-114339880D01*
X114273666Y-114387500D01*
X114321285Y-114435119D01*
X114368904Y-114530357D01*
X114368904Y-114625595D01*
X114321285Y-114720833D01*
X114273666Y-114768452D01*
X114178428Y-114816071D01*
X113845095Y-114816071D01*
X115273666Y-114673214D02*
X115273666Y-115339880D01*
X114845095Y-114673214D02*
X114845095Y-115197023D01*
X114892714Y-115292261D01*
X114987952Y-115339880D01*
X115130809Y-115339880D01*
X115226047Y-115292261D01*
X115273666Y-115244642D01*
X115654619Y-114673214D02*
X116178428Y-114673214D01*
X115654619Y-115339880D01*
X116178428Y-115339880D01*
X116464142Y-114673214D02*
X116987952Y-114673214D01*
X116464142Y-115339880D01*
X116987952Y-115339880D01*
X117749857Y-115292261D02*
X117654619Y-115339880D01*
X117464142Y-115339880D01*
X117368904Y-115292261D01*
X117321285Y-115197023D01*
X117321285Y-114816071D01*
X117368904Y-114720833D01*
X117464142Y-114673214D01*
X117654619Y-114673214D01*
X117749857Y-114720833D01*
X117797476Y-114816071D01*
X117797476Y-114911309D01*
X117321285Y-115006547D01*
X118226047Y-115339880D02*
X118226047Y-114673214D01*
X118226047Y-114863690D02*
X118273666Y-114768452D01*
X118321285Y-114720833D01*
X118416523Y-114673214D01*
X118511761Y-114673214D01*
X119368904Y-115339880D02*
X118797476Y-115339880D01*
X119083190Y-115339880D02*
X119083190Y-114339880D01*
X118987952Y-114482738D01*
X118892714Y-114577976D01*
X118797476Y-114625595D01*
%TO.C,R1*%
X138898333Y-104465380D02*
X138565000Y-103989190D01*
X138326904Y-104465380D02*
X138326904Y-103465380D01*
X138707857Y-103465380D01*
X138803095Y-103513000D01*
X138850714Y-103560619D01*
X138898333Y-103655857D01*
X138898333Y-103798714D01*
X138850714Y-103893952D01*
X138803095Y-103941571D01*
X138707857Y-103989190D01*
X138326904Y-103989190D01*
X139850714Y-104465380D02*
X139279285Y-104465380D01*
X139565000Y-104465380D02*
X139565000Y-103465380D01*
X139469761Y-103608238D01*
X139374523Y-103703476D01*
X139279285Y-103751095D01*
%TO.C,R2*%
X139009333Y-98750380D02*
X138676000Y-98274190D01*
X138437904Y-98750380D02*
X138437904Y-97750380D01*
X138818857Y-97750380D01*
X138914095Y-97798000D01*
X138961714Y-97845619D01*
X139009333Y-97940857D01*
X139009333Y-98083714D01*
X138961714Y-98178952D01*
X138914095Y-98226571D01*
X138818857Y-98274190D01*
X138437904Y-98274190D01*
X139390285Y-97845619D02*
X139437904Y-97798000D01*
X139533142Y-97750380D01*
X139771238Y-97750380D01*
X139866476Y-97798000D01*
X139914095Y-97845619D01*
X139961714Y-97940857D01*
X139961714Y-98036095D01*
X139914095Y-98178952D01*
X139342666Y-98750380D01*
X139961714Y-98750380D01*
%TO.C,R_gLED1*%
X101586257Y-102052380D02*
X101252923Y-101576190D01*
X101014828Y-102052380D02*
X101014828Y-101052380D01*
X101395780Y-101052380D01*
X101491019Y-101100000D01*
X101538638Y-101147619D01*
X101586257Y-101242857D01*
X101586257Y-101385714D01*
X101538638Y-101480952D01*
X101491019Y-101528571D01*
X101395780Y-101576190D01*
X101014828Y-101576190D01*
X101776733Y-102147619D02*
X102538638Y-102147619D01*
X103205304Y-101385714D02*
X103205304Y-102195238D01*
X103157685Y-102290476D01*
X103110066Y-102338095D01*
X103014828Y-102385714D01*
X102871971Y-102385714D01*
X102776733Y-102338095D01*
X103205304Y-102004761D02*
X103110066Y-102052380D01*
X102919590Y-102052380D01*
X102824352Y-102004761D01*
X102776733Y-101957142D01*
X102729114Y-101861904D01*
X102729114Y-101576190D01*
X102776733Y-101480952D01*
X102824352Y-101433333D01*
X102919590Y-101385714D01*
X103110066Y-101385714D01*
X103205304Y-101433333D01*
X104157685Y-102052380D02*
X103681495Y-102052380D01*
X103681495Y-101052380D01*
X104491019Y-101528571D02*
X104824352Y-101528571D01*
X104967209Y-102052380D02*
X104491019Y-102052380D01*
X104491019Y-101052380D01*
X104967209Y-101052380D01*
X105395780Y-102052380D02*
X105395780Y-101052380D01*
X105633876Y-101052380D01*
X105776733Y-101100000D01*
X105871971Y-101195238D01*
X105919590Y-101290476D01*
X105967209Y-101480952D01*
X105967209Y-101623809D01*
X105919590Y-101814285D01*
X105871971Y-101909523D01*
X105776733Y-102004761D01*
X105633876Y-102052380D01*
X105395780Y-102052380D01*
X106919590Y-102052380D02*
X106348161Y-102052380D01*
X106633876Y-102052380D02*
X106633876Y-101052380D01*
X106538638Y-101195238D01*
X106443400Y-101290476D01*
X106348161Y-101338095D01*
%TO.C,R_Piloto1*%
X128785880Y-122753095D02*
X128309690Y-123086428D01*
X128785880Y-123324523D02*
X127785880Y-123324523D01*
X127785880Y-122943571D01*
X127833500Y-122848333D01*
X127881119Y-122800714D01*
X127976357Y-122753095D01*
X128119214Y-122753095D01*
X128214452Y-122800714D01*
X128262071Y-122848333D01*
X128309690Y-122943571D01*
X128309690Y-123324523D01*
X128881119Y-122562619D02*
X128881119Y-121800714D01*
X128785880Y-121562619D02*
X127785880Y-121562619D01*
X127785880Y-121181666D01*
X127833500Y-121086428D01*
X127881119Y-121038809D01*
X127976357Y-120991190D01*
X128119214Y-120991190D01*
X128214452Y-121038809D01*
X128262071Y-121086428D01*
X128309690Y-121181666D01*
X128309690Y-121562619D01*
X128785880Y-120562619D02*
X128119214Y-120562619D01*
X127785880Y-120562619D02*
X127833500Y-120610238D01*
X127881119Y-120562619D01*
X127833500Y-120515000D01*
X127785880Y-120562619D01*
X127881119Y-120562619D01*
X128785880Y-119943571D02*
X128738261Y-120038809D01*
X128643023Y-120086428D01*
X127785880Y-120086428D01*
X128785880Y-119419761D02*
X128738261Y-119515000D01*
X128690642Y-119562619D01*
X128595404Y-119610238D01*
X128309690Y-119610238D01*
X128214452Y-119562619D01*
X128166833Y-119515000D01*
X128119214Y-119419761D01*
X128119214Y-119276904D01*
X128166833Y-119181666D01*
X128214452Y-119134047D01*
X128309690Y-119086428D01*
X128595404Y-119086428D01*
X128690642Y-119134047D01*
X128738261Y-119181666D01*
X128785880Y-119276904D01*
X128785880Y-119419761D01*
X128119214Y-118800714D02*
X128119214Y-118419761D01*
X127785880Y-118657857D02*
X128643023Y-118657857D01*
X128738261Y-118610238D01*
X128785880Y-118515000D01*
X128785880Y-118419761D01*
X128785880Y-117943571D02*
X128738261Y-118038809D01*
X128690642Y-118086428D01*
X128595404Y-118134047D01*
X128309690Y-118134047D01*
X128214452Y-118086428D01*
X128166833Y-118038809D01*
X128119214Y-117943571D01*
X128119214Y-117800714D01*
X128166833Y-117705476D01*
X128214452Y-117657857D01*
X128309690Y-117610238D01*
X128595404Y-117610238D01*
X128690642Y-117657857D01*
X128738261Y-117705476D01*
X128785880Y-117800714D01*
X128785880Y-117943571D01*
X128785880Y-116657857D02*
X128785880Y-117229285D01*
X128785880Y-116943571D02*
X127785880Y-116943571D01*
X127928738Y-117038809D01*
X128023976Y-117134047D01*
X128071595Y-117229285D01*
%TO.C,R_PROG1*%
X83064880Y-101520428D02*
X82588690Y-101853761D01*
X83064880Y-102091857D02*
X82064880Y-102091857D01*
X82064880Y-101710904D01*
X82112500Y-101615666D01*
X82160119Y-101568047D01*
X82255357Y-101520428D01*
X82398214Y-101520428D01*
X82493452Y-101568047D01*
X82541071Y-101615666D01*
X82588690Y-101710904D01*
X82588690Y-102091857D01*
X83160119Y-101329952D02*
X83160119Y-100568047D01*
X83064880Y-100329952D02*
X82064880Y-100329952D01*
X82064880Y-99949000D01*
X82112500Y-99853761D01*
X82160119Y-99806142D01*
X82255357Y-99758523D01*
X82398214Y-99758523D01*
X82493452Y-99806142D01*
X82541071Y-99853761D01*
X82588690Y-99949000D01*
X82588690Y-100329952D01*
X83064880Y-98758523D02*
X82588690Y-99091857D01*
X83064880Y-99329952D02*
X82064880Y-99329952D01*
X82064880Y-98949000D01*
X82112500Y-98853761D01*
X82160119Y-98806142D01*
X82255357Y-98758523D01*
X82398214Y-98758523D01*
X82493452Y-98806142D01*
X82541071Y-98853761D01*
X82588690Y-98949000D01*
X82588690Y-99329952D01*
X82064880Y-98139476D02*
X82064880Y-97949000D01*
X82112500Y-97853761D01*
X82207738Y-97758523D01*
X82398214Y-97710904D01*
X82731547Y-97710904D01*
X82922023Y-97758523D01*
X83017261Y-97853761D01*
X83064880Y-97949000D01*
X83064880Y-98139476D01*
X83017261Y-98234714D01*
X82922023Y-98329952D01*
X82731547Y-98377571D01*
X82398214Y-98377571D01*
X82207738Y-98329952D01*
X82112500Y-98234714D01*
X82064880Y-98139476D01*
X82112500Y-96758523D02*
X82064880Y-96853761D01*
X82064880Y-96996619D01*
X82112500Y-97139476D01*
X82207738Y-97234714D01*
X82302976Y-97282333D01*
X82493452Y-97329952D01*
X82636309Y-97329952D01*
X82826785Y-97282333D01*
X82922023Y-97234714D01*
X83017261Y-97139476D01*
X83064880Y-96996619D01*
X83064880Y-96901380D01*
X83017261Y-96758523D01*
X82969642Y-96710904D01*
X82636309Y-96710904D01*
X82636309Y-96901380D01*
X83064880Y-95758523D02*
X83064880Y-96329952D01*
X83064880Y-96044238D02*
X82064880Y-96044238D01*
X82207738Y-96139476D01*
X82302976Y-96234714D01*
X82350595Y-96329952D01*
%TO.C,R_Prog_B1*%
X121102380Y-122522857D02*
X120626190Y-122856190D01*
X121102380Y-123094285D02*
X120102380Y-123094285D01*
X120102380Y-122713333D01*
X120150000Y-122618095D01*
X120197619Y-122570476D01*
X120292857Y-122522857D01*
X120435714Y-122522857D01*
X120530952Y-122570476D01*
X120578571Y-122618095D01*
X120626190Y-122713333D01*
X120626190Y-123094285D01*
X121197619Y-122332380D02*
X121197619Y-121570476D01*
X121102380Y-121332380D02*
X120102380Y-121332380D01*
X120102380Y-120951428D01*
X120150000Y-120856190D01*
X120197619Y-120808571D01*
X120292857Y-120760952D01*
X120435714Y-120760952D01*
X120530952Y-120808571D01*
X120578571Y-120856190D01*
X120626190Y-120951428D01*
X120626190Y-121332380D01*
X121102380Y-120332380D02*
X120435714Y-120332380D01*
X120626190Y-120332380D02*
X120530952Y-120284761D01*
X120483333Y-120237142D01*
X120435714Y-120141904D01*
X120435714Y-120046666D01*
X121102380Y-119570476D02*
X121054761Y-119665714D01*
X121007142Y-119713333D01*
X120911904Y-119760952D01*
X120626190Y-119760952D01*
X120530952Y-119713333D01*
X120483333Y-119665714D01*
X120435714Y-119570476D01*
X120435714Y-119427619D01*
X120483333Y-119332380D01*
X120530952Y-119284761D01*
X120626190Y-119237142D01*
X120911904Y-119237142D01*
X121007142Y-119284761D01*
X121054761Y-119332380D01*
X121102380Y-119427619D01*
X121102380Y-119570476D01*
X120435714Y-118380000D02*
X121245238Y-118380000D01*
X121340476Y-118427619D01*
X121388095Y-118475238D01*
X121435714Y-118570476D01*
X121435714Y-118713333D01*
X121388095Y-118808571D01*
X121054761Y-118380000D02*
X121102380Y-118475238D01*
X121102380Y-118665714D01*
X121054761Y-118760952D01*
X121007142Y-118808571D01*
X120911904Y-118856190D01*
X120626190Y-118856190D01*
X120530952Y-118808571D01*
X120483333Y-118760952D01*
X120435714Y-118665714D01*
X120435714Y-118475238D01*
X120483333Y-118380000D01*
X121197619Y-118141904D02*
X121197619Y-117380000D01*
X120578571Y-116808571D02*
X120626190Y-116665714D01*
X120673809Y-116618095D01*
X120769047Y-116570476D01*
X120911904Y-116570476D01*
X121007142Y-116618095D01*
X121054761Y-116665714D01*
X121102380Y-116760952D01*
X121102380Y-117141904D01*
X120102380Y-117141904D01*
X120102380Y-116808571D01*
X120150000Y-116713333D01*
X120197619Y-116665714D01*
X120292857Y-116618095D01*
X120388095Y-116618095D01*
X120483333Y-116665714D01*
X120530952Y-116713333D01*
X120578571Y-116808571D01*
X120578571Y-117141904D01*
X121102380Y-115618095D02*
X121102380Y-116189523D01*
X121102380Y-115903809D02*
X120102380Y-115903809D01*
X120245238Y-115999047D01*
X120340476Y-116094285D01*
X120388095Y-116189523D01*
%TO.C,R_RGB_B1*%
X115895380Y-142469571D02*
X115419190Y-142802904D01*
X115895380Y-143041000D02*
X114895380Y-143041000D01*
X114895380Y-142660047D01*
X114943000Y-142564809D01*
X114990619Y-142517190D01*
X115085857Y-142469571D01*
X115228714Y-142469571D01*
X115323952Y-142517190D01*
X115371571Y-142564809D01*
X115419190Y-142660047D01*
X115419190Y-143041000D01*
X115990619Y-142279095D02*
X115990619Y-141517190D01*
X115895380Y-140707666D02*
X115419190Y-141041000D01*
X115895380Y-141279095D02*
X114895380Y-141279095D01*
X114895380Y-140898142D01*
X114943000Y-140802904D01*
X114990619Y-140755285D01*
X115085857Y-140707666D01*
X115228714Y-140707666D01*
X115323952Y-140755285D01*
X115371571Y-140802904D01*
X115419190Y-140898142D01*
X115419190Y-141279095D01*
X114943000Y-139755285D02*
X114895380Y-139850523D01*
X114895380Y-139993380D01*
X114943000Y-140136238D01*
X115038238Y-140231476D01*
X115133476Y-140279095D01*
X115323952Y-140326714D01*
X115466809Y-140326714D01*
X115657285Y-140279095D01*
X115752523Y-140231476D01*
X115847761Y-140136238D01*
X115895380Y-139993380D01*
X115895380Y-139898142D01*
X115847761Y-139755285D01*
X115800142Y-139707666D01*
X115466809Y-139707666D01*
X115466809Y-139898142D01*
X115371571Y-138945761D02*
X115419190Y-138802904D01*
X115466809Y-138755285D01*
X115562047Y-138707666D01*
X115704904Y-138707666D01*
X115800142Y-138755285D01*
X115847761Y-138802904D01*
X115895380Y-138898142D01*
X115895380Y-139279095D01*
X114895380Y-139279095D01*
X114895380Y-138945761D01*
X114943000Y-138850523D01*
X114990619Y-138802904D01*
X115085857Y-138755285D01*
X115181095Y-138755285D01*
X115276333Y-138802904D01*
X115323952Y-138850523D01*
X115371571Y-138945761D01*
X115371571Y-139279095D01*
X115990619Y-138517190D02*
X115990619Y-137755285D01*
X115371571Y-137183857D02*
X115419190Y-137041000D01*
X115466809Y-136993380D01*
X115562047Y-136945761D01*
X115704904Y-136945761D01*
X115800142Y-136993380D01*
X115847761Y-137041000D01*
X115895380Y-137136238D01*
X115895380Y-137517190D01*
X114895380Y-137517190D01*
X114895380Y-137183857D01*
X114943000Y-137088619D01*
X114990619Y-137041000D01*
X115085857Y-136993380D01*
X115181095Y-136993380D01*
X115276333Y-137041000D01*
X115323952Y-137088619D01*
X115371571Y-137183857D01*
X115371571Y-137517190D01*
X115895380Y-135993380D02*
X115895380Y-136564809D01*
X115895380Y-136279095D02*
X114895380Y-136279095D01*
X115038238Y-136374333D01*
X115133476Y-136469571D01*
X115181095Y-136564809D01*
%TO.C,R_RGB_G1*%
X118054380Y-142533071D02*
X117578190Y-142866404D01*
X118054380Y-143104500D02*
X117054380Y-143104500D01*
X117054380Y-142723547D01*
X117102000Y-142628309D01*
X117149619Y-142580690D01*
X117244857Y-142533071D01*
X117387714Y-142533071D01*
X117482952Y-142580690D01*
X117530571Y-142628309D01*
X117578190Y-142723547D01*
X117578190Y-143104500D01*
X118149619Y-142342595D02*
X118149619Y-141580690D01*
X118054380Y-140771166D02*
X117578190Y-141104500D01*
X118054380Y-141342595D02*
X117054380Y-141342595D01*
X117054380Y-140961642D01*
X117102000Y-140866404D01*
X117149619Y-140818785D01*
X117244857Y-140771166D01*
X117387714Y-140771166D01*
X117482952Y-140818785D01*
X117530571Y-140866404D01*
X117578190Y-140961642D01*
X117578190Y-141342595D01*
X117102000Y-139818785D02*
X117054380Y-139914023D01*
X117054380Y-140056880D01*
X117102000Y-140199738D01*
X117197238Y-140294976D01*
X117292476Y-140342595D01*
X117482952Y-140390214D01*
X117625809Y-140390214D01*
X117816285Y-140342595D01*
X117911523Y-140294976D01*
X118006761Y-140199738D01*
X118054380Y-140056880D01*
X118054380Y-139961642D01*
X118006761Y-139818785D01*
X117959142Y-139771166D01*
X117625809Y-139771166D01*
X117625809Y-139961642D01*
X117530571Y-139009261D02*
X117578190Y-138866404D01*
X117625809Y-138818785D01*
X117721047Y-138771166D01*
X117863904Y-138771166D01*
X117959142Y-138818785D01*
X118006761Y-138866404D01*
X118054380Y-138961642D01*
X118054380Y-139342595D01*
X117054380Y-139342595D01*
X117054380Y-139009261D01*
X117102000Y-138914023D01*
X117149619Y-138866404D01*
X117244857Y-138818785D01*
X117340095Y-138818785D01*
X117435333Y-138866404D01*
X117482952Y-138914023D01*
X117530571Y-139009261D01*
X117530571Y-139342595D01*
X118149619Y-138580690D02*
X118149619Y-137818785D01*
X117102000Y-137056880D02*
X117054380Y-137152119D01*
X117054380Y-137294976D01*
X117102000Y-137437833D01*
X117197238Y-137533071D01*
X117292476Y-137580690D01*
X117482952Y-137628309D01*
X117625809Y-137628309D01*
X117816285Y-137580690D01*
X117911523Y-137533071D01*
X118006761Y-137437833D01*
X118054380Y-137294976D01*
X118054380Y-137199738D01*
X118006761Y-137056880D01*
X117959142Y-137009261D01*
X117625809Y-137009261D01*
X117625809Y-137199738D01*
X118054380Y-136056880D02*
X118054380Y-136628309D01*
X118054380Y-136342595D02*
X117054380Y-136342595D01*
X117197238Y-136437833D01*
X117292476Y-136533071D01*
X117340095Y-136628309D01*
%TO.C,R_RGB_R1*%
X120149880Y-142406071D02*
X119673690Y-142739404D01*
X120149880Y-142977500D02*
X119149880Y-142977500D01*
X119149880Y-142596547D01*
X119197500Y-142501309D01*
X119245119Y-142453690D01*
X119340357Y-142406071D01*
X119483214Y-142406071D01*
X119578452Y-142453690D01*
X119626071Y-142501309D01*
X119673690Y-142596547D01*
X119673690Y-142977500D01*
X120245119Y-142215595D02*
X120245119Y-141453690D01*
X120149880Y-140644166D02*
X119673690Y-140977500D01*
X120149880Y-141215595D02*
X119149880Y-141215595D01*
X119149880Y-140834642D01*
X119197500Y-140739404D01*
X119245119Y-140691785D01*
X119340357Y-140644166D01*
X119483214Y-140644166D01*
X119578452Y-140691785D01*
X119626071Y-140739404D01*
X119673690Y-140834642D01*
X119673690Y-141215595D01*
X119197500Y-139691785D02*
X119149880Y-139787023D01*
X119149880Y-139929880D01*
X119197500Y-140072738D01*
X119292738Y-140167976D01*
X119387976Y-140215595D01*
X119578452Y-140263214D01*
X119721309Y-140263214D01*
X119911785Y-140215595D01*
X120007023Y-140167976D01*
X120102261Y-140072738D01*
X120149880Y-139929880D01*
X120149880Y-139834642D01*
X120102261Y-139691785D01*
X120054642Y-139644166D01*
X119721309Y-139644166D01*
X119721309Y-139834642D01*
X119626071Y-138882261D02*
X119673690Y-138739404D01*
X119721309Y-138691785D01*
X119816547Y-138644166D01*
X119959404Y-138644166D01*
X120054642Y-138691785D01*
X120102261Y-138739404D01*
X120149880Y-138834642D01*
X120149880Y-139215595D01*
X119149880Y-139215595D01*
X119149880Y-138882261D01*
X119197500Y-138787023D01*
X119245119Y-138739404D01*
X119340357Y-138691785D01*
X119435595Y-138691785D01*
X119530833Y-138739404D01*
X119578452Y-138787023D01*
X119626071Y-138882261D01*
X119626071Y-139215595D01*
X120245119Y-138453690D02*
X120245119Y-137691785D01*
X120149880Y-136882261D02*
X119673690Y-137215595D01*
X120149880Y-137453690D02*
X119149880Y-137453690D01*
X119149880Y-137072738D01*
X119197500Y-136977500D01*
X119245119Y-136929880D01*
X119340357Y-136882261D01*
X119483214Y-136882261D01*
X119578452Y-136929880D01*
X119626071Y-136977500D01*
X119673690Y-137072738D01*
X119673690Y-137453690D01*
X120149880Y-135929880D02*
X120149880Y-136501309D01*
X120149880Y-136215595D02*
X119149880Y-136215595D01*
X119292738Y-136310833D01*
X119387976Y-136406071D01*
X119435595Y-136501309D01*
%TO.C,R_rLED1*%
X101570114Y-99512380D02*
X101236780Y-99036190D01*
X100998685Y-99512380D02*
X100998685Y-98512380D01*
X101379638Y-98512380D01*
X101474876Y-98560000D01*
X101522495Y-98607619D01*
X101570114Y-98702857D01*
X101570114Y-98845714D01*
X101522495Y-98940952D01*
X101474876Y-98988571D01*
X101379638Y-99036190D01*
X100998685Y-99036190D01*
X101760590Y-99607619D02*
X102522495Y-99607619D01*
X102760590Y-99512380D02*
X102760590Y-98845714D01*
X102760590Y-99036190D02*
X102808209Y-98940952D01*
X102855828Y-98893333D01*
X102951066Y-98845714D01*
X103046304Y-98845714D01*
X103855828Y-99512380D02*
X103379638Y-99512380D01*
X103379638Y-98512380D01*
X104189161Y-98988571D02*
X104522495Y-98988571D01*
X104665352Y-99512380D02*
X104189161Y-99512380D01*
X104189161Y-98512380D01*
X104665352Y-98512380D01*
X105093923Y-99512380D02*
X105093923Y-98512380D01*
X105332019Y-98512380D01*
X105474876Y-98560000D01*
X105570114Y-98655238D01*
X105617733Y-98750476D01*
X105665352Y-98940952D01*
X105665352Y-99083809D01*
X105617733Y-99274285D01*
X105570114Y-99369523D01*
X105474876Y-99464761D01*
X105332019Y-99512380D01*
X105093923Y-99512380D01*
X106617733Y-99512380D02*
X106046304Y-99512380D01*
X106332019Y-99512380D02*
X106332019Y-98512380D01*
X106236780Y-98655238D01*
X106141542Y-98750476D01*
X106046304Y-98798095D01*
%TO.C,R_rLed1*%
X122237642Y-98560880D02*
X121904309Y-98084690D01*
X121666214Y-98560880D02*
X121666214Y-97560880D01*
X122047166Y-97560880D01*
X122142404Y-97608500D01*
X122190023Y-97656119D01*
X122237642Y-97751357D01*
X122237642Y-97894214D01*
X122190023Y-97989452D01*
X122142404Y-98037071D01*
X122047166Y-98084690D01*
X121666214Y-98084690D01*
X122428119Y-98656119D02*
X123190023Y-98656119D01*
X123428119Y-98560880D02*
X123428119Y-97894214D01*
X123428119Y-98084690D02*
X123475738Y-97989452D01*
X123523357Y-97941833D01*
X123618595Y-97894214D01*
X123713833Y-97894214D01*
X124523357Y-98560880D02*
X124047166Y-98560880D01*
X124047166Y-97560880D01*
X125237642Y-98513261D02*
X125142404Y-98560880D01*
X124951928Y-98560880D01*
X124856690Y-98513261D01*
X124809071Y-98418023D01*
X124809071Y-98037071D01*
X124856690Y-97941833D01*
X124951928Y-97894214D01*
X125142404Y-97894214D01*
X125237642Y-97941833D01*
X125285261Y-98037071D01*
X125285261Y-98132309D01*
X124809071Y-98227547D01*
X126142404Y-98560880D02*
X126142404Y-97560880D01*
X126142404Y-98513261D02*
X126047166Y-98560880D01*
X125856690Y-98560880D01*
X125761452Y-98513261D01*
X125713833Y-98465642D01*
X125666214Y-98370404D01*
X125666214Y-98084690D01*
X125713833Y-97989452D01*
X125761452Y-97941833D01*
X125856690Y-97894214D01*
X126047166Y-97894214D01*
X126142404Y-97941833D01*
X127142404Y-98560880D02*
X126570976Y-98560880D01*
X126856690Y-98560880D02*
X126856690Y-97560880D01*
X126761452Y-97703738D01*
X126666214Y-97798976D01*
X126570976Y-97846595D01*
%TO.C,Rd1*%
X102749880Y-134683547D02*
X102273690Y-135016880D01*
X102749880Y-135254976D02*
X101749880Y-135254976D01*
X101749880Y-134874023D01*
X101797500Y-134778785D01*
X101845119Y-134731166D01*
X101940357Y-134683547D01*
X102083214Y-134683547D01*
X102178452Y-134731166D01*
X102226071Y-134778785D01*
X102273690Y-134874023D01*
X102273690Y-135254976D01*
X102749880Y-133826404D02*
X101749880Y-133826404D01*
X102702261Y-133826404D02*
X102749880Y-133921642D01*
X102749880Y-134112119D01*
X102702261Y-134207357D01*
X102654642Y-134254976D01*
X102559404Y-134302595D01*
X102273690Y-134302595D01*
X102178452Y-134254976D01*
X102130833Y-134207357D01*
X102083214Y-134112119D01*
X102083214Y-133921642D01*
X102130833Y-133826404D01*
X102749880Y-132826404D02*
X102749880Y-133397833D01*
X102749880Y-133112119D02*
X101749880Y-133112119D01*
X101892738Y-133207357D01*
X101987976Y-133302595D01*
X102035595Y-133397833D01*
%TO.C,Rd2*%
X94875880Y-134683547D02*
X94399690Y-135016880D01*
X94875880Y-135254976D02*
X93875880Y-135254976D01*
X93875880Y-134874023D01*
X93923500Y-134778785D01*
X93971119Y-134731166D01*
X94066357Y-134683547D01*
X94209214Y-134683547D01*
X94304452Y-134731166D01*
X94352071Y-134778785D01*
X94399690Y-134874023D01*
X94399690Y-135254976D01*
X94875880Y-133826404D02*
X93875880Y-133826404D01*
X94828261Y-133826404D02*
X94875880Y-133921642D01*
X94875880Y-134112119D01*
X94828261Y-134207357D01*
X94780642Y-134254976D01*
X94685404Y-134302595D01*
X94399690Y-134302595D01*
X94304452Y-134254976D01*
X94256833Y-134207357D01*
X94209214Y-134112119D01*
X94209214Y-133921642D01*
X94256833Y-133826404D01*
X93971119Y-133397833D02*
X93923500Y-133350214D01*
X93875880Y-133254976D01*
X93875880Y-133016880D01*
X93923500Y-132921642D01*
X93971119Y-132874023D01*
X94066357Y-132826404D01*
X94161595Y-132826404D01*
X94304452Y-132874023D01*
X94875880Y-133445452D01*
X94875880Y-132826404D01*
%TO.C,Rd3*%
X87001880Y-134683547D02*
X86525690Y-135016880D01*
X87001880Y-135254976D02*
X86001880Y-135254976D01*
X86001880Y-134874023D01*
X86049500Y-134778785D01*
X86097119Y-134731166D01*
X86192357Y-134683547D01*
X86335214Y-134683547D01*
X86430452Y-134731166D01*
X86478071Y-134778785D01*
X86525690Y-134874023D01*
X86525690Y-135254976D01*
X87001880Y-133826404D02*
X86001880Y-133826404D01*
X86954261Y-133826404D02*
X87001880Y-133921642D01*
X87001880Y-134112119D01*
X86954261Y-134207357D01*
X86906642Y-134254976D01*
X86811404Y-134302595D01*
X86525690Y-134302595D01*
X86430452Y-134254976D01*
X86382833Y-134207357D01*
X86335214Y-134112119D01*
X86335214Y-133921642D01*
X86382833Y-133826404D01*
X86001880Y-133445452D02*
X86001880Y-132826404D01*
X86382833Y-133159738D01*
X86382833Y-133016880D01*
X86430452Y-132921642D01*
X86478071Y-132874023D01*
X86573309Y-132826404D01*
X86811404Y-132826404D01*
X86906642Y-132874023D01*
X86954261Y-132921642D01*
X87001880Y-133016880D01*
X87001880Y-133302595D01*
X86954261Y-133397833D01*
X86906642Y-133445452D01*
%TO.C,Rd4*%
X79127880Y-134683547D02*
X78651690Y-135016880D01*
X79127880Y-135254976D02*
X78127880Y-135254976D01*
X78127880Y-134874023D01*
X78175500Y-134778785D01*
X78223119Y-134731166D01*
X78318357Y-134683547D01*
X78461214Y-134683547D01*
X78556452Y-134731166D01*
X78604071Y-134778785D01*
X78651690Y-134874023D01*
X78651690Y-135254976D01*
X79127880Y-133826404D02*
X78127880Y-133826404D01*
X79080261Y-133826404D02*
X79127880Y-133921642D01*
X79127880Y-134112119D01*
X79080261Y-134207357D01*
X79032642Y-134254976D01*
X78937404Y-134302595D01*
X78651690Y-134302595D01*
X78556452Y-134254976D01*
X78508833Y-134207357D01*
X78461214Y-134112119D01*
X78461214Y-133921642D01*
X78508833Y-133826404D01*
X78461214Y-132921642D02*
X79127880Y-132921642D01*
X78080261Y-133159738D02*
X78794547Y-133397833D01*
X78794547Y-132778785D01*
%TO.C,Ren1*%
X139499980Y-128543580D02*
X139166647Y-128067390D01*
X138928552Y-128543580D02*
X138928552Y-127543580D01*
X139309504Y-127543580D01*
X139404742Y-127591200D01*
X139452361Y-127638819D01*
X139499980Y-127734057D01*
X139499980Y-127876914D01*
X139452361Y-127972152D01*
X139404742Y-128019771D01*
X139309504Y-128067390D01*
X138928552Y-128067390D01*
X140309504Y-128495961D02*
X140214266Y-128543580D01*
X140023790Y-128543580D01*
X139928552Y-128495961D01*
X139880933Y-128400723D01*
X139880933Y-128019771D01*
X139928552Y-127924533D01*
X140023790Y-127876914D01*
X140214266Y-127876914D01*
X140309504Y-127924533D01*
X140357123Y-128019771D01*
X140357123Y-128115009D01*
X139880933Y-128210247D01*
X140785695Y-127876914D02*
X140785695Y-128543580D01*
X140785695Y-127972152D02*
X140833314Y-127924533D01*
X140928552Y-127876914D01*
X141071409Y-127876914D01*
X141166647Y-127924533D01*
X141214266Y-128019771D01*
X141214266Y-128543580D01*
X142214266Y-128543580D02*
X141642838Y-128543580D01*
X141928552Y-128543580D02*
X141928552Y-127543580D01*
X141833314Y-127686438D01*
X141738076Y-127781676D01*
X141642838Y-127829295D01*
%TO.C,rLED1*%
X96520238Y-95321380D02*
X96520238Y-94654714D01*
X96520238Y-94845190D02*
X96567857Y-94749952D01*
X96615476Y-94702333D01*
X96710714Y-94654714D01*
X96805952Y-94654714D01*
X97615476Y-95321380D02*
X97139285Y-95321380D01*
X97139285Y-94321380D01*
X97948809Y-94797571D02*
X98282142Y-94797571D01*
X98425000Y-95321380D02*
X97948809Y-95321380D01*
X97948809Y-94321380D01*
X98425000Y-94321380D01*
X98853571Y-95321380D02*
X98853571Y-94321380D01*
X99091666Y-94321380D01*
X99234523Y-94369000D01*
X99329761Y-94464238D01*
X99377380Y-94559476D01*
X99425000Y-94749952D01*
X99425000Y-94892809D01*
X99377380Y-95083285D01*
X99329761Y-95178523D01*
X99234523Y-95273761D01*
X99091666Y-95321380D01*
X98853571Y-95321380D01*
X100377380Y-95321380D02*
X99805952Y-95321380D01*
X100091666Y-95321380D02*
X100091666Y-94321380D01*
X99996428Y-94464238D01*
X99901190Y-94559476D01*
X99805952Y-94607095D01*
%TO.C,Rogers1*%
X132411714Y-114720880D02*
X132078380Y-114244690D01*
X131840285Y-114720880D02*
X131840285Y-113720880D01*
X132221238Y-113720880D01*
X132316476Y-113768500D01*
X132364095Y-113816119D01*
X132411714Y-113911357D01*
X132411714Y-114054214D01*
X132364095Y-114149452D01*
X132316476Y-114197071D01*
X132221238Y-114244690D01*
X131840285Y-114244690D01*
X132983142Y-114720880D02*
X132887904Y-114673261D01*
X132840285Y-114625642D01*
X132792666Y-114530404D01*
X132792666Y-114244690D01*
X132840285Y-114149452D01*
X132887904Y-114101833D01*
X132983142Y-114054214D01*
X133126000Y-114054214D01*
X133221238Y-114101833D01*
X133268857Y-114149452D01*
X133316476Y-114244690D01*
X133316476Y-114530404D01*
X133268857Y-114625642D01*
X133221238Y-114673261D01*
X133126000Y-114720880D01*
X132983142Y-114720880D01*
X134173619Y-114054214D02*
X134173619Y-114863738D01*
X134126000Y-114958976D01*
X134078380Y-115006595D01*
X133983142Y-115054214D01*
X133840285Y-115054214D01*
X133745047Y-115006595D01*
X134173619Y-114673261D02*
X134078380Y-114720880D01*
X133887904Y-114720880D01*
X133792666Y-114673261D01*
X133745047Y-114625642D01*
X133697428Y-114530404D01*
X133697428Y-114244690D01*
X133745047Y-114149452D01*
X133792666Y-114101833D01*
X133887904Y-114054214D01*
X134078380Y-114054214D01*
X134173619Y-114101833D01*
X135030761Y-114673261D02*
X134935523Y-114720880D01*
X134745047Y-114720880D01*
X134649809Y-114673261D01*
X134602190Y-114578023D01*
X134602190Y-114197071D01*
X134649809Y-114101833D01*
X134745047Y-114054214D01*
X134935523Y-114054214D01*
X135030761Y-114101833D01*
X135078380Y-114197071D01*
X135078380Y-114292309D01*
X134602190Y-114387547D01*
X135506952Y-114720880D02*
X135506952Y-114054214D01*
X135506952Y-114244690D02*
X135554571Y-114149452D01*
X135602190Y-114101833D01*
X135697428Y-114054214D01*
X135792666Y-114054214D01*
X136078380Y-114673261D02*
X136173619Y-114720880D01*
X136364095Y-114720880D01*
X136459333Y-114673261D01*
X136506952Y-114578023D01*
X136506952Y-114530404D01*
X136459333Y-114435166D01*
X136364095Y-114387547D01*
X136221238Y-114387547D01*
X136126000Y-114339928D01*
X136078380Y-114244690D01*
X136078380Y-114197071D01*
X136126000Y-114101833D01*
X136221238Y-114054214D01*
X136364095Y-114054214D01*
X136459333Y-114101833D01*
X137459333Y-114720880D02*
X136887904Y-114720880D01*
X137173619Y-114720880D02*
X137173619Y-113720880D01*
X137078380Y-113863738D01*
X136983142Y-113958976D01*
X136887904Y-114006595D01*
%TO.C,Rpd1*%
X96781880Y-135135928D02*
X96305690Y-135469261D01*
X96781880Y-135707357D02*
X95781880Y-135707357D01*
X95781880Y-135326404D01*
X95829500Y-135231166D01*
X95877119Y-135183547D01*
X95972357Y-135135928D01*
X96115214Y-135135928D01*
X96210452Y-135183547D01*
X96258071Y-135231166D01*
X96305690Y-135326404D01*
X96305690Y-135707357D01*
X96115214Y-134707357D02*
X97115214Y-134707357D01*
X96162833Y-134707357D02*
X96115214Y-134612119D01*
X96115214Y-134421642D01*
X96162833Y-134326404D01*
X96210452Y-134278785D01*
X96305690Y-134231166D01*
X96591404Y-134231166D01*
X96686642Y-134278785D01*
X96734261Y-134326404D01*
X96781880Y-134421642D01*
X96781880Y-134612119D01*
X96734261Y-134707357D01*
X96781880Y-133374023D02*
X95781880Y-133374023D01*
X96734261Y-133374023D02*
X96781880Y-133469261D01*
X96781880Y-133659738D01*
X96734261Y-133754976D01*
X96686642Y-133802595D01*
X96591404Y-133850214D01*
X96305690Y-133850214D01*
X96210452Y-133802595D01*
X96162833Y-133754976D01*
X96115214Y-133659738D01*
X96115214Y-133469261D01*
X96162833Y-133374023D01*
X96781880Y-132374023D02*
X96781880Y-132945452D01*
X96781880Y-132659738D02*
X95781880Y-132659738D01*
X95924738Y-132754976D01*
X96019976Y-132850214D01*
X96067595Y-132945452D01*
%TO.C,Rpd2*%
X88907880Y-135135928D02*
X88431690Y-135469261D01*
X88907880Y-135707357D02*
X87907880Y-135707357D01*
X87907880Y-135326404D01*
X87955500Y-135231166D01*
X88003119Y-135183547D01*
X88098357Y-135135928D01*
X88241214Y-135135928D01*
X88336452Y-135183547D01*
X88384071Y-135231166D01*
X88431690Y-135326404D01*
X88431690Y-135707357D01*
X88241214Y-134707357D02*
X89241214Y-134707357D01*
X88288833Y-134707357D02*
X88241214Y-134612119D01*
X88241214Y-134421642D01*
X88288833Y-134326404D01*
X88336452Y-134278785D01*
X88431690Y-134231166D01*
X88717404Y-134231166D01*
X88812642Y-134278785D01*
X88860261Y-134326404D01*
X88907880Y-134421642D01*
X88907880Y-134612119D01*
X88860261Y-134707357D01*
X88907880Y-133374023D02*
X87907880Y-133374023D01*
X88860261Y-133374023D02*
X88907880Y-133469261D01*
X88907880Y-133659738D01*
X88860261Y-133754976D01*
X88812642Y-133802595D01*
X88717404Y-133850214D01*
X88431690Y-133850214D01*
X88336452Y-133802595D01*
X88288833Y-133754976D01*
X88241214Y-133659738D01*
X88241214Y-133469261D01*
X88288833Y-133374023D01*
X88003119Y-132945452D02*
X87955500Y-132897833D01*
X87907880Y-132802595D01*
X87907880Y-132564500D01*
X87955500Y-132469261D01*
X88003119Y-132421642D01*
X88098357Y-132374023D01*
X88193595Y-132374023D01*
X88336452Y-132421642D01*
X88907880Y-132993071D01*
X88907880Y-132374023D01*
%TO.C,Rpd3*%
X81033880Y-135119928D02*
X80557690Y-135453261D01*
X81033880Y-135691357D02*
X80033880Y-135691357D01*
X80033880Y-135310404D01*
X80081500Y-135215166D01*
X80129119Y-135167547D01*
X80224357Y-135119928D01*
X80367214Y-135119928D01*
X80462452Y-135167547D01*
X80510071Y-135215166D01*
X80557690Y-135310404D01*
X80557690Y-135691357D01*
X80367214Y-134691357D02*
X81367214Y-134691357D01*
X80414833Y-134691357D02*
X80367214Y-134596119D01*
X80367214Y-134405642D01*
X80414833Y-134310404D01*
X80462452Y-134262785D01*
X80557690Y-134215166D01*
X80843404Y-134215166D01*
X80938642Y-134262785D01*
X80986261Y-134310404D01*
X81033880Y-134405642D01*
X81033880Y-134596119D01*
X80986261Y-134691357D01*
X81033880Y-133358023D02*
X80033880Y-133358023D01*
X80986261Y-133358023D02*
X81033880Y-133453261D01*
X81033880Y-133643738D01*
X80986261Y-133738976D01*
X80938642Y-133786595D01*
X80843404Y-133834214D01*
X80557690Y-133834214D01*
X80462452Y-133786595D01*
X80414833Y-133738976D01*
X80367214Y-133643738D01*
X80367214Y-133453261D01*
X80414833Y-133358023D01*
X80033880Y-132977071D02*
X80033880Y-132358023D01*
X80414833Y-132691357D01*
X80414833Y-132548500D01*
X80462452Y-132453261D01*
X80510071Y-132405642D01*
X80605309Y-132358023D01*
X80843404Y-132358023D01*
X80938642Y-132405642D01*
X80986261Y-132453261D01*
X81033880Y-132548500D01*
X81033880Y-132834214D01*
X80986261Y-132929452D01*
X80938642Y-132977071D01*
%TO.C,Rpd4*%
X73159880Y-135135928D02*
X72683690Y-135469261D01*
X73159880Y-135707357D02*
X72159880Y-135707357D01*
X72159880Y-135326404D01*
X72207500Y-135231166D01*
X72255119Y-135183547D01*
X72350357Y-135135928D01*
X72493214Y-135135928D01*
X72588452Y-135183547D01*
X72636071Y-135231166D01*
X72683690Y-135326404D01*
X72683690Y-135707357D01*
X72493214Y-134707357D02*
X73493214Y-134707357D01*
X72540833Y-134707357D02*
X72493214Y-134612119D01*
X72493214Y-134421642D01*
X72540833Y-134326404D01*
X72588452Y-134278785D01*
X72683690Y-134231166D01*
X72969404Y-134231166D01*
X73064642Y-134278785D01*
X73112261Y-134326404D01*
X73159880Y-134421642D01*
X73159880Y-134612119D01*
X73112261Y-134707357D01*
X73159880Y-133374023D02*
X72159880Y-133374023D01*
X73112261Y-133374023D02*
X73159880Y-133469261D01*
X73159880Y-133659738D01*
X73112261Y-133754976D01*
X73064642Y-133802595D01*
X72969404Y-133850214D01*
X72683690Y-133850214D01*
X72588452Y-133802595D01*
X72540833Y-133754976D01*
X72493214Y-133659738D01*
X72493214Y-133469261D01*
X72540833Y-133374023D01*
X72493214Y-132469261D02*
X73159880Y-132469261D01*
X72112261Y-132707357D02*
X72826547Y-132945452D01*
X72826547Y-132326404D01*
%TO.C,Sens_Temp1*%
X144549761Y-106274642D02*
X144597380Y-106131785D01*
X144597380Y-105893690D01*
X144549761Y-105798452D01*
X144502142Y-105750833D01*
X144406904Y-105703214D01*
X144311666Y-105703214D01*
X144216428Y-105750833D01*
X144168809Y-105798452D01*
X144121190Y-105893690D01*
X144073571Y-106084166D01*
X144025952Y-106179404D01*
X143978333Y-106227023D01*
X143883095Y-106274642D01*
X143787857Y-106274642D01*
X143692619Y-106227023D01*
X143645000Y-106179404D01*
X143597380Y-106084166D01*
X143597380Y-105846071D01*
X143645000Y-105703214D01*
X144549761Y-104893690D02*
X144597380Y-104988928D01*
X144597380Y-105179404D01*
X144549761Y-105274642D01*
X144454523Y-105322261D01*
X144073571Y-105322261D01*
X143978333Y-105274642D01*
X143930714Y-105179404D01*
X143930714Y-104988928D01*
X143978333Y-104893690D01*
X144073571Y-104846071D01*
X144168809Y-104846071D01*
X144264047Y-105322261D01*
X143930714Y-104417500D02*
X144597380Y-104417500D01*
X144025952Y-104417500D02*
X143978333Y-104369880D01*
X143930714Y-104274642D01*
X143930714Y-104131785D01*
X143978333Y-104036547D01*
X144073571Y-103988928D01*
X144597380Y-103988928D01*
X144549761Y-103560357D02*
X144597380Y-103465119D01*
X144597380Y-103274642D01*
X144549761Y-103179404D01*
X144454523Y-103131785D01*
X144406904Y-103131785D01*
X144311666Y-103179404D01*
X144264047Y-103274642D01*
X144264047Y-103417500D01*
X144216428Y-103512738D01*
X144121190Y-103560357D01*
X144073571Y-103560357D01*
X143978333Y-103512738D01*
X143930714Y-103417500D01*
X143930714Y-103274642D01*
X143978333Y-103179404D01*
X144692619Y-102941309D02*
X144692619Y-102179404D01*
X143597380Y-102084166D02*
X143597380Y-101512738D01*
X144597380Y-101798452D02*
X143597380Y-101798452D01*
X144549761Y-100798452D02*
X144597380Y-100893690D01*
X144597380Y-101084166D01*
X144549761Y-101179404D01*
X144454523Y-101227023D01*
X144073571Y-101227023D01*
X143978333Y-101179404D01*
X143930714Y-101084166D01*
X143930714Y-100893690D01*
X143978333Y-100798452D01*
X144073571Y-100750833D01*
X144168809Y-100750833D01*
X144264047Y-101227023D01*
X144597380Y-100322261D02*
X143930714Y-100322261D01*
X144025952Y-100322261D02*
X143978333Y-100274642D01*
X143930714Y-100179404D01*
X143930714Y-100036547D01*
X143978333Y-99941309D01*
X144073571Y-99893690D01*
X144597380Y-99893690D01*
X144073571Y-99893690D02*
X143978333Y-99846071D01*
X143930714Y-99750833D01*
X143930714Y-99607976D01*
X143978333Y-99512738D01*
X144073571Y-99465119D01*
X144597380Y-99465119D01*
X143930714Y-98988928D02*
X144930714Y-98988928D01*
X143978333Y-98988928D02*
X143930714Y-98893690D01*
X143930714Y-98703214D01*
X143978333Y-98607976D01*
X144025952Y-98560357D01*
X144121190Y-98512738D01*
X144406904Y-98512738D01*
X144502142Y-98560357D01*
X144549761Y-98607976D01*
X144597380Y-98703214D01*
X144597380Y-98893690D01*
X144549761Y-98988928D01*
X144597380Y-97560357D02*
X144597380Y-98131785D01*
X144597380Y-97846071D02*
X143597380Y-97846071D01*
X143740238Y-97941309D01*
X143835476Y-98036547D01*
X143883095Y-98131785D01*
%TO.C,Steve1*%
X121158285Y-114641261D02*
X121301142Y-114688880D01*
X121539238Y-114688880D01*
X121634476Y-114641261D01*
X121682095Y-114593642D01*
X121729714Y-114498404D01*
X121729714Y-114403166D01*
X121682095Y-114307928D01*
X121634476Y-114260309D01*
X121539238Y-114212690D01*
X121348761Y-114165071D01*
X121253523Y-114117452D01*
X121205904Y-114069833D01*
X121158285Y-113974595D01*
X121158285Y-113879357D01*
X121205904Y-113784119D01*
X121253523Y-113736500D01*
X121348761Y-113688880D01*
X121586857Y-113688880D01*
X121729714Y-113736500D01*
X122015428Y-114022214D02*
X122396380Y-114022214D01*
X122158285Y-113688880D02*
X122158285Y-114546023D01*
X122205904Y-114641261D01*
X122301142Y-114688880D01*
X122396380Y-114688880D01*
X123110666Y-114641261D02*
X123015428Y-114688880D01*
X122824952Y-114688880D01*
X122729714Y-114641261D01*
X122682095Y-114546023D01*
X122682095Y-114165071D01*
X122729714Y-114069833D01*
X122824952Y-114022214D01*
X123015428Y-114022214D01*
X123110666Y-114069833D01*
X123158285Y-114165071D01*
X123158285Y-114260309D01*
X122682095Y-114355547D01*
X123491619Y-114022214D02*
X123729714Y-114688880D01*
X123967809Y-114022214D01*
X124729714Y-114641261D02*
X124634476Y-114688880D01*
X124444000Y-114688880D01*
X124348761Y-114641261D01*
X124301142Y-114546023D01*
X124301142Y-114165071D01*
X124348761Y-114069833D01*
X124444000Y-114022214D01*
X124634476Y-114022214D01*
X124729714Y-114069833D01*
X124777333Y-114165071D01*
X124777333Y-114260309D01*
X124301142Y-114355547D01*
X125729714Y-114688880D02*
X125158285Y-114688880D01*
X125444000Y-114688880D02*
X125444000Y-113688880D01*
X125348761Y-113831738D01*
X125253523Y-113926976D01*
X125158285Y-113974595D01*
%TO.C,U1*%
X154107595Y-129135380D02*
X154107595Y-129944904D01*
X154155214Y-130040142D01*
X154202833Y-130087761D01*
X154298071Y-130135380D01*
X154488547Y-130135380D01*
X154583785Y-130087761D01*
X154631404Y-130040142D01*
X154679023Y-129944904D01*
X154679023Y-129135380D01*
X155679023Y-130135380D02*
X155107595Y-130135380D01*
X155393309Y-130135380D02*
X155393309Y-129135380D01*
X155298071Y-129278238D01*
X155202833Y-129373476D01*
X155107595Y-129421095D01*
%TD*%
M02*
