%TF.GenerationSoftware,KiCad,Pcbnew,(5.1.10-1-10_14)*%
%TF.CreationDate,2021-12-15T11:30:22-05:00*%
%TF.ProjectId,PCB_Design,5043425f-4465-4736-9967-6e2e6b696361,rev?*%
%TF.SameCoordinates,Original*%
%TF.FileFunction,Paste,Top*%
%TF.FilePolarity,Positive*%
%FSLAX46Y46*%
G04 Gerber Fmt 4.6, Leading zero omitted, Abs format (unit mm)*
G04 Created by KiCad (PCBNEW (5.1.10-1-10_14)) date 2021-12-15 11:30:22*
%MOMM*%
%LPD*%
G01*
G04 APERTURE LIST*
%ADD10R,1.000000X1.900000*%
%ADD11R,1.500000X1.500000*%
%ADD12R,1.900000X1.000000*%
%ADD13R,1.550000X1.300000*%
%ADD14R,1.200000X0.300000*%
%ADD15R,1.000000X0.200000*%
%ADD16R,0.800000X0.900000*%
%ADD17R,5.000000X5.000000*%
%ADD18R,0.900000X2.000000*%
%ADD19R,2.000000X0.900000*%
G04 APERTURE END LIST*
D10*
%TO.C,Conn_OLED1*%
X91503500Y-110110000D03*
X86423500Y-110110000D03*
X88963500Y-113410000D03*
X83883500Y-113410000D03*
%TD*%
D11*
%TO.C,SW1*%
X136612800Y-120700800D03*
X144412800Y-120700800D03*
%TD*%
%TO.C,SW2*%
X144412800Y-116586000D03*
X136612800Y-116586000D03*
%TD*%
D12*
%TO.C,Conn_prog1*%
X150369000Y-114109500D03*
X150369000Y-119189500D03*
X153669000Y-111569500D03*
X153669000Y-116649500D03*
X153669000Y-121729500D03*
%TD*%
%TO.C,Conn_I2C1*%
X68833000Y-121856500D03*
X65533000Y-124396500D03*
X65533000Y-119316500D03*
%TD*%
D13*
%TO.C,BT4*%
X67208500Y-146911500D03*
X67208500Y-151411500D03*
X75158500Y-151411500D03*
X75158500Y-146911500D03*
%TD*%
%TO.C,BT3*%
X78448000Y-146911500D03*
X78448000Y-151411500D03*
X86398000Y-151411500D03*
X86398000Y-146911500D03*
%TD*%
%TO.C,BT2*%
X89687500Y-146911500D03*
X89687500Y-151411500D03*
X97637500Y-151411500D03*
X97637500Y-146911500D03*
%TD*%
%TO.C,BT1*%
X100927500Y-146911500D03*
X100927500Y-151411500D03*
X108877500Y-151411500D03*
X108877500Y-146911500D03*
%TD*%
%TO.C,Cd4*%
G36*
G01*
X76550500Y-129651000D02*
X77500500Y-129651000D01*
G75*
G02*
X77750500Y-129901000I0J-250000D01*
G01*
X77750500Y-130576000D01*
G75*
G02*
X77500500Y-130826000I-250000J0D01*
G01*
X76550500Y-130826000D01*
G75*
G02*
X76300500Y-130576000I0J250000D01*
G01*
X76300500Y-129901000D01*
G75*
G02*
X76550500Y-129651000I250000J0D01*
G01*
G37*
G36*
G01*
X76550500Y-127576000D02*
X77500500Y-127576000D01*
G75*
G02*
X77750500Y-127826000I0J-250000D01*
G01*
X77750500Y-128501000D01*
G75*
G02*
X77500500Y-128751000I-250000J0D01*
G01*
X76550500Y-128751000D01*
G75*
G02*
X76300500Y-128501000I0J250000D01*
G01*
X76300500Y-127826000D01*
G75*
G02*
X76550500Y-127576000I250000J0D01*
G01*
G37*
%TD*%
%TO.C,Cd3*%
G36*
G01*
X84424500Y-129651000D02*
X85374500Y-129651000D01*
G75*
G02*
X85624500Y-129901000I0J-250000D01*
G01*
X85624500Y-130576000D01*
G75*
G02*
X85374500Y-130826000I-250000J0D01*
G01*
X84424500Y-130826000D01*
G75*
G02*
X84174500Y-130576000I0J250000D01*
G01*
X84174500Y-129901000D01*
G75*
G02*
X84424500Y-129651000I250000J0D01*
G01*
G37*
G36*
G01*
X84424500Y-127576000D02*
X85374500Y-127576000D01*
G75*
G02*
X85624500Y-127826000I0J-250000D01*
G01*
X85624500Y-128501000D01*
G75*
G02*
X85374500Y-128751000I-250000J0D01*
G01*
X84424500Y-128751000D01*
G75*
G02*
X84174500Y-128501000I0J250000D01*
G01*
X84174500Y-127826000D01*
G75*
G02*
X84424500Y-127576000I250000J0D01*
G01*
G37*
%TD*%
%TO.C,Cd2*%
G36*
G01*
X92298500Y-129651000D02*
X93248500Y-129651000D01*
G75*
G02*
X93498500Y-129901000I0J-250000D01*
G01*
X93498500Y-130576000D01*
G75*
G02*
X93248500Y-130826000I-250000J0D01*
G01*
X92298500Y-130826000D01*
G75*
G02*
X92048500Y-130576000I0J250000D01*
G01*
X92048500Y-129901000D01*
G75*
G02*
X92298500Y-129651000I250000J0D01*
G01*
G37*
G36*
G01*
X92298500Y-127576000D02*
X93248500Y-127576000D01*
G75*
G02*
X93498500Y-127826000I0J-250000D01*
G01*
X93498500Y-128501000D01*
G75*
G02*
X93248500Y-128751000I-250000J0D01*
G01*
X92298500Y-128751000D01*
G75*
G02*
X92048500Y-128501000I0J250000D01*
G01*
X92048500Y-127826000D01*
G75*
G02*
X92298500Y-127576000I250000J0D01*
G01*
G37*
%TD*%
%TO.C,Cd1*%
G36*
G01*
X100172500Y-129651000D02*
X101122500Y-129651000D01*
G75*
G02*
X101372500Y-129901000I0J-250000D01*
G01*
X101372500Y-130576000D01*
G75*
G02*
X101122500Y-130826000I-250000J0D01*
G01*
X100172500Y-130826000D01*
G75*
G02*
X99922500Y-130576000I0J250000D01*
G01*
X99922500Y-129901000D01*
G75*
G02*
X100172500Y-129651000I250000J0D01*
G01*
G37*
G36*
G01*
X100172500Y-127576000D02*
X101122500Y-127576000D01*
G75*
G02*
X101372500Y-127826000I0J-250000D01*
G01*
X101372500Y-128501000D01*
G75*
G02*
X101122500Y-128751000I-250000J0D01*
G01*
X100172500Y-128751000D01*
G75*
G02*
X99922500Y-128501000I0J250000D01*
G01*
X99922500Y-127826000D01*
G75*
G02*
X100172500Y-127576000I250000J0D01*
G01*
G37*
%TD*%
%TO.C,C2*%
G36*
G01*
X90376500Y-103030000D02*
X90376500Y-103980000D01*
G75*
G02*
X90126500Y-104230000I-250000J0D01*
G01*
X89451500Y-104230000D01*
G75*
G02*
X89201500Y-103980000I0J250000D01*
G01*
X89201500Y-103030000D01*
G75*
G02*
X89451500Y-102780000I250000J0D01*
G01*
X90126500Y-102780000D01*
G75*
G02*
X90376500Y-103030000I0J-250000D01*
G01*
G37*
G36*
G01*
X92451500Y-103030000D02*
X92451500Y-103980000D01*
G75*
G02*
X92201500Y-104230000I-250000J0D01*
G01*
X91526500Y-104230000D01*
G75*
G02*
X91276500Y-103980000I0J250000D01*
G01*
X91276500Y-103030000D01*
G75*
G02*
X91526500Y-102780000I250000J0D01*
G01*
X92201500Y-102780000D01*
G75*
G02*
X92451500Y-103030000I0J-250000D01*
G01*
G37*
%TD*%
%TO.C,C1*%
G36*
G01*
X86153500Y-103980000D02*
X86153500Y-103030000D01*
G75*
G02*
X86403500Y-102780000I250000J0D01*
G01*
X87078500Y-102780000D01*
G75*
G02*
X87328500Y-103030000I0J-250000D01*
G01*
X87328500Y-103980000D01*
G75*
G02*
X87078500Y-104230000I-250000J0D01*
G01*
X86403500Y-104230000D01*
G75*
G02*
X86153500Y-103980000I0J250000D01*
G01*
G37*
G36*
G01*
X84078500Y-103980000D02*
X84078500Y-103030000D01*
G75*
G02*
X84328500Y-102780000I250000J0D01*
G01*
X85003500Y-102780000D01*
G75*
G02*
X85253500Y-103030000I0J-250000D01*
G01*
X85253500Y-103980000D01*
G75*
G02*
X85003500Y-104230000I-250000J0D01*
G01*
X84328500Y-104230000D01*
G75*
G02*
X84078500Y-103980000I0J250000D01*
G01*
G37*
%TD*%
%TO.C,4.7k1*%
G36*
G01*
X149069500Y-107257001D02*
X149069500Y-106356999D01*
G75*
G02*
X149319499Y-106107000I249999J0D01*
G01*
X150019501Y-106107000D01*
G75*
G02*
X150269500Y-106356999I0J-249999D01*
G01*
X150269500Y-107257001D01*
G75*
G02*
X150019501Y-107507000I-249999J0D01*
G01*
X149319499Y-107507000D01*
G75*
G02*
X149069500Y-107257001I0J249999D01*
G01*
G37*
G36*
G01*
X147069500Y-107257001D02*
X147069500Y-106356999D01*
G75*
G02*
X147319499Y-106107000I249999J0D01*
G01*
X148019501Y-106107000D01*
G75*
G02*
X148269500Y-106356999I0J-249999D01*
G01*
X148269500Y-107257001D01*
G75*
G02*
X148019501Y-107507000I-249999J0D01*
G01*
X147319499Y-107507000D01*
G75*
G02*
X147069500Y-107257001I0J249999D01*
G01*
G37*
%TD*%
%TO.C,FlagLED_R1*%
G36*
G01*
X122787500Y-102812001D02*
X122787500Y-101911999D01*
G75*
G02*
X123037499Y-101662000I249999J0D01*
G01*
X123687501Y-101662000D01*
G75*
G02*
X123937500Y-101911999I0J-249999D01*
G01*
X123937500Y-102812001D01*
G75*
G02*
X123687501Y-103062000I-249999J0D01*
G01*
X123037499Y-103062000D01*
G75*
G02*
X122787500Y-102812001I0J249999D01*
G01*
G37*
G36*
G01*
X124837500Y-102812001D02*
X124837500Y-101911999D01*
G75*
G02*
X125087499Y-101662000I249999J0D01*
G01*
X125737501Y-101662000D01*
G75*
G02*
X125987500Y-101911999I0J-249999D01*
G01*
X125987500Y-102812001D01*
G75*
G02*
X125737501Y-103062000I-249999J0D01*
G01*
X125087499Y-103062000D01*
G75*
G02*
X124837500Y-102812001I0J249999D01*
G01*
G37*
%TD*%
%TO.C,gLED1*%
G36*
G01*
X97991400Y-103562999D02*
X97991400Y-104463001D01*
G75*
G02*
X97741401Y-104713000I-249999J0D01*
G01*
X97091399Y-104713000D01*
G75*
G02*
X96841400Y-104463001I0J249999D01*
G01*
X96841400Y-103562999D01*
G75*
G02*
X97091399Y-103313000I249999J0D01*
G01*
X97741401Y-103313000D01*
G75*
G02*
X97991400Y-103562999I0J-249999D01*
G01*
G37*
G36*
G01*
X100041400Y-103562999D02*
X100041400Y-104463001D01*
G75*
G02*
X99791401Y-104713000I-249999J0D01*
G01*
X99141399Y-104713000D01*
G75*
G02*
X98891400Y-104463001I0J249999D01*
G01*
X98891400Y-103562999D01*
G75*
G02*
X99141399Y-103313000I249999J0D01*
G01*
X99791401Y-103313000D01*
G75*
G02*
X100041400Y-103562999I0J-249999D01*
G01*
G37*
%TD*%
%TO.C,IC1*%
G36*
G01*
X132332000Y-101652001D02*
X132332000Y-100861999D01*
G75*
G02*
X132581999Y-100612000I249999J0D01*
G01*
X133092001Y-100612000D01*
G75*
G02*
X133342000Y-100861999I0J-249999D01*
G01*
X133342000Y-101652001D01*
G75*
G02*
X133092001Y-101902000I-249999J0D01*
G01*
X132581999Y-101902000D01*
G75*
G02*
X132332000Y-101652001I0J249999D01*
G01*
G37*
G36*
G01*
X132332000Y-100052001D02*
X132332000Y-99261999D01*
G75*
G02*
X132581999Y-99012000I249999J0D01*
G01*
X133092001Y-99012000D01*
G75*
G02*
X133342000Y-99261999I0J-249999D01*
G01*
X133342000Y-100052001D01*
G75*
G02*
X133092001Y-100302000I-249999J0D01*
G01*
X132581999Y-100302000D01*
G75*
G02*
X132332000Y-100052001I0J249999D01*
G01*
G37*
G36*
G01*
X131072000Y-101652001D02*
X131072000Y-100861999D01*
G75*
G02*
X131321999Y-100612000I249999J0D01*
G01*
X131832001Y-100612000D01*
G75*
G02*
X132082000Y-100861999I0J-249999D01*
G01*
X132082000Y-101652001D01*
G75*
G02*
X131832001Y-101902000I-249999J0D01*
G01*
X131321999Y-101902000D01*
G75*
G02*
X131072000Y-101652001I0J249999D01*
G01*
G37*
G36*
G01*
X131072000Y-100052001D02*
X131072000Y-99261999D01*
G75*
G02*
X131321999Y-99012000I249999J0D01*
G01*
X131832001Y-99012000D01*
G75*
G02*
X132082000Y-99261999I0J-249999D01*
G01*
X132082000Y-100052001D01*
G75*
G02*
X131832001Y-100302000I-249999J0D01*
G01*
X131321999Y-100302000D01*
G75*
G02*
X131072000Y-100052001I0J249999D01*
G01*
G37*
G36*
G01*
X134032000Y-98702000D02*
X134032000Y-98402000D01*
G75*
G02*
X134182000Y-98252000I150000J0D01*
G01*
X135507000Y-98252000D01*
G75*
G02*
X135657000Y-98402000I0J-150000D01*
G01*
X135657000Y-98702000D01*
G75*
G02*
X135507000Y-98852000I-150000J0D01*
G01*
X134182000Y-98852000D01*
G75*
G02*
X134032000Y-98702000I0J150000D01*
G01*
G37*
G36*
G01*
X134032000Y-99972000D02*
X134032000Y-99672000D01*
G75*
G02*
X134182000Y-99522000I150000J0D01*
G01*
X135507000Y-99522000D01*
G75*
G02*
X135657000Y-99672000I0J-150000D01*
G01*
X135657000Y-99972000D01*
G75*
G02*
X135507000Y-100122000I-150000J0D01*
G01*
X134182000Y-100122000D01*
G75*
G02*
X134032000Y-99972000I0J150000D01*
G01*
G37*
G36*
G01*
X134032000Y-101242000D02*
X134032000Y-100942000D01*
G75*
G02*
X134182000Y-100792000I150000J0D01*
G01*
X135507000Y-100792000D01*
G75*
G02*
X135657000Y-100942000I0J-150000D01*
G01*
X135657000Y-101242000D01*
G75*
G02*
X135507000Y-101392000I-150000J0D01*
G01*
X134182000Y-101392000D01*
G75*
G02*
X134032000Y-101242000I0J150000D01*
G01*
G37*
G36*
G01*
X134032000Y-102512000D02*
X134032000Y-102212000D01*
G75*
G02*
X134182000Y-102062000I150000J0D01*
G01*
X135507000Y-102062000D01*
G75*
G02*
X135657000Y-102212000I0J-150000D01*
G01*
X135657000Y-102512000D01*
G75*
G02*
X135507000Y-102662000I-150000J0D01*
G01*
X134182000Y-102662000D01*
G75*
G02*
X134032000Y-102512000I0J150000D01*
G01*
G37*
G36*
G01*
X128757000Y-102512000D02*
X128757000Y-102212000D01*
G75*
G02*
X128907000Y-102062000I150000J0D01*
G01*
X130232000Y-102062000D01*
G75*
G02*
X130382000Y-102212000I0J-150000D01*
G01*
X130382000Y-102512000D01*
G75*
G02*
X130232000Y-102662000I-150000J0D01*
G01*
X128907000Y-102662000D01*
G75*
G02*
X128757000Y-102512000I0J150000D01*
G01*
G37*
G36*
G01*
X128757000Y-101242000D02*
X128757000Y-100942000D01*
G75*
G02*
X128907000Y-100792000I150000J0D01*
G01*
X130232000Y-100792000D01*
G75*
G02*
X130382000Y-100942000I0J-150000D01*
G01*
X130382000Y-101242000D01*
G75*
G02*
X130232000Y-101392000I-150000J0D01*
G01*
X128907000Y-101392000D01*
G75*
G02*
X128757000Y-101242000I0J150000D01*
G01*
G37*
G36*
G01*
X128757000Y-99972000D02*
X128757000Y-99672000D01*
G75*
G02*
X128907000Y-99522000I150000J0D01*
G01*
X130232000Y-99522000D01*
G75*
G02*
X130382000Y-99672000I0J-150000D01*
G01*
X130382000Y-99972000D01*
G75*
G02*
X130232000Y-100122000I-150000J0D01*
G01*
X128907000Y-100122000D01*
G75*
G02*
X128757000Y-99972000I0J150000D01*
G01*
G37*
G36*
G01*
X128757000Y-98702000D02*
X128757000Y-98402000D01*
G75*
G02*
X128907000Y-98252000I150000J0D01*
G01*
X130232000Y-98252000D01*
G75*
G02*
X130382000Y-98402000I0J-150000D01*
G01*
X130382000Y-98702000D01*
G75*
G02*
X130232000Y-98852000I-150000J0D01*
G01*
X128907000Y-98852000D01*
G75*
G02*
X128757000Y-98702000I0J150000D01*
G01*
G37*
%TD*%
%TO.C,J1*%
G36*
G01*
X84942000Y-96797000D02*
X84942000Y-96497000D01*
G75*
G02*
X85092000Y-96347000I150000J0D01*
G01*
X86417000Y-96347000D01*
G75*
G02*
X86567000Y-96497000I0J-150000D01*
G01*
X86567000Y-96797000D01*
G75*
G02*
X86417000Y-96947000I-150000J0D01*
G01*
X85092000Y-96947000D01*
G75*
G02*
X84942000Y-96797000I0J150000D01*
G01*
G37*
G36*
G01*
X84942000Y-98067000D02*
X84942000Y-97767000D01*
G75*
G02*
X85092000Y-97617000I150000J0D01*
G01*
X86417000Y-97617000D01*
G75*
G02*
X86567000Y-97767000I0J-150000D01*
G01*
X86567000Y-98067000D01*
G75*
G02*
X86417000Y-98217000I-150000J0D01*
G01*
X85092000Y-98217000D01*
G75*
G02*
X84942000Y-98067000I0J150000D01*
G01*
G37*
G36*
G01*
X84942000Y-99337000D02*
X84942000Y-99037000D01*
G75*
G02*
X85092000Y-98887000I150000J0D01*
G01*
X86417000Y-98887000D01*
G75*
G02*
X86567000Y-99037000I0J-150000D01*
G01*
X86567000Y-99337000D01*
G75*
G02*
X86417000Y-99487000I-150000J0D01*
G01*
X85092000Y-99487000D01*
G75*
G02*
X84942000Y-99337000I0J150000D01*
G01*
G37*
G36*
G01*
X84942000Y-100607000D02*
X84942000Y-100307000D01*
G75*
G02*
X85092000Y-100157000I150000J0D01*
G01*
X86417000Y-100157000D01*
G75*
G02*
X86567000Y-100307000I0J-150000D01*
G01*
X86567000Y-100607000D01*
G75*
G02*
X86417000Y-100757000I-150000J0D01*
G01*
X85092000Y-100757000D01*
G75*
G02*
X84942000Y-100607000I0J150000D01*
G01*
G37*
G36*
G01*
X90217000Y-100607000D02*
X90217000Y-100307000D01*
G75*
G02*
X90367000Y-100157000I150000J0D01*
G01*
X91692000Y-100157000D01*
G75*
G02*
X91842000Y-100307000I0J-150000D01*
G01*
X91842000Y-100607000D01*
G75*
G02*
X91692000Y-100757000I-150000J0D01*
G01*
X90367000Y-100757000D01*
G75*
G02*
X90217000Y-100607000I0J150000D01*
G01*
G37*
G36*
G01*
X90217000Y-99337000D02*
X90217000Y-99037000D01*
G75*
G02*
X90367000Y-98887000I150000J0D01*
G01*
X91692000Y-98887000D01*
G75*
G02*
X91842000Y-99037000I0J-150000D01*
G01*
X91842000Y-99337000D01*
G75*
G02*
X91692000Y-99487000I-150000J0D01*
G01*
X90367000Y-99487000D01*
G75*
G02*
X90217000Y-99337000I0J150000D01*
G01*
G37*
G36*
G01*
X90217000Y-98067000D02*
X90217000Y-97767000D01*
G75*
G02*
X90367000Y-97617000I150000J0D01*
G01*
X91692000Y-97617000D01*
G75*
G02*
X91842000Y-97767000I0J-150000D01*
G01*
X91842000Y-98067000D01*
G75*
G02*
X91692000Y-98217000I-150000J0D01*
G01*
X90367000Y-98217000D01*
G75*
G02*
X90217000Y-98067000I0J150000D01*
G01*
G37*
G36*
G01*
X90217000Y-96797000D02*
X90217000Y-96497000D01*
G75*
G02*
X90367000Y-96347000I150000J0D01*
G01*
X91692000Y-96347000D01*
G75*
G02*
X91842000Y-96497000I0J-150000D01*
G01*
X91842000Y-96797000D01*
G75*
G02*
X91692000Y-96947000I-150000J0D01*
G01*
X90367000Y-96947000D01*
G75*
G02*
X90217000Y-96797000I0J150000D01*
G01*
G37*
G36*
G01*
X87257000Y-98147001D02*
X87257000Y-97356999D01*
G75*
G02*
X87506999Y-97107000I249999J0D01*
G01*
X88017001Y-97107000D01*
G75*
G02*
X88267000Y-97356999I0J-249999D01*
G01*
X88267000Y-98147001D01*
G75*
G02*
X88017001Y-98397000I-249999J0D01*
G01*
X87506999Y-98397000D01*
G75*
G02*
X87257000Y-98147001I0J249999D01*
G01*
G37*
G36*
G01*
X87257000Y-99747001D02*
X87257000Y-98956999D01*
G75*
G02*
X87506999Y-98707000I249999J0D01*
G01*
X88017001Y-98707000D01*
G75*
G02*
X88267000Y-98956999I0J-249999D01*
G01*
X88267000Y-99747001D01*
G75*
G02*
X88017001Y-99997000I-249999J0D01*
G01*
X87506999Y-99997000D01*
G75*
G02*
X87257000Y-99747001I0J249999D01*
G01*
G37*
G36*
G01*
X88517000Y-98147001D02*
X88517000Y-97356999D01*
G75*
G02*
X88766999Y-97107000I249999J0D01*
G01*
X89277001Y-97107000D01*
G75*
G02*
X89527000Y-97356999I0J-249999D01*
G01*
X89527000Y-98147001D01*
G75*
G02*
X89277001Y-98397000I-249999J0D01*
G01*
X88766999Y-98397000D01*
G75*
G02*
X88517000Y-98147001I0J249999D01*
G01*
G37*
G36*
G01*
X88517000Y-99747001D02*
X88517000Y-98956999D01*
G75*
G02*
X88766999Y-98707000I249999J0D01*
G01*
X89277001Y-98707000D01*
G75*
G02*
X89527000Y-98956999I0J-249999D01*
G01*
X89527000Y-99747001D01*
G75*
G02*
X89277001Y-99997000I-249999J0D01*
G01*
X88766999Y-99997000D01*
G75*
G02*
X88517000Y-99747001I0J249999D01*
G01*
G37*
%TD*%
D14*
%TO.C,J2*%
X72697000Y-100984500D03*
X72697000Y-100484500D03*
X72697000Y-99984500D03*
X72697000Y-99484500D03*
X72697000Y-98984500D03*
X72697000Y-98484500D03*
X72697000Y-97984500D03*
X72697000Y-97484500D03*
X72697000Y-96984500D03*
X72697000Y-96484500D03*
X72697000Y-95984500D03*
X72697000Y-95484500D03*
D15*
X65017000Y-98234500D03*
X68117000Y-98234500D03*
%TD*%
%TO.C,LED_Piloto_G1*%
G36*
G01*
X130498001Y-124191500D02*
X129597999Y-124191500D01*
G75*
G02*
X129348000Y-123941501I0J249999D01*
G01*
X129348000Y-123291499D01*
G75*
G02*
X129597999Y-123041500I249999J0D01*
G01*
X130498001Y-123041500D01*
G75*
G02*
X130748000Y-123291499I0J-249999D01*
G01*
X130748000Y-123941501D01*
G75*
G02*
X130498001Y-124191500I-249999J0D01*
G01*
G37*
G36*
G01*
X130498001Y-126241500D02*
X129597999Y-126241500D01*
G75*
G02*
X129348000Y-125991501I0J249999D01*
G01*
X129348000Y-125341499D01*
G75*
G02*
X129597999Y-125091500I249999J0D01*
G01*
X130498001Y-125091500D01*
G75*
G02*
X130748000Y-125341499I0J-249999D01*
G01*
X130748000Y-125991501D01*
G75*
G02*
X130498001Y-126241500I-249999J0D01*
G01*
G37*
%TD*%
%TO.C,LED_Prog_B1*%
G36*
G01*
X122231999Y-123041500D02*
X123132001Y-123041500D01*
G75*
G02*
X123382000Y-123291499I0J-249999D01*
G01*
X123382000Y-123941501D01*
G75*
G02*
X123132001Y-124191500I-249999J0D01*
G01*
X122231999Y-124191500D01*
G75*
G02*
X121982000Y-123941501I0J249999D01*
G01*
X121982000Y-123291499D01*
G75*
G02*
X122231999Y-123041500I249999J0D01*
G01*
G37*
G36*
G01*
X122231999Y-125091500D02*
X123132001Y-125091500D01*
G75*
G02*
X123382000Y-125341499I0J-249999D01*
G01*
X123382000Y-125991501D01*
G75*
G02*
X123132001Y-126241500I-249999J0D01*
G01*
X122231999Y-126241500D01*
G75*
G02*
X121982000Y-125991501I0J249999D01*
G01*
X121982000Y-125341499D01*
G75*
G02*
X122231999Y-125091500I249999J0D01*
G01*
G37*
%TD*%
D16*
%TO.C,NMOS_Buzzer1*%
X113853000Y-116411500D03*
X111953000Y-116411500D03*
X112903000Y-118411500D03*
%TD*%
%TO.C,R1*%
G36*
G01*
X140776000Y-101911999D02*
X140776000Y-102812001D01*
G75*
G02*
X140526001Y-103062000I-249999J0D01*
G01*
X139825999Y-103062000D01*
G75*
G02*
X139576000Y-102812001I0J249999D01*
G01*
X139576000Y-101911999D01*
G75*
G02*
X139825999Y-101662000I249999J0D01*
G01*
X140526001Y-101662000D01*
G75*
G02*
X140776000Y-101911999I0J-249999D01*
G01*
G37*
G36*
G01*
X138776000Y-101911999D02*
X138776000Y-102812001D01*
G75*
G02*
X138526001Y-103062000I-249999J0D01*
G01*
X137825999Y-103062000D01*
G75*
G02*
X137576000Y-102812001I0J249999D01*
G01*
X137576000Y-101911999D01*
G75*
G02*
X137825999Y-101662000I249999J0D01*
G01*
X138526001Y-101662000D01*
G75*
G02*
X138776000Y-101911999I0J-249999D01*
G01*
G37*
%TD*%
%TO.C,R2*%
G36*
G01*
X137576000Y-100335501D02*
X137576000Y-99435499D01*
G75*
G02*
X137825999Y-99185500I249999J0D01*
G01*
X138526001Y-99185500D01*
G75*
G02*
X138776000Y-99435499I0J-249999D01*
G01*
X138776000Y-100335501D01*
G75*
G02*
X138526001Y-100585500I-249999J0D01*
G01*
X137825999Y-100585500D01*
G75*
G02*
X137576000Y-100335501I0J249999D01*
G01*
G37*
G36*
G01*
X139576000Y-100335501D02*
X139576000Y-99435499D01*
G75*
G02*
X139825999Y-99185500I249999J0D01*
G01*
X140526001Y-99185500D01*
G75*
G02*
X140776000Y-99435499I0J-249999D01*
G01*
X140776000Y-100335501D01*
G75*
G02*
X140526001Y-100585500I-249999J0D01*
G01*
X139825999Y-100585500D01*
G75*
G02*
X139576000Y-100335501I0J249999D01*
G01*
G37*
%TD*%
%TO.C,R_gLED1*%
G36*
G01*
X96866400Y-102050001D02*
X96866400Y-101149999D01*
G75*
G02*
X97116399Y-100900000I249999J0D01*
G01*
X97816401Y-100900000D01*
G75*
G02*
X98066400Y-101149999I0J-249999D01*
G01*
X98066400Y-102050001D01*
G75*
G02*
X97816401Y-102300000I-249999J0D01*
G01*
X97116399Y-102300000D01*
G75*
G02*
X96866400Y-102050001I0J249999D01*
G01*
G37*
G36*
G01*
X98866400Y-102050001D02*
X98866400Y-101149999D01*
G75*
G02*
X99116399Y-100900000I249999J0D01*
G01*
X99816401Y-100900000D01*
G75*
G02*
X100066400Y-101149999I0J-249999D01*
G01*
X100066400Y-102050001D01*
G75*
G02*
X99816401Y-102300000I-249999J0D01*
G01*
X99116399Y-102300000D01*
G75*
G02*
X98866400Y-102050001I0J249999D01*
G01*
G37*
%TD*%
%TO.C,R_Piloto1*%
G36*
G01*
X129597999Y-120161000D02*
X130498001Y-120161000D01*
G75*
G02*
X130748000Y-120410999I0J-249999D01*
G01*
X130748000Y-121111001D01*
G75*
G02*
X130498001Y-121361000I-249999J0D01*
G01*
X129597999Y-121361000D01*
G75*
G02*
X129348000Y-121111001I0J249999D01*
G01*
X129348000Y-120410999D01*
G75*
G02*
X129597999Y-120161000I249999J0D01*
G01*
G37*
G36*
G01*
X129597999Y-118161000D02*
X130498001Y-118161000D01*
G75*
G02*
X130748000Y-118410999I0J-249999D01*
G01*
X130748000Y-119111001D01*
G75*
G02*
X130498001Y-119361000I-249999J0D01*
G01*
X129597999Y-119361000D01*
G75*
G02*
X129348000Y-119111001I0J249999D01*
G01*
X129348000Y-118410999D01*
G75*
G02*
X129597999Y-118161000I249999J0D01*
G01*
G37*
%TD*%
%TO.C,R_PROG1*%
G36*
G01*
X80512499Y-99349000D02*
X81412501Y-99349000D01*
G75*
G02*
X81662500Y-99598999I0J-249999D01*
G01*
X81662500Y-100299001D01*
G75*
G02*
X81412501Y-100549000I-249999J0D01*
G01*
X80512499Y-100549000D01*
G75*
G02*
X80262500Y-100299001I0J249999D01*
G01*
X80262500Y-99598999D01*
G75*
G02*
X80512499Y-99349000I249999J0D01*
G01*
G37*
G36*
G01*
X80512499Y-97349000D02*
X81412501Y-97349000D01*
G75*
G02*
X81662500Y-97598999I0J-249999D01*
G01*
X81662500Y-98299001D01*
G75*
G02*
X81412501Y-98549000I-249999J0D01*
G01*
X80512499Y-98549000D01*
G75*
G02*
X80262500Y-98299001I0J249999D01*
G01*
X80262500Y-97598999D01*
G75*
G02*
X80512499Y-97349000I249999J0D01*
G01*
G37*
%TD*%
%TO.C,R_Prog_B1*%
G36*
G01*
X122231999Y-119859500D02*
X123132001Y-119859500D01*
G75*
G02*
X123382000Y-120109499I0J-249999D01*
G01*
X123382000Y-120809501D01*
G75*
G02*
X123132001Y-121059500I-249999J0D01*
G01*
X122231999Y-121059500D01*
G75*
G02*
X121982000Y-120809501I0J249999D01*
G01*
X121982000Y-120109499D01*
G75*
G02*
X122231999Y-119859500I249999J0D01*
G01*
G37*
G36*
G01*
X122231999Y-117859500D02*
X123132001Y-117859500D01*
G75*
G02*
X123382000Y-118109499I0J-249999D01*
G01*
X123382000Y-118809501D01*
G75*
G02*
X123132001Y-119059500I-249999J0D01*
G01*
X122231999Y-119059500D01*
G75*
G02*
X121982000Y-118809501I0J249999D01*
G01*
X121982000Y-118109499D01*
G75*
G02*
X122231999Y-117859500I249999J0D01*
G01*
G37*
%TD*%
%TO.C,R_RGB_B1*%
G36*
G01*
X115956501Y-144745000D02*
X115056499Y-144745000D01*
G75*
G02*
X114806500Y-144495001I0J249999D01*
G01*
X114806500Y-143794999D01*
G75*
G02*
X115056499Y-143545000I249999J0D01*
G01*
X115956501Y-143545000D01*
G75*
G02*
X116206500Y-143794999I0J-249999D01*
G01*
X116206500Y-144495001D01*
G75*
G02*
X115956501Y-144745000I-249999J0D01*
G01*
G37*
G36*
G01*
X115956501Y-146745000D02*
X115056499Y-146745000D01*
G75*
G02*
X114806500Y-146495001I0J249999D01*
G01*
X114806500Y-145794999D01*
G75*
G02*
X115056499Y-145545000I249999J0D01*
G01*
X115956501Y-145545000D01*
G75*
G02*
X116206500Y-145794999I0J-249999D01*
G01*
X116206500Y-146495001D01*
G75*
G02*
X115956501Y-146745000I-249999J0D01*
G01*
G37*
%TD*%
%TO.C,R_RGB_G1*%
G36*
G01*
X118115501Y-146745000D02*
X117215499Y-146745000D01*
G75*
G02*
X116965500Y-146495001I0J249999D01*
G01*
X116965500Y-145794999D01*
G75*
G02*
X117215499Y-145545000I249999J0D01*
G01*
X118115501Y-145545000D01*
G75*
G02*
X118365500Y-145794999I0J-249999D01*
G01*
X118365500Y-146495001D01*
G75*
G02*
X118115501Y-146745000I-249999J0D01*
G01*
G37*
G36*
G01*
X118115501Y-144745000D02*
X117215499Y-144745000D01*
G75*
G02*
X116965500Y-144495001I0J249999D01*
G01*
X116965500Y-143794999D01*
G75*
G02*
X117215499Y-143545000I249999J0D01*
G01*
X118115501Y-143545000D01*
G75*
G02*
X118365500Y-143794999I0J-249999D01*
G01*
X118365500Y-144495001D01*
G75*
G02*
X118115501Y-144745000I-249999J0D01*
G01*
G37*
%TD*%
%TO.C,R_RGB_R1*%
G36*
G01*
X120274501Y-144745000D02*
X119374499Y-144745000D01*
G75*
G02*
X119124500Y-144495001I0J249999D01*
G01*
X119124500Y-143794999D01*
G75*
G02*
X119374499Y-143545000I249999J0D01*
G01*
X120274501Y-143545000D01*
G75*
G02*
X120524500Y-143794999I0J-249999D01*
G01*
X120524500Y-144495001D01*
G75*
G02*
X120274501Y-144745000I-249999J0D01*
G01*
G37*
G36*
G01*
X120274501Y-146745000D02*
X119374499Y-146745000D01*
G75*
G02*
X119124500Y-146495001I0J249999D01*
G01*
X119124500Y-145794999D01*
G75*
G02*
X119374499Y-145545000I249999J0D01*
G01*
X120274501Y-145545000D01*
G75*
G02*
X120524500Y-145794999I0J-249999D01*
G01*
X120524500Y-146495001D01*
G75*
G02*
X120274501Y-146745000I-249999J0D01*
G01*
G37*
%TD*%
%TO.C,R_rLED1*%
G36*
G01*
X100066400Y-98609999D02*
X100066400Y-99510001D01*
G75*
G02*
X99816401Y-99760000I-249999J0D01*
G01*
X99116399Y-99760000D01*
G75*
G02*
X98866400Y-99510001I0J249999D01*
G01*
X98866400Y-98609999D01*
G75*
G02*
X99116399Y-98360000I249999J0D01*
G01*
X99816401Y-98360000D01*
G75*
G02*
X100066400Y-98609999I0J-249999D01*
G01*
G37*
G36*
G01*
X98066400Y-98609999D02*
X98066400Y-99510001D01*
G75*
G02*
X97816401Y-99760000I-249999J0D01*
G01*
X97116399Y-99760000D01*
G75*
G02*
X96866400Y-99510001I0J249999D01*
G01*
X96866400Y-98609999D01*
G75*
G02*
X97116399Y-98360000I249999J0D01*
G01*
X97816401Y-98360000D01*
G75*
G02*
X98066400Y-98609999I0J-249999D01*
G01*
G37*
%TD*%
%TO.C,R_rLed1*%
G36*
G01*
X124780500Y-100208501D02*
X124780500Y-99308499D01*
G75*
G02*
X125030499Y-99058500I249999J0D01*
G01*
X125730501Y-99058500D01*
G75*
G02*
X125980500Y-99308499I0J-249999D01*
G01*
X125980500Y-100208501D01*
G75*
G02*
X125730501Y-100458500I-249999J0D01*
G01*
X125030499Y-100458500D01*
G75*
G02*
X124780500Y-100208501I0J249999D01*
G01*
G37*
G36*
G01*
X122780500Y-100208501D02*
X122780500Y-99308499D01*
G75*
G02*
X123030499Y-99058500I249999J0D01*
G01*
X123730501Y-99058500D01*
G75*
G02*
X123980500Y-99308499I0J-249999D01*
G01*
X123980500Y-100208501D01*
G75*
G02*
X123730501Y-100458500I-249999J0D01*
G01*
X123030499Y-100458500D01*
G75*
G02*
X122780500Y-100208501I0J249999D01*
G01*
G37*
%TD*%
%TO.C,Rd1*%
G36*
G01*
X100197499Y-132464500D02*
X101097501Y-132464500D01*
G75*
G02*
X101347500Y-132714499I0J-249999D01*
G01*
X101347500Y-133414501D01*
G75*
G02*
X101097501Y-133664500I-249999J0D01*
G01*
X100197499Y-133664500D01*
G75*
G02*
X99947500Y-133414501I0J249999D01*
G01*
X99947500Y-132714499D01*
G75*
G02*
X100197499Y-132464500I249999J0D01*
G01*
G37*
G36*
G01*
X100197499Y-134464500D02*
X101097501Y-134464500D01*
G75*
G02*
X101347500Y-134714499I0J-249999D01*
G01*
X101347500Y-135414501D01*
G75*
G02*
X101097501Y-135664500I-249999J0D01*
G01*
X100197499Y-135664500D01*
G75*
G02*
X99947500Y-135414501I0J249999D01*
G01*
X99947500Y-134714499D01*
G75*
G02*
X100197499Y-134464500I249999J0D01*
G01*
G37*
%TD*%
%TO.C,Rd2*%
G36*
G01*
X92323499Y-132464500D02*
X93223501Y-132464500D01*
G75*
G02*
X93473500Y-132714499I0J-249999D01*
G01*
X93473500Y-133414501D01*
G75*
G02*
X93223501Y-133664500I-249999J0D01*
G01*
X92323499Y-133664500D01*
G75*
G02*
X92073500Y-133414501I0J249999D01*
G01*
X92073500Y-132714499D01*
G75*
G02*
X92323499Y-132464500I249999J0D01*
G01*
G37*
G36*
G01*
X92323499Y-134464500D02*
X93223501Y-134464500D01*
G75*
G02*
X93473500Y-134714499I0J-249999D01*
G01*
X93473500Y-135414501D01*
G75*
G02*
X93223501Y-135664500I-249999J0D01*
G01*
X92323499Y-135664500D01*
G75*
G02*
X92073500Y-135414501I0J249999D01*
G01*
X92073500Y-134714499D01*
G75*
G02*
X92323499Y-134464500I249999J0D01*
G01*
G37*
%TD*%
%TO.C,Rd3*%
G36*
G01*
X84449499Y-132464500D02*
X85349501Y-132464500D01*
G75*
G02*
X85599500Y-132714499I0J-249999D01*
G01*
X85599500Y-133414501D01*
G75*
G02*
X85349501Y-133664500I-249999J0D01*
G01*
X84449499Y-133664500D01*
G75*
G02*
X84199500Y-133414501I0J249999D01*
G01*
X84199500Y-132714499D01*
G75*
G02*
X84449499Y-132464500I249999J0D01*
G01*
G37*
G36*
G01*
X84449499Y-134464500D02*
X85349501Y-134464500D01*
G75*
G02*
X85599500Y-134714499I0J-249999D01*
G01*
X85599500Y-135414501D01*
G75*
G02*
X85349501Y-135664500I-249999J0D01*
G01*
X84449499Y-135664500D01*
G75*
G02*
X84199500Y-135414501I0J249999D01*
G01*
X84199500Y-134714499D01*
G75*
G02*
X84449499Y-134464500I249999J0D01*
G01*
G37*
%TD*%
%TO.C,Rd4*%
G36*
G01*
X76575499Y-134464500D02*
X77475501Y-134464500D01*
G75*
G02*
X77725500Y-134714499I0J-249999D01*
G01*
X77725500Y-135414501D01*
G75*
G02*
X77475501Y-135664500I-249999J0D01*
G01*
X76575499Y-135664500D01*
G75*
G02*
X76325500Y-135414501I0J249999D01*
G01*
X76325500Y-134714499D01*
G75*
G02*
X76575499Y-134464500I249999J0D01*
G01*
G37*
G36*
G01*
X76575499Y-132464500D02*
X77475501Y-132464500D01*
G75*
G02*
X77725500Y-132714499I0J-249999D01*
G01*
X77725500Y-133414501D01*
G75*
G02*
X77475501Y-133664500I-249999J0D01*
G01*
X76575499Y-133664500D01*
G75*
G02*
X76325500Y-133414501I0J249999D01*
G01*
X76325500Y-132714499D01*
G75*
G02*
X76575499Y-132464500I249999J0D01*
G01*
G37*
%TD*%
%TO.C,Ren1*%
G36*
G01*
X140147600Y-125991199D02*
X140147600Y-126891201D01*
G75*
G02*
X139897601Y-127141200I-249999J0D01*
G01*
X139197599Y-127141200D01*
G75*
G02*
X138947600Y-126891201I0J249999D01*
G01*
X138947600Y-125991199D01*
G75*
G02*
X139197599Y-125741200I249999J0D01*
G01*
X139897601Y-125741200D01*
G75*
G02*
X140147600Y-125991199I0J-249999D01*
G01*
G37*
G36*
G01*
X142147600Y-125991199D02*
X142147600Y-126891201D01*
G75*
G02*
X141897601Y-127141200I-249999J0D01*
G01*
X141197599Y-127141200D01*
G75*
G02*
X140947600Y-126891201I0J249999D01*
G01*
X140947600Y-125991199D01*
G75*
G02*
X141197599Y-125741200I249999J0D01*
G01*
X141897601Y-125741200D01*
G75*
G02*
X142147600Y-125991199I0J-249999D01*
G01*
G37*
%TD*%
%TO.C,rLED1*%
G36*
G01*
X100041400Y-96196999D02*
X100041400Y-97097001D01*
G75*
G02*
X99791401Y-97347000I-249999J0D01*
G01*
X99141399Y-97347000D01*
G75*
G02*
X98891400Y-97097001I0J249999D01*
G01*
X98891400Y-96196999D01*
G75*
G02*
X99141399Y-95947000I249999J0D01*
G01*
X99791401Y-95947000D01*
G75*
G02*
X100041400Y-96196999I0J-249999D01*
G01*
G37*
G36*
G01*
X97991400Y-96196999D02*
X97991400Y-97097001D01*
G75*
G02*
X97741401Y-97347000I-249999J0D01*
G01*
X97091399Y-97347000D01*
G75*
G02*
X96841400Y-97097001I0J249999D01*
G01*
X96841400Y-96196999D01*
G75*
G02*
X97091399Y-95947000I249999J0D01*
G01*
X97741401Y-95947000D01*
G75*
G02*
X97991400Y-96196999I0J-249999D01*
G01*
G37*
%TD*%
%TO.C,Rogers1*%
G36*
G01*
X133576000Y-109368500D02*
X133576000Y-110468500D01*
G75*
G02*
X133326000Y-110718500I-250000J0D01*
G01*
X130326000Y-110718500D01*
G75*
G02*
X130076000Y-110468500I0J250000D01*
G01*
X130076000Y-109368500D01*
G75*
G02*
X130326000Y-109118500I250000J0D01*
G01*
X133326000Y-109118500D01*
G75*
G02*
X133576000Y-109368500I0J-250000D01*
G01*
G37*
G36*
G01*
X139176000Y-109368500D02*
X139176000Y-110468500D01*
G75*
G02*
X138926000Y-110718500I-250000J0D01*
G01*
X135926000Y-110718500D01*
G75*
G02*
X135676000Y-110468500I0J250000D01*
G01*
X135676000Y-109368500D01*
G75*
G02*
X135926000Y-109118500I250000J0D01*
G01*
X138926000Y-109118500D01*
G75*
G02*
X139176000Y-109368500I0J-250000D01*
G01*
G37*
%TD*%
%TO.C,Rpd1*%
G36*
G01*
X98684501Y-133664500D02*
X97784499Y-133664500D01*
G75*
G02*
X97534500Y-133414501I0J249999D01*
G01*
X97534500Y-132714499D01*
G75*
G02*
X97784499Y-132464500I249999J0D01*
G01*
X98684501Y-132464500D01*
G75*
G02*
X98934500Y-132714499I0J-249999D01*
G01*
X98934500Y-133414501D01*
G75*
G02*
X98684501Y-133664500I-249999J0D01*
G01*
G37*
G36*
G01*
X98684501Y-135664500D02*
X97784499Y-135664500D01*
G75*
G02*
X97534500Y-135414501I0J249999D01*
G01*
X97534500Y-134714499D01*
G75*
G02*
X97784499Y-134464500I249999J0D01*
G01*
X98684501Y-134464500D01*
G75*
G02*
X98934500Y-134714499I0J-249999D01*
G01*
X98934500Y-135414501D01*
G75*
G02*
X98684501Y-135664500I-249999J0D01*
G01*
G37*
%TD*%
%TO.C,Rpd2*%
G36*
G01*
X90810501Y-135664500D02*
X89910499Y-135664500D01*
G75*
G02*
X89660500Y-135414501I0J249999D01*
G01*
X89660500Y-134714499D01*
G75*
G02*
X89910499Y-134464500I249999J0D01*
G01*
X90810501Y-134464500D01*
G75*
G02*
X91060500Y-134714499I0J-249999D01*
G01*
X91060500Y-135414501D01*
G75*
G02*
X90810501Y-135664500I-249999J0D01*
G01*
G37*
G36*
G01*
X90810501Y-133664500D02*
X89910499Y-133664500D01*
G75*
G02*
X89660500Y-133414501I0J249999D01*
G01*
X89660500Y-132714499D01*
G75*
G02*
X89910499Y-132464500I249999J0D01*
G01*
X90810501Y-132464500D01*
G75*
G02*
X91060500Y-132714499I0J-249999D01*
G01*
X91060500Y-133414501D01*
G75*
G02*
X90810501Y-133664500I-249999J0D01*
G01*
G37*
%TD*%
%TO.C,Rpd3*%
G36*
G01*
X82936501Y-135664500D02*
X82036499Y-135664500D01*
G75*
G02*
X81786500Y-135414501I0J249999D01*
G01*
X81786500Y-134714499D01*
G75*
G02*
X82036499Y-134464500I249999J0D01*
G01*
X82936501Y-134464500D01*
G75*
G02*
X83186500Y-134714499I0J-249999D01*
G01*
X83186500Y-135414501D01*
G75*
G02*
X82936501Y-135664500I-249999J0D01*
G01*
G37*
G36*
G01*
X82936501Y-133664500D02*
X82036499Y-133664500D01*
G75*
G02*
X81786500Y-133414501I0J249999D01*
G01*
X81786500Y-132714499D01*
G75*
G02*
X82036499Y-132464500I249999J0D01*
G01*
X82936501Y-132464500D01*
G75*
G02*
X83186500Y-132714499I0J-249999D01*
G01*
X83186500Y-133414501D01*
G75*
G02*
X82936501Y-133664500I-249999J0D01*
G01*
G37*
%TD*%
%TO.C,Rpd4*%
G36*
G01*
X75062501Y-135664500D02*
X74162499Y-135664500D01*
G75*
G02*
X73912500Y-135414501I0J249999D01*
G01*
X73912500Y-134714499D01*
G75*
G02*
X74162499Y-134464500I249999J0D01*
G01*
X75062501Y-134464500D01*
G75*
G02*
X75312500Y-134714499I0J-249999D01*
G01*
X75312500Y-135414501D01*
G75*
G02*
X75062501Y-135664500I-249999J0D01*
G01*
G37*
G36*
G01*
X75062501Y-133664500D02*
X74162499Y-133664500D01*
G75*
G02*
X73912500Y-133414501I0J249999D01*
G01*
X73912500Y-132714499D01*
G75*
G02*
X74162499Y-132464500I249999J0D01*
G01*
X75062501Y-132464500D01*
G75*
G02*
X75312500Y-132714499I0J-249999D01*
G01*
X75312500Y-133414501D01*
G75*
G02*
X75062501Y-133664500I-249999J0D01*
G01*
G37*
%TD*%
%TO.C,Steve1*%
G36*
G01*
X118836500Y-110468500D02*
X118836500Y-109368500D01*
G75*
G02*
X119086500Y-109118500I250000J0D01*
G01*
X122086500Y-109118500D01*
G75*
G02*
X122336500Y-109368500I0J-250000D01*
G01*
X122336500Y-110468500D01*
G75*
G02*
X122086500Y-110718500I-250000J0D01*
G01*
X119086500Y-110718500D01*
G75*
G02*
X118836500Y-110468500I0J250000D01*
G01*
G37*
G36*
G01*
X124436500Y-110468500D02*
X124436500Y-109368500D01*
G75*
G02*
X124686500Y-109118500I250000J0D01*
G01*
X127686500Y-109118500D01*
G75*
G02*
X127936500Y-109368500I0J-250000D01*
G01*
X127936500Y-110468500D01*
G75*
G02*
X127686500Y-110718500I-250000J0D01*
G01*
X124686500Y-110718500D01*
G75*
G02*
X124436500Y-110468500I0J250000D01*
G01*
G37*
%TD*%
D17*
%TO.C,U1*%
X142423500Y-138954000D03*
D18*
X149923500Y-131454000D03*
X148653500Y-131454000D03*
X147383500Y-131454000D03*
X146113500Y-131454000D03*
X144843500Y-131454000D03*
X143573500Y-131454000D03*
X142303500Y-131454000D03*
X141033500Y-131454000D03*
X139763500Y-131454000D03*
X138493500Y-131454000D03*
X137223500Y-131454000D03*
X135953500Y-131454000D03*
X134683500Y-131454000D03*
X133413500Y-131454000D03*
D19*
X132413500Y-134239000D03*
X132413500Y-135509000D03*
X132413500Y-136779000D03*
X132413500Y-138049000D03*
X132413500Y-139319000D03*
X132413500Y-140589000D03*
X132413500Y-141859000D03*
X132413500Y-143129000D03*
X132413500Y-144399000D03*
X132413500Y-145669000D03*
D18*
X133413500Y-148454000D03*
X134683500Y-148454000D03*
X135953500Y-148454000D03*
X137223500Y-148454000D03*
X138493500Y-148454000D03*
X139763500Y-148454000D03*
X141033500Y-148454000D03*
X142303500Y-148454000D03*
X143573500Y-148454000D03*
X144843500Y-148454000D03*
X146113500Y-148454000D03*
X147383500Y-148454000D03*
X148653500Y-148454000D03*
X149923500Y-148454000D03*
%TD*%
M02*
