M48
; DRILL file {KiCad (5.1.10-1-10_14)} date Wednesday, December 15, 2021 at 10:14:48 AM
; FORMAT={-:-/ absolute / inch / decimal}
; #@! TF.CreationDate,2021-12-15T10:14:48-05:00
; #@! TF.GenerationSoftware,Kicad,Pcbnew,(5.1.10-1-10_14)
; #@! TF.FileFunction,Plated,1,2,PTH
FMAT,2
INCH
T1C0.0157
T2C0.0236
T3C0.0354
T4C0.0374
T5C0.0394
T6C0.0528
T7C0.0551
T8C0.1024
%
G90
G05
T1
X2.7853Y-3.773
X2.7853Y-3.8045
X2.7853Y-3.836
X2.7853Y-3.899
X2.7853Y-3.9305
X2.7853Y-3.962
X2.8025Y-5.16
X2.8129Y-3.7573
X2.8129Y-3.7888
X2.8129Y-3.8203
X2.8129Y-3.8518
X2.8129Y-3.8832
X2.8129Y-3.9147
X2.8129Y-3.9462
X2.8129Y-3.9777
X3.07Y-3.895
X3.1272Y-5.2388
X3.4352Y-5.2388
X3.68Y-4.62
X3.695Y-4.075
X3.7512Y-5.2388
X4.0592Y-5.2388
X4.445Y-4.843
X4.5475Y-5.8255
X4.6325Y-5.8255
X4.65Y-4.104
X4.7175Y-5.8255
X4.96Y-6.0125
X5.132Y-5.844
X5.284Y-4.59
X5.35Y-5.754
X5.4Y-5.708
X5.4025Y-5.0745
X5.452Y-5.668
X5.504Y-5.63
X5.648Y-3.996
X5.695Y-6.025
X5.702Y-5.734
X5.75Y-5.698
X5.826Y-4.762
X5.983Y-4.205
X6.05Y-4.656
T2
X2.98Y-4.015
X3.0725Y-3.7425
X3.1475Y-5.0575
X3.4575Y-5.0525
X3.7025Y-6.0975
X3.77Y-5.06
X4.09Y-6.055
T3
X4.548Y-5.976
X4.633Y-5.976
X4.718Y-5.976
X4.803Y-5.976
T4
X5.8231Y-4.0
X5.9216Y-4.0
X6.02Y-4.0
T5
X4.325Y-5.0075
X4.6242Y-5.0075
T6
X2.5814Y-3.6994
X2.5814Y-4.0356
X2.7676Y-3.6994
X2.7676Y-4.0356
T7
X4.3375Y-3.9225
X4.65Y-3.92
T8
X2.65Y-6.16
X4.11Y-3.77
X5.87Y-6.15
X6.01Y-3.71
T0
M30
