<?xml version="1.0" encoding="UTF-8"?>
<!DOCTYPE svg PUBLIC "-//W3C//DTD SVG 1.1//EN" "http://www.w3.org/Graphics/SVG/1.1/DTD/svg11.dtd">
<!-- Creator: CorelDRAW 2021.5 (Versión de evaluación) -->
<svg xmlns="http://www.w3.org/2000/svg" xml:space="preserve" width="215.9mm" height="279.4mm" version="1.1" style="shape-rendering:geometricPrecision; text-rendering:geometricPrecision; image-rendering:optimizeQuality; fill-rule:evenodd; clip-rule:evenodd"
viewBox="0 0 21590 27940"
 xmlns:xlink="http://www.w3.org/1999/xlink"
 xmlns:xodm="http://www.corel.com/coreldraw/odm/2003">
 <defs>
  <style type="text/css">
   <![CDATA[
    .str0 {stroke:black;stroke-width:7.62;stroke-miterlimit:22.9256}
    .fil0 {fill:none}
   ]]>
  </style>
 </defs>
 <g id="Capa_x0020_1">
  <metadata id="CorelCorpID_0Corel-Layer"/>
  <polygon class="fil0 str0" points="3320.85,808.04 4428.57,808.04 4428.57,546.26 5536.28,546.26 5536.28,808.04 6644,808.04 6644,546.26 7751.72,546.26 7751.72,808.04 8859.44,808.04 8859.44,546.26 9967.16,546.26 9967.16,808.04 11074.88,808.04 11074.88,546.26 12182.6,546.26 12182.6,808.04 12183.21,808.04 12183.21,808.08 12443.17,808.08 12443.17,1830.41 12183.21,1830.41 12183.21,2852.76 12443.17,2852.76 12443.17,3875.09 12183.21,3875.09 12183.21,4897.43 12443.17,4897.43 12443.17,5919.76 12183.21,5919.76 12183.21,6942.11 12443.17,6942.11 12443.17,7964.44 12183.21,7964.44 12182.6,7964.44 12182.6,8226.26 11074.88,8226.26 11074.88,7964.44 9967.16,7964.44 9967.16,8226.26 8859.44,8226.26 8859.44,7964.44 7751.72,7964.44 7751.72,8226.26 6644,8226.26 6644,7964.44 5536.28,7964.44 5536.28,8226.26 4428.57,8226.26 4428.57,7964.44 3320.85,7964.44 3320.85,8226.26 2213.13,8226.26 2213.13,7964.44 1953.17,7964.44 1953.17,6942.11 2213.13,6942.11 2213.13,5919.76 1953.17,5919.76 1953.17,4897.43 2213.13,4897.43 2213.13,3875.09 1953.17,3875.09 1953.17,2852.76 2213.13,2852.76 2213.13,1830.41 1953.17,1830.41 1953.17,808.08 2213.13,808.08 2213.13,808.04 2213.13,546.26 3320.85,546.26 "/>
  <path class="fil0 str0" d="M3316.66 8668.89l1107.72 0 0 -261.78 1107.71 0 0 261.78 1107.72 0 0 -261.78 1107.72 0 0 261.78 1107.72 0 0 -261.78 1107.72 0 0 261.78 1107.72 0 0 -261.78 1107.72 0 0 261.78 0.61 0 0 0.04 259.96 0 0 1022.33 -259.96 0 0 1022.35 259.96 0 0 1022.33 -259.96 0 0 1022.34 259.96 0 0 1022.33 -259.96 0 0 1022.35 259.96 0 0 1022.33 -259.96 0 -0.61 0 0 250 0 11.82 -1107.72 0 0 -261.82 -1107.72 0 0 261.82 -1107.72 0 0 -261.82 -1107.72 0 0 261.82 -1107.72 0 0 -261.82 -1107.72 0 0 261.82 -1107.71 0 0 -261.82 -1107.72 0 0 261.82 -1097.83 0 -9.89 0 0 -11.82 0 11.82 0 -11.82 0 -250 -250 0 -9.96 0 9.96 0 -9.96 0 0 -9.93 0 -1012.4 259.96 0 0 -1022.35 -259.96 0 0 -1022.33 259.96 0 0 -1022.34 -259.96 0 0 -1022.33 259.96 0 0 -1022.35 -259.96 0 0 -1022.33 259.96 0 0 -0.04 0 -261.78 1107.72 0 0 261.78zm7583.23 1936.36l820 0 0 1600 -820 0 0 -1600zm-4324.98 3813.18c165.68,0 300,134.32 300,300 0,165.68 -134.32,300 -300,300 -165.68,0 -300,-134.32 -300,-300 0,-165.68 134.32,-300 300,-300zm-1124.72 0c165.68,0 300,134.32 300,300 0,165.68 -134.32,300 -300,300 -165.68,0 -300,-134.32 -300,-300 0,-165.68 134.32,-300 300,-300zm-1120.59 0c165.68,0 300,134.32 300,300 0,165.68 -134.32,300 -300,300 -165.68,0 -300,-134.32 -300,-300 0,-165.68 134.32,-300 300,-300zm-1125.15 0c165.68,0 300,134.32 300,300 0,165.68 -134.32,300 -300,300 -165.68,0 -300,-134.32 -300,-300 0,-165.68 134.32,-300 300,-300zm4718.17 -2398.1l99 0 0 843.99 -99 0 0 -843.99zm-198 0l99 0 0 843.99 -99 0 0 -843.99zm-198 0l99 0 0 843.99 -99 0 0 -843.99zm-198 0l99 0 0 843.99 -99 0 0 -843.99zm-198 0l99 0 0 843.99 -99 0 0 -843.99zm4751.22 -1941.58l-1111.39 0 0 -694.31 1111.39 0 0 694.31zm-3206.73 -366.65c84.46,0 152.92,68.96 152.92,154.01 0,85.06 -68.46,154.01 -152.92,154.01 -84.45,0 -152.91,-68.95 -152.91,-154.01 0,-85.05 68.46,-154.01 152.91,-154.01zm578.39 2290.82c84.46,0 152.92,68.96 152.92,154.01 0,85.05 -68.46,154.01 -152.92,154.01 -84.46,0 -152.91,-68.96 -152.91,-154.01 0,-85.05 68.45,-154.01 152.91,-154.01zm-765.99 0c84.46,0 152.91,68.96 152.91,154.01 0,85.05 -68.45,154.01 -152.91,154.01 -84.46,0 -152.92,-68.96 -152.92,-154.01 0,-85.05 68.46,-154.01 152.92,-154.01zm-2457.52 -2123.55c84.46,0 152.92,68.96 152.92,154.01 0,85.05 -68.46,154.01 -152.92,154.01 -84.46,0 -152.91,-68.96 -152.91,-154.01 0,-85.05 68.45,-154.01 152.91,-154.01zm0 -757.18c84.46,0 152.92,68.95 152.92,154.01 0,85.05 -68.46,154.01 -152.92,154.01 -84.46,0 -152.91,-68.96 -152.91,-154.01 0,-85.06 68.45,-154.01 152.91,-154.01zm-2916.89 4965.6l3619 0 0 -3490.92 -3619 0 0 3490.92zm4912.72 1145.51c138.07,0 250,-111.92 250,-249.99 0,-138.08 -111.93,-250.01 -250,-250.01 -138.07,0 -250,111.93 -250,250.01 0,138.07 111.93,249.99 250,249.99z"/>
  <path class="fil0 str0" d="M2208.33 17634.1l1108 0 0 -263 1108 0 0 263 1108 0 0 -263 1108 0 0 263 1108 0 0 -263 1108 0 0 263 1108 0 0 -263 1108 0 0 263 1106.08 0 262 0 0 1200 -262 0 0 1200 262 0 0 1200 -262 0 -1106.08 0 0 263 -1108 0 0 -263 -1108 0 0 263 -1108 0 0 -263 -1108 0 0 263 -1108 0 0 -263 -1108 0 0 263 -1108 0 0 -263 -1108 0 -262 0 0 -1200 262 0 0 -1200 -262 0 0 -1200 262 0zm4257.4 383.03l1450 0 0 850 -1450 0 0 -850z"/>
  <polygon class="fil0 str0" points="2208.33,22021.98 3316.33,22021.98 3316.33,21758.98 4424.33,21758.98 4424.33,22021.98 5532.33,22021.98 5532.33,21758.98 6640.33,21758.98 6640.33,22021.98 7748.33,22021.98 7748.33,21758.98 8856.33,21758.98 8856.33,22021.98 9964.33,22021.98 9964.33,21758.98 11072.33,21758.98 11072.33,22021.98 12178.41,22021.98 12440.41,22021.98 12440.41,23221.98 12178.41,23221.98 12178.41,24421.98 12440.41,24421.98 12440.41,25621.98 12178.41,25621.98 11072.33,25621.98 11072.33,25884.98 9964.33,25884.98 9964.33,25621.98 8856.33,25621.98 8856.33,25884.98 7748.33,25884.98 7748.33,25621.98 6640.33,25621.98 6640.33,25884.98 5532.33,25884.98 5532.33,25621.98 4424.33,25621.98 4424.33,25884.98 3316.33,25884.98 3316.33,25621.98 2208.33,25621.98 1946.33,25621.98 1946.33,24421.98 2208.33,24421.98 2208.33,23221.98 1946.33,23221.98 1946.33,22021.98 "/>
  <polygon class="fil0 str0" points="14276.08,824.02 15476.08,824.02 15476.08,562.02 16676.08,562.02 16676.08,824.02 17876.08,824.02 17876.08,1846.02 18138.08,1846.02 18138.08,2868.02 17876.08,2868.02 17876.08,3890.02 18138.08,3890.02 18138.08,4912.02 17876.08,4912.02 17876.08,5934.02 18138.08,5934.02 18138.08,6956.02 17876.08,6956.02 17876.08,7980.02 16676.08,7980.02 16676.08,8242.02 15476.08,8242.02 15476.08,7980.02 14276.08,7980.02 14276.08,6956.02 14014.08,6956.02 14014.08,5934.02 14276.08,5934.02 14276.08,4912.02 14014.08,4912.02 14014.08,3890.02 14276.08,3890.02 14276.08,2868.02 14014.08,2868.02 14014.08,1846.02 14276.08,1846.02 "/>
  <path class="fil0 str0" d="M14269.57 8668.89l1200 0 0 -262 1200 0 0 262 1200 0 0 1022 262 0 0 1022 -262 0 0 1022 262 0 0 1022 -262 0 0 1022 262 0 0 1022 -262 0 0 1024 -1200 0 0 262 -1200 0 0 -262 -1200 0 0 -1024 -262 0 0 -1022 262 0 0 -1022 -262 0 0 -1022 262 0 0 -1022 -262 0 0 -1022 262 0 0 -1022zm1969.19 99.96l900 0 0 1300 -900 0 0 -1300z"/>
 </g>
</svg>
